<?xml version="1.0" standalone="no"?>
<!DOCTYPE svg PUBLIC "-//W3C//DTD SVG 20010904//EN"
 "http://www.w3.org/TR/2001/REC-SVG-20010904/DTD/svg10.dtd">
<svg version="1.0" xmlns="http://www.w3.org/2000/svg"
 width="260.000000pt" height="260.000000pt" viewBox="0 0 260.000000 260.000000"
 preserveAspectRatio="xMidYMid meet">
<metadata>
Created by potrace 1.14, written by Peter Selinger 2001-2017
</metadata>
<g transform="translate(0.000000,260.000000) scale(0.100000,-0.100000)"
fill="#000000" stroke="none">
<path d="M1362 2480 c-87 -44 -193 -161 -207 -228 -2 -9 -7 -28 -13 -42 -14
-38 -15 -170 -1 -226 56 -228 255 -295 417 -141 128 121 159 379 65 531 -78
127 -156 158 -261 106z"/>
<path d="M633 2094 c-65 -33 -89 -184 -44 -277 62 -128 191 -193 283 -144 106
57 102 240 -6 350 -71 71 -171 102 -233 71z"/>
<path d="M1762 1954 c-107 -32 -195 -137 -196 -236 -1 -58 23 -94 83 -125 106
-54 278 21 335 147 28 62 30 142 5 174 -35 44 -146 64 -227 40z"/>
<path d="M1071 1878 c-56 -20 -96 -98 -89 -171 5 -48 35 -117 51 -117 6 0 8
-2 5 -5 -3 -3 -21 3 -39 13 -86 50 -172 33 -206 -39 -26 -54 -26 -167 0 -219
47 -97 136 -163 218 -163 61 -1 95 22 127 83 40 80 14 198 -61 278 -33 34 -32
37 5 23 29 -11 75 6 108 40 l24 24 -16 -26 c-16 -24 -41 -102 -41 -124 1 -42
14 -108 27 -134 46 -88 173 -95 258 -14 102 98 113 302 20 386 -46 42 -133 22
-210 -47 -46 -42 -56 -45 -41 -12 7 15 9 46 5 80 -6 44 -15 63 -46 99 -44 49
-64 58 -99 45z"/>
<path d="M247 1785 c-101 -20 -213 -96 -238 -162 -18 -48 9 -143 59 -205 104
-130 211 -179 378 -173 186 7 294 91 297 234 4 200 -249 356 -496 306z"/>
<path d="M2120 1661 c-214 -69 -318 -225 -246 -371 23 -49 35 -62 84 -98 121
-87 329 -83 471 7 131 85 198 216 155 306 -22 48 -136 137 -191 150 -10 3 -36
9 -58 14 -60 16 -153 12 -215 -8z"/>
<path d="M1624 1450 c-18 -4 -48 -17 -67 -29 -130 -80 -60 -230 96 -207 79 12
157 84 157 147 0 59 -101 108 -186 89z"/>
<path d="M1322 1244 c-114 -68 -115 -267 -1 -384 48 -50 117 -81 156 -71 94
25 149 195 102 315 -54 137 -163 196 -257 140z"/>
<path d="M720 1238 c-112 -30 -181 -167 -110 -220 32 -23 99 -32 148 -19 49
14 106 66 123 112 31 89 -54 156 -161 127z"/>
<path d="M267 1189 c-103 -24 -197 -118 -197 -198 0 -70 124 -151 231 -151 81
0 185 52 227 114 53 78 16 183 -78 224 -42 18 -131 23 -183 11z"/>
<path d="M1015 1162 c-106 -37 -187 -156 -188 -272 0 -131 60 -177 187 -144
56 15 136 66 152 98 6 11 19 35 28 53 9 17 22 56 28 85 10 47 9 59 -10 100
-11 25 -32 54 -47 64 -28 18 -116 28 -150 16z"/>
<path d="M1718 1138 c-80 -46 -90 -167 -22 -260 116 -158 378 -163 385 -8 4
72 -35 163 -89 211 -81 71 -204 97 -274 57z"/>
<path d="M495 861 c-197 -77 -313 -299 -269 -516 19 -90 78 -146 157 -147 170
-3 318 90 392 247 76 161 65 300 -29 383 -60 53 -165 66 -251 33z"/>
<path d="M1209 859 c-33 -12 -70 -78 -74 -131 -6 -84 46 -171 111 -184 61 -12
126 75 126 166 -1 110 -78 180 -163 149z"/>
<path d="M1510 775 c-190 -86 -192 -381 -4 -562 106 -102 260 -149 349 -107
66 31 114 152 109 274 -1 36 -3 65 -4 65 -1 0 -3 10 -6 22 -11 62 -60 140
-131 210 -40 40 -77 72 -81 71 -4 -1 -23 6 -42 16 -47 25 -145 31 -190 11z"/>
<path d="M937 629 c-78 -41 -134 -161 -124 -265 9 -96 80 -194 139 -194 62 0
162 81 197 159 27 61 24 179 -5 236 -42 80 -126 107 -207 64z"/>
</g>
</svg>
