<?xml version="1.0" encoding="utf-8"?>
<!-- Generator: Adobe Illustrator 26.3.1, SVG Export Plug-In . SVG Version: 6.00 Build 0)  -->
<svg version="1.1" id="Calque_1" xmlns="http://www.w3.org/2000/svg" xmlns:xlink="http://www.w3.org/1999/xlink" x="0px" y="0px"
	 viewBox="0 0 439.4 198.4" style="enable-background:new 0 0 439.4 198.4;" xml:space="preserve">
<style type="text/css">
	.st0{clip-path:url(#SVGID_00000121268613853712244410000015982961471070408379_);fill:#6A2875;}
	.st1{clip-path:url(#SVGID_00000088111220476050517520000017207907149342067117_);fill:#FFBF00;}
	.st2{clip-path:url(#SVGID_00000049929851981729918700000003539931917342146214_);fill:#01A0C6;}
	.st3{clip-path:url(#SVGID_00000012443859284228759480000009300850712606520476_);fill:#FFBF00;}
	.st4{clip-path:url(#SVGID_00000083780471428109767130000000889723384214008251_);fill:#F6437F;}
	.st5{clip-path:url(#SVGID_00000075135300923534740750000009406336221821577638_);fill:#01A0C6;}
	.st6{clip-path:url(#SVGID_00000008144210340630315390000011989740633949692817_);fill:#F6437F;}
	.st7{clip-path:url(#SVGID_00000034081503405128837330000017231828324232442251_);fill:#F6437F;}
	.st8{clip-path:url(#SVGID_00000072282484259597280530000005069215546902303152_);fill:#01A0C6;}
	.st9{clip-path:url(#SVGID_00000145766842806470695440000015852308734135240086_);fill:#6A2875;}
	.st10{clip-path:url(#SVGID_00000148634203386757748240000017736126800189811082_);fill:#FFBF00;}
	.st11{clip-path:url(#SVGID_00000176006156930163269970000015440211916236059579_);fill:#6A2875;}
	.st12{clip-path:url(#SVGID_00000093175480935338989810000009801641626097586355_);fill:#FFBF00;}
	.st13{clip-path:url(#SVGID_00000062901364206936433530000008234533675675793309_);fill:#01A0C6;}
	.st14{clip-path:url(#SVGID_00000119118593777308400490000009975181961354934153_);fill:#FFBF00;}
	.st15{clip-path:url(#SVGID_00000118397990495669345840000018127864951831816081_);fill:#01A0C6;}
	.st16{clip-path:url(#SVGID_00000034055511841919166110000003927417887207109819_);fill:#6A2875;}
	.st17{clip-path:url(#SVGID_00000012450493639377558690000002490594993534749865_);fill:#F6437F;}
	.st18{clip-path:url(#SVGID_00000088103148914889886470000009558659873760639925_);fill:#6A2875;}
	.st19{clip-path:url(#SVGID_00000128487402868632633550000006859627414270613939_);fill:#6A2875;}
	.st20{clip-path:url(#SVGID_00000073714943053365570850000016443146397730991789_);fill:#6A2875;}
	.st21{clip-path:url(#SVGID_00000155834771302385392030000013029923869791840391_);fill:#6A2875;}
	.st22{clip-path:url(#SVGID_00000027582216686641010980000017953874284183188404_);fill:#6A2875;}
	.st23{clip-path:url(#SVGID_00000086671005130508889730000007194933620984427420_);fill:#6A2875;}
	.st24{clip-path:url(#SVGID_00000170271255011724136280000014546994465209719991_);fill:#6A2875;}
	.st25{clip-path:url(#SVGID_00000096057286071340885080000004369010740729435265_);fill:#6A2875;}
	.st26{clip-path:url(#SVGID_00000031920463254605753930000008229835038388976531_);fill:#6A2875;}
	.st27{clip-path:url(#SVGID_00000120551350276464550780000006634622398440136862_);fill:#6A2875;}
	.st28{clip-path:url(#SVGID_00000125594167634821040210000004553090349431636898_);fill:#6A2875;}
	.st29{clip-path:url(#SVGID_00000034773858665860207690000009045441154839678897_);fill:#6A2875;}
	.st30{clip-path:url(#SVGID_00000122684372228290487640000001470395542627931021_);fill:#6A2875;}
	.st31{clip-path:url(#SVGID_00000080197677590867656090000000500354850006391187_);fill:#6A2875;}
	.st32{clip-path:url(#SVGID_00000099633677904827654190000009553806406351414959_);fill:#6A2875;}
	.st33{clip-path:url(#SVGID_00000144320951211287578110000007197837991405716868_);fill:#6A2875;}
	.st34{clip-path:url(#SVGID_00000033361934480352792250000003706637656439316159_);fill:#6A2875;}
	.st35{clip-path:url(#SVGID_00000154417012211297918680000018144779091983991959_);fill:#6A2875;}
	.st36{clip-path:url(#SVGID_00000062900317654476659090000008905334849737838768_);fill:#6A2875;}
	.st37{clip-path:url(#SVGID_00000052821344892554992800000010081993495085246879_);fill:#6A2875;}
	.st38{clip-path:url(#SVGID_00000081640718712244017340000014802360596179142294_);fill:#6A2875;}
	.st39{clip-path:url(#SVGID_00000104680183314750301020000016335079080750565021_);fill:#6A2875;}
	.st40{clip-path:url(#SVGID_00000183241696553234388610000015125033791902051253_);fill:#6A2875;}
	.st41{clip-path:url(#SVGID_00000026143167297631263850000003593197511218654115_);fill:#6A2875;}
	.st42{clip-path:url(#SVGID_00000101083991169470161580000000223045948189231538_);fill:#6A2875;}
	.st43{clip-path:url(#SVGID_00000131352482801359308940000002338786916292219816_);fill:#6A2875;}
	.st44{clip-path:url(#SVGID_00000148653079176163467540000004480975933281781164_);fill:#6A2875;}
	.st45{clip-path:url(#SVGID_00000056409114571836278620000016593869034832718208_);fill:#6A2875;}
	.st46{clip-path:url(#SVGID_00000155835344618868148720000017167960533517986470_);fill:#6A2875;}
	.st47{clip-path:url(#SVGID_00000057854698135626365070000005233460362612285630_);fill:#6A2875;}
	.st48{clip-path:url(#SVGID_00000039133712652296135190000002371575938406172298_);fill:#6A2875;}
	.st49{clip-path:url(#SVGID_00000024680567570940679160000003720143806113696687_);fill:#6A2875;}
	.st50{clip-path:url(#SVGID_00000064346599423129790460000009107847751609271482_);fill:#6A2875;}
	.st51{clip-path:url(#SVGID_00000063596577225753293880000008125882990548548233_);fill:#6A2875;}
	.st52{clip-path:url(#SVGID_00000018233424376739655930000007602678360701338030_);fill:#6A2875;}
	.st53{clip-path:url(#SVGID_00000022528849037599783890000005201119780820225156_);fill:#6A2875;}
	.st54{clip-path:url(#SVGID_00000165951577382640320190000004927178637243976075_);fill:#6A2875;}
	.st55{clip-path:url(#SVGID_00000062183191181801883610000017078284938839798200_);fill:#6A2875;}
	.st56{clip-path:url(#SVGID_00000036214081779990430060000009826367867178264765_);fill:#6A2875;}
	.st57{clip-path:url(#SVGID_00000114068753037704473640000009036604970586103706_);fill:#6A2875;}
	.st58{clip-path:url(#SVGID_00000060734636998855975370000017856476910865457538_);fill:#6A2875;}
	.st59{clip-path:url(#SVGID_00000180338304899868347640000012694381800509132944_);fill:#6A2875;}
	.st60{clip-path:url(#SVGID_00000110471676140691037500000016024024224970997692_);fill:#6A2875;}
	.st61{clip-path:url(#SVGID_00000005959801173127269660000004214152865481315000_);fill:#6A2875;}
	.st62{clip-path:url(#SVGID_00000114756110583487420080000015833774348263807117_);fill:#6A2875;}
	.st63{clip-path:url(#SVGID_00000047753765173532627280000007366029389391923844_);fill:#6A2875;}
	.st64{clip-path:url(#SVGID_00000032622297762727790710000009998273898603586953_);fill:#6A2875;}
	.st65{clip-path:url(#SVGID_00000077306490964536304780000010865158910290373010_);fill:#6A2875;}
	.st66{clip-path:url(#SVGID_00000007425873608826595590000016193795168580137365_);fill:#6A2875;}
	.st67{clip-path:url(#SVGID_00000021802044723970358950000004000869999702242717_);fill:#6A2875;}
	.st68{clip-path:url(#SVGID_00000155125870528530335340000010825847081925713805_);fill:#6A2875;}
	.st69{clip-path:url(#SVGID_00000082340333034809617380000008764692201639224244_);fill:#6A2875;}
	.st70{clip-path:url(#SVGID_00000175283912583056953400000002533172201295000246_);fill:#6A2875;}
	.st71{clip-path:url(#SVGID_00000110440746568155343890000004545418921101230467_);fill:#6A2875;}
	.st72{clip-path:url(#SVGID_00000004511067219533869850000016695586879431018655_);fill:#6A2875;}
	.st73{clip-path:url(#SVGID_00000160155386399578038040000002277718530823605689_);fill:#01A0C6;}
	.st74{clip-path:url(#SVGID_00000053530603276281507810000011159779374685214383_);fill:#01A0C6;}
	.st75{clip-path:url(#SVGID_00000031885755375189457340000004556220988169918650_);fill:#01A0C6;}
	.st76{clip-path:url(#SVGID_00000108282006303336238560000012688437899057069706_);fill:#01A0C6;}
	.st77{clip-path:url(#SVGID_00000078007820161859972050000000216562080311884945_);fill:#01A0C6;}
	.st78{clip-path:url(#SVGID_00000175301668576312505210000016345276568114451089_);fill:#01A0C6;}
	.st79{clip-path:url(#SVGID_00000003816450839602905730000015398490366548708275_);fill:#01A0C6;}
	.st80{clip-path:url(#SVGID_00000087389575722121980760000000933880768933762983_);fill:#01A0C6;}
	.st81{clip-path:url(#SVGID_00000178184734426516621820000010098380382912236203_);fill:#01A0C6;}
	.st82{clip-path:url(#SVGID_00000045585159809859414980000016617009617831216030_);fill:#01A0C6;}
	.st83{clip-path:url(#SVGID_00000149343142181973101440000006867667530288254115_);fill:#01A0C6;}
	.st84{clip-path:url(#SVGID_00000117641577164647263700000018163567362203047301_);fill:#01A0C6;}
	.st85{clip-path:url(#SVGID_00000170971961654813696200000013317215845508782783_);fill:#01A0C6;}
	.st86{clip-path:url(#SVGID_00000000914598875011507100000010359208040921941388_);fill:#01A0C6;}
	.st87{clip-path:url(#SVGID_00000148631825472820744610000007318821104913041591_);fill:#01A0C6;}
	.st88{clip-path:url(#SVGID_00000137098620964749950880000011989298548283840417_);fill:#01A0C6;}
	.st89{clip-path:url(#SVGID_00000108291748442840503720000016211702943556865961_);fill:#01A0C6;}
	.st90{clip-path:url(#SVGID_00000008859731484921814350000010985754004729093260_);fill:#01A0C6;}
	.st91{clip-path:url(#SVGID_00000111896952691138985490000002268944551995476882_);fill:#01A0C6;}
	.st92{clip-path:url(#SVGID_00000054950529876986783560000005242471109902750865_);fill:#01A0C6;}
	.st93{clip-path:url(#SVGID_00000098931856505069371030000008489973294045868961_);fill:#01A0C6;}
	.st94{clip-path:url(#SVGID_00000160185204635778599430000006003679234916313251_);fill:#01A0C6;}
</style>
<g>
	<g>
		<defs>
			<rect id="SVGID_1_" x="156.5" y="14.1" width="126.4" height="170.6"/>
		</defs>
		<clipPath id="SVGID_00000137840106837725299190000000841965865636418718_">
			<use xlink:href="#SVGID_1_"  style="overflow:visible;"/>
		</clipPath>
		<path style="clip-path:url(#SVGID_00000137840106837725299190000000841965865636418718_);fill:#6A2875;" d="M214.3,60.6
			c-1.6,5.3-0.4,10.3,3.6,11.6c4.1,1.2,8.7-2,10.3-7.3c1.6-5.3-0.6-10.1-3-11.4C222.5,52.1,215.9,55.3,214.3,60.6"/>
	</g>
	<g>
		<defs>
			<rect id="SVGID_00000072267982240797611640000012576442245109532808_" x="156.5" y="14.1" width="126.4" height="170.6"/>
		</defs>
		<clipPath id="SVGID_00000086660516045485197160000007060463841603761591_">
			<use xlink:href="#SVGID_00000072267982240797611640000012576442245109532808_"  style="overflow:visible;"/>
		</clipPath>
		<path style="clip-path:url(#SVGID_00000086660516045485197160000007060463841603761591_);fill:#FFBF00;" d="M199.3,71
			c3.2,4.5,7.9,6.7,11.3,4.3c3.5-2.4,3.8-8.1,0.6-12.6c-3.2-4.5-8.3-5.8-10.8-4.7C197.7,59.3,196.2,66.5,199.3,71"/>
	</g>
	<g>
		<defs>
			<rect id="SVGID_00000134928077209228171990000007431074240107492027_" x="156.5" y="14.1" width="126.4" height="170.6"/>
		</defs>
		<clipPath id="SVGID_00000059303381879696265180000016845176827731773088_">
			<use xlink:href="#SVGID_00000134928077209228171990000007431074240107492027_"  style="overflow:visible;"/>
		</clipPath>
		<path style="clip-path:url(#SVGID_00000059303381879696265180000016845176827731773088_);fill:#01A0C6;" d="M214,89.6
			c3-4.6,3.2-9.8-0.3-12.1c-3.6-2.3-8.9-0.4-11.9,4.2c-3,4.6-2.2,9.8-0.2,11.8C203.7,95.6,211,94.3,214,89.6"/>
	</g>
	<g>
		<defs>
			<rect id="SVGID_00000102535294894912985340000000883036258162428606_" x="156.5" y="14.1" width="126.4" height="170.6"/>
		</defs>
		<clipPath id="SVGID_00000147905298978406234580000018047333134426967952_">
			<use xlink:href="#SVGID_00000102535294894912985340000000883036258162428606_"  style="overflow:visible;"/>
		</clipPath>
		<path style="clip-path:url(#SVGID_00000147905298978406234580000018047333134426967952_);fill:#FFBF00;" d="M231.2,80.1
			c-1.8-5.2-5.7-8.6-9.7-7.2c-4,1.4-5.8,6.7-4,11.9c1.8,5.2,6.4,7.8,9.1,7.4C229.5,91.8,233,85.3,231.2,80.1"/>
	</g>
	<g>
		<defs>
			<rect id="SVGID_00000121256510175091746920000018321322215361903021_" x="156.5" y="14.1" width="126.4" height="170.6"/>
		</defs>
		<clipPath id="SVGID_00000134928168205491380160000017793933529968995484_">
			<use xlink:href="#SVGID_00000121256510175091746920000018321322215361903021_"  style="overflow:visible;"/>
		</clipPath>
		<path style="clip-path:url(#SVGID_00000134928168205491380160000017793933529968995484_);fill:#F6437F;" d="M198.4,83
			c3.2-1.9,4.9-4.9,3.5-7.4c-1.4-2.5-5.2-2.9-8.4-1c-3.2,1.9-4.3,5.2-3.7,7C190.4,83.5,195.2,84.9,198.4,83"/>
	</g>
	<g>
		<defs>
			<rect id="SVGID_00000052095729995304120240000017223391880454574264_" x="156.5" y="14.1" width="126.4" height="170.6"/>
		</defs>
		<clipPath id="SVGID_00000049182382055038024150000012293985110586711212_">
			<use xlink:href="#SVGID_00000052095729995304120240000017223391880454574264_"  style="overflow:visible;"/>
		</clipPath>
		<path style="clip-path:url(#SVGID_00000049182382055038024150000012293985110586711212_);fill:#01A0C6;" d="M232.1,65.1
			c-3.5,1.2-5.8,3.9-4.8,6.6c1,2.7,4.6,3.9,8.1,2.6c3.5-1.2,5.2-4.3,4.9-6.2C240,66.1,235.6,63.9,232.1,65.1"/>
	</g>
	<g>
		<defs>
			<rect id="SVGID_00000134934614745594057820000008887129831773716910_" x="156.5" y="14.1" width="126.4" height="170.6"/>
		</defs>
		<clipPath id="SVGID_00000069361952186111977350000018364221968787943044_">
			<use xlink:href="#SVGID_00000134934614745594057820000008887129831773716910_"  style="overflow:visible;"/>
		</clipPath>
		<path style="clip-path:url(#SVGID_00000069361952186111977350000018364221968787943044_);fill:#F6437F;" d="M206.2,54.6
			c0.6,3.7,2.8,6.4,5.6,5.9c2.8-0.5,4.6-3.8,4-7.5c-0.6-3.7-3.3-5.9-5.2-6C208.6,47,205.6,50.9,206.2,54.6"/>
	</g>
	<g>
		<defs>
			<rect id="SVGID_00000156571245245312545370000003940358849000141759_" x="156.5" y="14.1" width="126.4" height="170.6"/>
		</defs>
		<clipPath id="SVGID_00000021841290231842568040000013858471848132763054_">
			<use xlink:href="#SVGID_00000156571245245312545370000003940358849000141759_"  style="overflow:visible;"/>
		</clipPath>
		<path style="clip-path:url(#SVGID_00000021841290231842568040000013858471848132763054_);fill:#F6437F;" d="M222.3,95.2
			c-0.4-3.7-2.4-6.5-5.3-6.2c-2.8,0.3-4.8,3.5-4.5,7.2c0.4,3.7,3,6.1,4.8,6.3C219.5,102.7,222.7,98.9,222.3,95.2"/>
	</g>
	<g>
		<defs>
			<rect id="SVGID_00000104684403811519180770000014658977626275803524_" x="156.5" y="14.1" width="126.4" height="170.6"/>
		</defs>
		<clipPath id="SVGID_00000038405688966682281250000002044724362907616681_">
			<use xlink:href="#SVGID_00000104684403811519180770000014658977626275803524_"  style="overflow:visible;"/>
		</clipPath>
		<path style="clip-path:url(#SVGID_00000038405688966682281250000002044724362907616681_);fill:#01A0C6;" d="M190.8,51.2
			c3.1,4.5,7.9,6.7,11.3,4.3c3.5-2.4,3.8-8.1,0.6-12.6c-3.2-4.5-8.3-5.8-10.8-4.7C189.1,39.4,187.6,46.7,190.8,51.2"/>
	</g>
	<g>
		<defs>
			<rect id="SVGID_00000103239744328801490370000002148805936595180463_" x="156.5" y="14.1" width="126.4" height="170.6"/>
		</defs>
		<clipPath id="SVGID_00000179620901096899911120000009270552905857626010_">
			<use xlink:href="#SVGID_00000103239744328801490370000002148805936595180463_"  style="overflow:visible;"/>
		</clipPath>
		<path style="clip-path:url(#SVGID_00000179620901096899911120000009270552905857626010_);fill:#6A2875;" d="M179.3,73.2
			c8.4,1.3,15.9-1.6,17-8.1c1-6.5-5-12.8-13.4-14.2c-8.4-1.3-15.3,3-16.8,7.1C164.4,62.5,170.9,71.9,179.3,73.2"/>
	</g>
	<g>
		<defs>
			<rect id="SVGID_00000097458183132686362860000015158536761736162724_" x="156.5" y="14.1" width="126.4" height="170.6"/>
		</defs>
		<clipPath id="SVGID_00000117643447672075704330000005954098619530049190_">
			<use xlink:href="#SVGID_00000097458183132686362860000015158536761736162724_"  style="overflow:visible;"/>
		</clipPath>
		<path style="clip-path:url(#SVGID_00000117643447672075704330000005954098619530049190_);fill:#FFBF00;" d="M180.3,89.9
			c5.4-1.3,9.1-4.9,8.1-9c-1-4.1-6.2-6.4-11.5-5.1c-5.4,1.3-8.4,5.6-8.2,8.4C168.7,87.2,174.9,91.2,180.3,89.9"/>
	</g>
	<g>
		<defs>
			<rect id="SVGID_00000178179848117714248290000000898714477213523374_" x="156.5" y="14.1" width="126.4" height="170.6"/>
		</defs>
		<clipPath id="SVGID_00000176753343877227378580000012361772661542921876_">
			<use xlink:href="#SVGID_00000178179848117714248290000000898714477213523374_"  style="overflow:visible;"/>
		</clipPath>
		<path style="clip-path:url(#SVGID_00000176753343877227378580000012361772661542921876_);fill:#6A2875;" d="M196.7,108.5
			c4.3-7.4,4.3-15.4-1.4-18.7c-5.7-3.3-13.8,0-18.1,7.4c-4.3,7.4-2.7,15.4,0.5,18.2C181.3,118.5,192.4,115.9,196.7,108.5"/>
	</g>
	<g>
		<defs>
			<rect id="SVGID_00000003804399156904032470000004533378652412293253_" x="156.5" y="14.1" width="126.4" height="170.6"/>
		</defs>
		<clipPath id="SVGID_00000123401641360670626700000008520318865669738118_">
			<use xlink:href="#SVGID_00000003804399156904032470000004533378652412293253_"  style="overflow:visible;"/>
		</clipPath>
		<path style="clip-path:url(#SVGID_00000123401641360670626700000008520318865669738118_);fill:#FFBF00;" d="M213.7,109
			c0.9-5.4-1-10.3-5.2-11c-4.2-0.7-8.3,3.2-9.2,8.6c-0.9,5.4,1.9,9.9,4.6,10.9C206.8,118.6,212.9,114.5,213.7,109"/>
	</g>
	<g>
		<defs>
			<rect id="SVGID_00000131325993754966088770000009286490101121534908_" x="156.5" y="14.1" width="126.4" height="170.6"/>
		</defs>
		<clipPath id="SVGID_00000034054778798636519580000015840652981859285652_">
			<use xlink:href="#SVGID_00000131325993754966088770000009286490101121534908_"  style="overflow:visible;"/>
		</clipPath>
		<path style="clip-path:url(#SVGID_00000034054778798636519580000015840652981859285652_);fill:#01A0C6;" d="M235.1,45.8
			c-4.4,3.4-6.3,8.2-3.6,11.6c2.6,3.3,8.2,3.3,12.6-0.1c4.4-3.4,5.3-8.6,4-11.1C246.7,43.5,239.4,42.4,235.1,45.8"/>
	</g>
	<g>
		<defs>
			<rect id="SVGID_00000062182815350159086990000014600970069252729999_" x="156.5" y="14.1" width="126.4" height="170.6"/>
		</defs>
		<clipPath id="SVGID_00000025438960209722334280000015981982180889120899_">
			<use xlink:href="#SVGID_00000062182815350159086990000014600970069252729999_"  style="overflow:visible;"/>
		</clipPath>
		<path style="clip-path:url(#SVGID_00000025438960209722334280000015981982180889120899_);fill:#FFBF00;" d="M212.5,35.6
			c-0.9,8.5,2.5,15.8,9,16.5c6.5,0.7,12.5-5.7,13.4-14.2c0.9-8.5-3.9-15.1-8-16.4C222.4,20.1,213.3,27,212.5,35.6"/>
	</g>
	<g>
		<defs>
			<rect id="SVGID_00000182491625166409369460000011460555307667779263_" x="156.5" y="14.1" width="126.4" height="170.6"/>
		</defs>
		<clipPath id="SVGID_00000000912610137697793740000011431129285159002756_">
			<use xlink:href="#SVGID_00000182491625166409369460000011460555307667779263_"  style="overflow:visible;"/>
		</clipPath>
		<path style="clip-path:url(#SVGID_00000000912610137697793740000011431129285159002756_);fill:#01A0C6;" d="M244,100.4
			c-4.9-7-12.3-10.3-17.6-6.5c-5.4,3.8-5.7,12.5-0.8,19.5c4.9,7,12.9,8.9,16.8,7.1C246.7,118.5,248.9,107.4,244,100.4"/>
	</g>
	<g>
		<defs>
			<rect id="SVGID_00000119803811627509539950000015154168846637005480_" x="156.5" y="14.1" width="126.4" height="170.6"/>
		</defs>
		<clipPath id="SVGID_00000127027730226438582140000001833840684480436396_">
			<use xlink:href="#SVGID_00000119803811627509539950000015154168846637005480_"  style="overflow:visible;"/>
		</clipPath>
		<path style="clip-path:url(#SVGID_00000127027730226438582140000001833840684480436396_);fill:#6A2875;" d="M246.9,79.4
			c-4.6-3.1-9.8-3.4-12.1,0.1c-2.4,3.5-0.6,8.9,4,12c4.6,3.1,9.8,2.4,11.8,0.4C252.7,89.7,251.5,82.5,246.9,79.4"/>
	</g>
	<g>
		<defs>
			<rect id="SVGID_00000160171644497720600980000007373103407689492879_" x="156.5" y="14.1" width="126.4" height="170.6"/>
		</defs>
		<clipPath id="SVGID_00000137115198500602462900000000951846502239906445_">
			<use xlink:href="#SVGID_00000160171644497720600980000007373103407689492879_"  style="overflow:visible;"/>
		</clipPath>
		<path style="clip-path:url(#SVGID_00000137115198500602462900000000951846502239906445_);fill:#F6437F;" d="M255,55.8
			c-8.3,2-14.1,7.5-12.6,13.9c1.5,6.4,9.5,10,17.8,8c8.3-2,13-8.6,12.9-12.9C272.8,60.1,263.3,53.8,255,55.8"/>
	</g>
</g>
<g>
	<g>
		<defs>
			<rect id="SVGID_00000142157493059881577530000005981627234871474329_" x="156.5" y="14.1" width="126.4" height="170.6"/>
		</defs>
		<clipPath id="SVGID_00000115476604531214670740000009040190371745934983_">
			<use xlink:href="#SVGID_00000142157493059881577530000005981627234871474329_"  style="overflow:visible;"/>
		</clipPath>
		<path style="clip-path:url(#SVGID_00000115476604531214670740000009040190371745934983_);fill:#6A2875;" d="M189.6,162.5h-2.1
			v-3.4c0,0,0-0.1,0.1-0.1c0.1,0,0.1,0,0.2,0c0.1,0,0.2,0.1,0.2,0.2v3h1.6c0.1,0,0.2,0.1,0.2,0.2
			C189.8,162.5,189.7,162.5,189.6,162.5"/>
	</g>
	<g>
		<defs>
			<rect id="SVGID_00000180352943221529017550000012459248682143606158_" x="156.5" y="14.1" width="126.4" height="170.6"/>
		</defs>
		<clipPath id="SVGID_00000157999237428498005130000000629335542918139837_">
			<use xlink:href="#SVGID_00000180352943221529017550000012459248682143606158_"  style="overflow:visible;"/>
		</clipPath>
		<path style="clip-path:url(#SVGID_00000157999237428498005130000000629335542918139837_);fill:#6A2875;" d="M192.3,161.2
			C192.3,161.2,192.3,161.2,192.3,161.2C192.3,161.2,192.3,161.2,192.3,161.2l-1.9,0.2c0,0.2,0.1,0.4,0.2,0.6
			c0.1,0.2,0.3,0.3,0.6,0.3c0.3,0,0.5-0.2,0.6-0.5c0-0.1,0.1-0.1,0.2-0.1c0.2,0,0.2,0,0.2,0.1c0,0,0,0,0,0c-0.1,0.3-0.2,0.4-0.4,0.6
			c-0.2,0.1-0.4,0.2-0.7,0.2c-0.4,0-0.7-0.1-0.9-0.4c-0.2-0.2-0.3-0.6-0.3-1c0-0.4,0.1-0.7,0.3-1c0.2-0.3,0.5-0.4,0.9-0.4
			c0.4,0,0.6,0.1,0.8,0.4c0.1,0.1,0.2,0.2,0.2,0.4C192.3,160.7,192.3,160.9,192.3,161.2 M191.9,160.9c0-0.2-0.1-0.3-0.1-0.4
			c-0.1-0.2-0.3-0.3-0.5-0.3c-0.2,0-0.4,0.1-0.5,0.2c-0.1,0.1-0.2,0.3-0.2,0.5L191.9,160.9z"/>
	</g>
	<g>
		<defs>
			<rect id="SVGID_00000082345098978463673770000017153266114536722842_" x="156.5" y="14.1" width="126.4" height="170.6"/>
		</defs>
		<clipPath id="SVGID_00000157285164537693897860000013620905629304243122_">
			<use xlink:href="#SVGID_00000082345098978463673770000017153266114536722842_"  style="overflow:visible;"/>
		</clipPath>
		<path style="clip-path:url(#SVGID_00000157285164537693897860000013620905629304243122_);fill:#6A2875;" d="M195.9,159.9
			c0.1,0,0.1,0.1,0.1,0.2c0,0.1,0,0.1-0.1,0.2c-0.1,0.1-0.1,0.1-0.2,0.1c0,0,0,0-0.1,0c0-0.1-0.1-0.1-0.3-0.1
			c-0.2,0-0.4,0.1-0.6,0.3c-0.1,0.2-0.1,0.4-0.1,0.7c0,0,0,0,0,0.1c0,0,0,0.1,0,0.1v1.1c0,0.1-0.1,0.1-0.2,0.1c-0.1,0-0.2,0-0.2-0.1
			v-2.3v-0.1v0c0-0.1,0.1-0.1,0.3-0.1c0.1,0,0.2,0,0.2,0.1v0.2c0.2-0.2,0.4-0.4,0.7-0.4C195.7,159.9,195.8,159.9,195.9,159.9"/>
	</g>
	<g>
		<defs>
			<rect id="SVGID_00000162310258063504926440000011009372803688639397_" x="156.5" y="14.1" width="126.4" height="170.6"/>
		</defs>
		<clipPath id="SVGID_00000135666087045332145340000011586170458145979796_">
			<use xlink:href="#SVGID_00000162310258063504926440000011009372803688639397_"  style="overflow:visible;"/>
		</clipPath>
		<path style="clip-path:url(#SVGID_00000135666087045332145340000011586170458145979796_);fill:#6A2875;" d="M198.3,161.2
			C198.3,161.2,198.3,161.2,198.3,161.2l-1.9,0.1c0,0.2,0.1,0.4,0.2,0.6c0.1,0.2,0.3,0.3,0.6,0.3c0.3,0,0.5-0.2,0.6-0.5
			c0-0.1,0.1-0.1,0.2-0.1c0.1,0,0.2,0,0.2,0.1c0,0,0,0,0,0c-0.1,0.3-0.2,0.4-0.4,0.6c-0.2,0.1-0.4,0.2-0.7,0.2
			c-0.4,0-0.7-0.1-0.9-0.4c-0.2-0.2-0.3-0.6-0.3-1c0-0.4,0.1-0.7,0.3-1c0.2-0.3,0.5-0.4,0.9-0.4c0.3,0,0.6,0.1,0.9,0.4
			c0.1,0.1,0.2,0.2,0.2,0.4C198.3,160.7,198.3,160.9,198.3,161.2C198.3,161.2,198.3,161.2,198.3,161.2 M197.8,160.5
			c-0.1-0.2-0.3-0.3-0.5-0.3c-0.2,0-0.4,0.1-0.5,0.2c-0.1,0.1-0.2,0.3-0.2,0.5l1.4-0.1C197.9,160.7,197.8,160.6,197.8,160.5
			 M197.4,159.6c-0.1,0-0.1,0-0.2-0.1c-0.1,0-0.1-0.1-0.1-0.2c0,0,0,0,0,0l0.2-0.5c0,0,0,0,0.1,0c0.1,0,0.1,0,0.2,0.1
			c0.1,0,0.1,0.1,0.1,0.1c0,0,0,0,0,0l-0.2,0.5C197.4,159.6,197.4,159.6,197.4,159.6"/>
	</g>
	<g>
		<defs>
			<rect id="SVGID_00000078764911658864963450000005721385281609181861_" x="156.5" y="14.1" width="126.4" height="170.6"/>
		</defs>
		<clipPath id="SVGID_00000159464773107493239980000001598597961396263808_">
			<use xlink:href="#SVGID_00000078764911658864963450000005721385281609181861_"  style="overflow:visible;"/>
		</clipPath>
		<path style="clip-path:url(#SVGID_00000159464773107493239980000001598597961396263808_);fill:#6A2875;" d="M200.7,161.8
			c0,0.3-0.2,0.6-0.5,0.7c-0.2,0.1-0.4,0.1-0.6,0.1c-0.5,0-0.8-0.2-1-0.5c0,0,0,0,0-0.1c0-0.1,0-0.1,0.1-0.2c0.1,0,0.1-0.1,0.2-0.1
			c0,0,0.1,0,0.1,0.1c0.1,0.2,0.3,0.4,0.6,0.4c0.4,0,0.6-0.1,0.6-0.4c0-0.1,0-0.2-0.1-0.2c-0.1,0-0.2-0.1-0.5-0.1
			c-0.3-0.1-0.5-0.1-0.5-0.1c-0.4-0.1-0.5-0.3-0.5-0.7c0-0.3,0.1-0.5,0.3-0.6c0.2-0.1,0.4-0.2,0.7-0.2c0.4,0,0.7,0.1,0.9,0.3l0,0
			c0,0,0,0,0,0c0,0.1,0,0.1-0.1,0.1c-0.1,0-0.1,0.1-0.2,0.1c-0.1,0-0.1,0-0.1-0.1c-0.1-0.1-0.2-0.2-0.5-0.2c-0.4,0-0.6,0.1-0.6,0.3
			c0,0.1,0.1,0.2,0.2,0.3c0,0,0.2,0.1,0.4,0.1c0.3,0.1,0.5,0.1,0.5,0.1C200.6,161.2,200.7,161.4,200.7,161.8"/>
	</g>
	<g>
		<defs>
			<rect id="SVGID_00000046334143726398116120000000420901407804101562_" x="156.5" y="14.1" width="126.4" height="170.6"/>
		</defs>
		<clipPath id="SVGID_00000126287415208505673140000003701537864316596369_">
			<use xlink:href="#SVGID_00000046334143726398116120000000420901407804101562_"  style="overflow:visible;"/>
		</clipPath>
		<path style="clip-path:url(#SVGID_00000126287415208505673140000003701537864316596369_);fill:#6A2875;" d="M203.3,161.2
			C203.3,161.2,203.3,161.2,203.3,161.2C203.3,161.2,203.3,161.2,203.3,161.2l-1.9,0.2c0,0.2,0.1,0.4,0.2,0.6
			c0.1,0.2,0.3,0.3,0.6,0.3c0.3,0,0.5-0.2,0.6-0.5c0-0.1,0.1-0.1,0.2-0.1c0.2,0,0.2,0,0.2,0.1c0,0,0,0,0,0c-0.1,0.3-0.2,0.4-0.4,0.6
			c-0.2,0.1-0.4,0.2-0.7,0.2c-0.4,0-0.7-0.1-0.9-0.4c-0.2-0.2-0.3-0.6-0.3-1c0-0.4,0.1-0.7,0.3-1c0.2-0.3,0.5-0.4,0.9-0.4
			c0.3,0,0.6,0.1,0.8,0.4c0.1,0.1,0.2,0.2,0.2,0.4C203.3,160.7,203.3,160.9,203.3,161.2 M202.9,160.9c0-0.2-0.1-0.3-0.1-0.4
			c-0.1-0.2-0.3-0.3-0.5-0.3c-0.2,0-0.4,0.1-0.5,0.2c-0.1,0.1-0.2,0.3-0.2,0.5L202.9,160.9z"/>
	</g>
	<g>
		<defs>
			<rect id="SVGID_00000006704219001607813830000010604147949132260010_" x="156.5" y="14.1" width="126.4" height="170.6"/>
		</defs>
		<clipPath id="SVGID_00000049188389208557982140000005630273695301719942_">
			<use xlink:href="#SVGID_00000006704219001607813830000010604147949132260010_"  style="overflow:visible;"/>
		</clipPath>
		<path style="clip-path:url(#SVGID_00000049188389208557982140000005630273695301719942_);fill:#6A2875;" d="M205.8,162.5
			c0,0.1-0.1,0.1-0.2,0.1c-0.1,0-0.2,0-0.2-0.1v-0.3c-0.2,0.3-0.4,0.4-0.7,0.4c-0.2,0-0.4-0.1-0.6-0.2s-0.3-0.3-0.4-0.5
			c-0.1-0.2-0.1-0.4-0.1-0.7c0-0.6,0.2-1,0.5-1.2c0.2-0.1,0.4-0.2,0.6-0.2c0.3,0,0.5,0.1,0.7,0.4v-0.3c0-0.1,0.1-0.1,0.2-0.1
			c0.2,0,0.2,0,0.2,0.1L205.8,162.5L205.8,162.5z M205.4,161.3c0-0.3-0.1-0.5-0.1-0.7c-0.1-0.2-0.3-0.3-0.6-0.3
			c-0.2,0-0.4,0.1-0.5,0.3c-0.1,0.2-0.1,0.4-0.1,0.7c0,0.3,0,0.5,0.2,0.7c0.1,0.2,0.3,0.3,0.5,0.3c0.2,0,0.4-0.1,0.5-0.3
			C205.4,161.7,205.4,161.5,205.4,161.3"/>
	</g>
	<g>
		<defs>
			<rect id="SVGID_00000160884537001232805440000007574741032401654951_" x="156.5" y="14.1" width="126.4" height="170.6"/>
		</defs>
		<clipPath id="SVGID_00000169531563881075468850000002138774347243379084_">
			<use xlink:href="#SVGID_00000160884537001232805440000007574741032401654951_"  style="overflow:visible;"/>
		</clipPath>
		<path style="clip-path:url(#SVGID_00000169531563881075468850000002138774347243379084_);fill:#6A2875;" d="M208.5,161.2
			c0,0.6-0.2,1-0.5,1.2c-0.2,0.1-0.4,0.2-0.5,0.2c-0.4,0-0.7-0.1-0.8-0.4c-0.2-0.2-0.2-0.6-0.2-0.9v0v-1.2c0-0.1,0.1-0.1,0.2-0.1
			c0.1,0,0.2,0,0.2,0.1v1.2c0,0.3,0,0.5,0.1,0.6c0.1,0.2,0.3,0.3,0.5,0.3c0.2,0,0.4-0.1,0.5-0.3c0.1-0.1,0.1-0.3,0.1-0.6V160
			c0-0.1,0.1-0.1,0.2-0.1c0.1,0,0.2,0,0.2,0.1L208.5,161.2L208.5,161.2z"/>
	</g>
	<g>
		<defs>
			<rect id="SVGID_00000054976164539814066000000016597637079913861567_" x="156.5" y="14.1" width="126.4" height="170.6"/>
		</defs>
		<clipPath id="SVGID_00000027563894039314045420000012763321544474859410_">
			<use xlink:href="#SVGID_00000054976164539814066000000016597637079913861567_"  style="overflow:visible;"/>
		</clipPath>
		<path style="clip-path:url(#SVGID_00000027563894039314045420000012763321544474859410_);fill:#6A2875;" d="M212.8,162.5
			c0,0.1-0.1,0.1-0.2,0.1c-0.1,0-0.2,0-0.2-0.1v-0.3c-0.2,0.3-0.4,0.4-0.7,0.4c-0.4,0-0.6-0.1-0.9-0.4c-0.2-0.3-0.3-0.6-0.3-0.9
			c0-0.4,0.1-0.7,0.3-0.9c0.2-0.3,0.5-0.4,0.8-0.4c0.3,0,0.5,0.1,0.7,0.4v-1.2c0-0.1,0.1-0.1,0.2-0.1c0.2,0,0.2,0,0.2,0.1V162.5z
			 M212.3,161.2c0-0.3,0-0.5-0.1-0.7c-0.1-0.2-0.3-0.3-0.5-0.3c-0.2,0-0.4,0.1-0.5,0.3c-0.1,0.2-0.1,0.4-0.1,0.7
			c0,0.3,0.1,0.5,0.2,0.7c0.1,0.2,0.3,0.3,0.6,0.3c0.2,0,0.4-0.1,0.6-0.3C212.3,161.8,212.3,161.6,212.3,161.2"/>
	</g>
	<g>
		<defs>
			<rect id="SVGID_00000142173480766644014390000011600494936533935038_" x="156.5" y="14.1" width="126.4" height="170.6"/>
		</defs>
		<clipPath id="SVGID_00000176740933527445427270000012563199511939477934_">
			<use xlink:href="#SVGID_00000142173480766644014390000011600494936533935038_"  style="overflow:visible;"/>
		</clipPath>
		<path style="clip-path:url(#SVGID_00000176740933527445427270000012563199511939477934_);fill:#6A2875;" d="M215.4,161.2
			C215.4,161.2,215.4,161.2,215.4,161.2C215.4,161.2,215.4,161.2,215.4,161.2l-1.9,0.2c0,0.2,0.1,0.4,0.2,0.6
			c0.1,0.2,0.3,0.3,0.6,0.3c0.3,0,0.5-0.2,0.7-0.5c0-0.1,0.1-0.1,0.2-0.1c0.2,0,0.2,0,0.2,0.1c0,0,0,0,0,0c-0.1,0.3-0.2,0.4-0.4,0.6
			c-0.2,0.1-0.4,0.2-0.7,0.2c-0.4,0-0.7-0.1-0.9-0.4c-0.2-0.2-0.3-0.6-0.3-1c0-0.4,0.1-0.7,0.3-1c0.2-0.3,0.5-0.4,0.9-0.4
			c0.4,0,0.6,0.1,0.8,0.4c0.1,0.1,0.2,0.2,0.2,0.4C215.3,160.7,215.3,160.9,215.4,161.2 M214.9,160.9c0-0.2-0.1-0.3-0.1-0.4
			c-0.1-0.2-0.3-0.3-0.5-0.3c-0.2,0-0.4,0.1-0.5,0.2c-0.1,0.1-0.2,0.3-0.2,0.5L214.9,160.9z"/>
	</g>
	<g>
		<defs>
			<rect id="SVGID_00000078749498287020703250000004745387684647965582_" x="156.5" y="14.1" width="126.4" height="170.6"/>
		</defs>
		<clipPath id="SVGID_00000073698029590764591850000018303296933530383489_">
			<use xlink:href="#SVGID_00000078749498287020703250000004745387684647965582_"  style="overflow:visible;"/>
		</clipPath>
		<path style="clip-path:url(#SVGID_00000073698029590764591850000018303296933530383489_);fill:#6A2875;" d="M217.8,161.8
			c0,0.3-0.2,0.6-0.5,0.7c-0.2,0.1-0.4,0.1-0.6,0.1c-0.5,0-0.8-0.2-1-0.5c0,0,0,0,0-0.1c0-0.1,0-0.1,0.1-0.2c0,0,0.1-0.1,0.2-0.1
			c0.1,0,0.1,0,0.1,0.1c0.1,0.2,0.3,0.4,0.6,0.4c0.4,0,0.7-0.1,0.7-0.4c0-0.1,0-0.2-0.1-0.2c-0.1,0-0.2-0.1-0.5-0.1
			c-0.3-0.1-0.5-0.1-0.5-0.1c-0.3-0.1-0.5-0.3-0.5-0.7c0-0.3,0.1-0.5,0.3-0.6c0.2-0.1,0.4-0.2,0.7-0.2c0.4,0,0.7,0.1,0.9,0.3l0,0
			c0,0,0,0,0,0c0,0.1,0,0.1-0.1,0.1c-0.1,0-0.1,0.1-0.2,0.1c-0.1,0-0.1,0-0.1-0.1c-0.1-0.1-0.3-0.2-0.5-0.2c-0.4,0-0.6,0.1-0.6,0.3
			c0,0.1,0.1,0.2,0.2,0.3c0,0,0.2,0.1,0.4,0.1c0.3,0.1,0.5,0.1,0.5,0.1C217.6,161.2,217.8,161.4,217.8,161.8"/>
	</g>
	<g>
		<defs>
			<rect id="SVGID_00000083086163970427529340000004285422632441848976_" x="156.5" y="14.1" width="126.4" height="170.6"/>
		</defs>
		<clipPath id="SVGID_00000103247892170600768180000003431617835100526015_">
			<use xlink:href="#SVGID_00000083086163970427529340000004285422632441848976_"  style="overflow:visible;"/>
		</clipPath>
		<path style="clip-path:url(#SVGID_00000103247892170600768180000003431617835100526015_);fill:#6A2875;" d="M221.9,161.2
			c0,0.4-0.1,0.7-0.3,0.9c-0.2,0.3-0.5,0.4-0.8,0.4c-0.3,0-0.5-0.1-0.7-0.3v1.2c0,0.1-0.1,0.1-0.2,0.1c-0.2,0-0.2,0-0.2-0.1V160
			c0-0.1,0.1-0.1,0.2-0.1s0.2,0,0.2,0.1v0.3c0.2-0.3,0.4-0.4,0.7-0.4c0.4,0,0.6,0.1,0.9,0.4C221.8,160.5,221.9,160.9,221.9,161.2
			 M221.4,161.2c0-0.3-0.1-0.5-0.2-0.7c-0.1-0.2-0.3-0.3-0.6-0.3c-0.2,0-0.4,0.1-0.6,0.3c-0.1,0.1-0.1,0.3-0.1,0.7
			c0,0.3,0,0.5,0.1,0.6c0.1,0.2,0.3,0.3,0.5,0.3c0.2,0,0.4-0.1,0.5-0.3C221.4,161.7,221.4,161.5,221.4,161.2"/>
	</g>
	<g>
		<defs>
			<rect id="SVGID_00000148660203115798553280000012929294844942892703_" x="156.5" y="14.1" width="126.4" height="170.6"/>
		</defs>
		<clipPath id="SVGID_00000127043808722466908500000011014544300955003057_">
			<use xlink:href="#SVGID_00000148660203115798553280000012929294844942892703_"  style="overflow:visible;"/>
		</clipPath>
		<path style="clip-path:url(#SVGID_00000127043808722466908500000011014544300955003057_);fill:#6A2875;" d="M224.5,161.2
			C224.5,161.2,224.5,161.2,224.5,161.2l-1.9,0.1c0,0.2,0.1,0.4,0.2,0.6c0.1,0.2,0.3,0.3,0.6,0.3c0.3,0,0.5-0.2,0.7-0.5
			c0-0.1,0.1-0.1,0.2-0.1c0.1,0,0.2,0,0.2,0.1c0,0,0,0,0,0c-0.1,0.3-0.2,0.4-0.4,0.6c-0.2,0.1-0.4,0.2-0.7,0.2
			c-0.4,0-0.7-0.1-0.9-0.4c-0.2-0.2-0.3-0.6-0.3-1c0-0.4,0.1-0.7,0.3-1c0.2-0.3,0.5-0.4,0.9-0.4c0.4,0,0.6,0.1,0.9,0.4
			c0.1,0.1,0.2,0.2,0.2,0.4C224.5,160.7,224.5,160.9,224.5,161.2C224.5,161.2,224.5,161.2,224.5,161.2 M223.9,160.5
			c-0.1-0.2-0.3-0.3-0.5-0.3c-0.2,0-0.4,0.1-0.5,0.2c-0.1,0.1-0.2,0.3-0.2,0.5l1.4-0.1C224,160.7,224,160.6,223.9,160.5
			 M223.5,159.6c-0.1,0-0.1,0-0.2-0.1c-0.1,0-0.1-0.1-0.1-0.2c0,0,0,0,0,0l0.2-0.5c0,0,0,0,0.1,0c0.1,0,0.1,0,0.2,0.1
			c0.1,0,0.1,0.1,0.1,0.1c0,0,0,0,0,0l-0.2,0.5C223.6,159.6,223.6,159.6,223.5,159.6"/>
	</g>
	<g>
		<defs>
			<rect id="SVGID_00000054949401149765724500000013578452921614688160_" x="156.5" y="14.1" width="126.4" height="170.6"/>
		</defs>
		<clipPath id="SVGID_00000075855842481548938650000009482683660070451093_">
			<use xlink:href="#SVGID_00000054949401149765724500000013578452921614688160_"  style="overflow:visible;"/>
		</clipPath>
		<path style="clip-path:url(#SVGID_00000075855842481548938650000009482683660070451093_);fill:#6A2875;" d="M227.1,161.2
			c0,0.4-0.1,0.7-0.3,0.9c-0.2,0.3-0.5,0.4-0.8,0.4c-0.3,0-0.5-0.1-0.7-0.3v1.2c0,0.1-0.1,0.1-0.2,0.1c-0.2,0-0.2,0-0.2-0.1V160
			c0-0.1,0.1-0.1,0.2-0.1c0.1,0,0.2,0,0.2,0.1v0.3c0.2-0.3,0.4-0.4,0.7-0.4c0.4,0,0.6,0.1,0.9,0.4
			C227,160.5,227.1,160.9,227.1,161.2 M226.7,161.2c0-0.3-0.1-0.5-0.2-0.7c-0.1-0.2-0.3-0.3-0.6-0.3c-0.2,0-0.4,0.1-0.6,0.3
			c-0.1,0.1-0.1,0.3-0.1,0.7c0,0.3,0,0.5,0.1,0.6c0.1,0.2,0.3,0.3,0.5,0.3c0.2,0,0.4-0.1,0.5-0.3
			C226.6,161.7,226.7,161.5,226.7,161.2"/>
	</g>
	<g>
		<defs>
			<rect id="SVGID_00000084529491058396730450000006689780681934940336_" x="156.5" y="14.1" width="126.4" height="170.6"/>
		</defs>
		<clipPath id="SVGID_00000160882101853363946260000010184615727126701488_">
			<use xlink:href="#SVGID_00000084529491058396730450000006689780681934940336_"  style="overflow:visible;"/>
		</clipPath>
		<path style="clip-path:url(#SVGID_00000160882101853363946260000010184615727126701488_);fill:#6A2875;" d="M228,159.2
			c0,0.1,0,0.1-0.1,0.2c-0.1,0-0.1,0.1-0.2,0.1c-0.1,0-0.1,0-0.2-0.1c-0.1-0.1-0.1-0.1-0.1-0.2c0-0.1,0-0.1,0.1-0.2
			c0,0,0.1-0.1,0.2-0.1c0.1,0,0.1,0,0.2,0.1C228,159,228,159.1,228,159.2 M228,162.4c0,0.1-0.1,0.1-0.2,0.1c-0.1,0-0.2,0-0.2-0.1
			v-2.4c0-0.1,0.1-0.1,0.2-0.1c0.1,0,0.2,0,0.2,0.1V162.4z"/>
	</g>
	<g>
		<defs>
			<rect id="SVGID_00000006672536999439905820000003543201989868865956_" x="156.5" y="14.1" width="126.4" height="170.6"/>
		</defs>
		<clipPath id="SVGID_00000044867439798045082940000004714251749121162884_">
			<use xlink:href="#SVGID_00000006672536999439905820000003543201989868865956_"  style="overflow:visible;"/>
		</clipPath>
		<path style="clip-path:url(#SVGID_00000044867439798045082940000004714251749121162884_);fill:#6A2875;" d="M230.6,162.4
			c0,0.1-0.1,0.1-0.2,0.1c-0.1,0-0.2-0.1-0.2-0.1v-1.2c0-0.3,0-0.5-0.1-0.6c-0.1-0.2-0.3-0.3-0.5-0.3c-0.2,0-0.4,0.1-0.5,0.3
			c-0.1,0.1-0.1,0.3-0.1,0.6v1.2c0,0.1-0.1,0.1-0.2,0.1c-0.1,0-0.2,0-0.2-0.1v-1.2c0-0.4,0.1-0.7,0.2-0.9c0.2-0.3,0.5-0.4,0.8-0.4
			c0.2,0,0.4,0,0.5,0.2c0.3,0.2,0.5,0.6,0.5,1.2L230.6,162.4L230.6,162.4z"/>
	</g>
	<g>
		<defs>
			<rect id="SVGID_00000084511484877539233270000007044498687242946488_" x="156.5" y="14.1" width="126.4" height="170.6"/>
		</defs>
		<clipPath id="SVGID_00000157302895108373157290000000263907439362851499_">
			<use xlink:href="#SVGID_00000084511484877539233270000007044498687242946488_"  style="overflow:visible;"/>
		</clipPath>
		<path style="clip-path:url(#SVGID_00000157302895108373157290000000263907439362851499_);fill:#6A2875;" d="M231.6,159.2
			c0,0.1,0,0.1-0.1,0.2c-0.1,0-0.1,0.1-0.2,0.1c-0.1,0-0.1,0-0.2-0.1c-0.1-0.1-0.1-0.1-0.1-0.2c0-0.1,0-0.1,0.1-0.2
			c0,0,0.1-0.1,0.2-0.1c0.1,0,0.1,0,0.2,0.1C231.6,159,231.6,159.1,231.6,159.2 M231.6,162.4c0,0.1-0.1,0.1-0.2,0.1
			c-0.1,0-0.2,0-0.2-0.1v-2.4c0-0.1,0.1-0.1,0.2-0.1c0.1,0,0.2,0,0.2,0.1V162.4z"/>
	</g>
	<g>
		<defs>
			<rect id="SVGID_00000118380104765774022000000006501238527176105613_" x="156.5" y="14.1" width="126.4" height="170.6"/>
		</defs>
		<clipPath id="SVGID_00000051364955308686603390000013071794056336253371_">
			<use xlink:href="#SVGID_00000118380104765774022000000006501238527176105613_"  style="overflow:visible;"/>
		</clipPath>
		<path style="clip-path:url(#SVGID_00000051364955308686603390000013071794056336253371_);fill:#6A2875;" d="M234.3,161.2
			C234.3,161.2,234.3,161.2,234.3,161.2l-1.9,0.1c0,0.2,0.1,0.4,0.2,0.6c0.1,0.2,0.3,0.3,0.6,0.3c0.3,0,0.5-0.2,0.7-0.5
			c0-0.1,0.1-0.1,0.2-0.1c0.1,0,0.2,0,0.2,0.1c0,0,0,0,0,0c-0.1,0.3-0.2,0.4-0.4,0.6c-0.2,0.1-0.4,0.2-0.7,0.2
			c-0.4,0-0.7-0.1-0.9-0.4c-0.2-0.2-0.3-0.6-0.3-1c0-0.4,0.1-0.7,0.3-1c0.2-0.3,0.5-0.4,0.9-0.4c0.3,0,0.6,0.1,0.9,0.4
			c0.1,0.1,0.2,0.2,0.2,0.4C234.3,160.7,234.3,160.9,234.3,161.2C234.3,161.2,234.3,161.2,234.3,161.2 M233.7,160.5
			c-0.1-0.2-0.3-0.3-0.6-0.3c-0.2,0-0.4,0.1-0.5,0.2c-0.1,0.1-0.2,0.3-0.2,0.5l1.4-0.1C233.8,160.7,233.8,160.6,233.7,160.5
			 M232.7,159.1C232.7,159.1,232.7,159.1,232.7,159.1c0-0.1,0-0.1,0.1-0.2c0.1,0,0.1-0.1,0.2-0.1c0.1,0,0.1,0,0.1,0l0.2,0.5
			c0,0,0,0,0,0c0,0.1,0,0.1-0.1,0.2c-0.1,0-0.1,0.1-0.2,0.1c-0.1,0-0.1,0-0.1-0.1L232.7,159.1z"/>
	</g>
	<g>
		<defs>
			<rect id="SVGID_00000065797307995034419730000007441793966587369624_" x="156.5" y="14.1" width="126.4" height="170.6"/>
		</defs>
		<clipPath id="SVGID_00000025413864211725984240000001202499326326196129_">
			<use xlink:href="#SVGID_00000065797307995034419730000007441793966587369624_"  style="overflow:visible;"/>
		</clipPath>
		<path style="clip-path:url(#SVGID_00000025413864211725984240000001202499326326196129_);fill:#6A2875;" d="M236.3,159.9
			c0.1,0,0.1,0.1,0.1,0.2c0,0.1,0,0.1-0.1,0.2c0,0.1-0.1,0.1-0.2,0.1c0,0,0,0-0.1,0c0-0.1-0.1-0.1-0.3-0.1c-0.2,0-0.4,0.1-0.6,0.3
			c-0.1,0.2-0.1,0.4-0.1,0.7c0,0,0,0,0,0.1c0,0,0,0.1,0,0.1v1.1c0,0.1-0.1,0.1-0.2,0.1c-0.1,0-0.2,0-0.2-0.1v-2.3v-0.1v0
			c0-0.1,0.1-0.1,0.2-0.1c0.1,0,0.2,0,0.2,0.1v0.2c0.2-0.2,0.4-0.4,0.7-0.4C236.1,159.9,236.3,159.9,236.3,159.9"/>
	</g>
	<g>
		<defs>
			<rect id="SVGID_00000129195076587576876060000010999062994307303103_" x="156.5" y="14.1" width="126.4" height="170.6"/>
		</defs>
		<clipPath id="SVGID_00000018938927738680619330000018264005807993481658_">
			<use xlink:href="#SVGID_00000129195076587576876060000010999062994307303103_"  style="overflow:visible;"/>
		</clipPath>
		<path style="clip-path:url(#SVGID_00000018938927738680619330000018264005807993481658_);fill:#6A2875;" d="M238.8,161.2
			C238.8,161.2,238.8,161.2,238.8,161.2C238.8,161.2,238.8,161.2,238.8,161.2l-1.9,0.2c0,0.2,0.1,0.4,0.2,0.6
			c0.1,0.2,0.3,0.3,0.6,0.3c0.3,0,0.5-0.2,0.6-0.5c0-0.1,0.1-0.1,0.2-0.1c0.1,0,0.2,0,0.2,0.1c0,0,0,0,0,0c-0.1,0.3-0.2,0.4-0.4,0.6
			c-0.2,0.1-0.4,0.2-0.7,0.2c-0.4,0-0.7-0.1-0.9-0.4c-0.2-0.2-0.3-0.6-0.3-1c0-0.4,0.1-0.7,0.3-1c0.2-0.3,0.5-0.4,0.9-0.4
			c0.3,0,0.6,0.1,0.8,0.4c0.1,0.1,0.2,0.2,0.2,0.4C238.8,160.7,238.8,160.9,238.8,161.2 M238.4,160.9c0-0.2-0.1-0.3-0.1-0.4
			c-0.1-0.2-0.3-0.3-0.5-0.3c-0.2,0-0.4,0.1-0.5,0.2c-0.1,0.1-0.2,0.3-0.2,0.5L238.4,160.9z"/>
	</g>
	<g>
		<defs>
			<rect id="SVGID_00000041980388323996892010000012268948672133111721_" x="156.5" y="14.1" width="126.4" height="170.6"/>
		</defs>
		<clipPath id="SVGID_00000141457813133625685980000008568710943027295886_">
			<use xlink:href="#SVGID_00000041980388323996892010000012268948672133111721_"  style="overflow:visible;"/>
		</clipPath>
		<path style="clip-path:url(#SVGID_00000141457813133625685980000008568710943027295886_);fill:#6A2875;" d="M241.2,161.8
			c0,0.3-0.2,0.6-0.5,0.7c-0.2,0.1-0.4,0.1-0.6,0.1c-0.5,0-0.8-0.2-1-0.5c0,0,0,0,0-0.1c0-0.1,0-0.1,0.1-0.2c0.1,0,0.1-0.1,0.2-0.1
			c0.1,0,0.1,0,0.1,0.1c0.1,0.2,0.3,0.4,0.6,0.4c0.4,0,0.6-0.1,0.6-0.4c0-0.1,0-0.2-0.1-0.2c-0.1,0-0.2-0.1-0.5-0.1
			c-0.3-0.1-0.5-0.1-0.5-0.1c-0.4-0.1-0.5-0.3-0.5-0.7c0-0.3,0.1-0.5,0.3-0.6c0.2-0.1,0.4-0.2,0.7-0.2c0.4,0,0.7,0.1,0.9,0.3l0,0
			c0,0,0,0,0,0c0,0.1,0,0.1-0.1,0.1c-0.1,0-0.1,0.1-0.2,0.1c0,0-0.1,0-0.1-0.1c-0.1-0.1-0.2-0.2-0.5-0.2c-0.4,0-0.6,0.1-0.6,0.3
			c0,0.1,0.1,0.2,0.2,0.3c0,0,0.2,0.1,0.4,0.1c0.3,0.1,0.5,0.1,0.5,0.1C241,161.2,241.2,161.4,241.2,161.8"/>
	</g>
	<g>
		<defs>
			<rect id="SVGID_00000086665677392600137090000004579338599216905352_" x="156.5" y="14.1" width="126.4" height="170.6"/>
		</defs>
		<clipPath id="SVGID_00000104706997737205966970000006419646483460208261_">
			<use xlink:href="#SVGID_00000086665677392600137090000004579338599216905352_"  style="overflow:visible;"/>
		</clipPath>
		<path style="clip-path:url(#SVGID_00000104706997737205966970000006419646483460208261_);fill:#6A2875;" d="M245.3,161.2
			C245.3,161.2,245.3,161.2,245.3,161.2C245.3,161.2,245.3,161.2,245.3,161.2l-1.9,0.2c0,0.2,0.1,0.4,0.2,0.6
			c0.1,0.2,0.3,0.3,0.6,0.3c0.3,0,0.5-0.2,0.7-0.5c0-0.1,0.1-0.1,0.2-0.1c0.2,0,0.2,0,0.2,0.1c0,0,0,0,0,0c-0.1,0.3-0.2,0.4-0.4,0.6
			c-0.2,0.1-0.4,0.2-0.7,0.2c-0.4,0-0.7-0.1-0.9-0.4c-0.2-0.2-0.3-0.6-0.3-1c0-0.4,0.1-0.7,0.3-1c0.2-0.3,0.5-0.4,0.9-0.4
			c0.4,0,0.6,0.1,0.8,0.4c0.1,0.1,0.2,0.2,0.2,0.4C245.3,160.7,245.3,160.9,245.3,161.2 M244.9,160.9c0-0.2-0.1-0.3-0.1-0.4
			c-0.1-0.2-0.3-0.3-0.5-0.3c-0.2,0-0.4,0.1-0.5,0.2c-0.1,0.1-0.2,0.3-0.2,0.5L244.9,160.9z"/>
	</g>
	<g>
		<defs>
			<rect id="SVGID_00000062173071508171941270000016114607408099867067_" x="156.5" y="14.1" width="126.4" height="170.6"/>
		</defs>
		<clipPath id="SVGID_00000147206168464746442420000012367775366756923268_">
			<use xlink:href="#SVGID_00000062173071508171941270000016114607408099867067_"  style="overflow:visible;"/>
		</clipPath>
		<path style="clip-path:url(#SVGID_00000147206168464746442420000012367775366756923268_);fill:#6A2875;" d="M246.7,160.4h-0.4v2
			c0,0.1-0.1,0.1-0.2,0.1c-0.2,0-0.2-0.1-0.2-0.1v-2h-0.2c-0.1,0-0.1-0.1-0.1-0.2c0-0.1,0-0.2,0.1-0.2h0.2v-0.7
			c0-0.1,0.1-0.1,0.2-0.1c0.1,0,0.2,0,0.2,0.1v0.7h0.4c0.1,0,0.1,0.1,0.1,0.2C246.8,160.3,246.7,160.4,246.7,160.4"/>
	</g>
	<g>
		<defs>
			<rect id="SVGID_00000089565271823195367580000005326698811768701072_" x="156.5" y="14.1" width="126.4" height="170.6"/>
		</defs>
		<clipPath id="SVGID_00000070101175005036652150000018265368649920989074_">
			<use xlink:href="#SVGID_00000089565271823195367580000005326698811768701072_"  style="overflow:visible;"/>
		</clipPath>
		<path style="clip-path:url(#SVGID_00000070101175005036652150000018265368649920989074_);fill:#6A2875;" d="M189.6,167.4
			c0,0.1-0.1,0.1-0.2,0.1c-0.1,0-0.2-0.1-0.2-0.1v-1.6c0-0.4-0.2-0.6-0.5-0.6c-0.1,0-0.2,0-0.4,0.1c-0.1,0.1-0.2,0.2-0.3,0.3
			c0,0.1-0.1,0.3-0.1,0.5v1.3c0,0.1-0.1,0.1-0.2,0.1c-0.2,0-0.2,0-0.2-0.1V164c0-0.1,0.1-0.1,0.2-0.1c0.1,0,0.2,0,0.2,0.1v1.2
			c0.2-0.2,0.4-0.3,0.8-0.3c0.4,0,0.7,0.1,0.8,0.4c0.1,0.1,0.1,0.3,0.1,0.6L189.6,167.4L189.6,167.4z"/>
	</g>
	<g>
		<defs>
			<rect id="SVGID_00000111895667345648131480000007188856109241423513_" x="156.5" y="14.1" width="126.4" height="170.6"/>
		</defs>
		<clipPath id="SVGID_00000014612137345741617090000011330027340828771769_">
			<use xlink:href="#SVGID_00000111895667345648131480000007188856109241423513_"  style="overflow:visible;"/>
		</clipPath>
		<path style="clip-path:url(#SVGID_00000014612137345741617090000011330027340828771769_);fill:#6A2875;" d="M191.8,167.4
			c-0.2,0.1-0.4,0.2-0.6,0.2c-0.4,0-0.7-0.1-0.9-0.4c-0.2-0.3-0.3-0.6-0.3-1c0-0.5,0.1-0.8,0.4-1.1c0.2-0.2,0.5-0.3,0.8-0.3
			c0.4,0,0.7,0.1,0.9,0.4c0.2,0.2,0.3,0.6,0.3,1C192.4,166.8,192.2,167.2,191.8,167.4 M192,164.5C192,164.6,192,164.6,192,164.5
			c-0.1,0.1-0.2,0.1-0.2,0.1c-0.1,0-0.2,0-0.3-0.1l-0.4-0.3l-0.3,0.3c0,0.1-0.1,0.1-0.3,0.1c-0.1,0-0.2,0-0.2-0.1c0,0,0,0,0,0
			l0.6-0.7c0.1,0,0.1-0.1,0.2-0.1c0.1,0,0.1,0,0.2,0.1L192,164.5L192,164.5z M191.7,165.5c-0.1-0.2-0.3-0.3-0.6-0.3
			c-0.3,0-0.5,0.1-0.6,0.3c-0.1,0.2-0.2,0.4-0.2,0.7c0,0.3,0.1,0.5,0.2,0.7c0.1,0.2,0.3,0.3,0.6,0.3c0.3,0,0.5-0.1,0.6-0.3
			c0.1-0.2,0.2-0.4,0.2-0.7C191.9,165.9,191.9,165.7,191.7,165.5"/>
	</g>
	<g>
		<defs>
			<rect id="SVGID_00000151522193807147544830000006575847244470481551_" x="156.5" y="14.1" width="126.4" height="170.6"/>
		</defs>
		<clipPath id="SVGID_00000031918083594606317660000012702619081713057423_">
			<use xlink:href="#SVGID_00000151522193807147544830000006575847244470481551_"  style="overflow:visible;"/>
		</clipPath>
		<path style="clip-path:url(#SVGID_00000031918083594606317660000012702619081713057423_);fill:#6A2875;" d="M193.7,165.4h-0.4v2.1
			c0,0.1-0.1,0.1-0.2,0.1c-0.2,0-0.2-0.1-0.2-0.1v-2.1h-0.2c-0.1,0-0.1-0.1-0.1-0.2c0-0.1,0-0.2,0.1-0.2h0.2v-0.7
			c0-0.1,0.1-0.1,0.2-0.1c0.1,0,0.2,0,0.2,0.1v0.7h0.4c0.1,0,0.1,0.1,0.1,0.2C193.8,165.3,193.7,165.4,193.7,165.4"/>
	</g>
	<g>
		<defs>
			<rect id="SVGID_00000031927586247268193600000002190061113977134755_" x="156.5" y="14.1" width="126.4" height="170.6"/>
		</defs>
		<clipPath id="SVGID_00000059300002092919802500000006670251994891199665_">
			<use xlink:href="#SVGID_00000031927586247268193600000002190061113977134755_"  style="overflow:visible;"/>
		</clipPath>
		<path style="clip-path:url(#SVGID_00000059300002092919802500000006670251994891199665_);fill:#6A2875;" d="M196.2,166.2
			C196.2,166.2,196.2,166.2,196.2,166.2C196.2,166.2,196.2,166.2,196.2,166.2l-1.9,0.2c0,0.3,0.1,0.4,0.2,0.6
			c0.1,0.2,0.3,0.3,0.6,0.3c0.3,0,0.5-0.1,0.6-0.5c0-0.1,0.1-0.1,0.2-0.1c0.1,0,0.2,0,0.2,0.1c0,0,0,0,0,0c-0.1,0.3-0.2,0.4-0.4,0.6
			c-0.2,0.1-0.4,0.2-0.7,0.2c-0.4,0-0.7-0.1-0.9-0.4c-0.2-0.2-0.3-0.6-0.3-1c0-0.4,0.1-0.7,0.3-1c0.2-0.3,0.5-0.4,0.9-0.4
			c0.3,0,0.6,0.1,0.8,0.4c0.1,0.1,0.2,0.2,0.2,0.4C196.1,165.7,196.2,165.9,196.2,166.2 M195.7,165.9c0-0.2-0.1-0.3-0.1-0.4
			c-0.1-0.2-0.3-0.3-0.5-0.3c-0.2,0-0.4,0.1-0.5,0.2c-0.1,0.1-0.2,0.3-0.2,0.5L195.7,165.9z"/>
	</g>
	<g>
		<defs>
			<rect id="SVGID_00000026153876520275248780000005500462250233426074_" x="156.5" y="14.1" width="126.4" height="170.6"/>
		</defs>
		<clipPath id="SVGID_00000002370198166136970180000010927303304692983205_">
			<use xlink:href="#SVGID_00000026153876520275248780000005500462250233426074_"  style="overflow:visible;"/>
		</clipPath>
		<path style="clip-path:url(#SVGID_00000002370198166136970180000010927303304692983205_);fill:#6A2875;" d="M197,167.4
			c0,0.1-0.1,0.2-0.2,0.2c-0.2,0-0.2-0.1-0.2-0.2v-3c0-0.1,0-0.2,0.1-0.3c0.1-0.1,0.2-0.2,0.2-0.2c0.1,0,0.1,0,0.1,0.1L197,167.4
			L197,167.4z"/>
	</g>
	<g>
		<defs>
			<rect id="SVGID_00000147196039809099650880000005838650911708907437_" x="156.5" y="14.1" width="126.4" height="170.6"/>
		</defs>
		<clipPath id="SVGID_00000065043351937168454600000016849146048453961866_">
			<use xlink:href="#SVGID_00000147196039809099650880000005838650911708907437_"  style="overflow:visible;"/>
		</clipPath>
		<path style="clip-path:url(#SVGID_00000065043351937168454600000016849146048453961866_);fill:#6A2875;" d="M199.5,166.8
			c0,0.3-0.2,0.6-0.5,0.7c-0.2,0.1-0.4,0.1-0.6,0.1c-0.5,0-0.8-0.2-1-0.5c0,0,0,0,0-0.1c0-0.1,0-0.1,0.1-0.2c0.1,0,0.1-0.1,0.2-0.1
			c0.1,0,0.1,0,0.1,0.1c0.1,0.2,0.3,0.4,0.6,0.4c0.4,0,0.6-0.1,0.6-0.4c0-0.1,0-0.2-0.1-0.2c-0.1,0-0.2-0.1-0.4-0.1
			c-0.3-0.1-0.4-0.1-0.5-0.1c-0.3-0.1-0.5-0.3-0.5-0.7c0-0.3,0.1-0.5,0.3-0.6c0.2-0.1,0.4-0.2,0.7-0.2c0.4,0,0.7,0.1,0.9,0.3l0,0
			c0,0,0,0,0,0c0,0.1,0,0.1-0.1,0.1c-0.1,0-0.1,0.1-0.2,0.1c-0.1,0-0.1,0-0.1-0.1c-0.1-0.1-0.2-0.2-0.5-0.2c-0.4,0-0.6,0.1-0.6,0.3
			c0,0.1,0.1,0.2,0.2,0.3c0,0,0.2,0.1,0.4,0.1c0.3,0.1,0.4,0.1,0.5,0.1C199.4,166.2,199.5,166.4,199.5,166.8"/>
	</g>
	<g>
		<defs>
			<rect id="SVGID_00000099638624214273578700000000858160630400317875_" x="156.5" y="14.1" width="126.4" height="170.6"/>
		</defs>
		<clipPath id="SVGID_00000150802892787309435530000002558654645231645094_">
			<use xlink:href="#SVGID_00000099638624214273578700000000858160630400317875_"  style="overflow:visible;"/>
		</clipPath>
		<path style="clip-path:url(#SVGID_00000150802892787309435530000002558654645231645094_);fill:#6A2875;" d="M203.7,167.5
			c0,0.1-0.1,0.1-0.2,0.1c-0.1,0-0.2,0-0.2-0.1v-0.3c-0.2,0.3-0.4,0.4-0.7,0.4c-0.4,0-0.6-0.1-0.9-0.4c-0.2-0.3-0.3-0.6-0.3-0.9
			c0-0.4,0.1-0.7,0.3-0.9c0.2-0.3,0.5-0.4,0.8-0.4c0.3,0,0.5,0.1,0.7,0.4v-1.2c0-0.1,0.1-0.1,0.2-0.1c0.2,0,0.2,0,0.2,0.1V167.5z
			 M203.2,166.2c0-0.3,0-0.5-0.1-0.7c-0.1-0.2-0.3-0.3-0.5-0.3c-0.2,0-0.4,0.1-0.5,0.3c-0.1,0.2-0.1,0.4-0.1,0.7
			c0,0.3,0,0.5,0.2,0.7c0.1,0.2,0.3,0.3,0.6,0.3c0.2,0,0.4-0.1,0.6-0.3C203.2,166.8,203.2,166.6,203.2,166.2"/>
	</g>
	<g>
		<defs>
			<rect id="SVGID_00000162316599102461754470000005057180816457546903_" x="156.5" y="14.1" width="126.4" height="170.6"/>
		</defs>
		<clipPath id="SVGID_00000040551505936304918450000008321877401320595384_">
			<use xlink:href="#SVGID_00000162316599102461754470000005057180816457546903_"  style="overflow:visible;"/>
		</clipPath>
		<path style="clip-path:url(#SVGID_00000040551505936304918450000008321877401320595384_);fill:#6A2875;" d="M204.5,164.1
			C204.5,164.2,204.5,164.2,204.5,164.1l0,0.2c0,0.2-0.1,0.4-0.1,0.4c-0.1,0.1-0.2,0.2-0.3,0.3c-0.1,0-0.1,0-0.1-0.1c0,0,0,0,0-0.1
			c0.2-0.1,0.3-0.2,0.3-0.5c-0.1,0-0.1,0-0.2-0.1c-0.1-0.1-0.1-0.1-0.1-0.2c0-0.1,0-0.1,0.1-0.2c0.1,0,0.1-0.1,0.2-0.1
			c0.1,0,0.1,0,0.2,0.1C204.5,164,204.5,164.1,204.5,164.1"/>
	</g>
	<g>
		<defs>
			<rect id="SVGID_00000004543675644423438870000005942926250525950606_" x="156.5" y="14.1" width="126.4" height="170.6"/>
		</defs>
		<clipPath id="SVGID_00000151540537078394514380000001809146105745025464_">
			<use xlink:href="#SVGID_00000004543675644423438870000005942926250525950606_"  style="overflow:visible;"/>
		</clipPath>
		<path style="clip-path:url(#SVGID_00000151540537078394514380000001809146105745025464_);fill:#6A2875;" d="M207.2,166.2
			C207.2,166.2,207.2,166.2,207.2,166.2C207.2,166.2,207.2,166.2,207.2,166.2l-1.9,0.2c0,0.3,0.1,0.4,0.2,0.6
			c0.1,0.2,0.3,0.3,0.6,0.3c0.3,0,0.5-0.1,0.7-0.5c0-0.1,0.1-0.1,0.2-0.1c0.2,0,0.2,0,0.2,0.1c0,0,0,0,0,0c-0.1,0.3-0.2,0.4-0.4,0.6
			c-0.2,0.1-0.4,0.2-0.7,0.2c-0.4,0-0.7-0.1-0.9-0.4c-0.2-0.2-0.3-0.6-0.3-1c0-0.4,0.1-0.7,0.3-1c0.2-0.3,0.5-0.4,0.9-0.4
			c0.4,0,0.6,0.1,0.8,0.4c0.1,0.1,0.2,0.2,0.2,0.4C207.2,165.7,207.2,165.9,207.2,166.2 M206.8,165.9c0-0.2-0.1-0.3-0.1-0.4
			c-0.1-0.2-0.3-0.3-0.5-0.3c-0.2,0-0.4,0.1-0.5,0.2c-0.1,0.1-0.2,0.3-0.2,0.5L206.8,165.9z"/>
	</g>
	<g>
		<defs>
			<rect id="SVGID_00000057114135941503340220000001534745135736463496_" x="156.5" y="14.1" width="126.4" height="170.6"/>
		</defs>
		<clipPath id="SVGID_00000173124181284701471500000008438513233316009619_">
			<use xlink:href="#SVGID_00000057114135941503340220000001534745135736463496_"  style="overflow:visible;"/>
		</clipPath>
		<path style="clip-path:url(#SVGID_00000173124181284701471500000008438513233316009619_);fill:#6A2875;" d="M209.8,167.4
			c0,0.1-0.1,0.1-0.2,0.1c-0.1,0-0.2-0.1-0.2-0.1v-1.2c0-0.3,0-0.5-0.1-0.6c-0.1-0.2-0.3-0.3-0.5-0.3c-0.2,0-0.4,0.1-0.5,0.3
			c-0.1,0.1-0.1,0.3-0.1,0.6v1.2c0,0.1-0.1,0.1-0.2,0.1c-0.1,0-0.2-0.1-0.2-0.1v-1.2c0-0.4,0.1-0.7,0.2-0.9c0.2-0.3,0.5-0.4,0.8-0.4
			c0.2,0,0.4,0,0.5,0.2c0.3,0.2,0.5,0.6,0.5,1.2L209.8,167.4L209.8,167.4z"/>
	</g>
	<g>
		<defs>
			<rect id="SVGID_00000030482687040244373450000015952333115214867367_" x="156.5" y="14.1" width="126.4" height="170.6"/>
		</defs>
		<clipPath id="SVGID_00000008126381772521744220000006817847714539745957_">
			<use xlink:href="#SVGID_00000030482687040244373450000015952333115214867367_"  style="overflow:visible;"/>
		</clipPath>
		<path style="clip-path:url(#SVGID_00000008126381772521744220000006817847714539745957_);fill:#6A2875;" d="M211.2,165.4h-0.4v2.1
			c0,0.1-0.1,0.1-0.2,0.1c-0.2,0-0.2-0.1-0.2-0.1v-2.1h-0.2c-0.1,0-0.1-0.1-0.1-0.2c0-0.1,0-0.2,0.1-0.2h0.2v-0.7
			c0-0.1,0.1-0.1,0.2-0.1c0.1,0,0.2,0,0.2,0.1v0.7h0.4c0.1,0,0.1,0.1,0.1,0.2C211.3,165.3,211.3,165.4,211.2,165.4"/>
	</g>
	<g>
		<defs>
			<rect id="SVGID_00000151526764539516099980000002179238337920214956_" x="156.5" y="14.1" width="126.4" height="170.6"/>
		</defs>
		<clipPath id="SVGID_00000167368788904304182040000012510674668334041230_">
			<use xlink:href="#SVGID_00000151526764539516099980000002179238337920214956_"  style="overflow:visible;"/>
		</clipPath>
		<path style="clip-path:url(#SVGID_00000167368788904304182040000012510674668334041230_);fill:#6A2875;" d="M213.1,164.9
			c0.1,0.1,0.1,0.1,0.1,0.2c0,0.1,0,0.1-0.1,0.2c-0.1,0.1-0.1,0.1-0.2,0.1c0,0,0,0-0.1,0c0-0.1-0.1-0.1-0.3-0.1
			c-0.2,0-0.4,0.1-0.5,0.3c-0.1,0.2-0.1,0.4-0.1,0.6c0,0,0,0,0,0.1c0,0,0,0.1,0,0.1v1.1c0,0.1-0.1,0.1-0.2,0.1c-0.1,0-0.2,0-0.2-0.1
			v-2.3v-0.1v0c0-0.1,0.1-0.1,0.3-0.1c0.1,0,0.2,0,0.2,0.1v0.2c0.2-0.2,0.4-0.4,0.7-0.4C212.9,164.9,213.1,164.9,213.1,164.9"/>
	</g>
	<g>
		<defs>
			<rect id="SVGID_00000127755241591278760490000010317932508725177478_" x="156.5" y="14.1" width="126.4" height="170.6"/>
		</defs>
		<clipPath id="SVGID_00000147186675678721823460000003676410207895844539_">
			<use xlink:href="#SVGID_00000127755241591278760490000010317932508725177478_"  style="overflow:visible;"/>
		</clipPath>
		<path style="clip-path:url(#SVGID_00000147186675678721823460000003676410207895844539_);fill:#6A2875;" d="M215.6,166.2
			C215.6,166.2,215.6,166.2,215.6,166.2C215.6,166.2,215.6,166.2,215.6,166.2l-1.9,0.2c0,0.3,0.1,0.4,0.2,0.6
			c0.1,0.2,0.3,0.3,0.6,0.3c0.3,0,0.5-0.1,0.7-0.5c0-0.1,0.1-0.1,0.2-0.1c0.2,0,0.2,0,0.2,0.1c0,0,0,0,0,0c-0.1,0.3-0.2,0.4-0.4,0.6
			c-0.2,0.1-0.4,0.2-0.7,0.2c-0.4,0-0.7-0.1-0.9-0.4c-0.2-0.2-0.3-0.6-0.3-1c0-0.4,0.1-0.7,0.3-1c0.2-0.3,0.5-0.4,0.9-0.4
			c0.3,0,0.6,0.1,0.8,0.4c0.1,0.1,0.2,0.2,0.2,0.4C215.6,165.7,215.6,165.9,215.6,166.2 M215.2,165.9c0-0.2-0.1-0.3-0.1-0.4
			c-0.1-0.2-0.3-0.3-0.5-0.3c-0.2,0-0.4,0.1-0.5,0.2c-0.1,0.1-0.2,0.3-0.2,0.5L215.2,165.9z"/>
	</g>
	<g>
		<defs>
			<rect id="SVGID_00000131361034869577468250000008326150332568188288_" x="156.5" y="14.1" width="126.4" height="170.6"/>
		</defs>
		<clipPath id="SVGID_00000177468959079216593900000017885417344549089937_">
			<use xlink:href="#SVGID_00000131361034869577468250000008326150332568188288_"  style="overflow:visible;"/>
		</clipPath>
		<path style="clip-path:url(#SVGID_00000177468959079216593900000017885417344549089937_);fill:#6A2875;" d="M218.2,166.2
			c0,0.4-0.1,0.7-0.3,0.9c-0.2,0.3-0.5,0.4-0.8,0.4c-0.3,0-0.5-0.1-0.7-0.3v1.1c0,0.1-0.1,0.1-0.2,0.1c-0.1,0-0.2,0-0.2-0.1V165
			c0-0.1,0.1-0.1,0.2-0.1c0.1,0,0.2,0,0.2,0.1v0.3c0.2-0.3,0.4-0.4,0.7-0.4c0.4,0,0.7,0.1,0.9,0.4
			C218.1,165.5,218.2,165.9,218.2,166.2 M217.8,166.2c0-0.3,0-0.5-0.1-0.7c-0.1-0.2-0.3-0.3-0.6-0.3c-0.2,0-0.4,0.1-0.6,0.3
			c0,0.1-0.1,0.3-0.1,0.7c0,0.3,0,0.5,0.1,0.7c0.1,0.2,0.3,0.3,0.5,0.3c0.3,0,0.4-0.1,0.5-0.3C217.7,166.7,217.8,166.5,217.8,166.2"
			/>
	</g>
	<g>
		<defs>
			<rect id="SVGID_00000121274973629688673600000003969511514323857292_" x="156.5" y="14.1" width="126.4" height="170.6"/>
		</defs>
		<clipPath id="SVGID_00000127024530664804409130000014998879146483266178_">
			<use xlink:href="#SVGID_00000121274973629688673600000003969511514323857292_"  style="overflow:visible;"/>
		</clipPath>
		<path style="clip-path:url(#SVGID_00000127024530664804409130000014998879146483266178_);fill:#6A2875;" d="M220.3,164.9
			c0.1,0.1,0.1,0.1,0.1,0.2c0,0.1,0,0.1-0.1,0.2c-0.1,0.1-0.1,0.1-0.2,0.1c0,0,0,0-0.1,0c0-0.1-0.1-0.1-0.3-0.1
			c-0.2,0-0.4,0.1-0.5,0.3c-0.1,0.2-0.1,0.4-0.1,0.6c0,0,0,0,0,0.1c0,0,0,0.1,0,0.1v1.1c0,0.1-0.1,0.1-0.2,0.1c-0.1,0-0.2,0-0.2-0.1
			v-2.3v-0.1v0c0-0.1,0.1-0.1,0.3-0.1c0.1,0,0.2,0,0.2,0.1v0.2c0.2-0.2,0.4-0.4,0.7-0.4C220.1,164.9,220.2,164.9,220.3,164.9"/>
	</g>
	<g>
		<defs>
			<rect id="SVGID_00000124872253936022542340000010426825538463625360_" x="156.5" y="14.1" width="126.4" height="170.6"/>
		</defs>
		<clipPath id="SVGID_00000028326374635740234420000003820472583177067941_">
			<use xlink:href="#SVGID_00000124872253936022542340000010426825538463625360_"  style="overflow:visible;"/>
		</clipPath>
		<path style="clip-path:url(#SVGID_00000028326374635740234420000003820472583177067941_);fill:#6A2875;" d="M221,164.2
			c0,0.1,0,0.1-0.1,0.2c0,0-0.1,0.1-0.2,0.1c-0.1,0-0.1,0-0.2-0.1c-0.1-0.1-0.1-0.1-0.1-0.2c0-0.1,0-0.1,0.1-0.2
			c0.1,0,0.1-0.1,0.2-0.1c0.1,0,0.1,0,0.2,0.1C221,164,221,164.1,221,164.2 M221,167.4c0,0.1-0.1,0.1-0.2,0.1c-0.1,0-0.2,0-0.2-0.1
			v-2.4c0-0.1,0.1-0.1,0.2-0.1c0.1,0,0.2,0,0.2,0.1L221,167.4L221,167.4z"/>
	</g>
	<g>
		<defs>
			<rect id="SVGID_00000088823714049368394480000015818653691055246471_" x="156.5" y="14.1" width="126.4" height="170.6"/>
		</defs>
		<clipPath id="SVGID_00000182525658361356685710000010130362514171372474_">
			<use xlink:href="#SVGID_00000088823714049368394480000015818653691055246471_"  style="overflow:visible;"/>
		</clipPath>
		<path style="clip-path:url(#SVGID_00000182525658361356685710000010130362514171372474_);fill:#6A2875;" d="M223.5,166.8
			c0,0.3-0.2,0.6-0.5,0.7c-0.2,0.1-0.4,0.1-0.6,0.1c-0.5,0-0.8-0.2-1-0.5c0,0,0,0,0-0.1c0-0.1,0-0.1,0.1-0.2c0,0,0.1-0.1,0.2-0.1
			c0.1,0,0.1,0,0.1,0.1c0.1,0.2,0.3,0.4,0.6,0.4c0.4,0,0.7-0.1,0.7-0.4c0-0.1,0-0.2-0.1-0.2c-0.1,0-0.2-0.1-0.5-0.1
			c-0.3-0.1-0.5-0.1-0.5-0.1c-0.3-0.1-0.5-0.3-0.5-0.7c0-0.3,0.1-0.5,0.3-0.6c0.2-0.1,0.4-0.2,0.7-0.2c0.4,0,0.7,0.1,0.9,0.3l0,0
			c0,0,0,0,0,0c0,0.1,0,0.1-0.1,0.1c-0.1,0-0.1,0.1-0.2,0.1c-0.1,0-0.1,0-0.1-0.1c-0.1-0.1-0.3-0.2-0.5-0.2c-0.4,0-0.6,0.1-0.6,0.3
			c0,0.1,0.1,0.2,0.2,0.3c0,0,0.2,0.1,0.4,0.1c0.3,0.1,0.5,0.1,0.5,0.1C223.3,166.2,223.5,166.4,223.5,166.8"/>
	</g>
	<g>
		<defs>
			<rect id="SVGID_00000164504661455155685690000011540160909325593530_" x="156.5" y="14.1" width="126.4" height="170.6"/>
		</defs>
		<clipPath id="SVGID_00000077304099283675934590000005840606089351921053_">
			<use xlink:href="#SVGID_00000164504661455155685690000011540160909325593530_"  style="overflow:visible;"/>
		</clipPath>
		<path style="clip-path:url(#SVGID_00000077304099283675934590000005840606089351921053_);fill:#6A2875;" d="M226,166.2
			C226,166.2,226,166.2,226,166.2C226,166.2,226,166.2,226,166.2l-1.9,0.2c0,0.3,0.1,0.4,0.2,0.6c0.1,0.2,0.3,0.3,0.6,0.3
			c0.3,0,0.5-0.1,0.7-0.5c0-0.1,0.1-0.1,0.2-0.1c0.2,0,0.2,0,0.2,0.1c0,0,0,0,0,0c-0.1,0.3-0.2,0.4-0.4,0.6
			c-0.2,0.1-0.4,0.2-0.7,0.2c-0.4,0-0.7-0.1-0.9-0.4c-0.2-0.2-0.3-0.6-0.3-1c0-0.4,0.1-0.7,0.3-1c0.2-0.3,0.5-0.4,0.9-0.4
			c0.4,0,0.6,0.1,0.8,0.4c0.1,0.1,0.2,0.2,0.2,0.4C226,165.7,226,165.9,226,166.2 M225.6,165.9c0-0.2-0.1-0.3-0.1-0.4
			c-0.1-0.2-0.3-0.3-0.5-0.3c-0.2,0-0.4,0.1-0.5,0.2c-0.1,0.1-0.2,0.3-0.2,0.5L225.6,165.9z"/>
	</g>
	<g>
		<defs>
			<rect id="SVGID_00000095314323633592257710000012403118519350347681_" x="156.5" y="14.1" width="126.4" height="170.6"/>
		</defs>
		<clipPath id="SVGID_00000106857510297671366730000006854418741316540306_">
			<use xlink:href="#SVGID_00000095314323633592257710000012403118519350347681_"  style="overflow:visible;"/>
		</clipPath>
		<path style="clip-path:url(#SVGID_00000106857510297671366730000006854418741316540306_);fill:#6A2875;" d="M228.5,166.8
			c0,0.3-0.2,0.6-0.5,0.7c-0.2,0.1-0.4,0.1-0.6,0.1c-0.5,0-0.8-0.2-1-0.5c0,0,0,0,0-0.1c0-0.1,0-0.1,0.1-0.2c0,0,0.1-0.1,0.2-0.1
			c0.1,0,0.1,0,0.1,0.1c0.1,0.2,0.3,0.4,0.6,0.4c0.4,0,0.7-0.1,0.7-0.4c0-0.1,0-0.2-0.1-0.2c-0.1,0-0.2-0.1-0.5-0.1
			c-0.3-0.1-0.5-0.1-0.5-0.1c-0.3-0.1-0.5-0.3-0.5-0.7c0-0.3,0.1-0.5,0.3-0.6c0.2-0.1,0.4-0.2,0.7-0.2c0.4,0,0.7,0.1,0.9,0.3l0,0
			c0,0,0,0,0,0c0,0.1,0,0.1-0.1,0.1c-0.1,0-0.1,0.1-0.2,0.1c-0.1,0-0.1,0-0.1-0.1c-0.1-0.1-0.3-0.2-0.5-0.2c-0.4,0-0.6,0.1-0.6,0.3
			c0,0.1,0.1,0.2,0.2,0.3c0,0,0.2,0.1,0.4,0.1c0.3,0.1,0.5,0.1,0.5,0.1C228.3,166.2,228.5,166.4,228.5,166.8"/>
	</g>
	<g>
		<defs>
			<rect id="SVGID_00000086661321124082695710000010694435336951891133_" x="156.5" y="14.1" width="126.4" height="170.6"/>
		</defs>
		<clipPath id="SVGID_00000178893436020346553970000015404796142671895231_">
			<use xlink:href="#SVGID_00000086661321124082695710000010694435336951891133_"  style="overflow:visible;"/>
		</clipPath>
		<path style="clip-path:url(#SVGID_00000178893436020346553970000015404796142671895231_);fill:#6A2875;" d="M232.6,167.5
			c0,0.1-0.1,0.1-0.2,0.1c-0.1,0-0.2,0-0.2-0.1v-0.3c-0.2,0.3-0.4,0.4-0.7,0.4c-0.4,0-0.6-0.1-0.9-0.4c-0.2-0.3-0.3-0.6-0.3-0.9
			c0-0.4,0.1-0.7,0.3-0.9c0.2-0.3,0.5-0.4,0.8-0.4c0.3,0,0.5,0.1,0.7,0.4v-1.2c0-0.1,0.1-0.1,0.2-0.1c0.2,0,0.2,0,0.2,0.1
			L232.6,167.5L232.6,167.5z M232.2,166.2c0-0.3,0-0.5-0.1-0.7c-0.1-0.2-0.3-0.3-0.5-0.3c-0.2,0-0.4,0.1-0.5,0.3
			c-0.1,0.2-0.1,0.4-0.1,0.7c0,0.3,0.1,0.5,0.2,0.7c0.1,0.2,0.3,0.3,0.6,0.3c0.2,0,0.4-0.1,0.6-0.3
			C232.1,166.8,232.2,166.6,232.2,166.2"/>
	</g>
	<g>
		<defs>
			<rect id="SVGID_00000034048784610598533770000011202682511283986820_" x="156.5" y="14.1" width="126.4" height="170.6"/>
		</defs>
		<clipPath id="SVGID_00000085948219955092551370000005340343201764463249_">
			<use xlink:href="#SVGID_00000034048784610598533770000011202682511283986820_"  style="overflow:visible;"/>
		</clipPath>
		<path style="clip-path:url(#SVGID_00000085948219955092551370000005340343201764463249_);fill:#6A2875;" d="M235.2,166.2
			C235.2,166.2,235.2,166.2,235.2,166.2C235.2,166.2,235.2,166.2,235.2,166.2l-1.9,0.2c0,0.3,0.1,0.4,0.2,0.6
			c0.1,0.2,0.3,0.3,0.6,0.3c0.3,0,0.5-0.1,0.6-0.5c0-0.1,0.1-0.1,0.2-0.1c0.2,0,0.2,0,0.2,0.1c0,0,0,0,0,0c-0.1,0.3-0.2,0.4-0.4,0.6
			c-0.2,0.1-0.4,0.2-0.7,0.2c-0.4,0-0.7-0.1-0.9-0.4c-0.2-0.2-0.3-0.6-0.3-1c0-0.4,0.1-0.7,0.3-1c0.2-0.3,0.5-0.4,0.9-0.4
			c0.4,0,0.6,0.1,0.8,0.4c0.1,0.1,0.2,0.2,0.2,0.4C235.2,165.7,235.2,165.9,235.2,166.2 M234.7,165.9c0-0.2-0.1-0.3-0.1-0.4
			c-0.1-0.2-0.3-0.3-0.5-0.3c-0.2,0-0.4,0.1-0.5,0.2c-0.1,0.1-0.2,0.3-0.2,0.5L234.7,165.9z"/>
	</g>
	<g>
		<defs>
			<rect id="SVGID_00000171696772492227179720000014456025699261314180_" x="156.5" y="14.1" width="126.4" height="170.6"/>
		</defs>
		<clipPath id="SVGID_00000111190798532529612950000011408811695116063111_">
			<use xlink:href="#SVGID_00000171696772492227179720000014456025699261314180_"  style="overflow:visible;"/>
		</clipPath>
		<path style="clip-path:url(#SVGID_00000111190798532529612950000011408811695116063111_);fill:#6A2875;" d="M237.6,167.4
			c0,0.1-0.1,0.2-0.2,0.2c-0.2,0-0.2-0.1-0.2-0.2v-3c0-0.1,0-0.2,0.1-0.3c0.1-0.1,0.2-0.2,0.2-0.2c0.1,0,0.1,0,0.1,0.1L237.6,167.4
			L237.6,167.4z"/>
	</g>
	<g>
		<defs>
			<rect id="SVGID_00000132064132143266267330000002961736981405622463_" x="156.5" y="14.1" width="126.4" height="170.6"/>
		</defs>
		<clipPath id="SVGID_00000089538585457310071430000014490651100244211898_">
			<use xlink:href="#SVGID_00000132064132143266267330000002961736981405622463_"  style="overflow:visible;"/>
		</clipPath>
		<path style="clip-path:url(#SVGID_00000089538585457310071430000014490651100244211898_);fill:#6A2875;" d="M240.2,167.5
			c0,0.1-0.1,0.1-0.2,0.1c-0.1,0-0.2,0-0.2-0.1v-0.3c-0.2,0.3-0.4,0.4-0.7,0.4c-0.2,0-0.4-0.1-0.6-0.2c-0.2-0.1-0.3-0.3-0.4-0.5
			c-0.1-0.2-0.1-0.4-0.1-0.7c0-0.6,0.2-1,0.5-1.2c0.2-0.1,0.4-0.2,0.6-0.2c0.3,0,0.5,0.1,0.7,0.4v-0.3c0-0.1,0.1-0.1,0.2-0.1
			c0.2,0,0.2,0,0.2,0.1V167.5z M239.8,166.3c0-0.3-0.1-0.5-0.1-0.7c-0.1-0.2-0.3-0.4-0.6-0.4c-0.2,0-0.4,0.1-0.5,0.3
			c-0.1,0.2-0.1,0.4-0.1,0.7c0,0.3,0,0.5,0.2,0.7c0.1,0.2,0.3,0.3,0.6,0.3c0.2,0,0.4-0.1,0.5-0.3
			C239.7,166.7,239.8,166.5,239.8,166.3"/>
	</g>
	<g>
		<defs>
			<rect id="SVGID_00000180340071923788824480000008181774124954216600_" x="156.5" y="14.1" width="126.4" height="170.6"/>
		</defs>
		<clipPath id="SVGID_00000134968213883481248730000002872579823072113807_">
			<use xlink:href="#SVGID_00000180340071923788824480000008181774124954216600_"  style="overflow:visible;"/>
		</clipPath>
		<path style="clip-path:url(#SVGID_00000134968213883481248730000002872579823072113807_);fill:#6A2875;" d="M245.7,167.4
			c0,0.1-0.1,0.2-0.2,0.2c-0.2,0-0.2-0.1-0.2-0.2v-2.7l-1.1,2.1c-0.1,0.1-0.1,0.1-0.2,0.1c-0.1,0-0.1,0-0.2-0.1l-1-2.2v2.7
			c0,0.1-0.1,0.1-0.2,0.1c-0.1,0-0.2-0.1-0.2-0.1v-3.3c0-0.1,0.1-0.1,0.2-0.1c0.2,0,0.4,0.1,0.5,0.3l1,2l1-2
			c0.1-0.2,0.3-0.3,0.5-0.3c0.2,0,0.2,0.1,0.2,0.1L245.7,167.4L245.7,167.4z"/>
	</g>
	<g>
		<defs>
			<rect id="SVGID_00000090262485919704330420000008564129233014643075_" x="156.5" y="14.1" width="126.4" height="170.6"/>
		</defs>
		<clipPath id="SVGID_00000142857069489529355860000014740155942123482270_">
			<use xlink:href="#SVGID_00000090262485919704330420000008564129233014643075_"  style="overflow:visible;"/>
		</clipPath>
		<path style="clip-path:url(#SVGID_00000142857069489529355860000014740155942123482270_);fill:#6A2875;" d="M248.5,166.2
			C248.5,166.2,248.5,166.2,248.5,166.2l-1.9,0.1c0,0.3,0.1,0.4,0.2,0.6c0.1,0.2,0.3,0.3,0.6,0.3c0.3,0,0.5-0.1,0.6-0.5
			c0-0.1,0.1-0.1,0.2-0.1c0.1,0,0.2,0,0.2,0.1c0,0,0,0,0,0c-0.1,0.3-0.2,0.4-0.4,0.6c-0.2,0.1-0.4,0.2-0.7,0.2
			c-0.4,0-0.7-0.1-0.9-0.4c-0.2-0.2-0.3-0.6-0.3-1c0-0.4,0.1-0.7,0.3-1c0.2-0.3,0.5-0.4,0.9-0.4c0.4,0,0.6,0.1,0.9,0.4
			c0.1,0.1,0.2,0.2,0.2,0.4C248.4,165.7,248.4,165.9,248.5,166.2C248.5,166.2,248.5,166.2,248.5,166.2 M247.9,165.5
			c-0.1-0.2-0.3-0.3-0.5-0.3c-0.2,0-0.4,0.1-0.5,0.2c-0.1,0.1-0.2,0.3-0.2,0.5l1.4-0.1C248,165.7,248,165.6,247.9,165.5
			 M247.5,164.6c-0.1,0-0.1,0-0.2-0.1c-0.1,0-0.1-0.1-0.1-0.2c0,0,0,0,0,0l0.2-0.5c0,0,0.1,0,0.1,0s0.1,0,0.2,0.1
			c0.1,0,0.1,0.1,0.1,0.1c0,0,0,0,0,0l-0.2,0.5C247.6,164.6,247.5,164.6,247.5,164.6"/>
	</g>
	<g>
		<defs>
			<rect id="SVGID_00000043458247532554369550000001178413361218056637_" x="156.5" y="14.1" width="126.4" height="170.6"/>
		</defs>
		<clipPath id="SVGID_00000036248698608123212810000009434816249647287187_">
			<use xlink:href="#SVGID_00000043458247532554369550000001178413361218056637_"  style="overflow:visible;"/>
		</clipPath>
		<path style="clip-path:url(#SVGID_00000036248698608123212810000009434816249647287187_);fill:#6A2875;" d="M249.8,165.4h-0.4v2.1
			c0,0.1-0.1,0.1-0.2,0.1c-0.2,0-0.2-0.1-0.2-0.1v-2.1h-0.2c-0.1,0-0.1-0.1-0.1-0.2c0-0.1,0-0.2,0.1-0.2h0.2v-0.7
			c0-0.1,0.1-0.1,0.2-0.1c0.1,0,0.2,0,0.2,0.1v0.7h0.4c0.1,0,0.1,0.1,0.1,0.2C250,165.3,249.9,165.4,249.8,165.4"/>
	</g>
	<g>
		<defs>
			<rect id="SVGID_00000098182170661453345040000010349020483589684654_" x="156.5" y="14.1" width="126.4" height="170.6"/>
		</defs>
		<clipPath id="SVGID_00000147178863830006251450000017080458111480830383_">
			<use xlink:href="#SVGID_00000098182170661453345040000010349020483589684654_"  style="overflow:visible;"/>
		</clipPath>
		<path style="clip-path:url(#SVGID_00000147178863830006251450000017080458111480830383_);fill:#6A2875;" d="M251.7,164.9
			c0.1,0.1,0.1,0.1,0.1,0.2c0,0.1,0,0.1-0.1,0.2c-0.1,0.1-0.1,0.1-0.2,0.1c0,0,0,0-0.1,0c0-0.1-0.1-0.1-0.3-0.1
			c-0.2,0-0.4,0.1-0.6,0.3c-0.1,0.2-0.1,0.4-0.1,0.6c0,0,0,0,0,0.1c0,0,0,0.1,0,0.1v1.1c0,0.1-0.1,0.1-0.2,0.1c-0.1,0-0.2,0-0.2-0.1
			v-2.3v-0.1v0c0-0.1,0.1-0.1,0.3-0.1c0.1,0,0.2,0,0.2,0.1v0.2c0.2-0.2,0.4-0.4,0.7-0.4C251.5,164.9,251.7,164.9,251.7,164.9"/>
	</g>
	<g>
		<defs>
			<rect id="SVGID_00000134212378365305870910000011320139923680105898_" x="156.5" y="14.1" width="126.4" height="170.6"/>
		</defs>
		<clipPath id="SVGID_00000154390817799702046320000011154570923985541284_">
			<use xlink:href="#SVGID_00000134212378365305870910000011320139923680105898_"  style="overflow:visible;"/>
		</clipPath>
		<path style="clip-path:url(#SVGID_00000154390817799702046320000011154570923985541284_);fill:#6A2875;" d="M254.3,166.2
			c0,0.6-0.2,1-0.6,1.2c-0.2,0.1-0.4,0.2-0.6,0.2c-0.4,0-0.7-0.1-0.9-0.4c-0.2-0.2-0.3-0.6-0.3-1c0-0.5,0.1-0.8,0.4-1.1
			c0.2-0.2,0.5-0.3,0.8-0.3c0.4,0,0.7,0.1,0.9,0.4C254.2,165.5,254.3,165.8,254.3,166.2 M253.8,166.2c0-0.3-0.1-0.5-0.2-0.7
			c-0.1-0.2-0.3-0.3-0.6-0.3c-0.3,0-0.5,0.1-0.6,0.3c-0.1,0.2-0.2,0.4-0.2,0.7s0.1,0.5,0.2,0.7c0.1,0.2,0.3,0.3,0.6,0.3
			c0.3,0,0.5-0.1,0.6-0.3C253.8,166.7,253.8,166.5,253.8,166.2"/>
	</g>
	<g>
		<defs>
			<rect id="SVGID_00000176025719970722980630000013594100831450587024_" x="156.5" y="14.1" width="126.4" height="170.6"/>
		</defs>
		<clipPath id="SVGID_00000089575419936752764080000007021213772655765930_">
			<use xlink:href="#SVGID_00000176025719970722980630000013594100831450587024_"  style="overflow:visible;"/>
		</clipPath>
		<path style="clip-path:url(#SVGID_00000089575419936752764080000007021213772655765930_);fill:#6A2875;" d="M256.8,166.2
			c0,0.4-0.1,0.7-0.3,0.9c-0.2,0.3-0.5,0.4-0.8,0.4c-0.3,0-0.5-0.1-0.7-0.3v1.1c0,0.1-0.1,0.1-0.2,0.1c-0.2,0-0.2,0-0.2-0.1V165
			c0-0.1,0.1-0.1,0.2-0.1c0.1,0,0.2,0,0.2,0.1v0.3c0.2-0.3,0.4-0.4,0.7-0.4c0.4,0,0.7,0.1,0.9,0.4
			C256.7,165.5,256.8,165.9,256.8,166.2 M256.4,166.2c0-0.3-0.1-0.5-0.2-0.7c-0.1-0.2-0.3-0.3-0.6-0.3c-0.2,0-0.4,0.1-0.6,0.3
			c-0.1,0.1-0.1,0.3-0.1,0.7c0,0.3,0,0.5,0.1,0.7c0.1,0.2,0.3,0.3,0.6,0.3c0.2,0,0.4-0.1,0.6-0.3
			C256.3,166.7,256.4,166.5,256.4,166.2"/>
	</g>
	<g>
		<defs>
			<rect id="SVGID_00000079463060234540691190000004392159914930831546_" x="156.5" y="14.1" width="126.4" height="170.6"/>
		</defs>
		<clipPath id="SVGID_00000134946031413310687010000016870941380524254134_">
			<use xlink:href="#SVGID_00000079463060234540691190000004392159914930831546_"  style="overflow:visible;"/>
		</clipPath>
		<path style="clip-path:url(#SVGID_00000134946031413310687010000016870941380524254134_);fill:#6A2875;" d="M259.5,166.2
			c0,0.6-0.2,1-0.6,1.2c-0.2,0.1-0.4,0.2-0.6,0.2c-0.4,0-0.7-0.1-0.9-0.4c-0.2-0.2-0.3-0.6-0.3-1c0-0.5,0.1-0.8,0.4-1.1
			c0.2-0.2,0.5-0.3,0.8-0.3c0.4,0,0.7,0.1,0.9,0.4C259.4,165.5,259.5,165.8,259.5,166.2 M259.1,166.2c0-0.3-0.1-0.5-0.2-0.7
			c-0.1-0.2-0.3-0.3-0.6-0.3c-0.3,0-0.5,0.1-0.6,0.3c-0.1,0.2-0.2,0.4-0.2,0.7s0.1,0.5,0.2,0.7c0.1,0.2,0.3,0.3,0.6,0.3
			c0.3,0,0.5-0.1,0.6-0.3C259,166.7,259.1,166.5,259.1,166.2"/>
	</g>
	<g>
		<defs>
			<rect id="SVGID_00000116951198347238539040000012091812578063208328_" x="156.5" y="14.1" width="126.4" height="170.6"/>
		</defs>
		<clipPath id="SVGID_00000096025114134200885140000014880294165763501988_">
			<use xlink:href="#SVGID_00000116951198347238539040000012091812578063208328_"  style="overflow:visible;"/>
		</clipPath>
		<path style="clip-path:url(#SVGID_00000096025114134200885140000014880294165763501988_);fill:#6A2875;" d="M260.3,167.4
			c0,0.1-0.1,0.2-0.2,0.2c-0.2,0-0.2-0.1-0.2-0.2v-3c0-0.1,0-0.2,0.1-0.3c0.1-0.1,0.2-0.2,0.2-0.2c0.1,0,0.1,0,0.1,0.1L260.3,167.4
			L260.3,167.4z"/>
	</g>
	<g>
		<defs>
			<rect id="SVGID_00000078750261518401116570000008375093021204208300_" x="156.5" y="14.1" width="126.4" height="170.6"/>
		</defs>
		<clipPath id="SVGID_00000181064266478036124290000008961764885557676942_">
			<use xlink:href="#SVGID_00000078750261518401116570000008375093021204208300_"  style="overflow:visible;"/>
		</clipPath>
		<path style="clip-path:url(#SVGID_00000181064266478036124290000008961764885557676942_);fill:#6A2875;" d="M263.1,166.2
			C263.1,166.2,263.1,166.2,263.1,166.2C263.1,166.2,263.1,166.2,263.1,166.2l-1.9,0.2c0,0.3,0.1,0.4,0.2,0.6
			c0.1,0.2,0.3,0.3,0.6,0.3c0.3,0,0.5-0.1,0.6-0.5c0-0.1,0.1-0.1,0.2-0.1c0.2,0,0.2,0,0.2,0.1c0,0,0,0,0,0c-0.1,0.3-0.2,0.4-0.4,0.6
			c-0.2,0.1-0.4,0.2-0.7,0.2c-0.4,0-0.7-0.1-0.9-0.4c-0.2-0.2-0.3-0.6-0.3-1c0-0.4,0.1-0.7,0.3-1c0.2-0.3,0.5-0.4,0.9-0.4
			c0.3,0,0.6,0.1,0.8,0.4c0.1,0.1,0.2,0.2,0.2,0.4C263,165.7,263,165.9,263.1,166.2 M262.6,165.9c0-0.2-0.1-0.3-0.1-0.4
			c-0.1-0.2-0.3-0.3-0.5-0.3c-0.2,0-0.4,0.1-0.5,0.2c-0.1,0.1-0.2,0.3-0.2,0.5L262.6,165.9z"/>
	</g>
	<g>
		<defs>
			<rect id="SVGID_00000129190062141788478410000001083402260614122905_" x="156.5" y="14.1" width="126.4" height="170.6"/>
		</defs>
		<clipPath id="SVGID_00000074413262061676460880000004642948453240923010_">
			<use xlink:href="#SVGID_00000129190062141788478410000001083402260614122905_"  style="overflow:visible;"/>
		</clipPath>
		<path style="clip-path:url(#SVGID_00000074413262061676460880000004642948453240923010_);fill:#01A0C6;" d="M187.8,118.1
			c0.8-0.1,1.9-0.2,3.3-0.2c1.6,0,2.7,0.2,3.5,0.9c0.7,0.5,1,1.3,1,2.3c0,1.4-1,2.3-1.9,2.7v0.1c0.8,0.3,1.2,1,1.5,2
			c0.3,1.2,0.7,2.7,0.9,3.1h-2.5c-0.2-0.3-0.4-1.2-0.7-2.5c-0.3-1.4-0.8-1.7-1.8-1.7h-0.7v4.3h-2.4V118.1z M190.2,122.7h1
			c1.2,0,1.9-0.6,1.9-1.6c0-1-0.7-1.5-1.8-1.5c-0.6,0-0.9,0-1.1,0.1V122.7z"/>
	</g>
	<g>
		<defs>
			<rect id="SVGID_00000171686524152510786450000004033902447150971264_" x="156.5" y="14.1" width="126.4" height="170.6"/>
		</defs>
		<clipPath id="SVGID_00000098221167206358925960000005728145384681024140_">
			<use xlink:href="#SVGID_00000171686524152510786450000004033902447150971264_"  style="overflow:visible;"/>
		</clipPath>
		<path style="clip-path:url(#SVGID_00000098221167206358925960000005728145384681024140_);fill:#01A0C6;" d="M200.4,128.9
			c-2.3,0-4.1-1.5-4.1-4.1c0-2.5,1.7-4.2,4.2-4.2c2.4,0,4,1.7,4,4C204.6,127.6,202.5,128.9,200.4,128.9L200.4,128.9L200.4,128.9z
			 M200.5,127.2c1,0,1.6-0.9,1.6-2.4c0-1.2-0.5-2.4-1.6-2.4c-1.2,0-1.6,1.2-1.6,2.4C198.9,126.2,199.4,127.2,200.5,127.2
			L200.5,127.2L200.5,127.2z"/>
	</g>
	<g>
		<defs>
			<rect id="SVGID_00000068672536925363225370000017755588501240294785_" x="156.5" y="14.1" width="126.4" height="170.6"/>
		</defs>
		<clipPath id="SVGID_00000155829795095819993720000016700320107735193781_">
			<use xlink:href="#SVGID_00000068672536925363225370000017755588501240294785_"  style="overflow:visible;"/>
		</clipPath>
		<path style="clip-path:url(#SVGID_00000155829795095819993720000016700320107735193781_);fill:#01A0C6;" d="M213.1,126.2
			c0,1,0,1.9,0.1,2.5H211l-0.1-1.1h-0.1c-0.3,0.5-1,1.3-2.5,1.3c-1.6,0-2.8-1-2.8-3.4v-4.6h2.5v4.2c0,1.1,0.4,1.8,1.2,1.8
			c0.7,0,1.1-0.5,1.2-0.9c0.1-0.1,0.1-0.3,0.1-0.5v-4.7h2.5L213.1,126.2L213.1,126.2z"/>
	</g>
	<g>
		<defs>
			<rect id="SVGID_00000170265752389737372100000016500249866911602073_" x="156.5" y="14.1" width="126.4" height="170.6"/>
		</defs>
		<clipPath id="SVGID_00000074434716944511030330000017221689439333138108_">
			<use xlink:href="#SVGID_00000170265752389737372100000016500249866911602073_"  style="overflow:visible;"/>
		</clipPath>
		<path style="clip-path:url(#SVGID_00000074434716944511030330000017221689439333138108_);fill:#01A0C6;" d="M216.4,125.6
			c0.1,1,1.1,1.5,2.2,1.5c0.8,0,1.5-0.1,2.2-0.3l0.3,1.7c-0.8,0.3-1.8,0.5-2.9,0.5c-2.7,0-4.2-1.5-4.2-4c0-2,1.3-4.2,4-4.2
			c2.6,0,3.5,2,3.5,3.9c0,0.4-0.1,0.8-0.1,1L216.4,125.6z M219.3,123.9c0-0.6-0.3-1.6-1.4-1.6c-1,0-1.5,1-1.5,1.6H219.3z"/>
	</g>
	<g>
		<defs>
			<rect id="SVGID_00000078012741923434553990000000039663138462245805_" x="156.5" y="14.1" width="126.4" height="170.6"/>
		</defs>
		<clipPath id="SVGID_00000042725859963011084280000002696885201729137835_">
			<use xlink:href="#SVGID_00000078012741923434553990000000039663138462245805_"  style="overflow:visible;"/>
		</clipPath>
		<path style="clip-path:url(#SVGID_00000042725859963011084280000002696885201729137835_);fill:#01A0C6;" d="M222.6,123.4
			c0-1,0-1.8-0.1-2.5h2.1l0.1,1.1h0c0.3-0.5,1.1-1.3,2.4-1.3c1.6,0,2.8,1.1,2.8,3.4v4.7h-2.4v-4.4c0-1-0.4-1.7-1.2-1.7
			c-0.7,0-1.1,0.5-1.3,0.9c-0.1,0.2-0.1,0.4-0.1,0.6v4.5h-2.5L222.6,123.4L222.6,123.4z"/>
	</g>
	<g>
		<defs>
			<rect id="SVGID_00000012453178195160196910000003715255481787995830_" x="156.5" y="14.1" width="126.4" height="170.6"/>
		</defs>
		<clipPath id="SVGID_00000152957712850970374860000003417476607982986643_">
			<use xlink:href="#SVGID_00000012453178195160196910000003715255481787995830_"  style="overflow:visible;"/>
		</clipPath>
		<path style="clip-path:url(#SVGID_00000152957712850970374860000003417476607982986643_);fill:#01A0C6;" d="M187.8,141.7v-10.9
			h2.9l2.3,4c0.6,1.1,1.3,2.5,1.8,3.7h0c-0.1-1.4-0.2-2.9-0.2-4.5v-3.2h2.3v10.9h-2.6l-2.3-4.2c-0.6-1.2-1.4-2.6-1.9-3.8H190
			c0.1,1.5,0.1,3,0.1,4.8v3.3L187.8,141.7L187.8,141.7z"/>
	</g>
	<g>
		<defs>
			<rect id="SVGID_00000080180587142080543600000007470756510416428197_" x="156.5" y="14.1" width="126.4" height="170.6"/>
		</defs>
		<clipPath id="SVGID_00000183939972138039435380000013542523845747456660_">
			<use xlink:href="#SVGID_00000080180587142080543600000007470756510416428197_"  style="overflow:visible;"/>
		</clipPath>
		<path style="clip-path:url(#SVGID_00000183939972138039435380000013542523845747456660_);fill:#01A0C6;" d="M202,141.8
			c-2.3,0-4.1-1.5-4.1-4.1s1.7-4.2,4.2-4.2c2.4,0,4,1.7,4,4C206.1,140.5,204.1,141.8,202,141.8L202,141.8z M202,140.1
			c1,0,1.6-0.9,1.6-2.4c0-1.2-0.5-2.4-1.6-2.4c-1.2,0-1.6,1.2-1.6,2.4C200.4,139.1,201,140.1,202,140.1L202,140.1L202,140.1z"/>
	</g>
	<g>
		<defs>
			<rect id="SVGID_00000045592209072445679010000008511602312152889002_" x="156.5" y="14.1" width="126.4" height="170.6"/>
		</defs>
		<clipPath id="SVGID_00000076595211405893752730000010031395246889942176_">
			<use xlink:href="#SVGID_00000045592209072445679010000008511602312152889002_"  style="overflow:visible;"/>
		</clipPath>
		<path style="clip-path:url(#SVGID_00000076595211405893752730000010031395246889942176_);fill:#01A0C6;" d="M207.2,136.4
			c0-1.2,0-1.9-0.1-2.6h2.1l0.1,1.5h0.1c0.4-1.2,1.4-1.7,2.1-1.7c0.2,0,0.3,0,0.5,0.1v2.3c-0.2,0-0.4-0.1-0.7-0.1
			c-0.9,0-1.5,0.5-1.7,1.3c0,0.1,0,0.3,0,0.5v4h-2.5L207.2,136.4z"/>
	</g>
	<g>
		<defs>
			<rect id="SVGID_00000068675274162294842270000016678117573193448087_" x="156.5" y="14.1" width="126.4" height="170.6"/>
		</defs>
		<clipPath id="SVGID_00000057850944051628151660000006408685590480892822_">
			<use xlink:href="#SVGID_00000068675274162294842270000016678117573193448087_"  style="overflow:visible;"/>
		</clipPath>
		<path style="clip-path:url(#SVGID_00000057850944051628151660000006408685590480892822_);fill:#01A0C6;" d="M212.8,136.3
			c0-1,0-1.8-0.1-2.5h2.1l0.1,1.1h0c0.3-0.5,1.1-1.3,2.4-1.3c1,0,1.8,0.5,2.2,1.4h0c0.3-0.4,0.7-0.7,1-1c0.4-0.3,0.9-0.4,1.5-0.4
			c1.5,0,2.7,1.1,2.7,3.4v4.6h-2.4v-4.3c0-1.1-0.4-1.8-1.1-1.8c-0.6,0-1,0.4-1.1,0.9c-0.1,0.2-0.1,0.4-0.1,0.6v4.6h-2.4v-4.4
			c0-1-0.4-1.7-1.1-1.7c-0.6,0-1,0.5-1.1,0.9c-0.1,0.2-0.1,0.4-0.1,0.6v4.6h-2.4L212.8,136.3L212.8,136.3z"/>
	</g>
	<g>
		<defs>
			<rect id="SVGID_00000052101914941829755220000015427532700148806326_" x="156.5" y="14.1" width="126.4" height="170.6"/>
		</defs>
		<clipPath id="SVGID_00000116223488333921904860000006804819429890065325_">
			<use xlink:href="#SVGID_00000052101914941829755220000015427532700148806326_"  style="overflow:visible;"/>
		</clipPath>
		<path style="clip-path:url(#SVGID_00000116223488333921904860000006804819429890065325_);fill:#01A0C6;" d="M232.7,139.8
			c0,0.7,0,1.5,0.1,1.9h-2.2l-0.1-0.8h-0.1c-0.5,0.6-1.3,1-2.3,1c-1.6,0-2.5-1.2-2.5-2.4c0-2,1.8-3,4.6-3v-0.1c0-0.4-0.2-1-1.4-1
			c-0.8,0-1.7,0.3-2.2,0.6l-0.5-1.6c0.5-0.3,1.6-0.7,3.1-0.7c2.6,0,3.4,1.5,3.4,3.4L232.7,139.8L232.7,139.8z M230.4,137.9
			c-1.3,0-2.3,0.3-2.3,1.2c0,0.6,0.4,0.9,1,0.9c0.6,0,1.1-0.4,1.3-0.9c0-0.1,0.1-0.3,0.1-0.4L230.4,137.9L230.4,137.9z"/>
	</g>
	<g>
		<defs>
			<rect id="SVGID_00000035502105355579317570000003710975995623549340_" x="156.5" y="14.1" width="126.4" height="170.6"/>
		</defs>
		<clipPath id="SVGID_00000042736761014452756780000006197965775668727192_">
			<use xlink:href="#SVGID_00000035502105355579317570000003710975995623549340_"  style="overflow:visible;"/>
		</clipPath>
		<path style="clip-path:url(#SVGID_00000042736761014452756780000006197965775668727192_);fill:#01A0C6;" d="M234.2,136.3
			c0-1,0-1.8-0.1-2.5h2.1l0.1,1.1h0c0.3-0.5,1.1-1.3,2.4-1.3c1.6,0,2.8,1.1,2.8,3.4v4.7h-2.5v-4.4c0-1-0.4-1.7-1.2-1.7
			c-0.7,0-1.1,0.5-1.3,0.9c-0.1,0.2-0.1,0.4-0.1,0.6v4.5h-2.5L234.2,136.3L234.2,136.3z"/>
	</g>
	<g>
		<defs>
			<rect id="SVGID_00000106143525544259343520000017022684965670139324_" x="156.5" y="14.1" width="126.4" height="170.6"/>
		</defs>
		<clipPath id="SVGID_00000103261876608070572430000001438699319298287769_">
			<use xlink:href="#SVGID_00000106143525544259343520000017022684965670139324_"  style="overflow:visible;"/>
		</clipPath>
		<path style="clip-path:url(#SVGID_00000103261876608070572430000001438699319298287769_);fill:#01A0C6;" d="M250.8,130.2v9.1
			c0,0.9,0,1.8,0.1,2.4h-2.2l-0.1-1.1h-0.1c-0.5,0.9-1.4,1.3-2.5,1.3c-1.9,0-3.4-1.6-3.4-4c0-2.6,1.6-4.2,3.5-4.2
			c1,0,1.7,0.4,2.1,0.9h0v-4.3L250.8,130.2L250.8,130.2z M248.4,137.1c0-0.1,0-0.3,0-0.5c-0.1-0.7-0.7-1.2-1.4-1.2
			c-1.1,0-1.7,1-1.7,2.2c0,1.3,0.7,2.2,1.7,2.2c0.7,0,1.3-0.5,1.4-1.2c0-0.2,0.1-0.4,0.1-0.5L248.4,137.1L248.4,137.1z"/>
	</g>
	<g>
		<defs>
			<rect id="SVGID_00000080927738324743953050000009695081382267922084_" x="156.5" y="14.1" width="126.4" height="170.6"/>
		</defs>
		<clipPath id="SVGID_00000023975989421407765130000005034849167589827519_">
			<use xlink:href="#SVGID_00000080927738324743953050000009695081382267922084_"  style="overflow:visible;"/>
		</clipPath>
		<path style="clip-path:url(#SVGID_00000023975989421407765130000005034849167589827519_);fill:#01A0C6;" d="M253.5,132.7
			c-0.8,0-1.4-0.6-1.4-1.3c0-0.7,0.5-1.3,1.4-1.3c0.8,0,1.4,0.6,1.4,1.3C254.9,132.2,254.4,132.7,253.5,132.7L253.5,132.7z
			 M252.3,133.8h2.5v7.9h-2.5V133.8z"/>
	</g>
	<g>
		<defs>
			<rect id="SVGID_00000042721301012514027040000006842877393018454947_" x="156.5" y="14.1" width="126.4" height="170.6"/>
		</defs>
		<clipPath id="SVGID_00000057116469998770522000000006631083596836493247_">
			<use xlink:href="#SVGID_00000042721301012514027040000006842877393018454947_"  style="overflow:visible;"/>
		</clipPath>
		<path style="clip-path:url(#SVGID_00000057116469998770522000000006631083596836493247_);fill:#01A0C6;" d="M258.1,138.5
			c0.1,1,1.1,1.5,2.2,1.5c0.8,0,1.5-0.1,2.2-0.3l0.3,1.7c-0.8,0.3-1.8,0.5-2.9,0.5c-2.7,0-4.2-1.5-4.2-4c0-2,1.3-4.2,4-4.2
			c2.5,0,3.5,2,3.5,3.9c0,0.4,0,0.8-0.1,1L258.1,138.5z M261,136.8c0-0.6-0.3-1.6-1.4-1.6c-1.1,0-1.5,0.9-1.5,1.6H261z"/>
	</g>
	<g>
		<defs>
			<rect id="SVGID_00000100373908219658391210000013262459111458677387_" x="156.5" y="14.1" width="126.4" height="170.6"/>
		</defs>
		<clipPath id="SVGID_00000180366740870125262910000014858422968818147491_">
			<use xlink:href="#SVGID_00000100373908219658391210000013262459111458677387_"  style="overflow:visible;"/>
		</clipPath>
		<path style="clip-path:url(#SVGID_00000180366740870125262910000014858422968818147491_);fill:#01A0C6;" d="M195.8,154.2
			c-0.4,0.2-1.5,0.5-2.8,0.5c-3.7,0-5.7-2.3-5.7-5.5c0-3.7,2.6-5.7,5.9-5.7c1.3,0,2.2,0.3,2.7,0.5l-0.5,1.9
			c-0.5-0.2-1.2-0.4-2.1-0.4c-1.9,0-3.5,1.2-3.5,3.6c0,2.2,1.3,3.6,3.5,3.6c0.7,0,1.6-0.1,2.1-0.4L195.8,154.2z"/>
	</g>
	<g>
		<defs>
			<rect id="SVGID_00000105387553000187760730000005800161232634155962_" x="156.5" y="14.1" width="126.4" height="170.6"/>
		</defs>
		<clipPath id="SVGID_00000038400388655591556080000008189927791393380021_">
			<use xlink:href="#SVGID_00000105387553000187760730000005800161232634155962_"  style="overflow:visible;"/>
		</clipPath>
		<path style="clip-path:url(#SVGID_00000038400388655591556080000008189927791393380021_);fill:#01A0C6;" d="M196.8,149.3
			c0-1.2,0-1.9-0.1-2.6h2.1l0.1,1.5h0.1c0.4-1.1,1.4-1.6,2.1-1.6c0.2,0,0.3,0,0.5,0.1v2.3c-0.2,0-0.4-0.1-0.7-0.1
			c-0.9,0-1.5,0.5-1.7,1.2c0,0.2-0.1,0.3-0.1,0.5v4h-2.4L196.8,149.3z"/>
	</g>
	<g>
		<defs>
			<rect id="SVGID_00000088820795100295268690000005800559245194418067_" x="156.5" y="14.1" width="126.4" height="170.6"/>
		</defs>
		<clipPath id="SVGID_00000146461009706622736450000011114266458881343140_">
			<use xlink:href="#SVGID_00000088820795100295268690000005800559245194418067_"  style="overflow:visible;"/>
		</clipPath>
		<path style="clip-path:url(#SVGID_00000146461009706622736450000011114266458881343140_);fill:#01A0C6;" d="M204.3,151.4
			c0.1,1,1.1,1.5,2.2,1.5c0.8,0,1.5-0.1,2.2-0.3l0.3,1.7c-0.8,0.3-1.8,0.5-2.9,0.5c-2.7,0-4.2-1.5-4.2-4c0-2,1.3-4.2,4-4.2
			c2.5,0,3.5,2,3.5,3.9c0,0.4-0.1,0.8-0.1,1L204.3,151.4z M207.2,149.7c0-0.6-0.3-1.6-1.4-1.6c-1.1,0-1.5,0.9-1.5,1.6H207.2z
			 M208.6,143.3l-2,2.4h-1.7l1.4-2.4H208.6z"/>
	</g>
	<g>
		<defs>
			<rect id="SVGID_00000156577238407735230930000001437933439892405136_" x="156.5" y="14.1" width="126.4" height="170.6"/>
		</defs>
		<clipPath id="SVGID_00000163074894166489457140000011616416670032943518_">
			<use xlink:href="#SVGID_00000156577238407735230930000001437933439892405136_"  style="overflow:visible;"/>
		</clipPath>
		<path style="clip-path:url(#SVGID_00000163074894166489457140000011616416670032943518_);fill:#01A0C6;" d="M217,152.6
			c0,0.7,0,1.5,0.1,1.9H215l-0.1-0.8h0c-0.5,0.6-1.3,1-2.3,1c-1.6,0-2.5-1.2-2.5-2.4c0-2,1.8-3,4.6-3v-0.1c0-0.4-0.2-1-1.4-1
			c-0.8,0-1.7,0.3-2.2,0.6l-0.5-1.6c0.5-0.3,1.6-0.7,3.1-0.7c2.6,0,3.5,1.5,3.5,3.4L217,152.6L217,152.6z M214.7,150.8
			c-1.3,0-2.3,0.3-2.3,1.2c0,0.6,0.4,0.9,1,0.9c0.6,0,1.1-0.4,1.3-0.9c0-0.1,0-0.3,0-0.4V150.8z"/>
	</g>
	<g>
		<defs>
			<rect id="SVGID_00000132788433799942396570000000945908337547779485_" x="156.5" y="14.1" width="126.4" height="170.6"/>
		</defs>
		<clipPath id="SVGID_00000155121570638242389060000001358299917146002864_">
			<use xlink:href="#SVGID_00000132788433799942396570000000945908337547779485_"  style="overflow:visible;"/>
		</clipPath>
		<path style="clip-path:url(#SVGID_00000155121570638242389060000001358299917146002864_);fill:#01A0C6;" d="M221.1,144.5v2.1h1.8
			v1.8h-1.8v2.9c0,0.9,0.2,1.4,1,1.4c0.3,0,0.5,0,0.7-0.1l0,1.9c-0.3,0.1-0.9,0.2-1.6,0.2c-0.8,0-1.5-0.3-1.9-0.7
			c-0.5-0.5-0.7-1.2-0.7-2.3v-3.2h-1.1v-1.8h1.1v-1.5L221.1,144.5z"/>
	</g>
	<g>
		<defs>
			<rect id="SVGID_00000010296997330766980860000007602777004124798603_" x="156.5" y="14.1" width="126.4" height="170.6"/>
		</defs>
		<clipPath id="SVGID_00000076563868202643527650000015254736454685836216_">
			<use xlink:href="#SVGID_00000010296997330766980860000007602777004124798603_"  style="overflow:visible;"/>
		</clipPath>
		<path style="clip-path:url(#SVGID_00000076563868202643527650000015254736454685836216_);fill:#01A0C6;" d="M225,145.6
			c-0.8,0-1.3-0.6-1.3-1.3c0-0.7,0.5-1.3,1.4-1.3c0.8,0,1.4,0.6,1.4,1.3C226.4,145.1,225.9,145.6,225,145.6L225,145.6z M223.8,146.7
			h2.5v7.9h-2.5V146.7z"/>
	</g>
	<g>
		<defs>
			<rect id="SVGID_00000054947770842349685970000016097483741672297644_" x="156.5" y="14.1" width="126.4" height="170.6"/>
		</defs>
		<clipPath id="SVGID_00000043440731131019309010000007244182294654079874_">
			<use xlink:href="#SVGID_00000054947770842349685970000016097483741672297644_"  style="overflow:visible;"/>
		</clipPath>
		<path style="clip-path:url(#SVGID_00000043440731131019309010000007244182294654079874_);fill:#01A0C6;" d="M231.4,154.7
			c-2.3,0-4.1-1.5-4.1-4.1c0-2.5,1.7-4.2,4.2-4.2c2.4,0,4,1.7,4,4C235.6,153.4,233.5,154.7,231.4,154.7L231.4,154.7z M231.5,153
			c1,0,1.6-1,1.6-2.4c0-1.2-0.4-2.3-1.6-2.3c-1.2,0-1.6,1.2-1.6,2.4C229.8,151.9,230.4,153,231.5,153L231.5,153L231.5,153z"/>
	</g>
	<g>
		<defs>
			<rect id="SVGID_00000020382003481704847250000004992287034422135721_" x="156.5" y="14.1" width="126.4" height="170.6"/>
		</defs>
		<clipPath id="SVGID_00000064341760365955874380000011939152784745601199_">
			<use xlink:href="#SVGID_00000020382003481704847250000004992287034422135721_"  style="overflow:visible;"/>
		</clipPath>
		<path style="clip-path:url(#SVGID_00000064341760365955874380000011939152784745601199_);fill:#01A0C6;" d="M236.6,149.2
			c0-1,0-1.8-0.1-2.5h2.1l0.1,1.1h0.1c0.3-0.5,1.1-1.3,2.4-1.3c1.6,0,2.8,1.1,2.8,3.4v4.6h-2.5v-4.4c0-1-0.3-1.7-1.2-1.7
			c-0.7,0-1.1,0.5-1.3,0.9c-0.1,0.2-0.1,0.4-0.1,0.6v4.5h-2.5L236.6,149.2L236.6,149.2z"/>
	</g>
</g>
</svg>
