<svg xmlns="http://www.w3.org/2000/svg" xmlns:xlink="http://www.w3.org/1999/xlink" version="1.1" id="Calque_1" x="0px" y="0px" enable-background="new 0 0 280 377.823" xml:space="preserve" viewBox="0 0 280 377.82">
<g>
	<defs>
		<rect id="SVGID_1_" width="280" height="377.823"/>
	</defs>
	<clipPath id="SVGID_2_">
		<use xlink:href="#SVGID_1_" overflow="visible"/>
	</clipPath>
	<path clip-path="url(#SVGID_2_)" fill="#FFFFFF" d="M128.03,102.955c-3.589,11.688-0.916,22.874,8.063,25.63   c8.977,2.76,19.164-4.48,22.755-16.167c3.588-11.686-1.245-22.287-6.697-25.212C146.22,84.023,131.619,91.267,128.03,102.955"/>
	<path clip-path="url(#SVGID_2_)" fill="#FFFFFF" d="M94.889,125.979c6.977,10.037,17.428,14.845,25.139,9.482   c7.713-5.359,8.307-17.844,1.331-27.882c-6.98-10.037-18.303-12.779-23.968-10.298C91.225,99.982,87.91,115.94,94.889,125.979"/>
	<path clip-path="url(#SVGID_2_)" fill="#FFFFFF" d="M127.33,167.202c6.657-10.252,7.157-21.744-0.72-26.86   c-7.877-5.114-19.66-0.948-26.317,9.305c-6.658,10.255-4.917,21.774-0.48,26.081C104.644,180.415,120.672,177.457,127.33,167.202"/>
	<path clip-path="url(#SVGID_2_)" fill="#FFFFFF" d="M165.429,146.084c-3.955-11.566-12.686-19.056-21.573-16.015   c-8.886,3.039-12.884,14.881-8.927,26.447c3.955,11.567,14.093,17.309,20.22,16.479   C161.819,172.09,169.385,157.652,165.429,146.084"/>
	<path clip-path="url(#SVGID_2_)" fill="#FFFFFF" d="M92.804,152.491c7.09-4.159,10.85-10.92,7.653-16.366   c-3.195-5.447-11.536-6.491-18.625-2.328c-7.091,4.158-9.512,11.608-8.141,15.537C75.184,153.609,85.713,156.653,92.804,152.491"/>
	<path clip-path="url(#SVGID_2_)" fill="#FFFFFF" d="M167.579,112.905c-7.755,2.74-12.727,8.666-10.62,14.619   c2.105,5.954,10.096,8.559,17.848,5.817c7.751-2.741,11.54-9.6,10.937-13.713C185.087,115.146,175.326,110.162,167.579,112.905"/>
	<path clip-path="url(#SVGID_2_)" fill="#FFFFFF" d="M110.112,89.549c1.306,8.12,6.244,14.075,12.479,13.07   c6.235-1.003,10.229-8.396,8.924-16.514c-1.306-8.116-7.372-13.076-11.529-13.221C115.462,72.723,108.806,81.434,110.112,89.549"/>
	<path clip-path="url(#SVGID_2_)" fill="#FFFFFF" d="M145.842,179.646c-0.824-8.181-5.402-14.415-11.685-13.778   c-6.287,0.634-10.71,7.78-9.882,15.958c0.827,8.181,6.591,13.488,10.733,13.877C139.514,196.129,146.669,187.823,145.842,179.646"/>
	<path clip-path="url(#SVGID_2_)" fill="#FFFFFF" d="M76.003,82.083c6.977,10.039,17.428,14.845,25.141,9.486   c7.711-5.362,8.306-17.844,1.329-27.886C95.494,53.646,84.17,50.908,78.507,53.385C72.338,56.089,69.023,72.047,76.003,82.083"/>
	<path clip-path="url(#SVGID_2_)" fill="#FFFFFF" d="M50.636,130.84c18.705,2.976,35.286-3.546,37.572-17.915   S77.184,84.496,58.481,81.521c-18.704-2.976-33.916,6.737-37.224,15.73C17.657,107.038,31.933,127.864,50.636,130.84"/>
	<path clip-path="url(#SVGID_2_)" fill="#FFFFFF" d="M52.739,167.749c11.881-2.875,20.14-10.882,17.931-20.01   s-13.632-14.198-25.515-11.322c-11.882,2.876-18.533,12.442-18.268,18.621C27.175,161.762,40.857,170.625,52.739,167.749"/>
	<path clip-path="url(#SVGID_2_)" fill="#FFFFFF" d="M89.029,209.032c9.537-16.36,9.454-34.182-3.116-41.509   c-12.57-7.327-30.491-0.004-40.029,16.359c-9.537,16.363-5.985,34.057,1.203,40.393C54.91,231.172,79.492,225.393,89.029,209.032"/>
	<path clip-path="url(#SVGID_2_)" fill="#FFFFFF" d="M126.844,210.205c1.967-12.063-2.203-22.785-11.472-24.296   c-9.27-1.512-18.379,7.045-20.345,19.109c-1.968,12.064,4.263,21.912,10.061,24.067   C111.397,231.435,124.877,222.272,126.844,210.205"/>
	<path clip-path="url(#SVGID_2_)" fill="#FFFFFF" d="M174.124,70.088c-9.635,7.525-13.857,18.226-8.074,25.628   c5.776,7.403,18.273,7.305,27.914-0.218c9.633-7.522,11.742-18.98,8.95-24.5C199.878,64.991,183.758,62.565,174.124,70.088"/>
	<path clip-path="url(#SVGID_2_)" fill="#FFFFFF" d="M124.034,47.465c-1.934,18.837,5.496,35.034,19.969,36.52   c14.475,1.487,27.773-12.58,29.709-31.419c1.936-18.843-8.605-33.493-17.769-36.299C145.97,13.216,125.969,28.623,124.034,47.465"/>
	<path clip-path="url(#SVGID_2_)" fill="#FFFFFF" d="M193.828,191.025c-10.894-15.494-27.121-22.851-39.025-14.486   c-11.902,8.367-12.723,27.71-1.832,43.203c10.892,15.493,28.456,19.65,37.21,15.759   C199.716,231.267,204.717,206.519,193.828,191.025"/>
	<path clip-path="url(#SVGID_2_)" fill="#FFFFFF" d="M200.289,144.552c-10.147-6.82-21.629-7.505-26.87,0.289   c-5.239,7.794-1.265,19.641,8.88,26.463c10.147,6.82,21.694,5.267,26.072,0.9C213.137,167.448,210.434,151.375,200.289,144.552"/>
	<path clip-path="url(#SVGID_2_)" fill="#FFFFFF" d="M218.139,92.23c-18.433,4.349-31.298,16.677-27.958,30.838   c3.34,14.162,20.99,22.117,39.423,17.769c18.433-4.35,28.823-19.109,28.467-28.683C257.684,101.732,236.57,87.883,218.139,92.23"/>
</g>


<g>
	<path fill="#FFFFFF" d="M69.4,230.219c1.748-0.321,4.317-0.535,7.242-0.535c3.567,0,6.064,0.535,7.777,1.927   c1.463,1.142,2.248,2.818,2.248,5.03c0,3.032-2.176,5.137-4.245,5.887v0.106c1.677,0.678,2.604,2.248,3.211,4.46   c0.749,2.746,1.462,5.886,1.926,6.813h-5.565c-0.356-0.678-0.963-2.64-1.641-5.601c-0.678-3.033-1.712-3.817-3.96-3.854h-1.605   v9.454H69.4V230.219z M74.787,240.529h2.14c2.711,0,4.317-1.355,4.317-3.461c0-2.176-1.499-3.317-3.996-3.317   c-1.32,0-2.069,0.071-2.461,0.178V240.529z"/>
	<path fill="#FFFFFF" d="M97.365,254.3c-5.102,0-9.026-3.354-9.026-8.99s3.71-9.24,9.347-9.24c5.316,0,8.883,3.675,8.883,8.955   c0,6.35-4.531,9.275-9.168,9.275H97.365z M97.472,250.411c2.141,0,3.46-2.104,3.46-5.244c0-2.568-0.999-5.209-3.46-5.209   c-2.568,0-3.567,2.641-3.567,5.244c0,2.961,1.249,5.209,3.532,5.209H97.472z"/>
	<path fill="#FFFFFF" d="M125.295,248.307c0,2.283,0.071,4.138,0.143,5.601h-4.709l-0.25-2.462h-0.107   c-0.678,1.07-2.319,2.854-5.458,2.854c-3.567,0-6.136-2.212-6.136-7.599v-10.239h5.422v9.383c0,2.533,0.821,4.066,2.747,4.066   c1.499,0,2.39-1.034,2.711-1.891c0.143-0.32,0.214-0.713,0.214-1.177v-10.382h5.423V248.307z"/>
	<path fill="#FFFFFF" d="M132.784,246.879c0.178,2.283,2.39,3.354,4.923,3.354c1.855,0,3.354-0.249,4.816-0.749l0.713,3.675   c-1.783,0.749-3.96,1.105-6.314,1.105c-5.922,0-9.311-3.425-9.311-8.919c0-4.423,2.783-9.311,8.812-9.311   c5.637,0,7.777,4.388,7.777,8.704c0,0.928-0.107,1.749-0.179,2.177L132.784,246.879z M139.169,243.169   c0-1.284-0.571-3.531-3.032-3.531c-2.319,0-3.247,2.104-3.389,3.531H139.169z"/>
	<path fill="#FFFFFF" d="M146.372,242.027c0-2.176-0.071-3.995-0.143-5.565h4.709l0.25,2.426h0.107   c0.713-1.142,2.461-2.818,5.387-2.818c3.567,0,6.243,2.391,6.243,7.527v10.311h-5.423v-9.668c0-2.247-0.785-3.781-2.747-3.781   c-1.498,0-2.39,1.034-2.782,2.033c-0.143,0.356-0.179,0.856-0.179,1.355v10.061h-5.423V242.027z"/>
</g>
<g>
	<path fill="#FFFFFF" d="M69.4,282.442v-24.045h6.35l4.995,8.812c1.427,2.533,2.818,5.53,3.924,8.241h0.071   c-0.321-3.175-0.428-6.422-0.428-10.061v-6.992h4.995v24.045h-5.708l-5.137-9.275c-1.427-2.604-3.032-5.673-4.174-8.491h-0.143   c0.179,3.211,0.25,6.601,0.25,10.524v7.242H69.4z"/>
	<path fill="#FFFFFF" d="M100.754,282.835c-5.102,0-9.026-3.354-9.026-8.99s3.71-9.24,9.347-9.24c5.316,0,8.883,3.675,8.883,8.955   c0,6.35-4.531,9.275-9.168,9.275H100.754z M100.861,278.946c2.141,0,3.46-2.104,3.46-5.244c0-2.568-0.999-5.209-3.46-5.209   c-2.568,0-3.567,2.641-3.567,5.244c0,2.961,1.249,5.209,3.532,5.209H100.861z"/>
	<path fill="#FFFFFF" d="M112.309,270.741c0-2.568-0.036-4.245-0.143-5.744h4.638l0.214,3.247h0.143   c0.892-2.569,2.997-3.64,4.709-3.64c0.499,0,0.749,0.036,1.142,0.107v5.102c-0.464-0.071-0.892-0.143-1.499-0.143   c-1.998,0-3.354,1.034-3.71,2.747c-0.071,0.356-0.107,0.749-0.107,1.213v8.812h-5.422L112.309,270.741z"/>
	<path fill="#FFFFFF" d="M124.757,270.562c0-2.176-0.071-3.995-0.143-5.565h4.602l0.214,2.391h0.107   c0.75-1.142,2.319-2.783,5.28-2.783c2.283,0,4.031,1.178,4.781,2.997h0.071c0.678-0.928,1.427-1.641,2.283-2.141   c0.964-0.535,2.034-0.856,3.318-0.856c3.354,0,5.887,2.354,5.887,7.563v10.274h-5.28v-9.454c0-2.532-0.82-3.995-2.568-3.995   c-1.284,0-2.141,0.855-2.533,1.891c-0.107,0.393-0.179,0.928-0.179,1.355v10.203h-5.28v-9.775c0-2.176-0.785-3.674-2.533-3.674   c-1.392,0-2.212,1.07-2.533,1.926c-0.178,0.429-0.214,0.928-0.214,1.392v10.132h-5.28V270.562z"/>
	<path fill="#FFFFFF" d="M168.918,278.232c0,1.642,0.071,3.247,0.285,4.21h-4.888l-0.321-1.748h-0.106   c-1.142,1.392-2.926,2.141-4.995,2.141c-3.531,0-5.637-2.568-5.637-5.352c0-4.53,4.067-6.671,10.239-6.671v-0.214   c0-0.928-0.5-2.248-3.175-2.248c-1.784,0-3.675,0.606-4.816,1.284l-0.999-3.46c1.213-0.678,3.604-1.57,6.778-1.57   c5.815,0,7.635,3.425,7.635,7.527V278.232z M163.674,274.201c-2.854,0-5.066,0.678-5.066,2.747c0,1.392,0.928,2.069,2.141,2.069   c1.32,0,2.462-0.892,2.818-1.998c0.071-0.285,0.107-0.606,0.107-0.928V274.201z"/>
	<path fill="#FFFFFF" d="M172.196,270.562c0-2.176-0.071-3.995-0.143-5.565h4.709l0.25,2.426h0.107   c0.713-1.142,2.461-2.818,5.387-2.818c3.567,0,6.243,2.391,6.243,7.527v10.311h-5.423v-9.668c0-2.247-0.785-3.781-2.747-3.781   c-1.498,0-2.39,1.034-2.782,2.033c-0.143,0.356-0.179,0.856-0.179,1.355v10.061h-5.423V270.562z"/>
	<path fill="#FFFFFF" d="M208.974,257.113v20.12c0,1.998,0.071,4.031,0.143,5.209h-4.815l-0.215-2.533h-0.106   c-1.07,1.927-3.211,2.926-5.458,2.926c-4.139,0-7.456-3.532-7.456-8.955c-0.036-5.851,3.639-9.275,7.812-9.275   c2.176,0,3.817,0.785,4.602,1.963h0.071v-9.454H208.974z M203.551,272.418c0-0.321,0-0.678-0.071-0.999   c-0.32-1.463-1.498-2.64-3.175-2.64c-2.497,0-3.746,2.211-3.746,4.958c0,2.926,1.463,4.781,3.711,4.781   c1.569,0,2.854-1.07,3.175-2.604c0.071-0.357,0.106-0.785,0.106-1.213V272.418z"/>
	<path fill="#FFFFFF" d="M214.928,262.714c-1.819,0-2.996-1.284-2.996-2.89c0-1.641,1.213-2.89,3.067-2.89   c1.855,0,2.997,1.249,3.032,2.89c0,1.605-1.177,2.89-3.067,2.89H214.928z M212.252,282.442v-17.445h5.423v17.445H212.252z"/>
	<path fill="#FFFFFF" d="M225.165,275.414c0.178,2.283,2.39,3.354,4.923,3.354c1.855,0,3.354-0.249,4.816-0.749l0.713,3.675   c-1.783,0.749-3.96,1.105-6.314,1.105c-5.922,0-9.311-3.425-9.311-8.919c0-4.423,2.782-9.311,8.812-9.311   c5.637,0,7.777,4.388,7.777,8.704c0,0.928-0.107,1.749-0.179,2.177L225.165,275.414z M231.551,271.704   c0-1.284-0.571-3.531-3.033-3.531c-2.318,0-3.246,2.104-3.389,3.531H231.551z"/>
</g>
<g>
	<path fill="#FFFFFF" d="M87.023,310.335c-0.963,0.464-3.247,1.035-6.136,1.035c-8.312,0-12.593-5.209-12.593-12.094   c0-8.205,5.851-12.736,13.128-12.736c2.818,0,4.959,0.571,5.922,1.07l-1.142,4.281c-1.07-0.464-2.604-0.893-4.566-0.893   c-4.281,0-7.635,2.604-7.635,7.992c0,4.815,2.854,7.848,7.67,7.848c1.677,0,3.46-0.32,4.566-0.784L87.023,310.335z"/>
	<path fill="#FFFFFF" d="M89.338,299.276c0-2.568-0.036-4.245-0.143-5.744h4.638l0.214,3.247h0.143   c0.892-2.569,2.997-3.64,4.709-3.64c0.499,0,0.749,0.036,1.142,0.107v5.102c-0.464-0.071-0.892-0.143-1.499-0.143   c-1.998,0-3.354,1.034-3.71,2.747c-0.071,0.356-0.107,0.749-0.107,1.213v8.812h-5.422L89.338,299.276z"/>
	<path fill="#FFFFFF" d="M105.996,303.949c0.178,2.283,2.39,3.354,4.923,3.354c1.855,0,3.354-0.249,4.816-0.749l0.713,3.675   c-1.784,0.749-3.959,1.105-6.314,1.105c-5.922,0-9.311-3.425-9.311-8.919c0-4.423,2.783-9.311,8.812-9.311   c5.637,0,7.777,4.388,7.777,8.704c0,0.928-0.107,1.749-0.178,2.177L105.996,303.949z M112.382,300.239   c0-1.284-0.571-3.531-3.032-3.531c-2.319,0-3.247,2.104-3.389,3.531H112.382z M115.379,286.005l-4.353,5.423h-3.71l3.068-5.423   H115.379z"/>
	<path fill="#FFFFFF" d="M134.141,306.768c0,1.642,0.071,3.247,0.286,4.21h-4.888l-0.321-1.748h-0.107   c-1.142,1.392-2.925,2.141-4.994,2.141c-3.532,0-5.637-2.568-5.637-5.352c0-4.53,4.067-6.671,10.239-6.671v-0.214   c0-0.928-0.5-2.248-3.175-2.248c-1.784,0-3.674,0.606-4.816,1.284l-0.999-3.46c1.213-0.678,3.603-1.57,6.778-1.57   c5.815,0,7.634,3.425,7.634,7.527V306.768z M128.896,302.736c-2.854,0-5.066,0.678-5.066,2.747c0,1.392,0.928,2.069,2.141,2.069   c1.32,0,2.461-0.892,2.818-1.998c0.071-0.285,0.107-0.606,0.107-0.928V302.736z"/>
	<path fill="#FFFFFF" d="M143.199,288.788v4.744h3.889v3.996h-3.889v6.35c0,2.105,0.535,3.068,2.141,3.068   c0.749,0,1.106-0.036,1.605-0.143l0.036,4.103c-0.679,0.25-1.998,0.464-3.497,0.464c-1.748,0-3.21-0.606-4.102-1.498   c-0.999-1.035-1.499-2.712-1.499-5.174v-7.17h-2.319v-3.996h2.319v-3.282L143.199,288.788z"/>
	<path fill="#FFFFFF" d="M151.865,291.249c-1.819,0-2.996-1.284-2.996-2.89c0-1.641,1.213-2.89,3.067-2.89   c1.855,0,2.997,1.249,3.032,2.89c0,1.605-1.177,2.89-3.067,2.89H151.865z M149.189,310.978v-17.445h5.423v17.445H149.189z"/>
	<path fill="#FFFFFF" d="M165.956,311.37c-5.102,0-9.025-3.354-9.025-8.99s3.71-9.24,9.347-9.24c5.315,0,8.883,3.675,8.883,8.955   c0,6.35-4.53,9.275-9.169,9.275H165.956z M166.063,307.481c2.14,0,3.46-2.104,3.46-5.244c0-2.568-0.999-5.209-3.46-5.209   c-2.569,0-3.568,2.641-3.568,5.244c0,2.961,1.249,5.209,3.532,5.209H166.063z"/>
	<path fill="#FFFFFF" d="M177.475,299.098c0-2.176-0.071-3.995-0.143-5.565h4.709l0.25,2.426h0.107   c0.713-1.142,2.461-2.818,5.387-2.818c3.567,0,6.243,2.391,6.243,7.527v10.311h-5.423v-9.668c0-2.247-0.785-3.781-2.747-3.781   c-1.498,0-2.39,1.034-2.782,2.033c-0.143,0.356-0.179,0.856-0.179,1.355v10.061h-5.423V299.098z"/>
</g>
</svg>