<?xml version="1.0" encoding="utf-8"?>
<!-- Generator: Adobe Illustrator 16.0.0, SVG Export Plug-In . SVG Version: 6.00 Build 0)  -->
<!DOCTYPE svg PUBLIC "-//W3C//DTD SVG 1.1//EN" "http://www.w3.org/Graphics/SVG/1.1/DTD/svg11.dtd">
<svg version="1.1" id="Calque_1" xmlns="http://www.w3.org/2000/svg" xmlns:xlink="http://www.w3.org/1999/xlink" x="0px" y="0px"
	 width="280px" height="377.823px" viewBox="0 0 280 377.823" enable-background="new 0 0 280 377.823" xml:space="preserve">
<g>
	<defs>
		<rect id="SVGID_1_" width="280" height="377.823"/>
	</defs>
	<clipPath id="SVGID_2_">
		<use xlink:href="#SVGID_1_"  overflow="visible"/>
	</clipPath>
	<path clip-path="url(#SVGID_2_)" fill="#814A84" d="M128.03,102.955c-3.589,11.688-0.916,22.874,8.063,25.63
		c8.977,2.76,19.164-4.48,22.755-16.167c3.588-11.686-1.245-22.287-6.697-25.212C146.22,84.023,131.619,91.267,128.03,102.955"/>
	<path clip-path="url(#SVGID_2_)" fill="#FDC300" d="M94.889,125.979c6.977,10.037,17.428,14.845,25.139,9.482
		c7.713-5.359,8.307-17.844,1.331-27.882c-6.98-10.037-18.303-12.779-23.968-10.298C91.225,99.982,87.91,115.94,94.889,125.979"/>
	<path clip-path="url(#SVGID_2_)" fill="#009FE3" d="M127.33,167.202c6.657-10.252,7.157-21.744-0.72-26.86
		c-7.877-5.114-19.66-0.948-26.317,9.305c-6.658,10.255-4.917,21.774-0.48,26.081C104.644,180.415,120.672,177.457,127.33,167.202"
		/>
	<path clip-path="url(#SVGID_2_)" fill="#FDC300" d="M165.429,146.084c-3.955-11.566-12.686-19.056-21.573-16.015
		c-8.886,3.039-12.884,14.881-8.927,26.447c3.955,11.567,14.093,17.309,20.22,16.479
		C161.819,172.09,169.385,157.652,165.429,146.084"/>
	<path clip-path="url(#SVGID_2_)" fill="#EC608A" d="M92.804,152.491c7.09-4.159,10.85-10.92,7.653-16.366
		c-3.195-5.447-11.536-6.491-18.625-2.328c-7.091,4.158-9.512,11.608-8.141,15.537C75.184,153.609,85.713,156.653,92.804,152.491"/>
	<path clip-path="url(#SVGID_2_)" fill="#009FE3" d="M167.579,112.905c-7.755,2.74-12.727,8.666-10.62,14.619
		c2.105,5.954,10.096,8.559,17.848,5.817c7.751-2.741,11.54-9.6,10.937-13.713C185.087,115.146,175.326,110.162,167.579,112.905"/>
	<path clip-path="url(#SVGID_2_)" fill="#EC608A" d="M110.112,89.549c1.306,8.12,6.244,14.075,12.479,13.07
		c6.235-1.003,10.229-8.396,8.924-16.514c-1.306-8.116-7.372-13.076-11.529-13.221C115.462,72.723,108.806,81.434,110.112,89.549"/>
	<path clip-path="url(#SVGID_2_)" fill="#EC608A" d="M145.842,179.646c-0.824-8.181-5.402-14.415-11.685-13.778
		c-6.287,0.634-10.71,7.78-9.882,15.958c0.827,8.181,6.591,13.488,10.733,13.877C139.514,196.129,146.669,187.823,145.842,179.646"
		/>
	<path clip-path="url(#SVGID_2_)" fill="#009FE3" d="M76.003,82.083c6.977,10.039,17.428,14.845,25.141,9.486
		c7.711-5.362,8.306-17.844,1.329-27.886C95.494,53.646,84.17,50.908,78.507,53.385C72.338,56.089,69.023,72.047,76.003,82.083"/>
	<path clip-path="url(#SVGID_2_)" fill="#814A84" d="M50.636,130.84c18.705,2.976,35.286-3.546,37.572-17.915
		S77.184,84.496,58.481,81.521c-18.704-2.976-33.916,6.737-37.224,15.73C17.657,107.038,31.933,127.864,50.636,130.84"/>
	<path clip-path="url(#SVGID_2_)" fill="#FDC300" d="M52.739,167.749c11.881-2.875,20.14-10.882,17.931-20.01
		s-13.632-14.198-25.515-11.322c-11.882,2.876-18.533,12.442-18.268,18.621C27.175,161.762,40.857,170.625,52.739,167.749"/>
	<path clip-path="url(#SVGID_2_)" fill="#814A84" d="M89.029,209.032c9.537-16.36,9.454-34.182-3.116-41.509
		c-12.57-7.327-30.491-0.004-40.029,16.359c-9.537,16.363-5.985,34.057,1.203,40.393C54.91,231.172,79.492,225.393,89.029,209.032"
		/>
	<path clip-path="url(#SVGID_2_)" fill="#FDC300" d="M126.844,210.205c1.967-12.063-2.203-22.785-11.472-24.296
		c-9.27-1.512-18.379,7.045-20.345,19.109c-1.968,12.064,4.263,21.912,10.061,24.067
		C111.397,231.435,124.877,222.272,126.844,210.205"/>
	<path clip-path="url(#SVGID_2_)" fill="#009FE3" d="M174.124,70.088c-9.635,7.525-13.857,18.226-8.074,25.628
		c5.776,7.403,18.273,7.305,27.914-0.218c9.633-7.522,11.742-18.98,8.95-24.5C199.878,64.991,183.758,62.565,174.124,70.088"/>
	<path clip-path="url(#SVGID_2_)" fill="#FDC300" d="M124.034,47.465c-1.934,18.837,5.496,35.034,19.969,36.52
		c14.475,1.487,27.773-12.58,29.709-31.419c1.936-18.843-8.605-33.493-17.769-36.299C145.97,13.216,125.969,28.623,124.034,47.465"
		/>
	<path clip-path="url(#SVGID_2_)" fill="#009FE3" d="M193.828,191.025c-10.894-15.494-27.121-22.851-39.025-14.486
		c-11.902,8.367-12.723,27.71-1.832,43.203c10.892,15.493,28.456,19.65,37.21,15.759
		C199.716,231.267,204.717,206.519,193.828,191.025"/>
	<path clip-path="url(#SVGID_2_)" fill="#814A84" d="M200.289,144.552c-10.147-6.82-21.629-7.505-26.87,0.289
		c-5.239,7.794-1.265,19.641,8.88,26.463c10.147,6.82,21.694,5.267,26.072,0.9C213.137,167.448,210.434,151.375,200.289,144.552"/>
	<path clip-path="url(#SVGID_2_)" fill="#EC608A" d="M218.139,92.23c-18.433,4.349-31.298,16.677-27.958,30.838
		c3.34,14.162,20.99,22.117,39.423,17.769c18.433-4.35,28.823-19.109,28.467-28.683C257.684,101.732,236.57,87.883,218.139,92.23"/>
</g>
<g>
	<path fill="#814A84" d="M68.789,321.207h0.962v6.648h3.186v0.808h-4.148V321.207z"/>
	<path fill="#814A84" d="M74.188,326.163c0.022,1.316,0.863,1.858,1.836,1.858c0.697,0,1.117-0.122,1.482-0.276l0.166,0.696
		c-0.343,0.155-0.929,0.332-1.781,0.332c-1.648,0-2.633-1.084-2.633-2.699s0.951-2.887,2.511-2.887c1.748,0,2.212,1.537,2.212,2.521
		c0,0.199-0.022,0.354-0.033,0.454H74.188z M77.042,325.466c0.011-0.619-0.254-1.582-1.35-1.582c-0.984,0-1.416,0.907-1.493,1.582
		H77.042z"/>
	<path fill="#814A84" d="M80.882,324.979c0-0.631-0.011-1.173-0.044-1.671h0.852l0.033,1.051h0.044
		c0.244-0.719,0.83-1.172,1.482-1.172c0.111,0,0.188,0.011,0.277,0.033v0.918c-0.1-0.022-0.199-0.033-0.332-0.033
		c-0.686,0-1.172,0.52-1.305,1.25c-0.022,0.133-0.044,0.287-0.044,0.453v2.854h-0.962V324.979z"/>
	<path fill="#814A84" d="M84.721,326.163c0.022,1.316,0.863,1.858,1.836,1.858c0.697,0,1.117-0.122,1.482-0.276l0.166,0.696
		c-0.343,0.155-0.929,0.332-1.781,0.332c-1.648,0-2.633-1.084-2.633-2.699s0.951-2.887,2.511-2.887c1.748,0,2.212,1.537,2.212,2.521
		c0,0.199-0.022,0.354-0.033,0.454H84.721z M87.575,325.466c0.011-0.619-0.254-1.582-1.35-1.582c-0.984,0-1.416,0.907-1.493,1.582
		H87.575z M87.807,320.997l-1.35,1.582h-0.697l0.974-1.582H87.807z"/>
	<path fill="#814A84" d="M89.257,327.667c0.288,0.188,0.796,0.388,1.283,0.388c0.708,0,1.04-0.354,1.04-0.797
		c0-0.464-0.277-0.719-0.996-0.984c-0.962-0.343-1.416-0.874-1.416-1.516c0-0.862,0.697-1.57,1.847-1.57
		c0.542,0,1.018,0.154,1.316,0.331l-0.243,0.708c-0.21-0.133-0.597-0.31-1.095-0.31c-0.575,0-0.896,0.332-0.896,0.73
		c0,0.442,0.321,0.642,1.018,0.907c0.929,0.354,1.405,0.818,1.405,1.615c0,0.94-0.73,1.604-2.002,1.604
		c-0.586,0-1.128-0.144-1.504-0.365L89.257,327.667z"/>
	<path fill="#814A84" d="M93.993,326.163c0.022,1.316,0.863,1.858,1.836,1.858c0.697,0,1.117-0.122,1.482-0.276l0.166,0.696
		c-0.343,0.155-0.929,0.332-1.781,0.332c-1.648,0-2.633-1.084-2.633-2.699s0.951-2.887,2.511-2.887c1.748,0,2.212,1.537,2.212,2.521
		c0,0.199-0.022,0.354-0.033,0.454H93.993z M96.847,325.466c0.011-0.619-0.254-1.582-1.35-1.582c-0.984,0-1.416,0.907-1.493,1.582
		H96.847z"/>
	<path fill="#814A84" d="M101.627,328.663l-0.078-0.675h-0.033c-0.298,0.42-0.874,0.797-1.637,0.797
		c-1.084,0-1.637-0.764-1.637-1.538c0-1.294,1.15-2.002,3.219-1.991v-0.11c0-0.442-0.122-1.239-1.217-1.239
		c-0.498,0-1.018,0.155-1.394,0.398l-0.221-0.642c0.442-0.288,1.084-0.476,1.759-0.476c1.637,0,2.036,1.117,2.036,2.19v2.002
		c0,0.465,0.022,0.918,0.088,1.283H101.627z M101.483,325.931c-1.062-0.022-2.268,0.166-2.268,1.206c0,0.63,0.42,0.929,0.918,0.929
		c0.697,0,1.14-0.442,1.294-0.896c0.033-0.1,0.055-0.211,0.055-0.31V325.931z"/>
	<path fill="#814A84" d="M108.144,327.203c0,0.553,0.011,1.04,0.044,1.46h-0.863l-0.055-0.874h-0.022
		c-0.255,0.432-0.819,0.996-1.77,0.996c-0.841,0-1.848-0.465-1.848-2.346v-3.131h0.974v2.965c0,1.018,0.31,1.704,1.195,1.704
		c0.652,0,1.106-0.454,1.283-0.886c0.055-0.144,0.088-0.32,0.088-0.497v-3.286h0.974V327.203z"/>
	<path fill="#814A84" d="M116.076,320.809v6.472c0,0.476,0.011,1.018,0.044,1.383h-0.874l-0.044-0.93h-0.022
		c-0.299,0.598-0.951,1.052-1.825,1.052c-1.294,0-2.29-1.096-2.29-2.722c-0.011-1.781,1.095-2.876,2.4-2.876
		c0.819,0,1.372,0.387,1.615,0.818h0.022v-3.197H116.076z M115.103,325.488c0-0.122-0.011-0.288-0.044-0.409
		c-0.144-0.62-0.675-1.129-1.405-1.129c-1.006,0-1.604,0.885-1.604,2.069c0,1.084,0.531,1.979,1.582,1.979
		c0.653,0,1.25-0.431,1.427-1.161c0.033-0.133,0.044-0.266,0.044-0.421V325.488z"/>
	<path fill="#814A84" d="M117.903,326.163c0.022,1.316,0.863,1.858,1.836,1.858c0.697,0,1.117-0.122,1.482-0.276l0.166,0.696
		c-0.343,0.155-0.929,0.332-1.781,0.332c-1.648,0-2.633-1.084-2.633-2.699s0.951-2.887,2.511-2.887c1.748,0,2.212,1.537,2.212,2.521
		c0,0.199-0.022,0.354-0.033,0.454H117.903z M120.757,325.466c0.011-0.619-0.254-1.582-1.35-1.582c-0.984,0-1.416,0.907-1.493,1.582
		H120.757z"/>
	<path fill="#814A84" d="M122.439,327.667c0.288,0.188,0.796,0.388,1.283,0.388c0.708,0,1.04-0.354,1.04-0.797
		c0-0.464-0.277-0.719-0.996-0.984c-0.962-0.343-1.416-0.874-1.416-1.516c0-0.862,0.697-1.57,1.847-1.57
		c0.542,0,1.018,0.154,1.316,0.331l-0.243,0.708c-0.21-0.133-0.597-0.31-1.095-0.31c-0.575,0-0.896,0.332-0.896,0.73
		c0,0.442,0.321,0.642,1.018,0.907c0.929,0.354,1.405,0.818,1.405,1.615c0,0.94-0.73,1.604-2.002,1.604
		c-0.586,0-1.128-0.144-1.504-0.365L122.439,327.667z"/>
	<path fill="#814A84" d="M128.646,325.057c0-0.686-0.022-1.239-0.044-1.748h0.874l0.044,0.918h0.022
		c0.398-0.652,1.029-1.039,1.903-1.039c1.294,0,2.268,1.095,2.268,2.721c0,1.925-1.172,2.877-2.434,2.877
		c-0.708,0-1.328-0.311-1.648-0.841h-0.022v2.909h-0.962V325.057z M129.609,326.483c0,0.145,0.022,0.277,0.044,0.398
		c0.177,0.675,0.763,1.14,1.46,1.14c1.029,0,1.626-0.841,1.626-2.068c0-1.073-0.564-1.991-1.593-1.991
		c-0.664,0-1.283,0.476-1.471,1.205c-0.033,0.122-0.066,0.266-0.066,0.398V326.483z"/>
	<path fill="#814A84" d="M135.152,326.163c0.022,1.316,0.863,1.858,1.836,1.858c0.697,0,1.117-0.122,1.482-0.276l0.166,0.696
		c-0.343,0.155-0.929,0.332-1.781,0.332c-1.648,0-2.633-1.084-2.633-2.699s0.951-2.887,2.511-2.887c1.748,0,2.212,1.537,2.212,2.521
		c0,0.199-0.022,0.354-0.033,0.454H135.152z M138.006,325.466c0.011-0.619-0.254-1.582-1.35-1.582c-0.984,0-1.416,0.907-1.493,1.582
		H138.006z M138.238,320.997l-1.35,1.582h-0.697l0.973-1.582H138.238z"/>
	<path fill="#814A84" d="M139.821,325.057c0-0.686-0.022-1.239-0.044-1.748h0.875l0.044,0.918h0.022
		c0.397-0.652,1.028-1.039,1.902-1.039c1.294,0,2.268,1.095,2.268,2.721c0,1.925-1.173,2.877-2.434,2.877
		c-0.708,0-1.327-0.311-1.648-0.841h-0.022v2.909h-0.962V325.057z M140.783,326.483c0,0.145,0.022,0.277,0.045,0.398
		c0.177,0.675,0.763,1.14,1.46,1.14c1.029,0,1.626-0.841,1.626-2.068c0-1.073-0.563-1.991-1.593-1.991
		c-0.664,0-1.283,0.476-1.472,1.205c-0.033,0.122-0.066,0.266-0.066,0.398V326.483z"/>
	<path fill="#814A84" d="M146.869,321.805c0.011,0.331-0.232,0.597-0.619,0.597c-0.343,0-0.587-0.266-0.587-0.597
		c0-0.344,0.255-0.608,0.608-0.608C146.637,321.196,146.869,321.461,146.869,321.805z M145.785,328.663v-5.354h0.974v5.354H145.785z
		"/>
	<path fill="#814A84" d="M148.042,324.758c0-0.553-0.011-1.007-0.044-1.449h0.862l0.056,0.885h0.022
		c0.265-0.509,0.885-1.006,1.77-1.006c0.741,0,1.892,0.442,1.892,2.278v3.197h-0.974v-3.087c0-0.862-0.32-1.581-1.238-1.581
		c-0.643,0-1.14,0.453-1.306,0.995c-0.045,0.122-0.066,0.288-0.066,0.454v3.219h-0.974V324.758z"/>
	<path fill="#814A84" d="M154.935,321.805c0.011,0.331-0.232,0.597-0.619,0.597c-0.343,0-0.587-0.266-0.587-0.597
		c0-0.344,0.255-0.608,0.608-0.608C154.702,321.196,154.935,321.461,154.935,321.805z M153.851,328.663v-5.354h0.974v5.354H153.851z
		"/>
	<path fill="#814A84" d="M156.649,326.163c0.022,1.316,0.863,1.858,1.837,1.858c0.696,0,1.117-0.122,1.481-0.276l0.166,0.696
		c-0.343,0.155-0.929,0.332-1.78,0.332c-1.648,0-2.634-1.084-2.634-2.699s0.952-2.887,2.512-2.887c1.748,0,2.213,1.537,2.213,2.521
		c0,0.199-0.022,0.354-0.033,0.454H156.649z M159.504,325.466c0.011-0.619-0.255-1.582-1.35-1.582c-0.985,0-1.416,0.907-1.494,1.582
		H159.504z M157.866,320.997l0.974,1.582h-0.697l-1.35-1.582H157.866z"/>
	<path fill="#814A84" d="M161.319,324.979c0-0.631-0.011-1.173-0.044-1.671h0.852l0.033,1.051h0.044
		c0.243-0.719,0.83-1.172,1.482-1.172c0.11,0,0.188,0.011,0.276,0.033v0.918c-0.1-0.022-0.199-0.033-0.331-0.033
		c-0.687,0-1.173,0.52-1.306,1.25c-0.022,0.133-0.045,0.287-0.045,0.453v2.854h-0.962V324.979z"/>
	<path fill="#814A84" d="M165.158,326.163c0.022,1.316,0.863,1.858,1.836,1.858c0.697,0,1.118-0.122,1.482-0.276l0.166,0.696
		c-0.343,0.155-0.929,0.332-1.78,0.332c-1.648,0-2.634-1.084-2.634-2.699s0.952-2.887,2.512-2.887c1.748,0,2.213,1.537,2.213,2.521
		c0,0.199-0.022,0.354-0.033,0.454H165.158z M168.013,325.466c0.011-0.619-0.255-1.582-1.35-1.582c-0.985,0-1.416,0.907-1.494,1.582
		H168.013z"/>
	<path fill="#814A84" d="M169.694,327.667c0.288,0.188,0.797,0.388,1.283,0.388c0.708,0,1.04-0.354,1.04-0.797
		c0-0.464-0.276-0.719-0.996-0.984c-0.962-0.343-1.416-0.874-1.416-1.516c0-0.862,0.697-1.57,1.848-1.57
		c0.542,0,1.018,0.154,1.316,0.331l-0.243,0.708c-0.21-0.133-0.598-0.31-1.095-0.31c-0.576,0-0.896,0.332-0.896,0.73
		c0,0.442,0.32,0.642,1.018,0.907c0.93,0.354,1.405,0.818,1.405,1.615c0,0.94-0.73,1.604-2.003,1.604
		c-0.586,0-1.128-0.144-1.504-0.365L169.694,327.667z"/>
	<path fill="#814A84" d="M176.443,326.163c0.022,1.316,0.863,1.858,1.836,1.858c0.697,0,1.118-0.122,1.482-0.276l0.166,0.696
		c-0.343,0.155-0.929,0.332-1.78,0.332c-1.648,0-2.634-1.084-2.634-2.699s0.952-2.887,2.512-2.887c1.748,0,2.213,1.537,2.213,2.521
		c0,0.199-0.022,0.354-0.033,0.454H176.443z M179.298,325.466c0.011-0.619-0.255-1.582-1.35-1.582c-0.985,0-1.416,0.907-1.494,1.582
		H179.298z"/>
	<path fill="#814A84" d="M182.286,321.771v1.537h1.394v0.741h-1.394v2.888c0,0.663,0.188,1.04,0.729,1.04
		c0.255,0,0.443-0.033,0.564-0.066l0.044,0.729c-0.188,0.078-0.486,0.133-0.862,0.133c-0.454,0-0.818-0.144-1.051-0.409
		c-0.277-0.287-0.376-0.764-0.376-1.394v-2.921h-0.83v-0.741h0.83v-1.283L182.286,321.771z"/>
</g>
<g>
	<path fill="#814A84" d="M68.755,331.873h0.974v3.341h0.022c0.155-0.276,0.398-0.52,0.697-0.686
		c0.288-0.166,0.631-0.276,0.996-0.276c0.719,0,1.87,0.442,1.87,2.29v3.186H72.34v-3.075c0-0.863-0.321-1.593-1.239-1.593
		c-0.63,0-1.128,0.442-1.305,0.973c-0.056,0.133-0.066,0.277-0.066,0.465v3.23h-0.974V331.873z"/>
	<path fill="#814A84" d="M79.409,337.006c0,1.98-1.372,2.844-2.666,2.844c-1.449,0-2.566-1.062-2.566-2.755
		c0-1.792,1.173-2.843,2.655-2.843C78.37,334.252,79.409,335.369,79.409,337.006z M75.161,337.062c0,1.173,0.675,2.058,1.626,2.058
		c0.929,0,1.626-0.874,1.626-2.08c0-0.907-0.454-2.058-1.604-2.058S75.161,336.044,75.161,337.062z M77.119,332.062l1.062,1.582
		h-0.752l-0.642-1.052h-0.022l-0.642,1.052h-0.719l1.04-1.582H77.119z"/>
	<path fill="#814A84" d="M81.479,332.836v1.537h1.394v0.741h-1.394v2.888c0,0.663,0.188,1.04,0.73,1.04
		c0.254,0,0.442-0.033,0.564-0.066l0.044,0.729c-0.188,0.078-0.487,0.133-0.863,0.133c-0.454,0-0.819-0.144-1.051-0.409
		c-0.276-0.287-0.376-0.764-0.376-1.394v-2.921h-0.83v-0.741h0.83v-1.283L81.479,332.836z"/>
	<path fill="#814A84" d="M84.19,337.228c0.022,1.316,0.863,1.858,1.836,1.858c0.697,0,1.117-0.122,1.482-0.276l0.166,0.696
		c-0.343,0.155-0.929,0.332-1.781,0.332c-1.648,0-2.633-1.084-2.633-2.699s0.951-2.887,2.511-2.887c1.748,0,2.212,1.537,2.212,2.521
		c0,0.199-0.022,0.354-0.033,0.454H84.19z M87.044,336.53c0.011-0.619-0.254-1.582-1.35-1.582c-0.984,0-1.416,0.907-1.493,1.582
		H87.044z"/>
	<path fill="#814A84" d="M88.859,331.873h0.974v7.854h-0.974V331.873z"/>
	<path fill="#814A84" d="M91.006,338.731c0.288,0.188,0.796,0.388,1.283,0.388c0.708,0,1.04-0.354,1.04-0.797
		c0-0.464-0.277-0.719-0.996-0.984c-0.962-0.343-1.416-0.874-1.416-1.516c0-0.862,0.697-1.57,1.847-1.57
		c0.542,0,1.018,0.154,1.316,0.331l-0.243,0.708c-0.21-0.133-0.597-0.31-1.095-0.31c-0.575,0-0.896,0.332-0.896,0.73
		c0,0.442,0.321,0.642,1.018,0.907c0.929,0.354,1.405,0.818,1.405,1.615c0,0.94-0.73,1.604-2.002,1.604
		c-0.586,0-1.128-0.144-1.504-0.365L91.006,338.731z"/>
	<path fill="#814A84" d="M101.837,331.873v6.472c0,0.476,0.011,1.018,0.044,1.383h-0.874l-0.044-0.93h-0.022
		c-0.299,0.598-0.951,1.052-1.825,1.052c-1.294,0-2.29-1.096-2.29-2.722c-0.011-1.781,1.095-2.876,2.4-2.876
		c0.819,0,1.372,0.387,1.615,0.818h0.022v-3.197H101.837z M100.863,336.553c0-0.122-0.011-0.288-0.044-0.409
		c-0.144-0.62-0.675-1.129-1.405-1.129c-1.006,0-1.604,0.885-1.604,2.069c0,1.084,0.531,1.979,1.582,1.979
		c0.653,0,1.25-0.431,1.427-1.161c0.033-0.133,0.044-0.266,0.044-0.421V336.553z"/>
	<path fill="#814A84" d="M104.349,332.149c-0.254,0.93-0.73,2.113-1.04,2.622l-0.62,0.077c0.244-0.652,0.531-1.803,0.653-2.6
		L104.349,332.149z"/>
	<path fill="#814A84" d="M105.621,337.228c0.022,1.316,0.863,1.858,1.836,1.858c0.697,0,1.117-0.122,1.482-0.276l0.166,0.696
		c-0.343,0.155-0.929,0.332-1.781,0.332c-1.648,0-2.633-1.084-2.633-2.699s0.951-2.887,2.511-2.887c1.748,0,2.212,1.537,2.212,2.521
		c0,0.199-0.022,0.354-0.033,0.454H105.621z M108.475,336.53c0.011-0.619-0.254-1.582-1.35-1.582c-0.984,0-1.416,0.907-1.493,1.582
		H108.475z"/>
	<path fill="#814A84" d="M110.291,335.822c0-0.553-0.011-1.007-0.044-1.449h0.863l0.056,0.885h0.022
		c0.266-0.509,0.885-1.006,1.77-1.006c0.741,0,1.892,0.442,1.892,2.278v3.197h-0.973v-3.087c0-0.862-0.321-1.581-1.239-1.581
		c-0.642,0-1.14,0.453-1.305,0.995c-0.044,0.122-0.066,0.288-0.066,0.454v3.219h-0.974V335.822z"/>
	<path fill="#814A84" d="M117.271,332.836v1.537h1.394v0.741h-1.394v2.888c0,0.663,0.188,1.04,0.73,1.04
		c0.254,0,0.442-0.033,0.564-0.066l0.044,0.729c-0.188,0.078-0.487,0.133-0.863,0.133c-0.454,0-0.819-0.144-1.051-0.409
		c-0.276-0.287-0.376-0.764-0.376-1.394v-2.921h-0.83v-0.741h0.83v-1.283L117.271,332.836z"/>
	<path fill="#814A84" d="M119.441,336.044c0-0.631-0.011-1.173-0.044-1.671h0.852l0.033,1.051h0.044
		c0.244-0.719,0.83-1.172,1.482-1.172c0.111,0,0.188,0.011,0.277,0.033v0.918c-0.1-0.022-0.199-0.033-0.332-0.033
		c-0.686,0-1.173,0.52-1.305,1.25c-0.022,0.133-0.044,0.287-0.044,0.453v2.854h-0.962V336.044z"/>
	<path fill="#814A84" d="M123.28,337.228c0.022,1.316,0.863,1.858,1.836,1.858c0.697,0,1.117-0.122,1.482-0.276l0.166,0.696
		c-0.343,0.155-0.929,0.332-1.781,0.332c-1.648,0-2.633-1.084-2.633-2.699s0.951-2.887,2.511-2.887c1.748,0,2.212,1.537,2.212,2.521
		c0,0.199-0.022,0.354-0.033,0.454H123.28z M126.134,336.53c0.011-0.619-0.254-1.582-1.35-1.582c-0.984,0-1.416,0.907-1.493,1.582
		H126.134z"/>
	<path fill="#814A84" d="M127.949,336.121c0-0.686-0.022-1.239-0.044-1.748h0.874l0.044,0.918h0.022
		c0.398-0.652,1.029-1.039,1.903-1.039c1.294,0,2.268,1.095,2.268,2.721c0,1.925-1.172,2.877-2.434,2.877
		c-0.708,0-1.328-0.311-1.648-0.841h-0.022v2.909h-0.962V336.121z M128.912,337.548c0,0.145,0.022,0.277,0.044,0.398
		c0.177,0.675,0.763,1.14,1.46,1.14c1.029,0,1.626-0.841,1.626-2.068c0-1.073-0.564-1.991-1.593-1.991
		c-0.664,0-1.283,0.476-1.471,1.205c-0.033,0.122-0.066,0.266-0.066,0.398V337.548z"/>
	<path fill="#814A84" d="M133.913,336.044c0-0.631-0.011-1.173-0.044-1.671h0.852l0.033,1.051h0.044
		c0.244-0.719,0.83-1.172,1.482-1.172c0.111,0,0.188,0.011,0.277,0.033v0.918c-0.1-0.022-0.199-0.033-0.332-0.033
		c-0.686,0-1.173,0.52-1.305,1.25c-0.022,0.133-0.044,0.287-0.044,0.453v2.854h-0.962V336.044z"/>
	<path fill="#814A84" d="M138.294,332.869c0.011,0.331-0.232,0.597-0.62,0.597c-0.343,0-0.586-0.266-0.586-0.597
		c0-0.344,0.254-0.608,0.608-0.608C138.062,332.261,138.294,332.525,138.294,332.869z M137.21,339.728v-5.354h0.974v5.354H137.21z"
		/>
	<path fill="#814A84" d="M139.334,338.731c0.288,0.188,0.796,0.388,1.284,0.388c0.708,0,1.039-0.354,1.039-0.797
		c0-0.464-0.276-0.719-0.995-0.984c-0.962-0.343-1.416-0.874-1.416-1.516c0-0.862,0.697-1.57,1.848-1.57
		c0.542,0,1.018,0.154,1.316,0.331l-0.243,0.708c-0.211-0.133-0.598-0.31-1.096-0.31c-0.575,0-0.896,0.332-0.896,0.73
		c0,0.442,0.321,0.642,1.019,0.907c0.929,0.354,1.404,0.818,1.404,1.615c0,0.94-0.729,1.604-2.002,1.604
		c-0.586,0-1.128-0.144-1.504-0.365L139.334,338.731z"/>
	<path fill="#814A84" d="M144.069,337.228c0.022,1.316,0.863,1.858,1.837,1.858c0.696,0,1.117-0.122,1.481-0.276l0.166,0.696
		c-0.343,0.155-0.929,0.332-1.78,0.332c-1.648,0-2.634-1.084-2.634-2.699s0.952-2.887,2.512-2.887c1.748,0,2.213,1.537,2.213,2.521
		c0,0.199-0.022,0.354-0.033,0.454H144.069z M146.924,336.53c0.011-0.619-0.255-1.582-1.35-1.582c-0.985,0-1.416,0.907-1.494,1.582
		H146.924z"/>
	<path fill="#814A84" d="M148.606,338.731c0.288,0.188,0.797,0.388,1.283,0.388c0.708,0,1.04-0.354,1.04-0.797
		c0-0.464-0.276-0.719-0.996-0.984c-0.962-0.343-1.416-0.874-1.416-1.516c0-0.862,0.697-1.57,1.848-1.57
		c0.542,0,1.018,0.154,1.316,0.331l-0.243,0.708c-0.21-0.133-0.598-0.31-1.095-0.31c-0.576,0-0.896,0.332-0.896,0.73
		c0,0.442,0.32,0.642,1.018,0.907c0.93,0.354,1.405,0.818,1.405,1.615c0,0.94-0.73,1.604-2.003,1.604
		c-0.586,0-1.128-0.144-1.504-0.365L148.606,338.731z"/>
	<path fill="#814A84" d="M159.448,331.873v6.472c0,0.476,0.011,1.018,0.044,1.383h-0.873l-0.045-0.93h-0.021
		c-0.299,0.598-0.952,1.052-1.826,1.052c-1.294,0-2.29-1.096-2.29-2.722c-0.011-1.781,1.096-2.876,2.401-2.876
		c0.818,0,1.371,0.387,1.615,0.818h0.021v-3.197H159.448z M158.475,336.553c0-0.122-0.011-0.288-0.044-0.409
		c-0.144-0.62-0.675-1.129-1.405-1.129c-1.007,0-1.604,0.885-1.604,2.069c0,1.084,0.53,1.979,1.582,1.979
		c0.652,0,1.25-0.431,1.427-1.161c0.033-0.133,0.044-0.266,0.044-0.421V336.553z"/>
	<path fill="#814A84" d="M161.274,337.228c0.022,1.316,0.863,1.858,1.837,1.858c0.696,0,1.117-0.122,1.481-0.276l0.166,0.696
		c-0.343,0.155-0.929,0.332-1.78,0.332c-1.648,0-2.634-1.084-2.634-2.699s0.952-2.887,2.512-2.887c1.748,0,2.213,1.537,2.213,2.521
		c0,0.199-0.022,0.354-0.033,0.454H161.274z M164.129,336.53c0.011-0.619-0.255-1.582-1.35-1.582c-0.985,0-1.416,0.907-1.494,1.582
		H164.129z"/>
	<path fill="#814A84" d="M167.969,331.873h0.974v7.854h-0.974V331.873z"/>
	<path fill="#814A84" d="M173.213,339.728l-0.077-0.675h-0.033c-0.299,0.42-0.874,0.797-1.638,0.797
		c-1.084,0-1.638-0.764-1.638-1.538c0-1.294,1.151-2.002,3.22-1.991v-0.11c0-0.442-0.122-1.239-1.217-1.239
		c-0.498,0-1.018,0.155-1.394,0.398l-0.222-0.642c0.442-0.288,1.084-0.476,1.759-0.476c1.638,0,2.036,1.117,2.036,2.19v2.002
		c0,0.465,0.021,0.918,0.088,1.283H173.213z M173.069,336.995c-1.062-0.022-2.269,0.166-2.269,1.206c0,0.63,0.421,0.929,0.919,0.929
		c0.696,0,1.139-0.442,1.294-0.896c0.033-0.1,0.056-0.211,0.056-0.31V336.995z"/>
	<path fill="#814A84" d="M183.59,336.453c-0.055-1.04-0.121-2.29-0.11-3.22h-0.033c-0.255,0.874-0.564,1.804-0.94,2.832
		l-1.316,3.618h-0.73l-1.205-3.552c-0.354-1.051-0.653-2.013-0.863-2.898h-0.022c-0.021,0.93-0.077,2.18-0.144,3.297l-0.199,3.197
		h-0.918l0.52-7.456h1.229l1.272,3.606c0.31,0.918,0.563,1.736,0.752,2.511h0.033c0.188-0.752,0.453-1.57,0.785-2.511l1.328-3.606
		h1.228l0.465,7.456h-0.94L183.59,336.453z"/>
	<path fill="#814A84" d="M186.379,337.228c0.022,1.316,0.863,1.858,1.836,1.858c0.697,0,1.118-0.122,1.482-0.276l0.166,0.696
		c-0.343,0.155-0.929,0.332-1.78,0.332c-1.648,0-2.634-1.084-2.634-2.699s0.952-2.887,2.512-2.887c1.748,0,2.213,1.537,2.213,2.521
		c0,0.199-0.022,0.354-0.033,0.454H186.379z M189.233,336.53c0.011-0.619-0.255-1.582-1.35-1.582c-0.985,0-1.416,0.907-1.494,1.582
		H189.233z M189.466,332.062l-1.35,1.582h-0.697l0.974-1.582H189.466z"/>
	<path fill="#814A84" d="M192.222,332.836v1.537h1.394v0.741h-1.394v2.888c0,0.663,0.188,1.04,0.729,1.04
		c0.255,0,0.443-0.033,0.564-0.066l0.044,0.729c-0.188,0.078-0.486,0.133-0.862,0.133c-0.454,0-0.818-0.144-1.051-0.409
		c-0.277-0.287-0.376-0.764-0.376-1.394v-2.921h-0.83v-0.741h0.83v-1.283L192.222,332.836z"/>
	<path fill="#814A84" d="M194.39,336.044c0-0.631-0.011-1.173-0.044-1.671h0.852l0.033,1.051h0.044
		c0.243-0.719,0.83-1.172,1.482-1.172c0.11,0,0.188,0.011,0.276,0.033v0.918c-0.1-0.022-0.199-0.033-0.331-0.033
		c-0.687,0-1.173,0.52-1.306,1.25c-0.022,0.133-0.045,0.287-0.045,0.453v2.854h-0.962V336.044z"/>
	<path fill="#814A84" d="M202.533,337.006c0,1.98-1.372,2.844-2.666,2.844c-1.449,0-2.567-1.062-2.567-2.755
		c0-1.792,1.173-2.843,2.655-2.843C201.493,334.252,202.533,335.369,202.533,337.006z M198.285,337.062
		c0,1.173,0.675,2.058,1.626,2.058c0.929,0,1.626-0.874,1.626-2.08c0-0.907-0.453-2.058-1.604-2.058
		C198.782,334.981,198.285,336.044,198.285,337.062z"/>
	<path fill="#814A84" d="M203.43,336.121c0-0.686-0.022-1.239-0.044-1.748h0.874l0.044,0.918h0.022
		c0.397-0.652,1.028-1.039,1.902-1.039c1.294,0,2.268,1.095,2.268,2.721c0,1.925-1.173,2.877-2.434,2.877
		c-0.708,0-1.327-0.311-1.648-0.841h-0.021v2.909h-0.963V336.121z M204.393,337.548c0,0.145,0.021,0.277,0.044,0.398
		c0.177,0.675,0.763,1.14,1.46,1.14c1.029,0,1.626-0.841,1.626-2.068c0-1.073-0.563-1.991-1.593-1.991
		c-0.664,0-1.283,0.476-1.472,1.205c-0.033,0.122-0.065,0.266-0.065,0.398V337.548z"/>
	<path fill="#814A84" d="M214.239,337.006c0,1.98-1.372,2.844-2.666,2.844c-1.449,0-2.567-1.062-2.567-2.755
		c0-1.792,1.173-2.843,2.655-2.843C213.199,334.252,214.239,335.369,214.239,337.006z M209.991,337.062
		c0,1.173,0.675,2.058,1.626,2.058c0.929,0,1.626-0.874,1.626-2.08c0-0.907-0.453-2.058-1.604-2.058
		C210.488,334.981,209.991,336.044,209.991,337.062z"/>
	<path fill="#814A84" d="M215.136,331.873h0.974v7.854h-0.974V331.873z"/>
	<path fill="#814A84" d="M217.957,337.228c0.022,1.316,0.863,1.858,1.836,1.858c0.697,0,1.118-0.122,1.482-0.276l0.166,0.696
		c-0.343,0.155-0.929,0.332-1.78,0.332c-1.648,0-2.634-1.084-2.634-2.699s0.952-2.887,2.512-2.887c1.748,0,2.213,1.537,2.213,2.521
		c0,0.199-0.022,0.354-0.033,0.454H217.957z M220.812,336.53c0.011-0.619-0.255-1.582-1.35-1.582c-0.985,0-1.416,0.907-1.494,1.582
		H220.812z"/>
</g>
<g>
	<path fill="#009FE3" d="M69.4,230.219c1.748-0.321,4.317-0.535,7.242-0.535c3.567,0,6.064,0.535,7.777,1.927
		c1.463,1.142,2.248,2.818,2.248,5.03c0,3.032-2.176,5.137-4.245,5.887v0.106c1.677,0.678,2.604,2.248,3.211,4.46
		c0.749,2.746,1.462,5.886,1.926,6.813h-5.565c-0.356-0.678-0.963-2.64-1.641-5.601c-0.678-3.033-1.712-3.817-3.96-3.854h-1.605
		v9.454H69.4V230.219z M74.787,240.529h2.14c2.711,0,4.317-1.355,4.317-3.461c0-2.176-1.499-3.317-3.996-3.317
		c-1.32,0-2.069,0.071-2.461,0.178V240.529z"/>
	<path fill="#009FE3" d="M97.365,254.3c-5.102,0-9.026-3.354-9.026-8.99s3.71-9.24,9.347-9.24c5.316,0,8.883,3.675,8.883,8.955
		c0,6.35-4.531,9.275-9.168,9.275H97.365z M97.472,250.411c2.141,0,3.46-2.104,3.46-5.244c0-2.568-0.999-5.209-3.46-5.209
		c-2.568,0-3.567,2.641-3.567,5.244c0,2.961,1.249,5.209,3.532,5.209H97.472z"/>
	<path fill="#009FE3" d="M125.295,248.307c0,2.283,0.071,4.138,0.143,5.601h-4.709l-0.25-2.462h-0.107
		c-0.678,1.07-2.319,2.854-5.458,2.854c-3.567,0-6.136-2.212-6.136-7.599v-10.239h5.422v9.383c0,2.533,0.821,4.066,2.747,4.066
		c1.499,0,2.39-1.034,2.711-1.891c0.143-0.32,0.214-0.713,0.214-1.177v-10.382h5.423V248.307z"/>
	<path fill="#009FE3" d="M132.784,246.879c0.178,2.283,2.39,3.354,4.923,3.354c1.855,0,3.354-0.249,4.816-0.749l0.713,3.675
		c-1.783,0.749-3.96,1.105-6.314,1.105c-5.922,0-9.311-3.425-9.311-8.919c0-4.423,2.783-9.311,8.812-9.311
		c5.637,0,7.777,4.388,7.777,8.704c0,0.928-0.107,1.749-0.179,2.177L132.784,246.879z M139.169,243.169
		c0-1.284-0.571-3.531-3.032-3.531c-2.319,0-3.247,2.104-3.389,3.531H139.169z"/>
	<path fill="#009FE3" d="M146.372,242.027c0-2.176-0.071-3.995-0.143-5.565h4.709l0.25,2.426h0.107
		c0.713-1.142,2.461-2.818,5.387-2.818c3.567,0,6.243,2.391,6.243,7.527v10.311h-5.423v-9.668c0-2.247-0.785-3.781-2.747-3.781
		c-1.498,0-2.39,1.034-2.782,2.033c-0.143,0.356-0.179,0.856-0.179,1.355v10.061h-5.423V242.027z"/>
</g>
<g>
	<path fill="#009FE3" d="M69.4,282.442v-24.045h6.35l4.995,8.812c1.427,2.533,2.818,5.53,3.924,8.241h0.071
		c-0.321-3.175-0.428-6.422-0.428-10.061v-6.992h4.995v24.045h-5.708l-5.137-9.275c-1.427-2.604-3.032-5.673-4.174-8.491h-0.143
		c0.179,3.211,0.25,6.601,0.25,10.524v7.242H69.4z"/>
	<path fill="#009FE3" d="M100.754,282.835c-5.102,0-9.026-3.354-9.026-8.99s3.71-9.24,9.347-9.24c5.316,0,8.883,3.675,8.883,8.955
		c0,6.35-4.531,9.275-9.168,9.275H100.754z M100.861,278.946c2.141,0,3.46-2.104,3.46-5.244c0-2.568-0.999-5.209-3.46-5.209
		c-2.568,0-3.567,2.641-3.567,5.244c0,2.961,1.249,5.209,3.532,5.209H100.861z"/>
	<path fill="#009FE3" d="M112.309,270.741c0-2.568-0.036-4.245-0.143-5.744h4.638l0.214,3.247h0.143
		c0.892-2.569,2.997-3.64,4.709-3.64c0.499,0,0.749,0.036,1.142,0.107v5.102c-0.464-0.071-0.892-0.143-1.499-0.143
		c-1.998,0-3.354,1.034-3.71,2.747c-0.071,0.356-0.107,0.749-0.107,1.213v8.812h-5.422L112.309,270.741z"/>
	<path fill="#009FE3" d="M124.757,270.562c0-2.176-0.071-3.995-0.143-5.565h4.602l0.214,2.391h0.107
		c0.75-1.142,2.319-2.783,5.28-2.783c2.283,0,4.031,1.178,4.781,2.997h0.071c0.678-0.928,1.427-1.641,2.283-2.141
		c0.964-0.535,2.034-0.856,3.318-0.856c3.354,0,5.887,2.354,5.887,7.563v10.274h-5.28v-9.454c0-2.532-0.82-3.995-2.568-3.995
		c-1.284,0-2.141,0.855-2.533,1.891c-0.107,0.393-0.179,0.928-0.179,1.355v10.203h-5.28v-9.775c0-2.176-0.785-3.674-2.533-3.674
		c-1.392,0-2.212,1.07-2.533,1.926c-0.178,0.429-0.214,0.928-0.214,1.392v10.132h-5.28V270.562z"/>
	<path fill="#009FE3" d="M168.918,278.232c0,1.642,0.071,3.247,0.285,4.21h-4.888l-0.321-1.748h-0.106
		c-1.142,1.392-2.926,2.141-4.995,2.141c-3.531,0-5.637-2.568-5.637-5.352c0-4.53,4.067-6.671,10.239-6.671v-0.214
		c0-0.928-0.5-2.248-3.175-2.248c-1.784,0-3.675,0.606-4.816,1.284l-0.999-3.46c1.213-0.678,3.604-1.57,6.778-1.57
		c5.815,0,7.635,3.425,7.635,7.527V278.232z M163.674,274.201c-2.854,0-5.066,0.678-5.066,2.747c0,1.392,0.928,2.069,2.141,2.069
		c1.32,0,2.462-0.892,2.818-1.998c0.071-0.285,0.107-0.606,0.107-0.928V274.201z"/>
	<path fill="#009FE3" d="M172.196,270.562c0-2.176-0.071-3.995-0.143-5.565h4.709l0.25,2.426h0.107
		c0.713-1.142,2.461-2.818,5.387-2.818c3.567,0,6.243,2.391,6.243,7.527v10.311h-5.423v-9.668c0-2.247-0.785-3.781-2.747-3.781
		c-1.498,0-2.39,1.034-2.782,2.033c-0.143,0.356-0.179,0.856-0.179,1.355v10.061h-5.423V270.562z"/>
	<path fill="#009FE3" d="M208.974,257.113v20.12c0,1.998,0.071,4.031,0.143,5.209h-4.815l-0.215-2.533h-0.106
		c-1.07,1.927-3.211,2.926-5.458,2.926c-4.139,0-7.456-3.532-7.456-8.955c-0.036-5.851,3.639-9.275,7.812-9.275
		c2.176,0,3.817,0.785,4.602,1.963h0.071v-9.454H208.974z M203.551,272.418c0-0.321,0-0.678-0.071-0.999
		c-0.32-1.463-1.498-2.64-3.175-2.64c-2.497,0-3.746,2.211-3.746,4.958c0,2.926,1.463,4.781,3.711,4.781
		c1.569,0,2.854-1.07,3.175-2.604c0.071-0.357,0.106-0.785,0.106-1.213V272.418z"/>
	<path fill="#009FE3" d="M214.928,262.714c-1.819,0-2.996-1.284-2.996-2.89c0-1.641,1.213-2.89,3.067-2.89
		c1.855,0,2.997,1.249,3.032,2.89c0,1.605-1.177,2.89-3.067,2.89H214.928z M212.252,282.442v-17.445h5.423v17.445H212.252z"/>
	<path fill="#009FE3" d="M225.165,275.414c0.178,2.283,2.39,3.354,4.923,3.354c1.855,0,3.354-0.249,4.816-0.749l0.713,3.675
		c-1.783,0.749-3.96,1.105-6.314,1.105c-5.922,0-9.311-3.425-9.311-8.919c0-4.423,2.782-9.311,8.812-9.311
		c5.637,0,7.777,4.388,7.777,8.704c0,0.928-0.107,1.749-0.179,2.177L225.165,275.414z M231.551,271.704
		c0-1.284-0.571-3.531-3.033-3.531c-2.318,0-3.246,2.104-3.389,3.531H231.551z"/>
</g>
<g>
	<path fill="#009FE3" d="M87.023,310.335c-0.963,0.464-3.247,1.035-6.136,1.035c-8.312,0-12.593-5.209-12.593-12.094
		c0-8.205,5.851-12.736,13.128-12.736c2.818,0,4.959,0.571,5.922,1.07l-1.142,4.281c-1.07-0.464-2.604-0.893-4.566-0.893
		c-4.281,0-7.635,2.604-7.635,7.992c0,4.815,2.854,7.848,7.67,7.848c1.677,0,3.46-0.32,4.566-0.784L87.023,310.335z"/>
	<path fill="#009FE3" d="M89.338,299.276c0-2.568-0.036-4.245-0.143-5.744h4.638l0.214,3.247h0.143
		c0.892-2.569,2.997-3.64,4.709-3.64c0.499,0,0.749,0.036,1.142,0.107v5.102c-0.464-0.071-0.892-0.143-1.499-0.143
		c-1.998,0-3.354,1.034-3.71,2.747c-0.071,0.356-0.107,0.749-0.107,1.213v8.812h-5.422L89.338,299.276z"/>
	<path fill="#009FE3" d="M105.996,303.949c0.178,2.283,2.39,3.354,4.923,3.354c1.855,0,3.354-0.249,4.816-0.749l0.713,3.675
		c-1.784,0.749-3.959,1.105-6.314,1.105c-5.922,0-9.311-3.425-9.311-8.919c0-4.423,2.783-9.311,8.812-9.311
		c5.637,0,7.777,4.388,7.777,8.704c0,0.928-0.107,1.749-0.178,2.177L105.996,303.949z M112.382,300.239
		c0-1.284-0.571-3.531-3.032-3.531c-2.319,0-3.247,2.104-3.389,3.531H112.382z M115.379,286.005l-4.353,5.423h-3.71l3.068-5.423
		H115.379z"/>
	<path fill="#009FE3" d="M134.141,306.768c0,1.642,0.071,3.247,0.286,4.21h-4.888l-0.321-1.748h-0.107
		c-1.142,1.392-2.925,2.141-4.994,2.141c-3.532,0-5.637-2.568-5.637-5.352c0-4.53,4.067-6.671,10.239-6.671v-0.214
		c0-0.928-0.5-2.248-3.175-2.248c-1.784,0-3.674,0.606-4.816,1.284l-0.999-3.46c1.213-0.678,3.603-1.57,6.778-1.57
		c5.815,0,7.634,3.425,7.634,7.527V306.768z M128.896,302.736c-2.854,0-5.066,0.678-5.066,2.747c0,1.392,0.928,2.069,2.141,2.069
		c1.32,0,2.461-0.892,2.818-1.998c0.071-0.285,0.107-0.606,0.107-0.928V302.736z"/>
	<path fill="#009FE3" d="M143.199,288.788v4.744h3.889v3.996h-3.889v6.35c0,2.105,0.535,3.068,2.141,3.068
		c0.749,0,1.106-0.036,1.605-0.143l0.036,4.103c-0.679,0.25-1.998,0.464-3.497,0.464c-1.748,0-3.21-0.606-4.102-1.498
		c-0.999-1.035-1.499-2.712-1.499-5.174v-7.17h-2.319v-3.996h2.319v-3.282L143.199,288.788z"/>
	<path fill="#009FE3" d="M151.865,291.249c-1.819,0-2.996-1.284-2.996-2.89c0-1.641,1.213-2.89,3.067-2.89
		c1.855,0,2.997,1.249,3.032,2.89c0,1.605-1.177,2.89-3.067,2.89H151.865z M149.189,310.978v-17.445h5.423v17.445H149.189z"/>
	<path fill="#009FE3" d="M165.956,311.37c-5.102,0-9.025-3.354-9.025-8.99s3.71-9.24,9.347-9.24c5.315,0,8.883,3.675,8.883,8.955
		c0,6.35-4.53,9.275-9.169,9.275H165.956z M166.063,307.481c2.14,0,3.46-2.104,3.46-5.244c0-2.568-0.999-5.209-3.46-5.209
		c-2.569,0-3.568,2.641-3.568,5.244c0,2.961,1.249,5.209,3.532,5.209H166.063z"/>
	<path fill="#009FE3" d="M177.475,299.098c0-2.176-0.071-3.995-0.143-5.565h4.709l0.25,2.426h0.107
		c0.713-1.142,2.461-2.818,5.387-2.818c3.567,0,6.243,2.391,6.243,7.527v10.311h-5.423v-9.668c0-2.247-0.785-3.781-2.747-3.781
		c-1.498,0-2.39,1.034-2.782,2.033c-0.143,0.356-0.179,0.856-0.179,1.355v10.061h-5.423V299.098z"/>
</g>
</svg>
