<?xml version="1.0" encoding="utf-8"?>
<!-- Generator: Adobe Illustrator 26.3.1, SVG Export Plug-In . SVG Version: 6.00 Build 0)  -->
<svg version="1.1" id="Calque_1" xmlns="http://www.w3.org/2000/svg" xmlns:xlink="http://www.w3.org/1999/xlink" x="0px" y="0px"
	 viewBox="0 0 439.4 198.4" style="enable-background:new 0 0 439.4 198.4;" xml:space="preserve">
<style type="text/css">
	.st0{clip-path:url(#SVGID_00000115472950645021535170000018075661240313970591_);fill:#6A2875;}
	.st1{clip-path:url(#SVGID_00000047761931328172995150000006774846198909604775_);fill:#FFBF00;}
	.st2{clip-path:url(#SVGID_00000098197554445262691030000016747734269961442193_);fill:#01A0C6;}
	.st3{clip-path:url(#SVGID_00000099630409650437250360000011714787882786848446_);fill:#FFBF00;}
	.st4{clip-path:url(#SVGID_00000139255345274821121320000016645828381457143979_);fill:#F6437F;}
	.st5{clip-path:url(#SVGID_00000059270369174665139000000005026848797669447865_);fill:#01A0C6;}
	.st6{clip-path:url(#SVGID_00000057871160685066422560000011861512008710197938_);fill:#F6437F;}
	.st7{clip-path:url(#SVGID_00000160868770019056654430000012491607933272928645_);fill:#F6437F;}
	.st8{clip-path:url(#SVGID_00000037669491089588968510000006299266220481526916_);fill:#01A0C6;}
	.st9{clip-path:url(#SVGID_00000170248966327194551980000004531216434749414334_);fill:#6A2875;}
	.st10{clip-path:url(#SVGID_00000080907027082799453300000012776262620184410296_);fill:#FFBF00;}
	.st11{clip-path:url(#SVGID_00000001639537399949394380000017610784857649281686_);fill:#6A2875;}
	.st12{clip-path:url(#SVGID_00000093893054193571518830000003013749797981620612_);fill:#FFBF00;}
	.st13{clip-path:url(#SVGID_00000121989354600513871600000006257830166858129301_);fill:#01A0C6;}
	.st14{clip-path:url(#SVGID_00000022549001444532301100000012263481137278208164_);fill:#FFBF00;}
	.st15{clip-path:url(#SVGID_00000039840029337353009180000003113791899440111754_);fill:#01A0C6;}
	.st16{clip-path:url(#SVGID_00000065063577764848740660000001349648911596796816_);fill:#6A2875;}
	.st17{clip-path:url(#SVGID_00000117647783151222121010000012713252870168648854_);fill:#F6437F;}
	.st18{clip-path:url(#SVGID_00000046328487238698422790000010993098171919748259_);fill:#01A0C6;}
	.st19{clip-path:url(#SVGID_00000072279256047326702700000010487918946699374492_);fill:#01A0C6;}
	.st20{clip-path:url(#SVGID_00000067226725598530449660000008534626967754176949_);fill:#01A0C6;}
	.st21{clip-path:url(#SVGID_00000046336361525878799180000016424833714757035698_);fill:#01A0C6;}
	.st22{clip-path:url(#SVGID_00000028300813163198283890000001348731062074276242_);fill:#01A0C6;}
	.st23{clip-path:url(#SVGID_00000149371423065554895950000003195259229604520863_);fill:#01A0C6;}
	.st24{clip-path:url(#SVGID_00000083800904935726589660000008515413146087916165_);fill:#01A0C6;}
	.st25{clip-path:url(#SVGID_00000120561339135612252170000008270143696396623016_);fill:#01A0C6;}
	.st26{clip-path:url(#SVGID_00000091710606163271019850000014169162146660246659_);fill:#01A0C6;}
	.st27{clip-path:url(#SVGID_00000079447684780756665570000007103634128389686461_);fill:#01A0C6;}
	.st28{clip-path:url(#SVGID_00000161631874402378006170000011827570193511265949_);fill:#01A0C6;}
	.st29{clip-path:url(#SVGID_00000081638546573492838600000004944189641578409352_);fill:#01A0C6;}
	.st30{clip-path:url(#SVGID_00000112615106983082790060000014889137229403217316_);fill:#01A0C6;}
	.st31{clip-path:url(#SVGID_00000039134083902624093550000009117697737433608860_);fill:#01A0C6;}
	.st32{clip-path:url(#SVGID_00000118392247572914911810000014575704896408106649_);fill:#01A0C6;}
	.st33{clip-path:url(#SVGID_00000057854594610861891830000002170783060774084742_);fill:#01A0C6;}
	.st34{clip-path:url(#SVGID_00000001653999480131172550000014090212178668800909_);fill:#01A0C6;}
	.st35{clip-path:url(#SVGID_00000108292664697997010300000013594983389519325080_);fill:#01A0C6;}
	.st36{clip-path:url(#SVGID_00000013172844270456893490000010113802613927180683_);fill:#01A0C6;}
	.st37{clip-path:url(#SVGID_00000001647036611059613290000014482973971524830625_);fill:#01A0C6;}
	.st38{clip-path:url(#SVGID_00000042703100537633424660000004416581970387625101_);fill:#01A0C6;}
	.st39{clip-path:url(#SVGID_00000069396564833908605100000001791065886238886034_);fill:#01A0C6;}
</style>
<g>
	<g>
		<defs>
			<rect id="SVGID_1_" x="300.1" y="14.1" width="126.4" height="170.6"/>
		</defs>
		<clipPath id="SVGID_00000114792595994731098020000012307618540496388023_">
			<use xlink:href="#SVGID_1_"  style="overflow:visible;"/>
		</clipPath>
		<path style="clip-path:url(#SVGID_00000114792595994731098020000012307618540496388023_);fill:#6A2875;" d="M357.9,60.6
			c-1.6,5.3-0.4,10.3,3.6,11.6c4.1,1.2,8.7-2,10.3-7.3c1.6-5.3-0.6-10.1-3-11.4C366.1,52.1,359.5,55.3,357.9,60.6"/>
	</g>
</g>
<g>
	<g>
		<defs>
			<rect id="SVGID_00000105405526050016849050000000326676237123233464_" x="300.1" y="14.1" width="126.4" height="170.6"/>
		</defs>
		<clipPath id="SVGID_00000158742858121440379030000000966772795168723642_">
			<use xlink:href="#SVGID_00000105405526050016849050000000326676237123233464_"  style="overflow:visible;"/>
		</clipPath>
		<path style="clip-path:url(#SVGID_00000158742858121440379030000000966772795168723642_);fill:#FFBF00;" d="M342.9,71
			c3.2,4.5,7.9,6.7,11.3,4.3c3.5-2.4,3.8-8.1,0.6-12.6c-3.2-4.5-8.3-5.8-10.8-4.7C341.3,59.3,339.8,66.5,342.9,71"/>
	</g>
</g>
<g>
	<g>
		<defs>
			<rect id="SVGID_00000108308699240849161210000000208635338963614883_" x="300.1" y="14.1" width="126.4" height="170.6"/>
		</defs>
		<clipPath id="SVGID_00000099644326111052886300000014943943694549150095_">
			<use xlink:href="#SVGID_00000108308699240849161210000000208635338963614883_"  style="overflow:visible;"/>
		</clipPath>
		<path style="clip-path:url(#SVGID_00000099644326111052886300000014943943694549150095_);fill:#01A0C6;" d="M357.6,89.6
			c3-4.6,3.2-9.8-0.3-12.1c-3.6-2.3-8.9-0.4-11.9,4.2s-2.2,9.8-0.2,11.8C347.3,95.6,354.6,94.3,357.6,89.6"/>
	</g>
</g>
<g>
	<g>
		<defs>
			<rect id="SVGID_00000153665943165895985980000001723707354919159957_" x="300.1" y="14.1" width="126.4" height="170.6"/>
		</defs>
		<clipPath id="SVGID_00000161591522935879444260000015391011021269859986_">
			<use xlink:href="#SVGID_00000153665943165895985980000001723707354919159957_"  style="overflow:visible;"/>
		</clipPath>
		<path style="clip-path:url(#SVGID_00000161591522935879444260000015391011021269859986_);fill:#FFBF00;" d="M374.8,80.1
			c-1.8-5.2-5.7-8.6-9.7-7.2s-5.8,6.7-4,11.9c1.8,5.2,6.4,7.8,9.1,7.4C373.1,91.8,376.6,85.3,374.8,80.1"/>
	</g>
</g>
<g>
	<g>
		<defs>
			<rect id="SVGID_00000148657179542293161710000008012324415292432521_" x="300.1" y="14.1" width="126.4" height="170.6"/>
		</defs>
		<clipPath id="SVGID_00000076573063171995082070000013164962294708673924_">
			<use xlink:href="#SVGID_00000148657179542293161710000008012324415292432521_"  style="overflow:visible;"/>
		</clipPath>
		<path style="clip-path:url(#SVGID_00000076573063171995082070000013164962294708673924_);fill:#F6437F;" d="M342,83
			c3.2-1.9,4.9-4.9,3.5-7.4s-5.2-2.9-8.4-1c-3.2,1.9-4.3,5.2-3.7,7C334,83.5,338.8,84.9,342,83"/>
	</g>
</g>
<g>
	<g>
		<defs>
			<rect id="SVGID_00000173148902705409993650000002520961955975064200_" x="300.1" y="14.1" width="126.4" height="170.6"/>
		</defs>
		<clipPath id="SVGID_00000178177823619130822400000003566755182255497371_">
			<use xlink:href="#SVGID_00000173148902705409993650000002520961955975064200_"  style="overflow:visible;"/>
		</clipPath>
		<path style="clip-path:url(#SVGID_00000178177823619130822400000003566755182255497371_);fill:#01A0C6;" d="M375.8,65.1
			c-3.5,1.2-5.8,3.9-4.8,6.6s4.6,3.9,8.1,2.6c3.5-1.2,5.2-4.3,4.9-6.2C383.6,66.1,379.2,63.9,375.8,65.1"/>
	</g>
</g>
<g>
	<g>
		<defs>
			<rect id="SVGID_00000181064651683808982710000004035852666341387916_" x="300.1" y="14.1" width="126.4" height="170.6"/>
		</defs>
		<clipPath id="SVGID_00000080895111217644998640000000864205422727383945_">
			<use xlink:href="#SVGID_00000181064651683808982710000004035852666341387916_"  style="overflow:visible;"/>
		</clipPath>
		<path style="clip-path:url(#SVGID_00000080895111217644998640000000864205422727383945_);fill:#F6437F;" d="M349.8,54.6
			c0.6,3.7,2.8,6.4,5.6,5.9c2.8-0.5,4.6-3.8,4-7.5s-3.3-5.9-5.2-6C352.2,47,349.2,50.9,349.8,54.6"/>
	</g>
</g>
<g>
	<g>
		<defs>
			<rect id="SVGID_00000134932189897183773850000010006956400948313010_" x="300.1" y="14.1" width="126.4" height="170.6"/>
		</defs>
		<clipPath id="SVGID_00000024710810935816096870000013977445936468559503_">
			<use xlink:href="#SVGID_00000134932189897183773850000010006956400948313010_"  style="overflow:visible;"/>
		</clipPath>
		<path style="clip-path:url(#SVGID_00000024710810935816096870000013977445936468559503_);fill:#F6437F;" d="M365.9,95.2
			c-0.4-3.7-2.4-6.5-5.3-6.2c-2.8,0.3-4.8,3.5-4.5,7.2c0.4,3.7,3,6.1,4.8,6.3C363.1,102.7,366.3,98.9,365.9,95.2"/>
	</g>
</g>
<g>
	<g>
		<defs>
			<rect id="SVGID_00000161598404830392238120000004667606593366482317_" x="300.1" y="14.1" width="126.4" height="170.6"/>
		</defs>
		<clipPath id="SVGID_00000075121109228705693660000015826123759978466997_">
			<use xlink:href="#SVGID_00000161598404830392238120000004667606593366482317_"  style="overflow:visible;"/>
		</clipPath>
		<path style="clip-path:url(#SVGID_00000075121109228705693660000015826123759978466997_);fill:#01A0C6;" d="M334.4,51.2
			c3.1,4.5,7.9,6.7,11.3,4.3c3.5-2.4,3.8-8.1,0.6-12.6c-3.2-4.5-8.3-5.8-10.8-4.7C332.7,39.4,331.3,46.7,334.4,51.2"/>
	</g>
</g>
<g>
	<g>
		<defs>
			<rect id="SVGID_00000004515260363217534240000007781170222134361997_" x="300.1" y="14.1" width="126.4" height="170.6"/>
		</defs>
		<clipPath id="SVGID_00000018213058305425067860000003045665990179402409_">
			<use xlink:href="#SVGID_00000004515260363217534240000007781170222134361997_"  style="overflow:visible;"/>
		</clipPath>
		<path style="clip-path:url(#SVGID_00000018213058305425067860000003045665990179402409_);fill:#6A2875;" d="M322.9,73.2
			c8.4,1.3,15.9-1.6,17-8.1c1-6.5-5-12.8-13.4-14.2c-8.4-1.3-15.3,3-16.8,7.1C308.1,62.5,314.5,71.9,322.9,73.2"/>
	</g>
</g>
<g>
	<g>
		<defs>
			<rect id="SVGID_00000085967688501803614870000012446252547786760350_" x="300.1" y="14.1" width="126.4" height="170.6"/>
		</defs>
		<clipPath id="SVGID_00000080886703951866275050000014553589200222079877_">
			<use xlink:href="#SVGID_00000085967688501803614870000012446252547786760350_"  style="overflow:visible;"/>
		</clipPath>
		<path style="clip-path:url(#SVGID_00000080886703951866275050000014553589200222079877_);fill:#FFBF00;" d="M323.9,89.9
			c5.4-1.3,9.1-4.9,8.1-9s-6.2-6.4-11.5-5.1c-5.4,1.3-8.4,5.6-8.2,8.4C312.3,87.2,318.5,91.2,323.9,89.9"/>
	</g>
</g>
<g>
	<g>
		<defs>
			<rect id="SVGID_00000025439098536966874400000017758226666206948768_" x="300.1" y="14.1" width="126.4" height="170.6"/>
		</defs>
		<clipPath id="SVGID_00000180362055924194314430000011853936853948706491_">
			<use xlink:href="#SVGID_00000025439098536966874400000017758226666206948768_"  style="overflow:visible;"/>
		</clipPath>
		<path style="clip-path:url(#SVGID_00000180362055924194314430000011853936853948706491_);fill:#6A2875;" d="M340.3,108.5
			c4.3-7.4,4.3-15.4-1.4-18.7c-5.7-3.3-13.8,0-18.1,7.4c-4.3,7.4-2.7,15.4,0.5,18.2C324.9,118.5,336,115.9,340.3,108.5"/>
	</g>
</g>
<g>
	<g>
		<defs>
			<rect id="SVGID_00000078023296175967520070000010629264691673041315_" x="300.1" y="14.1" width="126.4" height="170.6"/>
		</defs>
		<clipPath id="SVGID_00000039833626356836167460000017417344479661987714_">
			<use xlink:href="#SVGID_00000078023296175967520070000010629264691673041315_"  style="overflow:visible;"/>
		</clipPath>
		<path style="clip-path:url(#SVGID_00000039833626356836167460000017417344479661987714_);fill:#FFBF00;" d="M357.4,109
			c0.9-5.4-1-10.3-5.2-11s-8.3,3.2-9.2,8.6c-0.9,5.4,1.9,9.9,4.6,10.9C350.4,118.6,356.5,114.5,357.4,109"/>
	</g>
</g>
<g>
	<g>
		<defs>
			<rect id="SVGID_00000117663681494894422570000001293093870424167611_" x="300.1" y="14.1" width="126.4" height="170.6"/>
		</defs>
		<clipPath id="SVGID_00000174578378854269824300000004724774200801333933_">
			<use xlink:href="#SVGID_00000117663681494894422570000001293093870424167611_"  style="overflow:visible;"/>
		</clipPath>
		<path style="clip-path:url(#SVGID_00000174578378854269824300000004724774200801333933_);fill:#01A0C6;" d="M378.7,45.8
			c-4.4,3.4-6.3,8.2-3.6,11.6c2.6,3.3,8.2,3.3,12.6-0.1c4.4-3.4,5.3-8.6,4-11.1C390.3,43.5,383,42.4,378.7,45.8"/>
	</g>
</g>
<g>
	<g>
		<defs>
			<rect id="SVGID_00000166647356026298580660000017218873152529204649_" x="300.1" y="14.1" width="126.4" height="170.6"/>
		</defs>
		<clipPath id="SVGID_00000004525301149521512440000005641458252828425652_">
			<use xlink:href="#SVGID_00000166647356026298580660000017218873152529204649_"  style="overflow:visible;"/>
		</clipPath>
		<path style="clip-path:url(#SVGID_00000004525301149521512440000005641458252828425652_);fill:#FFBF00;" d="M356.1,35.6
			c-0.9,8.5,2.5,15.8,9,16.5s12.5-5.7,13.4-14.2s-3.9-15.1-8-16.4C366,20.1,357,27,356.1,35.6"/>
	</g>
</g>
<g>
	<g>
		<defs>
			<rect id="SVGID_00000032641499005161678260000017318534906061460666_" x="300.1" y="14.1" width="126.4" height="170.6"/>
		</defs>
		<clipPath id="SVGID_00000102517000077991607910000006444257672475311293_">
			<use xlink:href="#SVGID_00000032641499005161678260000017318534906061460666_"  style="overflow:visible;"/>
		</clipPath>
		<path style="clip-path:url(#SVGID_00000102517000077991607910000006444257672475311293_);fill:#01A0C6;" d="M387.6,100.4
			c-4.9-7-12.3-10.3-17.6-6.5c-5.4,3.8-5.7,12.5-0.8,19.5c4.9,7,12.9,8.9,16.8,7.1C390.3,118.5,392.5,107.4,387.6,100.4"/>
	</g>
</g>
<g>
	<g>
		<defs>
			<rect id="SVGID_00000127725046496990996200000012283878086824171919_" x="300.1" y="14.1" width="126.4" height="170.6"/>
		</defs>
		<clipPath id="SVGID_00000128477813341987646110000000546118105113830016_">
			<use xlink:href="#SVGID_00000127725046496990996200000012283878086824171919_"  style="overflow:visible;"/>
		</clipPath>
		<path style="clip-path:url(#SVGID_00000128477813341987646110000000546118105113830016_);fill:#6A2875;" d="M390.5,79.4
			c-4.6-3.1-9.8-3.4-12.1,0.1c-2.4,3.5-0.6,8.9,4,12s9.8,2.4,11.8,0.4C396.3,89.7,395.1,82.5,390.5,79.4"/>
	</g>
</g>
<g>
	<g>
		<defs>
			<rect id="SVGID_00000170256084918825888550000002803625468796227210_" x="300.1" y="14.1" width="126.4" height="170.6"/>
		</defs>
		<clipPath id="SVGID_00000150063174769626609950000000199901043835473800_">
			<use xlink:href="#SVGID_00000170256084918825888550000002803625468796227210_"  style="overflow:visible;"/>
		</clipPath>
		<path style="clip-path:url(#SVGID_00000150063174769626609950000000199901043835473800_);fill:#F6437F;" d="M398.6,55.8
			c-8.3,2-14.1,7.5-12.6,13.9c1.5,6.4,9.5,10,17.8,8s13-8.6,12.9-12.9C416.4,60.1,406.9,53.8,398.6,55.8"/>
	</g>
</g>
<g>
	<g>
		<defs>
			<rect id="SVGID_00000057106830414399741460000011056013654029906328_" x="300.1" y="14.1" width="126.4" height="170.6"/>
		</defs>
		<clipPath id="SVGID_00000134245869349831831850000000513621457670705042_">
			<use xlink:href="#SVGID_00000057106830414399741460000011056013654029906328_"  style="overflow:visible;"/>
		</clipPath>
		<path style="clip-path:url(#SVGID_00000134245869349831831850000000513621457670705042_);fill:#01A0C6;" d="M331.4,118.1
			c0.8-0.1,1.9-0.2,3.3-0.2c1.6,0,2.7,0.2,3.5,0.9c0.7,0.5,1,1.3,1,2.3c0,1.4-1,2.3-1.9,2.7v0.1c0.8,0.3,1.2,1,1.5,2
			c0.3,1.2,0.7,2.7,0.9,3.1h-2.5c-0.2-0.3-0.4-1.2-0.7-2.5c-0.3-1.4-0.8-1.7-1.8-1.7H334v4.3h-2.4v-11H331.4z M333.9,122.7h1
			c1.2,0,1.9-0.6,1.9-1.6s-0.7-1.5-1.8-1.5c-0.6,0-0.9,0-1.1,0.1V122.7z"/>
	</g>
</g>
<g>
	<g>
		<defs>
			<rect id="SVGID_00000012469087873265832110000004638180162692796834_" x="300.1" y="14.1" width="126.4" height="170.6"/>
		</defs>
		<clipPath id="SVGID_00000119108621552398098540000003741710360553148584_">
			<use xlink:href="#SVGID_00000012469087873265832110000004638180162692796834_"  style="overflow:visible;"/>
		</clipPath>
		<path style="clip-path:url(#SVGID_00000119108621552398098540000003741710360553148584_);fill:#01A0C6;" d="M344,128.9
			c-2.3,0-4.1-1.5-4.1-4.1c0-2.5,1.7-4.2,4.2-4.2c2.4,0,4,1.7,4,4C348.2,127.6,346.2,128.9,344,128.9L344,128.9L344,128.9z
			 M344.1,127.2c1,0,1.6-0.9,1.6-2.4c0-1.2-0.5-2.4-1.6-2.4c-1.2,0-1.6,1.2-1.6,2.4C342.5,126.2,343,127.2,344.1,127.2L344.1,127.2
			L344.1,127.2z"/>
	</g>
</g>
<g>
	<g>
		<defs>
			<rect id="SVGID_00000104677173302818942000000000781489163028990086_" x="300.1" y="14.1" width="126.4" height="170.6"/>
		</defs>
		<clipPath id="SVGID_00000022560852469375083090000013695354162227242374_">
			<use xlink:href="#SVGID_00000104677173302818942000000000781489163028990086_"  style="overflow:visible;"/>
		</clipPath>
		<path style="clip-path:url(#SVGID_00000022560852469375083090000013695354162227242374_);fill:#01A0C6;" d="M356.7,126.2
			c0,1,0,1.9,0.1,2.5h-2.1l-0.1-1.1h-0.1c-0.3,0.5-1,1.3-2.5,1.3c-1.6,0-2.8-1-2.8-3.4v-4.6h2.5v4.2c0,1.1,0.4,1.8,1.2,1.8
			c0.7,0,1.1-0.5,1.2-0.9c0.1-0.1,0.1-0.3,0.1-0.5v-4.7h2.5L356.7,126.2L356.7,126.2z"/>
	</g>
</g>
<g>
	<g>
		<defs>
			<rect id="SVGID_00000180324997702021984220000009134090787742523031_" x="300.1" y="14.1" width="126.4" height="170.6"/>
		</defs>
		<clipPath id="SVGID_00000017482400580346868700000006869018833506011281_">
			<use xlink:href="#SVGID_00000180324997702021984220000009134090787742523031_"  style="overflow:visible;"/>
		</clipPath>
		<path style="clip-path:url(#SVGID_00000017482400580346868700000006869018833506011281_);fill:#01A0C6;" d="M360,125.6
			c0.1,1,1.1,1.5,2.2,1.5c0.8,0,1.5-0.1,2.2-0.3l0.3,1.7c-0.8,0.3-1.8,0.5-2.9,0.5c-2.7,0-4.2-1.5-4.2-4c0-2,1.3-4.2,4-4.2
			c2.6,0,3.5,2,3.5,3.9c0,0.4-0.1,0.8-0.1,1L360,125.6z M362.9,123.9c0-0.6-0.3-1.6-1.4-1.6c-1,0-1.5,1-1.5,1.6H362.9z"/>
	</g>
</g>
<g>
	<g>
		<defs>
			<rect id="SVGID_00000079471639783345922860000004022410956448702094_" x="300.1" y="14.1" width="126.4" height="170.6"/>
		</defs>
		<clipPath id="SVGID_00000013898433607295791850000000320756730894093985_">
			<use xlink:href="#SVGID_00000079471639783345922860000004022410956448702094_"  style="overflow:visible;"/>
		</clipPath>
		<path style="clip-path:url(#SVGID_00000013898433607295791850000000320756730894093985_);fill:#01A0C6;" d="M366.2,123.4
			c0-1,0-1.8-0.1-2.5h2.1l0.1,1.1l0,0c0.3-0.5,1.1-1.3,2.4-1.3c1.6,0,2.8,1.1,2.8,3.4v4.7h-2.4v-4.4c0-1-0.4-1.7-1.2-1.7
			c-0.7,0-1.1,0.5-1.3,0.9c-0.1,0.2-0.1,0.4-0.1,0.6v4.5H366L366.2,123.4L366.2,123.4z"/>
	</g>
</g>
<g>
	<g>
		<defs>
			<rect id="SVGID_00000023278426958292142090000001233012473041726871_" x="300.1" y="14.1" width="126.4" height="170.6"/>
		</defs>
		<clipPath id="SVGID_00000127744603108235723240000006587597813390867873_">
			<use xlink:href="#SVGID_00000023278426958292142090000001233012473041726871_"  style="overflow:visible;"/>
		</clipPath>
		<path style="clip-path:url(#SVGID_00000127744603108235723240000006587597813390867873_);fill:#01A0C6;" d="M331.4,141.7v-10.9
			h2.9l2.3,4c0.6,1.1,1.3,2.5,1.8,3.7l0,0c-0.1-1.4-0.2-2.9-0.2-4.5v-3.2h2.3v10.9h-2.6l-2.3-4.2c-0.6-1.2-1.4-2.6-1.9-3.8h-0.1
			c0.1,1.5,0.1,3,0.1,4.8v3.3L331.4,141.7L331.4,141.7z"/>
	</g>
</g>
<g>
	<g>
		<defs>
			<rect id="SVGID_00000008143289735563045350000001941417880218880660_" x="300.1" y="14.1" width="126.4" height="170.6"/>
		</defs>
		<clipPath id="SVGID_00000086681255890381239740000016840118478216283287_">
			<use xlink:href="#SVGID_00000008143289735563045350000001941417880218880660_"  style="overflow:visible;"/>
		</clipPath>
		<path style="clip-path:url(#SVGID_00000086681255890381239740000016840118478216283287_);fill:#01A0C6;" d="M345.6,141.8
			c-2.3,0-4.1-1.5-4.1-4.1s1.7-4.2,4.2-4.2c2.4,0,4,1.7,4,4C349.7,140.5,347.7,141.8,345.6,141.8L345.6,141.8z M345.6,140.1
			c1,0,1.6-0.9,1.6-2.4c0-1.2-0.5-2.4-1.6-2.4c-1.2,0-1.6,1.2-1.6,2.4C344,139.1,344.6,140.1,345.6,140.1L345.6,140.1L345.6,140.1z"
			/>
	</g>
</g>
<g>
	<g>
		<defs>
			<rect id="SVGID_00000072271954976501936550000006535232653577195695_" x="300.1" y="14.1" width="126.4" height="170.6"/>
		</defs>
		<clipPath id="SVGID_00000089554163138756914230000016926221137347547801_">
			<use xlink:href="#SVGID_00000072271954976501936550000006535232653577195695_"  style="overflow:visible;"/>
		</clipPath>
		<path style="clip-path:url(#SVGID_00000089554163138756914230000016926221137347547801_);fill:#01A0C6;" d="M350.8,136.4
			c0-1.2,0-1.9-0.1-2.6h2.1l0.1,1.5h0.1c0.4-1.2,1.4-1.7,2.1-1.7c0.2,0,0.3,0,0.5,0.1v2.3c-0.2,0-0.4-0.1-0.7-0.1
			c-0.9,0-1.5,0.5-1.7,1.3c0,0.1,0,0.3,0,0.5v4h-2.5L350.8,136.4z"/>
	</g>
</g>
<g>
	<g>
		<defs>
			<rect id="SVGID_00000145016743786987196050000012164372927714322619_" x="300.1" y="14.1" width="126.4" height="170.6"/>
		</defs>
		<clipPath id="SVGID_00000078738885498904976000000004837714244678663585_">
			<use xlink:href="#SVGID_00000145016743786987196050000012164372927714322619_"  style="overflow:visible;"/>
		</clipPath>
		<path style="clip-path:url(#SVGID_00000078738885498904976000000004837714244678663585_);fill:#01A0C6;" d="M356.4,136.3
			c0-1,0-1.8-0.1-2.5h2.1l0.1,1.1l0,0c0.3-0.5,1.1-1.3,2.4-1.3c1,0,1.8,0.5,2.2,1.4l0,0c0.3-0.4,0.7-0.7,1-1
			c0.4-0.3,0.9-0.4,1.5-0.4c1.5,0,2.7,1.1,2.7,3.4v4.6h-2.4v-4.3c0-1.1-0.4-1.8-1.1-1.8c-0.6,0-1,0.4-1.1,0.9
			c-0.1,0.2-0.1,0.4-0.1,0.6v4.6h-2.4v-4.4c0-1-0.4-1.7-1.1-1.7c-0.6,0-1,0.5-1.1,0.9c-0.1,0.2-0.1,0.4-0.1,0.6v4.6h-2.4
			L356.4,136.3L356.4,136.3z"/>
	</g>
</g>
<g>
	<g>
		<defs>
			<rect id="SVGID_00000037659827258740638080000013416741431530888351_" x="300.1" y="14.1" width="126.4" height="170.6"/>
		</defs>
		<clipPath id="SVGID_00000151503946228004374460000000618221181532680080_">
			<use xlink:href="#SVGID_00000037659827258740638080000013416741431530888351_"  style="overflow:visible;"/>
		</clipPath>
		<path style="clip-path:url(#SVGID_00000151503946228004374460000000618221181532680080_);fill:#01A0C6;" d="M376.3,139.8
			c0,0.7,0,1.5,0.1,1.9h-2.2l-0.1-0.8H374c-0.5,0.6-1.3,1-2.3,1c-1.6,0-2.5-1.2-2.5-2.4c0-2,1.8-3,4.6-3v-0.1c0-0.4-0.2-1-1.4-1
			c-0.8,0-1.7,0.3-2.2,0.6l-0.5-1.6c0.5-0.3,1.6-0.7,3.1-0.7c2.6,0,3.4,1.5,3.4,3.4L376.3,139.8L376.3,139.8z M374,137.9
			c-1.3,0-2.3,0.3-2.3,1.2c0,0.6,0.4,0.9,1,0.9s1.1-0.4,1.3-0.9c0-0.1,0.1-0.3,0.1-0.4L374,137.9L374,137.9z"/>
	</g>
</g>
<g>
	<g>
		<defs>
			<rect id="SVGID_00000078735503843815766560000006652805459291214502_" x="300.1" y="14.1" width="126.4" height="170.6"/>
		</defs>
		<clipPath id="SVGID_00000093142571203520994620000011867699385252325050_">
			<use xlink:href="#SVGID_00000078735503843815766560000006652805459291214502_"  style="overflow:visible;"/>
		</clipPath>
		<path style="clip-path:url(#SVGID_00000093142571203520994620000011867699385252325050_);fill:#01A0C6;" d="M377.8,136.3
			c0-1,0-1.8-0.1-2.5h2.1l0.1,1.1l0,0c0.3-0.5,1.1-1.3,2.4-1.3c1.6,0,2.8,1.1,2.8,3.4v4.7h-2.5v-4.4c0-1-0.4-1.7-1.2-1.7
			c-0.7,0-1.1,0.5-1.3,0.9c-0.1,0.2-0.1,0.4-0.1,0.6v4.5h-2.5L377.8,136.3L377.8,136.3z"/>
	</g>
</g>
<g>
	<g>
		<defs>
			<rect id="SVGID_00000122691240762756067330000003640388368283137721_" x="300.1" y="14.1" width="126.4" height="170.6"/>
		</defs>
		<clipPath id="SVGID_00000103973736747623695690000003761481606063244201_">
			<use xlink:href="#SVGID_00000122691240762756067330000003640388368283137721_"  style="overflow:visible;"/>
		</clipPath>
		<path style="clip-path:url(#SVGID_00000103973736747623695690000003761481606063244201_);fill:#01A0C6;" d="M394.4,130.2v9.1
			c0,0.9,0,1.8,0.1,2.4h-2.2l-0.1-1.1h-0.1c-0.5,0.9-1.4,1.3-2.5,1.3c-1.9,0-3.4-1.6-3.4-4c0-2.6,1.6-4.2,3.5-4.2
			c1,0,1.7,0.4,2.1,0.9l0,0v-4.3L394.4,130.2L394.4,130.2z M392,137.1c0-0.1,0-0.3,0-0.5c-0.1-0.7-0.7-1.2-1.4-1.2
			c-1.1,0-1.7,1-1.7,2.2c0,1.3,0.7,2.2,1.7,2.2c0.7,0,1.3-0.5,1.4-1.2c0-0.2,0.1-0.4,0.1-0.5L392,137.1L392,137.1z"/>
	</g>
</g>
<g>
	<g>
		<defs>
			<rect id="SVGID_00000011029478217029221670000011587658136254676922_" x="300.1" y="14.1" width="126.4" height="170.6"/>
		</defs>
		<clipPath id="SVGID_00000032624658728817767940000002870818117516434872_">
			<use xlink:href="#SVGID_00000011029478217029221670000011587658136254676922_"  style="overflow:visible;"/>
		</clipPath>
		<path style="clip-path:url(#SVGID_00000032624658728817767940000002870818117516434872_);fill:#01A0C6;" d="M397.1,132.7
			c-0.8,0-1.4-0.6-1.4-1.3s0.5-1.3,1.4-1.3c0.8,0,1.4,0.6,1.4,1.3C398.5,132.2,398,132.7,397.1,132.7L397.1,132.7z M395.9,133.8h2.5
			v7.9h-2.5V133.8z"/>
	</g>
</g>
<g>
	<g>
		<defs>
			<rect id="SVGID_00000094595564160518068140000013866677096299023500_" x="300.1" y="14.1" width="126.4" height="170.6"/>
		</defs>
		<clipPath id="SVGID_00000101825272226138772490000002972832488750261893_">
			<use xlink:href="#SVGID_00000094595564160518068140000013866677096299023500_"  style="overflow:visible;"/>
		</clipPath>
		<path style="clip-path:url(#SVGID_00000101825272226138772490000002972832488750261893_);fill:#01A0C6;" d="M401.7,138.5
			c0.1,1,1.1,1.5,2.2,1.5c0.8,0,1.5-0.1,2.2-0.3l0.3,1.7c-0.8,0.3-1.8,0.5-2.9,0.5c-2.7,0-4.2-1.5-4.2-4c0-2,1.3-4.2,4-4.2
			c2.5,0,3.5,2,3.5,3.9c0,0.4,0,0.8-0.1,1L401.7,138.5z M404.6,136.8c0-0.6-0.3-1.6-1.4-1.6s-1.5,0.9-1.5,1.6H404.6z"/>
	</g>
</g>
<g>
	<g>
		<defs>
			<rect id="SVGID_00000150079480189247261100000005989419322533540768_" x="300.1" y="14.1" width="126.4" height="170.6"/>
		</defs>
		<clipPath id="SVGID_00000129891335887398196040000010497471875862927026_">
			<use xlink:href="#SVGID_00000150079480189247261100000005989419322533540768_"  style="overflow:visible;"/>
		</clipPath>
		<path style="clip-path:url(#SVGID_00000129891335887398196040000010497471875862927026_);fill:#01A0C6;" d="M339.4,154.2
			c-0.4,0.2-1.5,0.5-2.8,0.5c-3.7,0-5.7-2.3-5.7-5.5c0-3.7,2.6-5.7,5.9-5.7c1.3,0,2.2,0.3,2.7,0.5l-0.5,1.9
			c-0.5-0.2-1.2-0.4-2.1-0.4c-1.9,0-3.5,1.2-3.5,3.6c0,2.2,1.3,3.6,3.5,3.6c0.7,0,1.6-0.1,2.1-0.4L339.4,154.2z"/>
	</g>
</g>
<g>
	<g>
		<defs>
			<rect id="SVGID_00000067953831516629176200000009634237809918841021_" x="300.1" y="14.1" width="126.4" height="170.6"/>
		</defs>
		<clipPath id="SVGID_00000005970475853410364360000007777219450970716850_">
			<use xlink:href="#SVGID_00000067953831516629176200000009634237809918841021_"  style="overflow:visible;"/>
		</clipPath>
		<path style="clip-path:url(#SVGID_00000005970475853410364360000007777219450970716850_);fill:#01A0C6;" d="M340.4,149.3
			c0-1.2,0-1.9-0.1-2.6h2.1l0.1,1.5h0.1c0.4-1.1,1.4-1.6,2.1-1.6c0.2,0,0.3,0,0.5,0.1v2.3c-0.2,0-0.4-0.1-0.7-0.1
			c-0.9,0-1.5,0.5-1.7,1.2c0,0.2-0.1,0.3-0.1,0.5v4h-2.4L340.4,149.3z"/>
	</g>
</g>
<g>
	<g>
		<defs>
			<rect id="SVGID_00000102521366700924813060000005682241325481639068_" x="300.1" y="14.1" width="126.4" height="170.6"/>
		</defs>
		<clipPath id="SVGID_00000021810430512480379070000003512114299897039254_">
			<use xlink:href="#SVGID_00000102521366700924813060000005682241325481639068_"  style="overflow:visible;"/>
		</clipPath>
		<path style="clip-path:url(#SVGID_00000021810430512480379070000003512114299897039254_);fill:#01A0C6;" d="M347.9,151.4
			c0.1,1,1.1,1.5,2.2,1.5c0.8,0,1.5-0.1,2.2-0.3l0.3,1.7c-0.8,0.3-1.8,0.5-2.9,0.5c-2.7,0-4.2-1.5-4.2-4c0-2,1.3-4.2,4-4.2
			c2.5,0,3.5,2,3.5,3.9c0,0.4-0.1,0.8-0.1,1L347.9,151.4z M350.8,149.7c0-0.6-0.3-1.6-1.4-1.6s-1.5,0.9-1.5,1.6H350.8z M352.2,143.3
			l-2,2.4h-1.7l1.4-2.4H352.2z"/>
	</g>
</g>
<g>
	<g>
		<defs>
			<rect id="SVGID_00000101820221552003981470000002926287587190929796_" x="300.1" y="14.1" width="126.4" height="170.6"/>
		</defs>
		<clipPath id="SVGID_00000045582554396848286290000002104566362719904934_">
			<use xlink:href="#SVGID_00000101820221552003981470000002926287587190929796_"  style="overflow:visible;"/>
		</clipPath>
		<path style="clip-path:url(#SVGID_00000045582554396848286290000002104566362719904934_);fill:#01A0C6;" d="M360.7,152.6
			c0,0.7,0,1.5,0.1,1.9h-2.2l-0.1-0.8l0,0c-0.5,0.6-1.3,1-2.3,1c-1.6,0-2.5-1.2-2.5-2.4c0-2,1.8-3,4.6-3v-0.1c0-0.4-0.2-1-1.4-1
			c-0.8,0-1.7,0.3-2.2,0.6l-0.5-1.6c0.5-0.3,1.6-0.7,3.1-0.7c2.6,0,3.5,1.5,3.5,3.4L360.7,152.6L360.7,152.6z M358.3,150.8
			c-1.3,0-2.3,0.3-2.3,1.2c0,0.6,0.4,0.9,1,0.9s1.1-0.4,1.3-0.9c0-0.1,0-0.3,0-0.4V150.8z"/>
	</g>
</g>
<g>
	<g>
		<defs>
			<rect id="SVGID_00000039108566934279120180000015776869219637896598_" x="300.1" y="14.1" width="126.4" height="170.6"/>
		</defs>
		<clipPath id="SVGID_00000012442867869117365350000012843373227842388662_">
			<use xlink:href="#SVGID_00000039108566934279120180000015776869219637896598_"  style="overflow:visible;"/>
		</clipPath>
		<path style="clip-path:url(#SVGID_00000012442867869117365350000012843373227842388662_);fill:#01A0C6;" d="M364.7,144.5v2.1h1.8
			v1.8h-1.8v2.9c0,0.9,0.2,1.4,1,1.4c0.3,0,0.5,0,0.7-0.1v1.9c-0.3,0.1-0.9,0.2-1.6,0.2c-0.8,0-1.5-0.3-1.9-0.7
			c-0.5-0.5-0.7-1.2-0.7-2.3v-3.2h-1.1v-1.8h1.1v-1.5L364.7,144.5z"/>
	</g>
</g>
<g>
	<g>
		<defs>
			<rect id="SVGID_00000025413877484972251760000016779231640387359656_" x="300.1" y="14.1" width="126.4" height="170.6"/>
		</defs>
		<clipPath id="SVGID_00000047779691818549501230000017622484169719313840_">
			<use xlink:href="#SVGID_00000025413877484972251760000016779231640387359656_"  style="overflow:visible;"/>
		</clipPath>
		<path style="clip-path:url(#SVGID_00000047779691818549501230000017622484169719313840_);fill:#01A0C6;" d="M368.6,145.6
			c-0.8,0-1.3-0.6-1.3-1.3s0.5-1.3,1.4-1.3c0.8,0,1.4,0.6,1.4,1.3C370.1,145.1,369.5,145.6,368.6,145.6L368.6,145.6z M367.4,146.7
			h2.5v7.9h-2.5V146.7z"/>
	</g>
</g>
<g>
	<g>
		<defs>
			<rect id="SVGID_00000124879775353457065210000005426146656033227925_" x="300.1" y="14.1" width="126.4" height="170.6"/>
		</defs>
		<clipPath id="SVGID_00000098933066161992813360000011549363131658209945_">
			<use xlink:href="#SVGID_00000124879775353457065210000005426146656033227925_"  style="overflow:visible;"/>
		</clipPath>
		<path style="clip-path:url(#SVGID_00000098933066161992813360000011549363131658209945_);fill:#01A0C6;" d="M375,154.7
			c-2.3,0-4.1-1.5-4.1-4.1c0-2.5,1.7-4.2,4.2-4.2c2.4,0,4,1.7,4,4C379.2,153.4,377.1,154.7,375,154.7L375,154.7z M375.1,153
			c1,0,1.6-1,1.6-2.4c0-1.2-0.4-2.3-1.6-2.3s-1.6,1.2-1.6,2.4S374,153,375.1,153L375.1,153L375.1,153z"/>
	</g>
</g>
<g>
	<g>
		<defs>
			<rect id="SVGID_00000183225120864170703570000010068273181653666466_" x="300.1" y="14.1" width="126.4" height="170.6"/>
		</defs>
		<clipPath id="SVGID_00000094583017305086813350000008198554803319132300_">
			<use xlink:href="#SVGID_00000183225120864170703570000010068273181653666466_"  style="overflow:visible;"/>
		</clipPath>
		<path style="clip-path:url(#SVGID_00000094583017305086813350000008198554803319132300_);fill:#01A0C6;" d="M380.2,149.2
			c0-1,0-1.8-0.1-2.5h2.1l0.1,1.1h0.1c0.3-0.5,1.1-1.3,2.4-1.3c1.6,0,2.8,1.1,2.8,3.4v4.6h-2.5v-4.4c0-1-0.3-1.7-1.2-1.7
			c-0.7,0-1.1,0.5-1.3,0.9c-0.1,0.2-0.1,0.4-0.1,0.6v4.5H380L380.2,149.2L380.2,149.2z"/>
	</g>
</g>
</svg>
