<?xml version="1.0" encoding="utf-8"?>
<!-- Generator: Adobe Illustrator 26.3.1, SVG Export Plug-In . SVG Version: 6.00 Build 0)  -->
<svg version="1.1" id="Calque_1" xmlns="http://www.w3.org/2000/svg" xmlns:xlink="http://www.w3.org/1999/xlink" x="0px" y="0px"
	 viewBox="0 0 439.4 198.4" style="enable-background:new 0 0 439.4 198.4;" xml:space="preserve">
<style type="text/css">
	.st0{clip-path:url(#SVGID_00000166662168762958848190000010131129408974892435_);fill:#6A2875;}
	.st1{clip-path:url(#SVGID_00000152964022270265180100000015702344817865060030_);fill:#FFBF00;}
	.st2{clip-path:url(#SVGID_00000096058897763653208980000001686928419615045528_);fill:#01A0C6;}
	.st3{clip-path:url(#SVGID_00000130615307340301198410000011711233294360743600_);fill:#FFBF00;}
	.st4{clip-path:url(#SVGID_00000142864285118937278130000009821107218398002614_);fill:#F6437F;}
	.st5{clip-path:url(#SVGID_00000012437894110879908780000000400126666460671930_);fill:#01A0C6;}
	.st6{clip-path:url(#SVGID_00000047757844671686319720000015183481474641641145_);fill:#F6437F;}
	.st7{clip-path:url(#SVGID_00000043427702075862076160000001555441288648724631_);fill:#F6437F;}
	.st8{clip-path:url(#SVGID_00000125598971303828853550000008426614235616044445_);fill:#01A0C6;}
	.st9{clip-path:url(#SVGID_00000036209296213264984700000010050166597622166917_);fill:#6A2875;}
	.st10{clip-path:url(#SVGID_00000120558477215997113700000017719449650878422682_);fill:#FFBF00;}
	.st11{clip-path:url(#SVGID_00000179608702487133126830000017016430561603743622_);fill:#6A2875;}
	.st12{clip-path:url(#SVGID_00000092452157678680539750000013849910198048654738_);fill:#FFBF00;}
	.st13{clip-path:url(#SVGID_00000125563212263073369470000008690554581417583783_);fill:#01A0C6;}
	.st14{clip-path:url(#SVGID_00000168804846275813612330000011873883867978450582_);fill:#FFBF00;}
	.st15{clip-path:url(#SVGID_00000179634820431717580400000005655940299693848986_);fill:#01A0C6;}
	.st16{clip-path:url(#SVGID_00000048483176551851594800000004112808098333930679_);fill:#6A2875;}
	.st17{clip-path:url(#SVGID_00000108305892592627830740000012543434085402589366_);fill:#F6437F;}
	.st18{clip-path:url(#SVGID_00000112634859865176628970000006437840429160414395_);fill:#6A2875;}
	.st19{clip-path:url(#SVGID_00000168109275830470688470000017360958533388497292_);fill:#6A2875;}
	.st20{clip-path:url(#SVGID_00000050645226567855628170000002242799796757137342_);fill:#6A2875;}
	.st21{clip-path:url(#SVGID_00000053537008957360649750000013889528414044566149_);fill:#6A2875;}
	.st22{clip-path:url(#SVGID_00000074437832400460337250000017457343476423159687_);fill:#6A2875;}
	.st23{clip-path:url(#SVGID_00000007421197726035027180000002566693823295035546_);fill:#6A2875;}
	.st24{clip-path:url(#SVGID_00000106867832775263047410000012419435824981668484_);fill:#6A2875;}
	.st25{clip-path:url(#SVGID_00000077293675136217306530000000622060906694925965_);fill:#6A2875;}
	.st26{clip-path:url(#SVGID_00000117660898845551798420000009734032703772352407_);fill:#6A2875;}
	.st27{clip-path:url(#SVGID_00000155867105867169243850000005816996255426548888_);fill:#6A2875;}
	.st28{clip-path:url(#SVGID_00000178204503779846872180000007076144404828008612_);fill:#6A2875;}
	.st29{clip-path:url(#SVGID_00000175316937067468318250000010219737067243568045_);fill:#6A2875;}
	.st30{clip-path:url(#SVGID_00000080184971208446845020000005817002905348459452_);fill:#6A2875;}
	.st31{clip-path:url(#SVGID_00000088832242781510117300000012199299434937625499_);fill:#6A2875;}
	.st32{clip-path:url(#SVGID_00000123406544724906971590000007259270909115960199_);fill:#6A2875;}
	.st33{clip-path:url(#SVGID_00000062889690821737924170000005625809703348833168_);fill:#6A2875;}
	.st34{clip-path:url(#SVGID_00000034074071559050211560000015325125403883954111_);fill:#6A2875;}
	.st35{clip-path:url(#SVGID_00000150790242816584749060000013178862303040465803_);fill:#6A2875;}
	.st36{clip-path:url(#SVGID_00000039841146745092983240000012968407697709311643_);fill:#6A2875;}
	.st37{clip-path:url(#SVGID_00000132768508200080355070000014808060649689295498_);fill:#6A2875;}
	.st38{clip-path:url(#SVGID_00000046307711480755161460000007116451693913741747_);fill:#6A2875;}
	.st39{clip-path:url(#SVGID_00000033366078168308513050000008704006640577412493_);fill:#6A2875;}
	.st40{clip-path:url(#SVGID_00000068666055113948630560000010015077893160940471_);fill:#6A2875;}
	.st41{clip-path:url(#SVGID_00000011032347224010916880000011145052801906930090_);fill:#6A2875;}
	.st42{clip-path:url(#SVGID_00000145042323812595395250000000153673800743509680_);fill:#6A2875;}
	.st43{clip-path:url(#SVGID_00000088813537228985412820000013605631133142450109_);fill:#6A2875;}
	.st44{clip-path:url(#SVGID_00000176753456223206924210000004193969393806290824_);fill:#6A2875;}
	.st45{clip-path:url(#SVGID_00000135672818295296252380000018230028448693464971_);fill:#6A2875;}
	.st46{clip-path:url(#SVGID_00000090252852268764902610000002926120320974181524_);fill:#6A2875;}
	.st47{clip-path:url(#SVGID_00000130638921489101348320000011569182638840414113_);fill:#6A2875;}
	.st48{clip-path:url(#SVGID_00000123431280283016331470000006814248655178756791_);fill:#6A2875;}
	.st49{clip-path:url(#SVGID_00000132769242544521398080000006229481962949709499_);fill:#6A2875;}
	.st50{clip-path:url(#SVGID_00000123440823920212307890000014857511242366869177_);fill:#6A2875;}
	.st51{clip-path:url(#SVGID_00000145775067197041897750000018147176235894630794_);fill:#6A2875;}
	.st52{clip-path:url(#SVGID_00000003091184659967070820000006643994398719376027_);fill:#6A2875;}
	.st53{clip-path:url(#SVGID_00000133515593501588113620000007576429500008222386_);fill:#6A2875;}
	.st54{clip-path:url(#SVGID_00000029734491136445693330000017479828167889635519_);fill:#6A2875;}
	.st55{clip-path:url(#SVGID_00000091710906637765893410000005652867246968990877_);fill:#6A2875;}
	.st56{clip-path:url(#SVGID_00000171716868090555691490000000640043350221645455_);fill:#6A2875;}
	.st57{clip-path:url(#SVGID_00000115506880190804075780000011308676712800535725_);fill:#6A2875;}
	.st58{clip-path:url(#SVGID_00000025411264350159420830000014477694214643869850_);fill:#6A2875;}
	.st59{clip-path:url(#SVGID_00000085972368089658000860000001239973797992851380_);fill:#6A2875;}
	.st60{clip-path:url(#SVGID_00000155852810942346041830000011282796958542913703_);fill:#6A2875;}
	.st61{clip-path:url(#SVGID_00000073698189912043214860000009447002428720421562_);fill:#6A2875;}
	.st62{clip-path:url(#SVGID_00000183964256556566872420000013570287614970372505_);fill:#6A2875;}
	.st63{clip-path:url(#SVGID_00000180355011702881775780000018391221699692093093_);fill:#6A2875;}
	.st64{clip-path:url(#SVGID_00000078036847176331503930000013327317906256175805_);fill:#6A2875;}
	.st65{clip-path:url(#SVGID_00000159447184763852972570000000071132423825683632_);fill:#6A2875;}
	.st66{clip-path:url(#SVGID_00000129913805057921317430000003114654815711800205_);fill:#6A2875;}
	.st67{clip-path:url(#SVGID_00000109739955956970923820000012608743152350482606_);fill:#6A2875;}
	.st68{clip-path:url(#SVGID_00000104700785627184871680000000297147021116674693_);fill:#6A2875;}
	.st69{clip-path:url(#SVGID_00000043440291586663683220000003829689627278517940_);fill:#6A2875;}
	.st70{clip-path:url(#SVGID_00000096764477747776271220000007916779962144603065_);fill:#6A2875;}
	.st71{clip-path:url(#SVGID_00000138556188354469712020000001845471586196015491_);fill:#6A2875;}
	.st72{clip-path:url(#SVGID_00000076565323180917039310000014757889815063178124_);fill:#6A2875;}
	.st73{clip-path:url(#SVGID_00000112634291239048124970000011472802280486908293_);fill:#01A0C6;}
	.st74{clip-path:url(#SVGID_00000008120673303349072890000015495538571420413581_);fill:#01A0C6;}
	.st75{clip-path:url(#SVGID_00000177450607264498161150000004338494916494162061_);fill:#01A0C6;}
	.st76{clip-path:url(#SVGID_00000164503246183394018630000016165410040744745605_);fill:#01A0C6;}
	.st77{clip-path:url(#SVGID_00000023997445693880350080000005245257537093971343_);fill:#01A0C6;}
	.st78{clip-path:url(#SVGID_00000039849466751664497680000004342936589452199830_);fill:#01A0C6;}
	.st79{clip-path:url(#SVGID_00000169536052927114366950000016151427335859649154_);fill:#01A0C6;}
	.st80{clip-path:url(#SVGID_00000107569654906425837340000005682900576312666513_);fill:#01A0C6;}
	.st81{clip-path:url(#SVGID_00000036965635398116697310000004741463398714666885_);fill:#01A0C6;}
	.st82{clip-path:url(#SVGID_00000145025589429366224200000008554242969443522204_);fill:#01A0C6;}
	.st83{clip-path:url(#SVGID_00000090266887382811349780000013149623043971655556_);fill:#01A0C6;}
	.st84{clip-path:url(#SVGID_00000144295487741951069380000009075007676129084304_);fill:#01A0C6;}
	.st85{clip-path:url(#SVGID_00000099639277854632472860000003465486332495039158_);fill:#01A0C6;}
	.st86{clip-path:url(#SVGID_00000018195895265536337060000008273720352632114868_);fill:#01A0C6;}
	.st87{clip-path:url(#SVGID_00000095315966205394055920000013448032062121220502_);fill:#01A0C6;}
	.st88{clip-path:url(#SVGID_00000028310556031748863430000011504696812562524803_);fill:#01A0C6;}
	.st89{clip-path:url(#SVGID_00000117644149742050137710000004572662313176003997_);fill:#01A0C6;}
	.st90{clip-path:url(#SVGID_00000155866658453874077640000007027078025993096858_);fill:#01A0C6;}
	.st91{clip-path:url(#SVGID_00000041277890898974680390000004343278993316851873_);fill:#01A0C6;}
	.st92{clip-path:url(#SVGID_00000121972527362255571910000014981063556733263781_);fill:#01A0C6;}
	.st93{clip-path:url(#SVGID_00000026145625347957578180000017073728005075081369_);fill:#01A0C6;}
	.st94{clip-path:url(#SVGID_00000131326121079295238000000018231978797742465979_);fill:#01A0C6;}
</style>
<g>
	<g>
		<defs>
			<rect id="SVGID_1_" x="78.4" y="6.5" width="273.9" height="170.6"/>
		</defs>
		<clipPath id="SVGID_00000044880062012024736140000005243260060715595674_">
			<use xlink:href="#SVGID_1_"  style="overflow:visible;"/>
		</clipPath>
		<path style="clip-path:url(#SVGID_00000044880062012024736140000005243260060715595674_);fill:#6A2875;" d="M278.7,71.8
			c-1.6,5.4-0.4,10.5,3.7,11.7c4.1,1.3,8.8-2.1,10.4-7.4c1.6-5.3-0.6-10.2-3.1-11.5C287,63.1,280.4,66.5,278.7,71.8"/>
	</g>
	<g>
		<defs>
			<rect id="SVGID_00000109014695884081404660000001039653548944602558_" x="78.4" y="6.5" width="273.9" height="170.6"/>
		</defs>
		<clipPath id="SVGID_00000129920625482160522160000004032625765813398169_">
			<use xlink:href="#SVGID_00000109014695884081404660000001039653548944602558_"  style="overflow:visible;"/>
		</clipPath>
		<path style="clip-path:url(#SVGID_00000129920625482160522160000004032625765813398169_);fill:#FFBF00;" d="M263.6,82.3
			c3.2,4.6,8,6.8,11.5,4.3c3.5-2.4,3.8-8.2,0.6-12.8c-3.2-4.6-8.4-5.8-11-4.7C261.9,70.4,260.4,77.7,263.6,82.3"/>
	</g>
	<g>
		<defs>
			<rect id="SVGID_00000031195567894141375340000018190672039056533660_" x="78.4" y="6.5" width="273.9" height="170.6"/>
		</defs>
		<clipPath id="SVGID_00000122687832108406065120000016311804208299318153_">
			<use xlink:href="#SVGID_00000031195567894141375340000018190672039056533660_"  style="overflow:visible;"/>
		</clipPath>
		<path style="clip-path:url(#SVGID_00000122687832108406065120000016311804208299318153_);fill:#01A0C6;" d="M278.4,101.2
			c3-4.7,3.3-9.9-0.3-12.3c-3.6-2.3-9-0.4-12,4.3c-3,4.7-2.3,9.9-0.2,11.9C268,107.2,275.4,105.9,278.4,101.2"/>
	</g>
	<g>
		<defs>
			<rect id="SVGID_00000175323299469353476360000000789723270122991504_" x="78.4" y="6.5" width="273.9" height="170.6"/>
		</defs>
		<clipPath id="SVGID_00000132046092210222811750000005846769380831670704_">
			<use xlink:href="#SVGID_00000175323299469353476360000000789723270122991504_"  style="overflow:visible;"/>
		</clipPath>
		<path style="clip-path:url(#SVGID_00000132046092210222811750000005846769380831670704_);fill:#FFBF00;" d="M295.8,91.5
			c-1.8-5.3-5.8-8.7-9.9-7.3c-4.1,1.4-5.9,6.8-4.1,12.1c1.8,5.3,6.4,7.9,9.2,7.5C294.2,103.4,297.6,96.8,295.8,91.5"/>
	</g>
	<g>
		<defs>
			<rect id="SVGID_00000133489209346006183980000003655730370372701826_" x="78.4" y="6.5" width="273.9" height="170.6"/>
		</defs>
		<clipPath id="SVGID_00000050649798932232686170000001910091914856814514_">
			<use xlink:href="#SVGID_00000133489209346006183980000003655730370372701826_"  style="overflow:visible;"/>
		</clipPath>
		<path style="clip-path:url(#SVGID_00000050649798932232686170000001910091914856814514_);fill:#F6437F;" d="M262.6,94.5
			c3.2-1.9,4.9-5,3.5-7.5c-1.5-2.5-5.3-3-8.5-1.1c-3.2,1.9-4.4,5.3-3.7,7.1C254.5,95,259.4,96.3,262.6,94.5"/>
	</g>
	<g>
		<defs>
			<rect id="SVGID_00000080910033738368654720000002673044850281240473_" x="78.4" y="6.5" width="273.9" height="170.6"/>
		</defs>
		<clipPath id="SVGID_00000031178861075470251340000010446502503333198014_">
			<use xlink:href="#SVGID_00000080910033738368654720000002673044850281240473_"  style="overflow:visible;"/>
		</clipPath>
		<path style="clip-path:url(#SVGID_00000031178861075470251340000010446502503333198014_);fill:#01A0C6;" d="M296.8,76.3
			c-3.5,1.3-5.8,4-4.9,6.7c1,2.7,4.6,3.9,8.1,2.7c3.6-1.3,5.3-4.4,5-6.3C304.8,77.4,300.4,75.1,296.8,76.3"/>
	</g>
	<g>
		<defs>
			<rect id="SVGID_00000063601571146236291540000014558738883771685053_" x="78.4" y="6.5" width="273.9" height="170.6"/>
		</defs>
		<clipPath id="SVGID_00000066480374136365524800000005203587928764085948_">
			<use xlink:href="#SVGID_00000063601571146236291540000014558738883771685053_"  style="overflow:visible;"/>
		</clipPath>
		<path style="clip-path:url(#SVGID_00000066480374136365524800000005203587928764085948_);fill:#F6437F;" d="M270.5,65.7
			c0.6,3.7,2.9,6.4,5.7,6c2.8-0.5,4.7-3.8,4.1-7.6c-0.6-3.7-3.4-6-5.3-6C273,58,269.9,62,270.5,65.7"/>
	</g>
	<g>
		<defs>
			<rect id="SVGID_00000157996380131735884770000018390296218003339191_" x="78.4" y="6.5" width="273.9" height="170.6"/>
		</defs>
		<clipPath id="SVGID_00000042003805301033297980000013784122806639829665_">
			<use xlink:href="#SVGID_00000157996380131735884770000018390296218003339191_"  style="overflow:visible;"/>
		</clipPath>
		<path style="clip-path:url(#SVGID_00000042003805301033297980000013784122806639829665_);fill:#F6437F;" d="M286.9,106.9
			c-0.4-3.7-2.5-6.6-5.3-6.3c-2.9,0.3-4.9,3.5-4.5,7.3c0.4,3.7,3,6.2,4.9,6.3C284,114.4,287.3,110.6,286.9,106.9"/>
	</g>
	<g>
		<defs>
			<rect id="SVGID_00000029026123780196798370000008721936274216852881_" x="78.4" y="6.5" width="273.9" height="170.6"/>
		</defs>
		<clipPath id="SVGID_00000163787225203431159050000000893808458219091893_">
			<use xlink:href="#SVGID_00000029026123780196798370000008721936274216852881_"  style="overflow:visible;"/>
		</clipPath>
		<path style="clip-path:url(#SVGID_00000163787225203431159050000000893808458219091893_);fill:#01A0C6;" d="M254.9,62.2
			c3.2,4.6,8,6.8,11.5,4.3c3.5-2.5,3.8-8.2,0.6-12.7c-3.2-4.6-8.4-5.8-11-4.7C253.3,50.4,251.7,57.7,254.9,62.2"/>
	</g>
	<g>
		<defs>
			<rect id="SVGID_00000142141296887761904570000017399888652290997673_" x="78.4" y="6.5" width="273.9" height="170.6"/>
		</defs>
		<clipPath id="SVGID_00000159468783719488690760000016473668320260786359_">
			<use xlink:href="#SVGID_00000142141296887761904570000017399888652290997673_"  style="overflow:visible;"/>
		</clipPath>
		<path style="clip-path:url(#SVGID_00000159468783719488690760000016473668320260786359_);fill:#6A2875;" d="M243.3,84.5
			c8.6,1.4,16.1-1.6,17.2-8.2c1.1-6.6-5-13-13.6-14.4c-8.5-1.4-15.5,3.1-17,7.2C228.3,73.7,234.8,83.2,243.3,84.5"/>
	</g>
	<g>
		<defs>
			<rect id="SVGID_00000124148057407198098850000006645147312738748574_" x="78.4" y="6.5" width="273.9" height="170.6"/>
		</defs>
		<clipPath id="SVGID_00000146500336315745506170000005138994169228967598_">
			<use xlink:href="#SVGID_00000124148057407198098850000006645147312738748574_"  style="overflow:visible;"/>
		</clipPath>
		<path style="clip-path:url(#SVGID_00000146500336315745506170000005138994169228967598_);fill:#FFBF00;" d="M244.3,101.4
			c5.4-1.3,9.2-5,8.2-9.2c-1-4.2-6.2-6.5-11.7-5.2c-5.4,1.3-8.5,5.7-8.4,8.5C232.6,98.7,238.9,102.7,244.3,101.4"/>
	</g>
	<g>
		<defs>
			<rect id="SVGID_00000070825912587022765310000004220323199052502186_" x="78.4" y="6.5" width="273.9" height="170.6"/>
		</defs>
		<clipPath id="SVGID_00000038393213441139173370000008952904965858371760_">
			<use xlink:href="#SVGID_00000070825912587022765310000004220323199052502186_"  style="overflow:visible;"/>
		</clipPath>
		<path style="clip-path:url(#SVGID_00000038393213441139173370000008952904965858371760_);fill:#6A2875;" d="M260.9,120.3
			c4.4-7.5,4.3-15.6-1.4-19c-5.7-3.4-13.9,0-18.3,7.5c-4.4,7.5-2.7,15.6,0.6,18.5C245.3,130.4,256.5,127.8,260.9,120.3"/>
	</g>
	<g>
		<defs>
			<rect id="SVGID_00000006666424855471956120000014495234931803781001_" x="78.4" y="6.5" width="273.9" height="170.6"/>
		</defs>
		<clipPath id="SVGID_00000150072381579645260800000005139752268613983925_">
			<use xlink:href="#SVGID_00000006666424855471956120000014495234931803781001_"  style="overflow:visible;"/>
		</clipPath>
		<path style="clip-path:url(#SVGID_00000150072381579645260800000005139752268613983925_);fill:#FFBF00;" d="M278.2,120.8
			c0.9-5.5-1-10.4-5.2-11.1c-4.2-0.7-8.4,3.2-9.3,8.7c-0.9,5.5,1.9,10,4.6,11C271.1,130.5,277.3,126.4,278.2,120.8"/>
	</g>
	<g>
		<defs>
			<rect id="SVGID_00000098933897912191043420000015089083412618084749_" x="78.4" y="6.5" width="273.9" height="170.6"/>
		</defs>
		<clipPath id="SVGID_00000005261898378240147620000001635782563473159353_">
			<use xlink:href="#SVGID_00000098933897912191043420000015089083412618084749_"  style="overflow:visible;"/>
		</clipPath>
		<path style="clip-path:url(#SVGID_00000005261898378240147620000001635782563473159353_);fill:#01A0C6;" d="M299.8,56.8
			c-4.4,3.4-6.3,8.3-3.7,11.7c2.6,3.4,8.4,3.3,12.8-0.1c4.4-3.4,5.4-8.7,4.1-11.2C311.6,54.4,304.2,53.3,299.8,56.8"/>
	</g>
	<g>
		<defs>
			<rect id="SVGID_00000101095424062264838050000005609758451942591112_" x="78.4" y="6.5" width="273.9" height="170.6"/>
		</defs>
		<clipPath id="SVGID_00000148649910425734540070000007394269564004253850_">
			<use xlink:href="#SVGID_00000101095424062264838050000005609758451942591112_"  style="overflow:visible;"/>
		</clipPath>
		<path style="clip-path:url(#SVGID_00000148649910425734540070000007394269564004253850_);fill:#FFBF00;" d="M276.9,46.4
			c-0.9,8.6,2.5,16,9.1,16.7c6.6,0.7,12.7-5.8,13.6-14.4c0.9-8.6-3.9-15.3-8.1-16.6C286.9,30.8,277.8,37.8,276.9,46.4"/>
	</g>
	<g>
		<defs>
			<rect id="SVGID_00000016059283687021999890000008426677619898324387_" x="78.4" y="6.5" width="273.9" height="170.6"/>
		</defs>
		<clipPath id="SVGID_00000150079935233374854650000011375006297875836079_">
			<use xlink:href="#SVGID_00000016059283687021999890000008426677619898324387_"  style="overflow:visible;"/>
		</clipPath>
		<path style="clip-path:url(#SVGID_00000150079935233374854650000011375006297875836079_);fill:#01A0C6;" d="M308.8,112.1
			c-5-7.1-12.4-10.4-17.8-6.6c-5.4,3.8-5.8,12.7-0.8,19.8c5,7.1,13,9,17,7.2C311.5,130.5,313.8,119.2,308.8,112.1"/>
	</g>
	<g>
		<defs>
			<rect id="SVGID_00000000913332784225831570000007743528380534757809_" x="78.4" y="6.5" width="273.9" height="170.6"/>
		</defs>
		<clipPath id="SVGID_00000047018111992106331390000018401713671452049574_">
			<use xlink:href="#SVGID_00000000913332784225831570000007743528380534757809_"  style="overflow:visible;"/>
		</clipPath>
		<path style="clip-path:url(#SVGID_00000047018111992106331390000018401713671452049574_);fill:#6A2875;" d="M311.8,90.8
			c-4.7-3.1-9.9-3.4-12.3,0.1c-2.4,3.6-0.6,9,4.1,12.1c4.7,3.1,9.9,2.4,11.9,0.4C317.6,101.3,316.4,93.9,311.8,90.8"/>
	</g>
	<g>
		<defs>
			<rect id="SVGID_00000001643209297315138110000011692675066687028121_" x="78.4" y="6.5" width="273.9" height="170.6"/>
		</defs>
		<clipPath id="SVGID_00000051374499646981718050000017633132188825050027_">
			<use xlink:href="#SVGID_00000001643209297315138110000011692675066687028121_"  style="overflow:visible;"/>
		</clipPath>
		<path style="clip-path:url(#SVGID_00000051374499646981718050000017633132188825050027_);fill:#F6437F;" d="M319.9,66.9
			c-8.4,2-14.3,7.6-12.8,14.1c1.5,6.5,9.6,10.1,18,8.1c8.4-2,13.2-8.7,13-13.1C338,71.2,328.3,64.9,319.9,66.9"/>
	</g>
	<g>
		<defs>
			<rect id="SVGID_00000103943693614052984830000003048476403940488844_" x="78.4" y="6.5" width="273.9" height="170.6"/>
		</defs>
		<clipPath id="SVGID_00000164498617789347223830000018124758170188453823_">
			<use xlink:href="#SVGID_00000103943693614052984830000003048476403940488844_"  style="overflow:visible;"/>
		</clipPath>
		<path style="clip-path:url(#SVGID_00000164498617789347223830000018124758170188453823_);fill:#6A2875;" d="M108.5,123.4h-3.6
			v-5.9c0-0.1,0.1-0.2,0.2-0.2c0.1-0.1,0.2-0.1,0.3-0.1c0.3,0,0.4,0.1,0.4,0.3v5.2h2.8c0.2,0,0.3,0.1,0.3,0.4
			C108.8,123.3,108.7,123.4,108.5,123.4"/>
	</g>
	<g>
		<defs>
			<rect id="SVGID_00000101791856126490038430000005691195134838636435_" x="78.4" y="6.5" width="273.9" height="170.6"/>
		</defs>
		<clipPath id="SVGID_00000026853505264229036850000015204844772992490169_">
			<use xlink:href="#SVGID_00000101791856126490038430000005691195134838636435_"  style="overflow:visible;"/>
		</clipPath>
		<path style="clip-path:url(#SVGID_00000026853505264229036850000015204844772992490169_);fill:#6A2875;" d="M113.2,121.1
			C113.2,121.1,113.2,121.1,113.2,121.1c0,0.1,0,0.1,0,0.1l-3.3,0.2c0,0.4,0.1,0.8,0.4,1c0.2,0.3,0.6,0.4,1,0.4
			c0.6,0,0.9-0.2,1.1-0.8c0.1-0.1,0.2-0.2,0.4-0.2c0.3,0,0.4,0.1,0.4,0.2c0,0,0,0,0,0.1c-0.1,0.4-0.4,0.8-0.7,1
			c-0.3,0.2-0.7,0.3-1.2,0.3c-0.7,0-1.2-0.2-1.6-0.7c-0.4-0.4-0.5-1-0.5-1.7c0-0.7,0.2-1.3,0.5-1.7c0.4-0.5,0.9-0.7,1.6-0.7
			c0.6,0,1.1,0.2,1.5,0.6c0.2,0.2,0.3,0.4,0.4,0.6C113.2,120.3,113.2,120.6,113.2,121.1 M112.5,120.6c0-0.3-0.1-0.5-0.2-0.7
			c-0.3-0.3-0.6-0.4-0.9-0.4c-0.4,0-0.7,0.1-0.9,0.4c-0.2,0.2-0.3,0.5-0.4,0.9L112.5,120.6z"/>
	</g>
	<g>
		<defs>
			<rect id="SVGID_00000140710891672918017280000011519383833960268167_" x="78.4" y="6.5" width="273.9" height="170.6"/>
		</defs>
		<clipPath id="SVGID_00000011721669797849635980000010288623176216921245_">
			<use xlink:href="#SVGID_00000140710891672918017280000011519383833960268167_"  style="overflow:visible;"/>
		</clipPath>
		<path style="clip-path:url(#SVGID_00000011721669797849635980000010288623176216921245_);fill:#6A2875;" d="M119.4,119
			c0.1,0.1,0.1,0.2,0.1,0.3c0,0.1,0,0.2-0.1,0.3c-0.1,0.1-0.2,0.1-0.3,0.1c0,0-0.1,0-0.1,0c-0.1-0.1-0.2-0.2-0.5-0.2
			c-0.4,0-0.7,0.2-1,0.6c-0.2,0.3-0.3,0.7-0.3,1.1c0,0,0,0.1,0,0.1c0,0,0,0.1,0,0.1v2c0,0.1-0.2,0.2-0.4,0.2c-0.2,0-0.3-0.1-0.3-0.2
			v-4v-0.1v0c0-0.1,0.1-0.2,0.4-0.2c0.2,0,0.4,0.1,0.4,0.2v0.3c0.3-0.4,0.7-0.6,1.2-0.6C119,118.8,119.3,118.9,119.4,119"/>
	</g>
	<g>
		<defs>
			<rect id="SVGID_00000107547230993254843470000014648217720339070902_" x="78.4" y="6.5" width="273.9" height="170.6"/>
		</defs>
		<clipPath id="SVGID_00000049181369804395864610000011940026448912829107_">
			<use xlink:href="#SVGID_00000107547230993254843470000014648217720339070902_"  style="overflow:visible;"/>
		</clipPath>
		<path style="clip-path:url(#SVGID_00000049181369804395864610000011940026448912829107_);fill:#6A2875;" d="M123.7,121.2
			C123.7,121.2,123.7,121.2,123.7,121.2l-3.3,0.3c0,0.4,0.1,0.8,0.4,1c0.2,0.3,0.6,0.4,1,0.4c0.6,0,0.9-0.2,1.1-0.8
			c0.1-0.1,0.2-0.2,0.4-0.2c0.3,0,0.4,0.1,0.4,0.2c0,0,0,0.1,0,0.1c-0.1,0.4-0.4,0.8-0.7,1c-0.3,0.2-0.7,0.3-1.2,0.3
			c-0.7,0-1.2-0.2-1.6-0.7c-0.4-0.4-0.5-1-0.5-1.7c0-0.7,0.2-1.3,0.5-1.7c0.4-0.4,0.9-0.7,1.6-0.7c0.6,0,1.1,0.2,1.5,0.6
			c0.2,0.2,0.3,0.4,0.4,0.6C123.6,120.3,123.7,120.6,123.7,121.2C123.7,121.1,123.7,121.1,123.7,121.2 M122.7,119.9
			c-0.3-0.3-0.6-0.4-1-0.4c-0.4,0-0.7,0.1-0.9,0.4c-0.2,0.2-0.3,0.6-0.4,0.9l2.5-0.1C122.9,120.3,122.8,120.1,122.7,119.9
			 M122,118.4c-0.1,0-0.2,0-0.3-0.1c-0.1-0.1-0.2-0.2-0.2-0.3c0,0,0,0,0-0.1l0.4-0.8c0,0,0.1-0.1,0.2-0.1c0.1,0,0.2,0,0.3,0.1
			c0.1,0.1,0.2,0.2,0.2,0.2c0,0,0,0,0,0.1l-0.4,0.8C122.1,118.4,122.1,118.4,122,118.4"/>
	</g>
	<g>
		<defs>
			<rect id="SVGID_00000036208996293794116230000014502217874393464753_" x="78.4" y="6.5" width="273.9" height="170.6"/>
		</defs>
		<clipPath id="SVGID_00000018925547481084621390000009898936044917556919_">
			<use xlink:href="#SVGID_00000036208996293794116230000014502217874393464753_"  style="overflow:visible;"/>
		</clipPath>
		<path style="clip-path:url(#SVGID_00000018925547481084621390000009898936044917556919_);fill:#6A2875;" d="M127.9,122.1
			c0,0.6-0.3,1-0.9,1.2c-0.3,0.1-0.6,0.2-1,0.2c-0.9,0-1.4-0.3-1.7-0.9c0,0,0-0.1,0-0.1c0-0.1,0.1-0.2,0.2-0.3
			c0.1-0.1,0.2-0.1,0.3-0.1c0.1,0,0.2,0,0.2,0.1c0.2,0.4,0.5,0.6,1.1,0.6c0.7,0,1.1-0.2,1.1-0.7c0-0.2-0.1-0.3-0.2-0.4
			c-0.1-0.1-0.4-0.1-0.8-0.2c-0.5-0.1-0.8-0.2-0.9-0.3c-0.6-0.2-0.9-0.6-0.9-1.1c0-0.5,0.2-0.8,0.6-1c0.3-0.2,0.7-0.3,1.2-0.3
			c0.7,0,1.3,0.2,1.5,0.6l0,0c0,0,0,0.1,0,0.1c0,0.1-0.1,0.2-0.2,0.2c-0.1,0.1-0.2,0.1-0.3,0.1c-0.1,0-0.2,0-0.2-0.1
			c-0.2-0.2-0.4-0.3-0.8-0.3c-0.7,0-1.1,0.2-1.1,0.6c0,0.2,0.1,0.4,0.4,0.5c0.1,0,0.3,0.1,0.7,0.2c0.5,0.1,0.8,0.2,0.9,0.3
			C127.6,121.2,127.9,121.6,127.9,122.1"/>
	</g>
	<g>
		<defs>
			<rect id="SVGID_00000130611368706380136350000008301081660766697125_" x="78.4" y="6.5" width="273.9" height="170.6"/>
		</defs>
		<clipPath id="SVGID_00000176011380979763993630000017745406219262387859_">
			<use xlink:href="#SVGID_00000130611368706380136350000008301081660766697125_"  style="overflow:visible;"/>
		</clipPath>
		<path style="clip-path:url(#SVGID_00000176011380979763993630000017745406219262387859_);fill:#6A2875;" d="M132.4,121.1
			C132.4,121.1,132.4,121.1,132.4,121.1c0,0.1,0,0.1,0,0.1l-3.3,0.2c0,0.4,0.1,0.8,0.4,1c0.2,0.3,0.6,0.4,1,0.4
			c0.6,0,0.9-0.2,1.1-0.8c0.1-0.1,0.2-0.2,0.4-0.2c0.3,0,0.4,0.1,0.4,0.2c0,0,0,0,0,0.1c-0.1,0.4-0.4,0.8-0.7,1
			c-0.3,0.2-0.7,0.3-1.2,0.3c-0.7,0-1.2-0.2-1.6-0.7c-0.4-0.4-0.5-1-0.5-1.7c0-0.7,0.2-1.3,0.5-1.7c0.4-0.5,0.9-0.7,1.6-0.7
			c0.6,0,1.1,0.2,1.5,0.6c0.2,0.2,0.3,0.4,0.4,0.6C132.3,120.3,132.3,120.6,132.4,121.1 M131.6,120.6c0-0.3-0.1-0.5-0.2-0.7
			c-0.2-0.3-0.6-0.4-0.9-0.4c-0.4,0-0.7,0.1-0.9,0.4c-0.2,0.2-0.4,0.5-0.4,0.9L131.6,120.6z"/>
	</g>
	<g>
		<defs>
			<rect id="SVGID_00000003088524324062304310000013206850084154262442_" x="78.4" y="6.5" width="273.9" height="170.6"/>
		</defs>
		<clipPath id="SVGID_00000082332831946638071080000010682546111109766318_">
			<use xlink:href="#SVGID_00000003088524324062304310000013206850084154262442_"  style="overflow:visible;"/>
		</clipPath>
		<path style="clip-path:url(#SVGID_00000082332831946638071080000010682546111109766318_);fill:#6A2875;" d="M136.7,123.3
			c0,0.1-0.1,0.2-0.4,0.2c-0.2,0-0.3-0.1-0.3-0.2v-0.5c-0.3,0.5-0.7,0.7-1.3,0.7c-0.4,0-0.7-0.1-1-0.3c-0.3-0.2-0.5-0.5-0.7-0.8
			c-0.2-0.4-0.3-0.8-0.3-1.2c0-1,0.3-1.7,0.9-2.1c0.3-0.2,0.6-0.3,1-0.3c0.5,0,0.9,0.2,1.2,0.6v-0.5c0-0.1,0.1-0.2,0.4-0.2
			c0.3,0,0.4,0.1,0.4,0.2L136.7,123.3L136.7,123.3z M136,121.3c0-0.5-0.1-0.9-0.3-1.2c-0.2-0.4-0.5-0.6-1-0.6c-0.4,0-0.8,0.2-1,0.6
			c-0.2,0.3-0.2,0.7-0.2,1.2c0,0.5,0.1,0.8,0.3,1.1c0.2,0.4,0.5,0.6,1,0.6c0.4,0,0.7-0.2,0.9-0.5C136,122.1,136,121.7,136,121.3"/>
	</g>
	<g>
		<defs>
			<rect id="SVGID_00000066474863585150235410000002660733006467840428_" x="78.4" y="6.5" width="273.9" height="170.6"/>
		</defs>
		<clipPath id="SVGID_00000109746889930867954320000007442589322966773408_">
			<use xlink:href="#SVGID_00000066474863585150235410000002660733006467840428_"  style="overflow:visible;"/>
		</clipPath>
		<path style="clip-path:url(#SVGID_00000109746889930867954320000007442589322966773408_);fill:#6A2875;" d="M141.4,121.2
			c0,1-0.3,1.7-0.9,2.1c-0.3,0.2-0.6,0.3-1,0.3c-0.6,0-1.1-0.3-1.4-0.7c-0.3-0.4-0.4-1-0.4-1.6v0v-2c0-0.2,0.1-0.2,0.4-0.2
			c0.3,0,0.4,0.1,0.4,0.2v2.1c0,0.4,0.1,0.8,0.2,1c0.2,0.4,0.5,0.5,0.9,0.5c0.4,0,0.7-0.2,0.9-0.6c0.1-0.2,0.2-0.5,0.2-1v-2.1
			c0-0.2,0.1-0.2,0.4-0.2c0.3,0,0.4,0.1,0.4,0.2L141.4,121.2L141.4,121.2z"/>
	</g>
	<g>
		<defs>
			<rect id="SVGID_00000162338089546096774180000010608969569764902575_" x="78.4" y="6.5" width="273.9" height="170.6"/>
		</defs>
		<clipPath id="SVGID_00000073721911795795159070000006834113263544023468_">
			<use xlink:href="#SVGID_00000162338089546096774180000010608969569764902575_"  style="overflow:visible;"/>
		</clipPath>
		<path style="clip-path:url(#SVGID_00000073721911795795159070000006834113263544023468_);fill:#6A2875;" d="M148.8,123.3
			c0,0.1-0.1,0.2-0.3,0.2c-0.2,0-0.3-0.1-0.4-0.2v-0.5c-0.3,0.4-0.7,0.7-1.2,0.7c-0.6,0-1.1-0.3-1.5-0.8c-0.3-0.5-0.5-1-0.5-1.7
			c0-0.7,0.2-1.2,0.5-1.6c0.3-0.5,0.8-0.7,1.4-0.7c0.5,0,0.9,0.2,1.2,0.6v-2c0-0.1,0.1-0.2,0.4-0.2c0.3,0,0.4,0.1,0.4,0.2V123.3z
			 M148,121.1c0-0.5-0.1-0.9-0.2-1.1c-0.2-0.4-0.5-0.6-1-0.6c-0.4,0-0.7,0.2-0.9,0.6c-0.2,0.3-0.3,0.7-0.3,1.1
			c0,0.5,0.1,0.8,0.3,1.1c0.2,0.4,0.5,0.6,1,0.6c0.4,0,0.7-0.2,1-0.6C148,122.2,148,121.8,148,121.1"/>
	</g>
	<g>
		<defs>
			<rect id="SVGID_00000026161237305703042200000017480711809526688437_" x="78.4" y="6.5" width="273.9" height="170.6"/>
		</defs>
		<clipPath id="SVGID_00000019661580928197810400000016441651314319242662_">
			<use xlink:href="#SVGID_00000026161237305703042200000017480711809526688437_"  style="overflow:visible;"/>
		</clipPath>
		<path style="clip-path:url(#SVGID_00000019661580928197810400000016441651314319242662_);fill:#6A2875;" d="M153.3,121.1
			C153.3,121.1,153.3,121.1,153.3,121.1c0,0.1,0,0.1,0,0.1l-3.3,0.2c0,0.4,0.1,0.8,0.4,1c0.2,0.3,0.6,0.4,1,0.4
			c0.6,0,0.9-0.2,1.1-0.8c0.1-0.1,0.2-0.2,0.4-0.2c0.3,0,0.4,0.1,0.4,0.2c0,0,0,0,0,0.1c-0.1,0.4-0.4,0.8-0.7,1
			c-0.3,0.2-0.7,0.3-1.2,0.3c-0.7,0-1.2-0.2-1.6-0.7c-0.4-0.4-0.5-1-0.5-1.7c0-0.7,0.2-1.3,0.5-1.7c0.4-0.5,0.9-0.7,1.6-0.7
			c0.6,0,1.1,0.2,1.5,0.6c0.2,0.2,0.3,0.4,0.4,0.6C153.2,120.3,153.3,120.6,153.3,121.1 M152.5,120.6c0-0.3-0.1-0.5-0.2-0.7
			c-0.2-0.3-0.6-0.4-0.9-0.4c-0.4,0-0.7,0.1-0.9,0.4c-0.2,0.2-0.4,0.5-0.4,0.9L152.5,120.6z"/>
	</g>
	<g>
		<defs>
			<rect id="SVGID_00000053542318785152789880000007582852169303215232_" x="78.4" y="6.5" width="273.9" height="170.6"/>
		</defs>
		<clipPath id="SVGID_00000070087947196745783640000001468267570909202345_">
			<use xlink:href="#SVGID_00000053542318785152789880000007582852169303215232_"  style="overflow:visible;"/>
		</clipPath>
		<path style="clip-path:url(#SVGID_00000070087947196745783640000001468267570909202345_);fill:#6A2875;" d="M157.5,122.1
			c0,0.6-0.3,1-0.9,1.2c-0.3,0.1-0.6,0.2-1,0.2c-0.9,0-1.4-0.3-1.7-0.9c0,0,0-0.1,0-0.1c0-0.1,0.1-0.2,0.2-0.3
			c0.1-0.1,0.2-0.1,0.3-0.1c0.1,0,0.2,0,0.2,0.1c0.2,0.4,0.5,0.6,1.1,0.6c0.8,0,1.1-0.2,1.1-0.7c0-0.2-0.1-0.3-0.2-0.4
			c-0.1-0.1-0.4-0.1-0.8-0.2c-0.5-0.1-0.8-0.2-0.9-0.3c-0.6-0.2-0.9-0.6-0.9-1.1c0-0.5,0.2-0.8,0.6-1c0.3-0.2,0.7-0.3,1.2-0.3
			c0.7,0,1.2,0.2,1.5,0.6l0,0c0,0,0,0.1,0,0.1c0,0.1-0.1,0.2-0.2,0.2c-0.1,0.1-0.2,0.1-0.3,0.1c-0.1,0-0.2,0-0.2-0.1
			c-0.2-0.2-0.4-0.3-0.8-0.3c-0.7,0-1.1,0.2-1.1,0.6c0,0.2,0.1,0.4,0.4,0.5c0.1,0,0.3,0.1,0.7,0.2c0.5,0.1,0.8,0.2,0.9,0.3
			C157.2,121.2,157.5,121.6,157.5,122.1"/>
	</g>
	<g>
		<defs>
			<rect id="SVGID_00000116939424876301904820000003960666536274779526_" x="78.4" y="6.5" width="273.9" height="170.6"/>
		</defs>
		<clipPath id="SVGID_00000178890280017565754270000012089889485667397808_">
			<use xlink:href="#SVGID_00000116939424876301904820000003960666536274779526_"  style="overflow:visible;"/>
		</clipPath>
		<path style="clip-path:url(#SVGID_00000178890280017565754270000012089889485667397808_);fill:#6A2875;" d="M164.6,121.2
			c0,0.6-0.2,1.2-0.5,1.6c-0.3,0.5-0.8,0.7-1.4,0.7c-0.5,0-0.9-0.2-1.2-0.6v2c0,0.2-0.1,0.2-0.4,0.2c-0.3,0-0.4-0.1-0.4-0.2V119
			c0-0.1,0.1-0.2,0.3-0.2c0.2,0,0.3,0,0.4,0.2v0.5c0.3-0.4,0.7-0.7,1.2-0.7c0.6,0,1.1,0.2,1.5,0.8
			C164.4,120,164.6,120.6,164.6,121.2 M163.8,121.2c0-0.4-0.1-0.8-0.3-1.1c-0.2-0.4-0.5-0.6-1-0.6c-0.4,0-0.7,0.2-1,0.6
			c-0.1,0.1-0.1,0.5-0.1,1.2c0,0.5,0.1,0.9,0.2,1.1c0.2,0.4,0.6,0.6,1,0.6c0.4,0,0.7-0.2,0.9-0.6C163.7,122,163.8,121.6,163.8,121.2
			"/>
	</g>
	<g>
		<defs>
			<rect id="SVGID_00000053536915834722925510000008344997677183845784_" x="78.4" y="6.5" width="273.9" height="170.6"/>
		</defs>
		<clipPath id="SVGID_00000133503814478096533990000003846078979091710907_">
			<use xlink:href="#SVGID_00000053536915834722925510000008344997677183845784_"  style="overflow:visible;"/>
		</clipPath>
		<path style="clip-path:url(#SVGID_00000133503814478096533990000003846078979091710907_);fill:#6A2875;" d="M169.2,121.2
			C169.2,121.2,169.2,121.2,169.2,121.2l-3.3,0.3c0,0.4,0.1,0.8,0.4,1c0.2,0.3,0.6,0.4,1,0.4c0.6,0,0.9-0.2,1.1-0.8
			c0.1-0.1,0.2-0.2,0.4-0.2c0.3,0,0.4,0.1,0.4,0.2c0,0,0,0.1,0,0.1c-0.1,0.4-0.4,0.8-0.7,1c-0.3,0.2-0.7,0.3-1.2,0.3
			c-0.7,0-1.2-0.2-1.6-0.7c-0.4-0.4-0.5-1-0.5-1.7c0-0.7,0.2-1.3,0.5-1.7c0.4-0.4,0.9-0.7,1.6-0.7c0.6,0,1.1,0.2,1.5,0.6
			c0.2,0.2,0.3,0.4,0.4,0.6C169.1,120.3,169.1,120.6,169.2,121.2C169.2,121.1,169.2,121.1,169.2,121.2 M168.2,119.9
			c-0.3-0.3-0.6-0.4-1-0.4c-0.4,0-0.7,0.1-0.9,0.4c-0.2,0.2-0.3,0.6-0.4,0.9l2.5-0.1C168.4,120.3,168.3,120.1,168.2,119.9
			 M167.5,118.4c-0.1,0-0.2,0-0.3-0.1c-0.1-0.1-0.2-0.2-0.2-0.3c0,0,0,0,0-0.1l0.4-0.8c0,0,0.1-0.1,0.2-0.1c0.1,0,0.2,0,0.3,0.1
			c0.1,0.1,0.2,0.2,0.2,0.2c0,0,0,0,0,0.1l-0.4,0.8C167.6,118.4,167.6,118.4,167.5,118.4"/>
	</g>
	<g>
		<defs>
			<rect id="SVGID_00000010286228925680164860000006445740671923061380_" x="78.4" y="6.5" width="273.9" height="170.6"/>
		</defs>
		<clipPath id="SVGID_00000036232116906113627030000008246602711033643419_">
			<use xlink:href="#SVGID_00000010286228925680164860000006445740671923061380_"  style="overflow:visible;"/>
		</clipPath>
		<path style="clip-path:url(#SVGID_00000036232116906113627030000008246602711033643419_);fill:#6A2875;" d="M173.7,121.2
			c0,0.6-0.2,1.2-0.5,1.6c-0.3,0.5-0.8,0.7-1.5,0.7c-0.5,0-0.9-0.2-1.2-0.6v2c0,0.2-0.1,0.2-0.4,0.2c-0.3,0-0.4-0.1-0.4-0.2V119
			c0-0.1,0.1-0.2,0.3-0.2c0.2,0,0.3,0,0.4,0.2v0.5c0.3-0.4,0.7-0.7,1.2-0.7c0.6,0,1.1,0.2,1.5,0.8
			C173.6,120,173.7,120.6,173.7,121.2 M172.9,121.2c0-0.4-0.1-0.8-0.3-1.1c-0.2-0.4-0.5-0.6-1-0.6c-0.4,0-0.7,0.2-1,0.6
			c-0.1,0.1-0.1,0.5-0.1,1.2c0,0.5,0.1,0.9,0.2,1.1c0.2,0.4,0.5,0.6,1,0.6c0.4,0,0.7-0.2,1-0.6C172.9,122,172.9,121.6,172.9,121.2"
			/>
	</g>
	<g>
		<defs>
			<rect id="SVGID_00000042708242979303374150000016578449508910517641_" x="78.4" y="6.5" width="273.9" height="170.6"/>
		</defs>
		<clipPath id="SVGID_00000169554738447480003470000004703870926598906809_">
			<use xlink:href="#SVGID_00000042708242979303374150000016578449508910517641_"  style="overflow:visible;"/>
		</clipPath>
		<path style="clip-path:url(#SVGID_00000169554738447480003470000004703870926598906809_);fill:#6A2875;" d="M175.3,117.6
			c0,0.1,0,0.3-0.1,0.3c-0.1,0.1-0.2,0.1-0.3,0.1c-0.1,0-0.2,0-0.3-0.1c-0.1-0.1-0.1-0.2-0.1-0.3c0-0.1,0-0.2,0.1-0.3
			c0.1-0.1,0.2-0.1,0.3-0.1c0.1,0,0.2,0,0.3,0.1C175.3,117.4,175.3,117.5,175.3,117.6 M175.3,123.3c0,0.1-0.2,0.2-0.4,0.2
			c-0.2,0-0.4-0.1-0.4-0.2v-4.2c0-0.1,0.1-0.2,0.4-0.2c0.3,0,0.4,0.1,0.4,0.2L175.3,123.3L175.3,123.3z"/>
	</g>
	<g>
		<defs>
			<rect id="SVGID_00000062877071639093194380000006796320398008948391_" x="78.4" y="6.5" width="273.9" height="170.6"/>
		</defs>
		<clipPath id="SVGID_00000125568016706409103310000006810424406212901055_">
			<use xlink:href="#SVGID_00000062877071639093194380000006796320398008948391_"  style="overflow:visible;"/>
		</clipPath>
		<path style="clip-path:url(#SVGID_00000125568016706409103310000006810424406212901055_);fill:#6A2875;" d="M179.9,123.3
			c0,0.2-0.1,0.2-0.4,0.2c-0.2,0-0.4-0.1-0.4-0.2v-2.1c0-0.5-0.1-0.8-0.2-1c-0.2-0.4-0.5-0.6-0.9-0.6c-0.4,0-0.7,0.2-0.9,0.5
			c-0.1,0.2-0.2,0.5-0.2,1v2.1c0,0.2-0.1,0.2-0.4,0.2c-0.2,0-0.4-0.1-0.4-0.2v-2c0-0.7,0.1-1.2,0.4-1.7c0.3-0.5,0.8-0.7,1.4-0.7
			c0.3,0,0.7,0.1,1,0.3c0.6,0.4,0.9,1.1,0.9,2C179.9,121.2,179.9,123.3,179.9,123.3z"/>
	</g>
	<g>
		<defs>
			<rect id="SVGID_00000021817066677851320520000008516485035573902739_" x="78.4" y="6.5" width="273.9" height="170.6"/>
		</defs>
		<clipPath id="SVGID_00000110458646862316608780000009574409184233245844_">
			<use xlink:href="#SVGID_00000021817066677851320520000008516485035573902739_"  style="overflow:visible;"/>
		</clipPath>
		<path style="clip-path:url(#SVGID_00000110458646862316608780000009574409184233245844_);fill:#6A2875;" d="M181.6,117.6
			c0,0.1-0.1,0.3-0.1,0.3c-0.1,0.1-0.2,0.1-0.3,0.1c-0.1,0-0.2,0-0.3-0.1c-0.1-0.1-0.1-0.2-0.1-0.3c0-0.1,0-0.2,0.1-0.3
			c0.1-0.1,0.2-0.1,0.3-0.1s0.2,0,0.3,0.1C181.5,117.4,181.6,117.5,181.6,117.6 M181.5,123.3c0,0.1-0.2,0.2-0.4,0.2
			c-0.2,0-0.4-0.1-0.4-0.2v-4.2c0-0.1,0.1-0.2,0.4-0.2c0.3,0,0.4,0.1,0.4,0.2C181.5,119.1,181.5,123.3,181.5,123.3z"/>
	</g>
	<g>
		<defs>
			<rect id="SVGID_00000048467809118264364040000001325661295378061712_" x="78.4" y="6.5" width="273.9" height="170.6"/>
		</defs>
		<clipPath id="SVGID_00000160185027929849250420000000915776348988160408_">
			<use xlink:href="#SVGID_00000048467809118264364040000001325661295378061712_"  style="overflow:visible;"/>
		</clipPath>
		<path style="clip-path:url(#SVGID_00000160185027929849250420000000915776348988160408_);fill:#6A2875;" d="M186.2,121.2
			C186.2,121.2,186.2,121.2,186.2,121.2l-3.3,0.3c0,0.4,0.1,0.8,0.4,1c0.2,0.3,0.6,0.4,1,0.4c0.6,0,0.9-0.2,1.1-0.8
			c0.1-0.1,0.2-0.2,0.4-0.2c0.3,0,0.4,0.1,0.4,0.2c0,0,0,0.1,0,0.1c-0.1,0.4-0.3,0.8-0.7,1c-0.3,0.2-0.7,0.3-1.2,0.3
			c-0.7,0-1.2-0.2-1.6-0.7c-0.4-0.4-0.5-1-0.5-1.7c0-0.7,0.2-1.3,0.5-1.7c0.4-0.4,0.9-0.7,1.6-0.7c0.6,0,1.1,0.2,1.5,0.6
			c0.2,0.2,0.3,0.4,0.4,0.6C186.2,120.3,186.2,120.6,186.2,121.2C186.2,121.1,186.2,121.1,186.2,121.2 M185.2,119.9
			c-0.2-0.3-0.6-0.4-0.9-0.4c-0.4,0-0.7,0.1-0.9,0.4c-0.2,0.2-0.4,0.6-0.4,0.9l2.5-0.1C185.4,120.3,185.4,120.1,185.2,119.9
			 M183.5,117.5C183.5,117.5,183.5,117.4,183.5,117.5c0-0.2,0.1-0.2,0.2-0.3c0.1-0.1,0.2-0.1,0.3-0.1c0.1,0,0.1,0,0.2,0.1l0.4,0.8
			c0,0,0,0.1,0,0.1c0,0.1-0.1,0.2-0.2,0.3c-0.1,0.1-0.2,0.1-0.3,0.1c-0.1,0-0.2,0-0.2-0.1L183.5,117.5z"/>
	</g>
	<g>
		<defs>
			<rect id="SVGID_00000156588254721421248780000009830516052545175214_" x="78.4" y="6.5" width="273.9" height="170.6"/>
		</defs>
		<clipPath id="SVGID_00000142176445035806188810000002441707717368801931_">
			<use xlink:href="#SVGID_00000156588254721421248780000009830516052545175214_"  style="overflow:visible;"/>
		</clipPath>
		<path style="clip-path:url(#SVGID_00000142176445035806188810000002441707717368801931_);fill:#6A2875;" d="M189.8,119
			c0.1,0.1,0.1,0.2,0.1,0.3c0,0.1,0,0.2-0.1,0.3c-0.1,0.1-0.2,0.1-0.3,0.1c0,0-0.1,0-0.1,0c-0.1-0.1-0.2-0.2-0.5-0.2
			c-0.4,0-0.7,0.2-1,0.6c-0.2,0.3-0.3,0.7-0.3,1.1c0,0,0,0.1,0,0.1c0,0,0,0.1,0,0.1v2c0,0.1-0.1,0.2-0.4,0.2c-0.2,0-0.3-0.1-0.3-0.2
			v-4v-0.1v0c0-0.1,0.1-0.2,0.4-0.2c0.2,0,0.4,0.1,0.4,0.2v0.3c0.3-0.4,0.7-0.6,1.2-0.6C189.4,118.8,189.7,118.9,189.8,119"/>
	</g>
	<g>
		<defs>
			<rect id="SVGID_00000065047971417805502170000007565944674315642251_" x="78.4" y="6.5" width="273.9" height="170.6"/>
		</defs>
		<clipPath id="SVGID_00000035502733234870733820000006863020011976895393_">
			<use xlink:href="#SVGID_00000065047971417805502170000007565944674315642251_"  style="overflow:visible;"/>
		</clipPath>
		<path style="clip-path:url(#SVGID_00000035502733234870733820000006863020011976895393_);fill:#6A2875;" d="M194.1,121.1
			C194.1,121.1,194.1,121.1,194.1,121.1c0,0.1,0,0.1,0,0.1l-3.3,0.2c0,0.4,0.1,0.8,0.4,1c0.2,0.3,0.6,0.4,1,0.4
			c0.6,0,0.9-0.2,1.1-0.8c0.1-0.1,0.2-0.2,0.4-0.2c0.3,0,0.4,0.1,0.4,0.2c0,0,0,0,0,0.1c-0.1,0.4-0.4,0.8-0.7,1
			c-0.3,0.2-0.7,0.3-1.2,0.3c-0.7,0-1.2-0.2-1.6-0.7c-0.4-0.4-0.5-1-0.5-1.7c0-0.7,0.2-1.3,0.5-1.7c0.4-0.5,0.9-0.7,1.6-0.7
			c0.6,0,1.1,0.2,1.5,0.6c0.2,0.2,0.3,0.4,0.4,0.6C194,120.3,194,120.6,194.1,121.1 M193.3,120.6c0-0.3-0.1-0.5-0.2-0.7
			c-0.2-0.3-0.6-0.4-0.9-0.4c-0.4,0-0.7,0.1-0.9,0.4c-0.2,0.2-0.4,0.5-0.4,0.9L193.3,120.6z"/>
	</g>
	<g>
		<defs>
			<rect id="SVGID_00000079458896536020726320000016006643369694897041_" x="78.4" y="6.5" width="273.9" height="170.6"/>
		</defs>
		<clipPath id="SVGID_00000060734256295823120210000016425022188738043791_">
			<use xlink:href="#SVGID_00000079458896536020726320000016006643369694897041_"  style="overflow:visible;"/>
		</clipPath>
		<path style="clip-path:url(#SVGID_00000060734256295823120210000016425022188738043791_);fill:#6A2875;" d="M198.2,122.1
			c0,0.6-0.3,1-0.9,1.2c-0.3,0.1-0.6,0.2-1,0.2c-0.9,0-1.4-0.3-1.7-0.9c0,0,0-0.1,0-0.1c0-0.1,0.1-0.2,0.2-0.3
			c0.1-0.1,0.2-0.1,0.3-0.1c0.1,0,0.2,0,0.2,0.1c0.2,0.4,0.5,0.6,1.1,0.6c0.8,0,1.1-0.2,1.1-0.7c0-0.2-0.1-0.3-0.2-0.4
			c-0.1-0.1-0.4-0.1-0.8-0.2c-0.5-0.1-0.8-0.2-0.9-0.3c-0.6-0.2-0.9-0.6-0.9-1.1c0-0.5,0.2-0.8,0.6-1c0.3-0.2,0.7-0.3,1.2-0.3
			c0.7,0,1.3,0.2,1.5,0.6l0,0c0,0,0,0.1,0,0.1c0,0.1-0.1,0.2-0.2,0.2c-0.1,0.1-0.2,0.1-0.3,0.1c-0.1,0-0.2,0-0.2-0.1
			c-0.2-0.2-0.4-0.3-0.8-0.3c-0.7,0-1.1,0.2-1.1,0.6c0,0.2,0.1,0.4,0.4,0.5c0.1,0,0.3,0.1,0.7,0.2c0.5,0.1,0.8,0.2,0.9,0.3
			C197.9,121.2,198.2,121.6,198.2,122.1"/>
	</g>
	<g>
		<defs>
			<rect id="SVGID_00000054954101576537926850000006055408848144924559_" x="78.4" y="6.5" width="273.9" height="170.6"/>
		</defs>
		<clipPath id="SVGID_00000126313632571830943180000009809014572372257449_">
			<use xlink:href="#SVGID_00000054954101576537926850000006055408848144924559_"  style="overflow:visible;"/>
		</clipPath>
		<path style="clip-path:url(#SVGID_00000126313632571830943180000009809014572372257449_);fill:#6A2875;" d="M205.4,121.1
			C205.4,121.1,205.4,121.1,205.4,121.1c0,0.1,0,0.1,0,0.1l-3.3,0.2c0,0.4,0.1,0.8,0.4,1c0.2,0.3,0.6,0.4,1,0.4
			c0.6,0,0.9-0.2,1.1-0.8c0.1-0.1,0.2-0.2,0.4-0.2c0.3,0,0.4,0.1,0.4,0.2c0,0,0,0,0,0.1c-0.1,0.4-0.4,0.8-0.7,1
			c-0.3,0.2-0.7,0.3-1.2,0.3c-0.7,0-1.2-0.2-1.6-0.7c-0.4-0.4-0.5-1-0.5-1.7c0-0.7,0.2-1.3,0.5-1.7c0.4-0.5,0.9-0.7,1.6-0.7
			c0.6,0,1.1,0.2,1.5,0.6c0.2,0.2,0.3,0.4,0.4,0.6C205.3,120.3,205.3,120.6,205.4,121.1 M204.6,120.6c0-0.3-0.1-0.5-0.2-0.7
			c-0.2-0.3-0.6-0.4-0.9-0.4c-0.4,0-0.7,0.1-0.9,0.4c-0.2,0.2-0.3,0.5-0.4,0.9L204.6,120.6z"/>
	</g>
	<g>
		<defs>
			<rect id="SVGID_00000166639794301979313320000004511328615063957919_" x="78.4" y="6.5" width="273.9" height="170.6"/>
		</defs>
		<clipPath id="SVGID_00000181077707251187516950000004003015086202790787_">
			<use xlink:href="#SVGID_00000166639794301979313320000004511328615063957919_"  style="overflow:visible;"/>
		</clipPath>
		<path style="clip-path:url(#SVGID_00000181077707251187516950000004003015086202790787_);fill:#6A2875;" d="M207.7,119.7H207v3.6
			c0,0.2-0.1,0.3-0.4,0.3c-0.3,0-0.4-0.1-0.4-0.3v-3.6h-0.3c-0.1,0-0.2-0.1-0.2-0.3c0-0.2,0.1-0.3,0.2-0.3h0.3v-1.3
			c0-0.2,0.1-0.2,0.4-0.2c0.3,0,0.4,0.1,0.4,0.2v1.3h0.7c0.1,0,0.2,0.1,0.2,0.3C207.9,119.6,207.9,119.7,207.7,119.7"/>
	</g>
	<g>
		<defs>
			<rect id="SVGID_00000154392975065075512610000004951110436334989187_" x="78.4" y="6.5" width="273.9" height="170.6"/>
		</defs>
		<clipPath id="SVGID_00000111903267524151476430000013296238200710958487_">
			<use xlink:href="#SVGID_00000154392975065075512610000004951110436334989187_"  style="overflow:visible;"/>
		</clipPath>
		<path style="clip-path:url(#SVGID_00000111903267524151476430000013296238200710958487_);fill:#6A2875;" d="M108.5,132
			c0,0.2-0.1,0.2-0.4,0.2c-0.2,0-0.3-0.1-0.3-0.2v-2.7c0-0.7-0.3-1.1-0.9-1.1c-0.2,0-0.4,0.1-0.6,0.2c-0.2,0.1-0.4,0.3-0.4,0.5
			c-0.1,0.2-0.1,0.5-0.1,0.9v2.3c0,0.1-0.1,0.2-0.3,0.2c-0.3,0-0.4-0.1-0.4-0.2v-6c0-0.1,0.1-0.2,0.4-0.2c0.2,0,0.4,0.1,0.4,0.2v2
			c0.3-0.3,0.7-0.5,1.4-0.5c0.7,0,1.2,0.2,1.4,0.7c0.1,0.2,0.2,0.6,0.2,1L108.5,132L108.5,132z"/>
	</g>
	<g>
		<defs>
			<rect id="SVGID_00000080168543410837293130000010509139333186154397_" x="78.4" y="6.5" width="273.9" height="170.6"/>
		</defs>
		<clipPath id="SVGID_00000158709167513796836570000015851742656622684081_">
			<use xlink:href="#SVGID_00000080168543410837293130000010509139333186154397_"  style="overflow:visible;"/>
		</clipPath>
		<path style="clip-path:url(#SVGID_00000158709167513796836570000015851742656622684081_);fill:#6A2875;" d="M112.3,132
			c-0.3,0.2-0.7,0.3-1.1,0.3c-0.7,0-1.2-0.2-1.6-0.7c-0.3-0.4-0.5-1-0.5-1.7c0-0.8,0.2-1.4,0.7-1.9c0.4-0.3,0.9-0.5,1.4-0.5
			c0.7,0,1.2,0.2,1.6,0.6c0.4,0.4,0.5,1,0.5,1.6C113.3,130.9,113,131.6,112.3,132 M112.7,127c0,0-0.1,0.1-0.2,0.1
			c-0.1,0-0.2,0-0.2,0c-0.2,0-0.3-0.1-0.4-0.2l-0.6-0.6l-0.6,0.6c-0.1,0.1-0.2,0.2-0.5,0.2c-0.2,0-0.4,0-0.4-0.1c0,0,0,0,0,0
			l1.1-1.2c0.1-0.1,0.2-0.1,0.3-0.1c0.1,0,0.2,0,0.3,0.1L112.7,127L112.7,127z M112.2,128.7c-0.2-0.4-0.6-0.5-1-0.5
			c-0.5,0-0.8,0.2-1,0.5c-0.2,0.3-0.3,0.7-0.3,1.2c0,0.5,0.1,0.9,0.3,1.2c0.2,0.4,0.6,0.5,1,0.5c0.5,0,0.8-0.2,1-0.5
			c0.2-0.3,0.3-0.7,0.3-1.2C112.6,129.4,112.5,129,112.2,128.7"/>
	</g>
	<g>
		<defs>
			<rect id="SVGID_00000029006275138202953380000011960692709637652886_" x="78.4" y="6.5" width="273.9" height="170.6"/>
		</defs>
		<clipPath id="SVGID_00000152985557774289366370000015527421546251232434_">
			<use xlink:href="#SVGID_00000029006275138202953380000011960692709637652886_"  style="overflow:visible;"/>
		</clipPath>
		<path style="clip-path:url(#SVGID_00000152985557774289366370000015527421546251232434_);fill:#6A2875;" d="M115.6,128.4h-0.7v3.6
			c0,0.2-0.1,0.3-0.4,0.3c-0.3,0-0.4-0.1-0.4-0.3v-3.6h-0.3c-0.1,0-0.2-0.1-0.2-0.3c0-0.2,0.1-0.3,0.2-0.3h0.3v-1.3
			c0-0.2,0.1-0.2,0.4-0.2c0.3,0,0.4,0.1,0.4,0.2v1.3h0.7c0.1,0,0.2,0.1,0.2,0.3C115.8,128.3,115.7,128.4,115.6,128.4"/>
	</g>
	<g>
		<defs>
			<rect id="SVGID_00000120522234052295655010000004278521107274150831_" x="78.4" y="6.5" width="273.9" height="170.6"/>
		</defs>
		<clipPath id="SVGID_00000047781109965561766690000002937747088699303817_">
			<use xlink:href="#SVGID_00000120522234052295655010000004278521107274150831_"  style="overflow:visible;"/>
		</clipPath>
		<path style="clip-path:url(#SVGID_00000047781109965561766690000002937747088699303817_);fill:#6A2875;" d="M120,129.8
			C120,129.8,120,129.8,120,129.8c0,0.1,0,0.1,0,0.1l-3.3,0.2c0,0.4,0.1,0.8,0.4,1c0.2,0.3,0.6,0.4,1,0.4c0.6,0,0.9-0.2,1.1-0.8
			c0.1-0.1,0.2-0.2,0.4-0.2c0.3,0,0.4,0.1,0.4,0.2c0,0,0,0,0,0.1c-0.1,0.4-0.4,0.8-0.7,1c-0.3,0.2-0.7,0.3-1.2,0.3
			c-0.7,0-1.2-0.2-1.6-0.7c-0.4-0.4-0.5-1-0.5-1.7c0-0.7,0.2-1.3,0.5-1.7c0.4-0.5,0.9-0.7,1.6-0.7c0.6,0,1.1,0.2,1.5,0.6
			c0.2,0.2,0.3,0.4,0.4,0.7C119.9,128.9,119.9,129.3,120,129.8 M119.2,129.3c0-0.3-0.1-0.5-0.2-0.7c-0.2-0.3-0.6-0.4-0.9-0.4
			c-0.4,0-0.7,0.1-0.9,0.4c-0.2,0.2-0.4,0.5-0.4,0.9L119.2,129.3z"/>
	</g>
	<g>
		<defs>
			<rect id="SVGID_00000082346237379887417810000016220056750050184123_" x="78.4" y="6.5" width="273.9" height="170.6"/>
		</defs>
		<clipPath id="SVGID_00000142882170333449696700000001086460102388467647_">
			<use xlink:href="#SVGID_00000082346237379887417810000016220056750050184123_"  style="overflow:visible;"/>
		</clipPath>
		<path style="clip-path:url(#SVGID_00000142882170333449696700000001086460102388467647_);fill:#6A2875;" d="M121.4,131.9
			c0,0.2-0.1,0.3-0.4,0.3c-0.3,0-0.4-0.1-0.4-0.3v-5.2c0-0.2,0.1-0.3,0.2-0.5c0.1-0.2,0.3-0.3,0.4-0.3c0.1,0,0.1,0.1,0.1,0.2V131.9z
			"/>
	</g>
	<g>
		<defs>
			<rect id="SVGID_00000119081126960472690870000002716395520059123368_" x="78.4" y="6.5" width="273.9" height="170.6"/>
		</defs>
		<clipPath id="SVGID_00000074410774777429288480000007853750538894343599_">
			<use xlink:href="#SVGID_00000119081126960472690870000002716395520059123368_"  style="overflow:visible;"/>
		</clipPath>
		<path style="clip-path:url(#SVGID_00000074410774777429288480000007853750538894343599_);fill:#6A2875;" d="M125.8,130.8
			c0,0.6-0.3,1-0.9,1.2c-0.3,0.1-0.6,0.2-1,0.2c-0.9,0-1.4-0.3-1.7-0.9c0,0,0-0.1,0-0.1c0-0.1,0.1-0.2,0.2-0.3
			c0.1-0.1,0.2-0.1,0.3-0.1c0.1,0,0.2,0,0.2,0.1c0.2,0.4,0.5,0.6,1.1,0.6c0.7,0,1.1-0.2,1.1-0.7c0-0.2-0.1-0.3-0.2-0.4
			c-0.1-0.1-0.4-0.2-0.8-0.3c-0.5-0.1-0.8-0.2-0.9-0.3c-0.6-0.2-0.9-0.6-0.9-1.1c0-0.5,0.2-0.8,0.6-1c0.3-0.2,0.7-0.3,1.2-0.3
			c0.7,0,1.3,0.2,1.5,0.6l0,0c0,0,0,0.1,0,0.1c0,0.1-0.1,0.2-0.2,0.2c-0.1,0.1-0.2,0.1-0.3,0.1c-0.1,0-0.2,0-0.2-0.1
			c-0.2-0.2-0.4-0.3-0.8-0.3c-0.7,0-1.1,0.2-1.1,0.6c0,0.2,0.1,0.4,0.4,0.5c0.1,0,0.3,0.1,0.7,0.2c0.5,0.1,0.8,0.2,0.9,0.3
			C125.5,129.9,125.8,130.3,125.8,130.8"/>
	</g>
	<g>
		<defs>
			<rect id="SVGID_00000080894690206190353860000000934514308422795704_" x="78.4" y="6.5" width="273.9" height="170.6"/>
		</defs>
		<clipPath id="SVGID_00000060001347667384412360000007406344536596344738_">
			<use xlink:href="#SVGID_00000080894690206190353860000000934514308422795704_"  style="overflow:visible;"/>
		</clipPath>
		<path style="clip-path:url(#SVGID_00000060001347667384412360000007406344536596344738_);fill:#6A2875;" d="M133,132
			c0,0.1-0.1,0.2-0.3,0.2c-0.2,0-0.3-0.1-0.4-0.2v-0.5c-0.3,0.4-0.7,0.7-1.3,0.7c-0.6,0-1.1-0.3-1.5-0.8c-0.3-0.5-0.5-1-0.5-1.7
			c0-0.6,0.1-1.2,0.4-1.6c0.3-0.5,0.8-0.7,1.5-0.7c0.5,0,0.9,0.2,1.2,0.6v-2c0-0.1,0.1-0.2,0.4-0.2c0.3,0,0.4,0.1,0.4,0.2L133,132
			L133,132z M132.2,129.8c0-0.5-0.1-0.9-0.2-1.1c-0.2-0.4-0.5-0.6-1-0.6c-0.4,0-0.7,0.2-1,0.6c-0.2,0.3-0.2,0.7-0.2,1.1
			c0,0.5,0.1,0.8,0.3,1.1c0.2,0.4,0.5,0.6,1,0.6c0.4,0,0.7-0.2,1-0.6C132.2,130.9,132.2,130.5,132.2,129.8"/>
	</g>
	<g>
		<defs>
			<rect id="SVGID_00000130615783685680012920000005736503004831522719_" x="78.4" y="6.5" width="273.9" height="170.6"/>
		</defs>
		<clipPath id="SVGID_00000148657336351213143700000016628995580996251808_">
			<use xlink:href="#SVGID_00000130615783685680012920000005736503004831522719_"  style="overflow:visible;"/>
		</clipPath>
		<path style="clip-path:url(#SVGID_00000148657336351213143700000016628995580996251808_);fill:#6A2875;" d="M134.5,126.3
			C134.5,126.3,134.5,126.3,134.5,126.3l-0.1,0.4c0,0.4-0.1,0.6-0.2,0.8c-0.1,0.2-0.3,0.3-0.6,0.4c-0.2,0-0.2-0.1-0.2-0.2
			c0,0,0-0.1,0-0.1c0.3-0.1,0.5-0.4,0.5-0.8c-0.1,0-0.2-0.1-0.3-0.2c-0.1-0.1-0.1-0.2-0.1-0.3c0-0.1,0.1-0.2,0.2-0.3
			c0.1-0.1,0.2-0.1,0.3-0.1c0.1,0,0.2,0,0.3,0.1C134.4,126,134.5,126.1,134.5,126.3"/>
	</g>
	<g>
		<defs>
			<rect id="SVGID_00000023247007810912118680000001027576663333303989_" x="78.4" y="6.5" width="273.9" height="170.6"/>
		</defs>
		<clipPath id="SVGID_00000134234007539036849450000008600637667194055344_">
			<use xlink:href="#SVGID_00000023247007810912118680000001027576663333303989_"  style="overflow:visible;"/>
		</clipPath>
		<path style="clip-path:url(#SVGID_00000134234007539036849450000008600637667194055344_);fill:#6A2875;" d="M139.2,129.8
			C139.2,129.8,139.2,129.8,139.2,129.8c0,0.1,0,0.1,0,0.1l-3.3,0.2c0,0.4,0.1,0.8,0.4,1c0.2,0.3,0.6,0.4,1,0.4
			c0.6,0,0.9-0.2,1.1-0.8c0.1-0.1,0.2-0.2,0.4-0.2c0.3,0,0.4,0.1,0.4,0.2c0,0,0,0,0,0.1c-0.1,0.4-0.4,0.8-0.7,1
			c-0.3,0.2-0.7,0.3-1.2,0.3c-0.7,0-1.2-0.2-1.6-0.7c-0.4-0.4-0.5-1-0.5-1.7c0-0.7,0.2-1.3,0.5-1.7c0.4-0.5,0.9-0.7,1.6-0.7
			c0.6,0,1.1,0.2,1.5,0.6c0.2,0.2,0.3,0.4,0.4,0.7C139.1,128.9,139.1,129.3,139.2,129.8 M138.4,129.3c0-0.3-0.1-0.5-0.2-0.7
			c-0.3-0.3-0.6-0.4-0.9-0.4c-0.4,0-0.7,0.1-0.9,0.4c-0.2,0.2-0.3,0.5-0.4,0.9L138.4,129.3z"/>
	</g>
	<g>
		<defs>
			<rect id="SVGID_00000101825954215417881440000008328757149045626556_" x="78.4" y="6.5" width="273.9" height="170.6"/>
		</defs>
		<clipPath id="SVGID_00000183927261349034434210000009619625776895043221_">
			<use xlink:href="#SVGID_00000101825954215417881440000008328757149045626556_"  style="overflow:visible;"/>
		</clipPath>
		<path style="clip-path:url(#SVGID_00000183927261349034434210000009619625776895043221_);fill:#6A2875;" d="M143.6,132
			c0,0.1-0.1,0.2-0.4,0.2c-0.2,0-0.4-0.1-0.4-0.2v-2.1c0-0.5-0.1-0.8-0.2-1c-0.2-0.4-0.5-0.6-0.9-0.6c-0.4,0-0.7,0.2-0.9,0.6
			c-0.1,0.2-0.2,0.5-0.2,1v2.1c0,0.2-0.1,0.2-0.4,0.2c-0.2,0-0.4-0.1-0.4-0.2v-2c0-0.7,0.1-1.2,0.4-1.6c0.3-0.5,0.8-0.7,1.4-0.7
			c0.3,0,0.7,0.1,1,0.3c0.6,0.4,0.9,1.1,0.9,2L143.6,132L143.6,132z"/>
	</g>
	<g>
		<defs>
			<rect id="SVGID_00000128458735830522738180000015733418634600566426_" x="78.4" y="6.5" width="273.9" height="170.6"/>
		</defs>
		<clipPath id="SVGID_00000146499922415996501080000007278228269953820815_">
			<use xlink:href="#SVGID_00000128458735830522738180000015733418634600566426_"  style="overflow:visible;"/>
		</clipPath>
		<path style="clip-path:url(#SVGID_00000146499922415996501080000007278228269953820815_);fill:#6A2875;" d="M146.1,128.4h-0.7v3.6
			c0,0.2-0.1,0.3-0.4,0.3c-0.3,0-0.4-0.1-0.4-0.3v-3.6h-0.3c-0.1,0-0.2-0.1-0.2-0.3c0-0.2,0.1-0.3,0.2-0.3h0.3v-1.3
			c0-0.2,0.1-0.2,0.4-0.2c0.3,0,0.4,0.1,0.4,0.2v1.3h0.7c0.1,0,0.2,0.1,0.2,0.3C146.3,128.3,146.2,128.4,146.1,128.4"/>
	</g>
	<g>
		<defs>
			<rect id="SVGID_00000136396234975702611750000015570433911051860907_" x="78.4" y="6.5" width="273.9" height="170.6"/>
		</defs>
		<clipPath id="SVGID_00000016040106487199171190000018236518202037357975_">
			<use xlink:href="#SVGID_00000136396234975702611750000015570433911051860907_"  style="overflow:visible;"/>
		</clipPath>
		<path style="clip-path:url(#SVGID_00000016040106487199171190000018236518202037357975_);fill:#6A2875;" d="M149.4,127.7
			c0.1,0.1,0.1,0.2,0.1,0.3c0,0.1,0,0.2-0.1,0.3c-0.1,0.1-0.2,0.1-0.3,0.1c0,0-0.1,0-0.1,0c-0.1-0.1-0.2-0.2-0.5-0.2
			c-0.4,0-0.7,0.2-1,0.6c-0.2,0.3-0.3,0.7-0.3,1.1c0,0,0,0.1,0,0.1c0,0,0,0.1,0,0.1v2c0,0.1-0.2,0.2-0.4,0.2c-0.2,0-0.3-0.1-0.3-0.2
			v-4v-0.1v0c0-0.1,0.1-0.2,0.4-0.2c0.2,0,0.4,0.1,0.4,0.2v0.3c0.3-0.4,0.7-0.6,1.2-0.6C149.1,127.5,149.3,127.6,149.4,127.7"/>
	</g>
	<g>
		<defs>
			<rect id="SVGID_00000181791197499736528280000014341145862071760310_" x="78.4" y="6.5" width="273.9" height="170.6"/>
		</defs>
		<clipPath id="SVGID_00000110442568834166181680000005370341180905019061_">
			<use xlink:href="#SVGID_00000181791197499736528280000014341145862071760310_"  style="overflow:visible;"/>
		</clipPath>
		<path style="clip-path:url(#SVGID_00000110442568834166181680000005370341180905019061_);fill:#6A2875;" d="M153.7,129.8
			C153.7,129.8,153.7,129.8,153.7,129.8c0,0.1,0,0.1,0,0.1l-3.3,0.2c0,0.4,0.1,0.8,0.4,1c0.2,0.3,0.6,0.4,1,0.4
			c0.6,0,0.9-0.2,1.1-0.8c0.1-0.1,0.2-0.2,0.4-0.2c0.3,0,0.4,0.1,0.4,0.2c0,0,0,0,0,0.1c-0.1,0.4-0.4,0.8-0.7,1
			c-0.3,0.2-0.7,0.3-1.2,0.3c-0.7,0-1.2-0.2-1.6-0.7c-0.4-0.4-0.5-1-0.5-1.7c0-0.7,0.2-1.3,0.5-1.7c0.4-0.5,0.9-0.7,1.6-0.7
			c0.6,0,1.1,0.2,1.5,0.6c0.2,0.2,0.3,0.4,0.4,0.7C153.6,128.9,153.7,129.3,153.7,129.8 M152.9,129.3c0-0.3-0.1-0.5-0.2-0.7
			c-0.2-0.3-0.6-0.4-0.9-0.4c-0.4,0-0.7,0.1-0.9,0.4c-0.2,0.2-0.4,0.5-0.4,0.9L152.9,129.3z"/>
	</g>
	<g>
		<defs>
			<rect id="SVGID_00000144335850345981237530000002484791950563623591_" x="78.4" y="6.5" width="273.9" height="170.6"/>
		</defs>
		<clipPath id="SVGID_00000103252090787215950160000017118275722473098133_">
			<use xlink:href="#SVGID_00000144335850345981237530000002484791950563623591_"  style="overflow:visible;"/>
		</clipPath>
		<path style="clip-path:url(#SVGID_00000103252090787215950160000017118275722473098133_);fill:#6A2875;" d="M158.3,129.9
			c0,0.6-0.1,1.2-0.5,1.6c-0.3,0.5-0.8,0.7-1.5,0.7c-0.5,0-0.9-0.2-1.2-0.6v2c0,0.1-0.1,0.2-0.4,0.2c-0.3,0-0.4-0.1-0.4-0.2v-5.9
			c0-0.1,0.1-0.2,0.3-0.2c0.2,0,0.4,0.1,0.4,0.2v0.5c0.3-0.4,0.7-0.7,1.3-0.7c0.6,0,1.1,0.3,1.5,0.8
			C158.1,128.7,158.3,129.3,158.3,129.9 M157.5,129.8c0-0.4-0.1-0.8-0.3-1.1c-0.2-0.4-0.5-0.6-1-0.6c-0.4,0-0.7,0.2-1,0.6
			c-0.1,0.1-0.1,0.5-0.1,1.2c0,0.5,0.1,0.9,0.2,1.1c0.2,0.4,0.5,0.6,1,0.6c0.4,0,0.7-0.2,0.9-0.6
			C157.4,130.7,157.5,130.3,157.5,129.8"/>
	</g>
	<g>
		<defs>
			<rect id="SVGID_00000100359751994773633110000006341349130525081013_" x="78.4" y="6.5" width="273.9" height="170.6"/>
		</defs>
		<clipPath id="SVGID_00000094581820688885489050000005795787631614539405_">
			<use xlink:href="#SVGID_00000100359751994773633110000006341349130525081013_"  style="overflow:visible;"/>
		</clipPath>
		<path style="clip-path:url(#SVGID_00000094581820688885489050000005795787631614539405_);fill:#6A2875;" d="M161.8,127.7
			c0.1,0.1,0.1,0.2,0.1,0.3c0,0.1,0,0.2-0.1,0.3c-0.1,0.1-0.2,0.1-0.3,0.1c0,0-0.1,0-0.1,0c-0.1-0.1-0.2-0.2-0.5-0.2
			c-0.4,0-0.7,0.2-1,0.6c-0.2,0.3-0.3,0.7-0.3,1.1c0,0,0,0.1,0,0.1c0,0,0,0.1,0,0.1v2c0,0.1-0.1,0.2-0.4,0.2c-0.2,0-0.3-0.1-0.3-0.2
			v-4v-0.1v0c0-0.1,0.1-0.2,0.4-0.2c0.2,0,0.4,0.1,0.4,0.2v0.3c0.3-0.4,0.7-0.6,1.2-0.6C161.5,127.5,161.7,127.6,161.8,127.7"/>
	</g>
	<g>
		<defs>
			<rect id="SVGID_00000152256018592139439940000016126387739883827377_" x="78.4" y="6.5" width="273.9" height="170.6"/>
		</defs>
		<clipPath id="SVGID_00000154408042045615165260000015956756261459759267_">
			<use xlink:href="#SVGID_00000152256018592139439940000016126387739883827377_"  style="overflow:visible;"/>
		</clipPath>
		<path style="clip-path:url(#SVGID_00000154408042045615165260000015956756261459759267_);fill:#6A2875;" d="M163.1,126.3
			c0,0.1,0,0.3-0.1,0.3c-0.1,0.1-0.2,0.1-0.3,0.1c-0.1,0-0.2,0-0.3-0.1c-0.1-0.1-0.1-0.2-0.1-0.3c0-0.1,0-0.2,0.1-0.3
			c0.1-0.1,0.2-0.1,0.3-0.1c0.1,0,0.2,0,0.3,0.1C163.1,126.1,163.1,126.2,163.1,126.3 M163.1,132c0,0.1-0.2,0.2-0.4,0.2
			c-0.2,0-0.4-0.1-0.4-0.2v-4.2c0-0.2,0.1-0.2,0.4-0.2c0.3,0,0.4,0.1,0.4,0.2V132z"/>
	</g>
	<g>
		<defs>
			<rect id="SVGID_00000073703944090748682180000017602518560414216075_" x="78.4" y="6.5" width="273.9" height="170.6"/>
		</defs>
		<clipPath id="SVGID_00000109725736901007099330000012601659922166072755_">
			<use xlink:href="#SVGID_00000073703944090748682180000017602518560414216075_"  style="overflow:visible;"/>
		</clipPath>
		<path style="clip-path:url(#SVGID_00000109725736901007099330000012601659922166072755_);fill:#6A2875;" d="M167.4,130.8
			c0,0.6-0.3,1-0.9,1.2c-0.3,0.1-0.6,0.2-1,0.2c-0.9,0-1.5-0.3-1.7-0.9c0,0,0-0.1,0-0.1c0-0.1,0-0.2,0.2-0.3
			c0.1-0.1,0.2-0.1,0.3-0.1c0.1,0,0.2,0,0.2,0.1c0.2,0.4,0.5,0.6,1.1,0.6c0.8,0,1.1-0.2,1.1-0.7c0-0.2-0.1-0.3-0.2-0.4
			c-0.1-0.1-0.4-0.2-0.8-0.3c-0.5-0.1-0.8-0.2-0.9-0.3c-0.6-0.2-0.9-0.6-0.9-1.1c0-0.5,0.2-0.8,0.6-1c0.3-0.2,0.7-0.3,1.2-0.3
			c0.7,0,1.2,0.2,1.5,0.6l0,0c0,0,0,0.1,0,0.1c0,0.1-0.1,0.2-0.2,0.2c-0.1,0.1-0.2,0.1-0.3,0.1c-0.1,0-0.2,0-0.2-0.1
			c-0.2-0.2-0.4-0.3-0.8-0.3c-0.7,0-1.1,0.2-1.1,0.6c0,0.2,0.1,0.4,0.4,0.5c0.1,0,0.3,0.1,0.7,0.2c0.5,0.1,0.8,0.2,0.9,0.3
			C167.1,129.9,167.4,130.3,167.4,130.8"/>
	</g>
	<g>
		<defs>
			<rect id="SVGID_00000183927059075895061010000010908051473813171606_" x="78.4" y="6.5" width="273.9" height="170.6"/>
		</defs>
		<clipPath id="SVGID_00000047751979513241909890000011698792511338143899_">
			<use xlink:href="#SVGID_00000183927059075895061010000010908051473813171606_"  style="overflow:visible;"/>
		</clipPath>
		<path style="clip-path:url(#SVGID_00000047751979513241909890000011698792511338143899_);fill:#6A2875;" d="M171.9,129.8
			C171.9,129.8,171.9,129.8,171.9,129.8c0,0.1,0,0.1,0,0.1l-3.3,0.2c0,0.4,0.1,0.8,0.4,1c0.2,0.3,0.6,0.4,1,0.4
			c0.6,0,0.9-0.2,1.1-0.8c0.1-0.1,0.2-0.2,0.4-0.2c0.3,0,0.4,0.1,0.4,0.2c0,0,0,0,0,0.1c-0.1,0.4-0.4,0.8-0.7,1
			c-0.3,0.2-0.7,0.3-1.2,0.3c-0.7,0-1.2-0.2-1.6-0.7c-0.4-0.4-0.5-1-0.5-1.7c0-0.7,0.2-1.3,0.5-1.7c0.4-0.5,0.9-0.7,1.6-0.7
			c0.6,0,1.1,0.2,1.5,0.6c0.2,0.2,0.3,0.4,0.4,0.7C171.8,128.9,171.8,129.3,171.9,129.8 M171.1,129.3c0-0.3-0.1-0.5-0.2-0.7
			c-0.2-0.3-0.6-0.4-0.9-0.4c-0.4,0-0.7,0.1-0.9,0.4c-0.2,0.2-0.3,0.5-0.4,0.9L171.1,129.3z"/>
	</g>
	<g>
		<defs>
			<rect id="SVGID_00000036239942209576161040000005381829527417505420_" x="78.4" y="6.5" width="273.9" height="170.6"/>
		</defs>
		<clipPath id="SVGID_00000136409139159330412770000002019581677139919249_">
			<use xlink:href="#SVGID_00000036239942209576161040000005381829527417505420_"  style="overflow:visible;"/>
		</clipPath>
		<path style="clip-path:url(#SVGID_00000136409139159330412770000002019581677139919249_);fill:#6A2875;" d="M176.1,130.8
			c0,0.6-0.3,1-0.9,1.2c-0.3,0.1-0.6,0.2-1,0.2c-0.9,0-1.5-0.3-1.7-0.9c0,0,0-0.1,0-0.1c0-0.1,0.1-0.2,0.2-0.3
			c0.1-0.1,0.2-0.1,0.3-0.1c0.1,0,0.2,0,0.2,0.1c0.2,0.4,0.5,0.6,1.1,0.6c0.7,0,1.1-0.2,1.1-0.7c0-0.2-0.1-0.3-0.2-0.4
			c-0.1-0.1-0.4-0.2-0.8-0.3c-0.5-0.1-0.8-0.2-0.9-0.3c-0.6-0.2-0.9-0.6-0.9-1.1c0-0.5,0.2-0.8,0.6-1c0.3-0.2,0.7-0.3,1.2-0.3
			c0.7,0,1.3,0.2,1.5,0.6l0,0c0,0,0,0.1,0,0.1c0,0.1-0.1,0.2-0.2,0.2c-0.1,0.1-0.2,0.1-0.3,0.1c-0.1,0-0.2,0-0.2-0.1
			c-0.2-0.2-0.4-0.3-0.8-0.3c-0.7,0-1.1,0.2-1.1,0.6c0,0.2,0.1,0.4,0.4,0.5c0.1,0,0.3,0.1,0.7,0.2c0.5,0.1,0.8,0.2,0.9,0.3
			C175.7,129.9,176.1,130.3,176.1,130.8"/>
	</g>
	<g>
		<defs>
			<rect id="SVGID_00000091700080943764592960000009315775460080303500_" x="78.4" y="6.5" width="273.9" height="170.6"/>
		</defs>
		<clipPath id="SVGID_00000091712629396241901890000008192449856835387783_">
			<use xlink:href="#SVGID_00000091700080943764592960000009315775460080303500_"  style="overflow:visible;"/>
		</clipPath>
		<path style="clip-path:url(#SVGID_00000091712629396241901890000008192449856835387783_);fill:#6A2875;" d="M183.3,132
			c0,0.1-0.1,0.2-0.3,0.2c-0.2,0-0.3-0.1-0.4-0.2v-0.5c-0.3,0.4-0.7,0.7-1.3,0.7c-0.6,0-1.1-0.3-1.5-0.8c-0.3-0.5-0.5-1-0.5-1.7
			c0-0.6,0.2-1.2,0.4-1.6c0.4-0.5,0.8-0.7,1.5-0.7c0.5,0,0.9,0.2,1.2,0.6v-2c0-0.1,0.1-0.2,0.4-0.2c0.3,0,0.4,0.1,0.4,0.2L183.3,132
			L183.3,132z M182.5,129.8c0-0.5-0.1-0.9-0.2-1.1c-0.2-0.4-0.6-0.6-1-0.6c-0.4,0-0.7,0.2-0.9,0.6c-0.2,0.3-0.3,0.7-0.3,1.1
			c0,0.5,0.1,0.8,0.3,1.1c0.2,0.4,0.5,0.6,1,0.6c0.4,0,0.7-0.2,1-0.6C182.4,130.9,182.5,130.5,182.5,129.8"/>
	</g>
	<g>
		<defs>
			<rect id="SVGID_00000076590241630425617810000001997011261317835917_" x="78.4" y="6.5" width="273.9" height="170.6"/>
		</defs>
		<clipPath id="SVGID_00000048463126155687225630000014972304682059552402_">
			<use xlink:href="#SVGID_00000076590241630425617810000001997011261317835917_"  style="overflow:visible;"/>
		</clipPath>
		<path style="clip-path:url(#SVGID_00000048463126155687225630000014972304682059552402_);fill:#6A2875;" d="M187.8,129.8
			C187.8,129.8,187.8,129.8,187.8,129.8c0,0.1,0,0.1,0,0.1l-3.3,0.2c0,0.4,0.2,0.8,0.4,1c0.2,0.3,0.6,0.4,1,0.4
			c0.6,0,0.9-0.2,1.1-0.8c0.1-0.1,0.2-0.2,0.4-0.2c0.3,0,0.4,0.1,0.4,0.2c0,0,0,0,0,0.1c-0.1,0.4-0.4,0.8-0.7,1
			c-0.3,0.2-0.7,0.3-1.2,0.3c-0.7,0-1.2-0.2-1.6-0.7c-0.4-0.4-0.5-1-0.5-1.7c0-0.7,0.2-1.3,0.5-1.7c0.4-0.5,0.9-0.7,1.6-0.7
			c0.6,0,1.1,0.2,1.5,0.6c0.2,0.2,0.3,0.4,0.4,0.7C187.7,128.9,187.7,129.3,187.8,129.8 M187,129.3c0-0.3-0.1-0.5-0.2-0.7
			c-0.2-0.3-0.6-0.4-0.9-0.4c-0.4,0-0.7,0.1-0.9,0.4c-0.2,0.2-0.3,0.5-0.4,0.9L187,129.3z"/>
	</g>
	<g>
		<defs>
			<rect id="SVGID_00000142156905919066036350000010680565788975971517_" x="78.4" y="6.5" width="273.9" height="170.6"/>
		</defs>
		<clipPath id="SVGID_00000099654659871525261540000017079569766750953891_">
			<use xlink:href="#SVGID_00000142156905919066036350000010680565788975971517_"  style="overflow:visible;"/>
		</clipPath>
		<path style="clip-path:url(#SVGID_00000099654659871525261540000017079569766750953891_);fill:#6A2875;" d="M191.9,131.9
			c0,0.2-0.1,0.3-0.4,0.3c-0.3,0-0.4-0.1-0.4-0.3v-5.2c0-0.2,0.1-0.3,0.2-0.5c0.1-0.2,0.3-0.3,0.4-0.3c0.1,0,0.1,0.1,0.1,0.2
			L191.9,131.9L191.9,131.9z"/>
	</g>
	<g>
		<defs>
			<rect id="SVGID_00000134211278946643938940000002327053196845101231_" x="78.4" y="6.5" width="273.9" height="170.6"/>
		</defs>
		<clipPath id="SVGID_00000169528319394552778380000000962405017788362644_">
			<use xlink:href="#SVGID_00000134211278946643938940000002327053196845101231_"  style="overflow:visible;"/>
		</clipPath>
		<path style="clip-path:url(#SVGID_00000169528319394552778380000000962405017788362644_);fill:#6A2875;" d="M196.5,132
			c0,0.1-0.1,0.2-0.4,0.2c-0.2,0-0.3-0.1-0.3-0.2v-0.5c-0.3,0.5-0.7,0.7-1.3,0.7c-0.4,0-0.7-0.1-1-0.3c-0.3-0.2-0.5-0.5-0.7-0.8
			c-0.2-0.4-0.3-0.8-0.3-1.2c0-1,0.3-1.7,0.9-2.1c0.3-0.2,0.6-0.3,1-0.3c0.5,0,0.9,0.2,1.2,0.6v-0.5c0-0.1,0.1-0.2,0.4-0.2
			c0.3,0,0.4,0.1,0.4,0.2L196.5,132L196.5,132z M195.8,130c0-0.5-0.1-0.9-0.3-1.2c-0.2-0.4-0.5-0.6-1-0.6c-0.4,0-0.8,0.2-1,0.6
			c-0.2,0.3-0.2,0.7-0.2,1.2c0,0.5,0.1,0.8,0.3,1.2c0.2,0.4,0.5,0.6,1,0.6c0.4,0,0.7-0.2,0.9-0.5C195.7,130.8,195.8,130.4,195.8,130
			"/>
	</g>
	<g>
		<defs>
			<rect id="SVGID_00000137127123486595646310000013999304907807362236_" x="78.4" y="6.5" width="273.9" height="170.6"/>
		</defs>
		<clipPath id="SVGID_00000032610426630613993660000000636346665024838296_">
			<use xlink:href="#SVGID_00000137127123486595646310000013999304907807362236_"  style="overflow:visible;"/>
		</clipPath>
		<path style="clip-path:url(#SVGID_00000032610426630613993660000000636346665024838296_);fill:#6A2875;" d="M206.1,132
			c0,0.2-0.1,0.3-0.4,0.3c-0.3,0-0.4-0.1-0.4-0.3v-4.7l-1.8,3.7c-0.1,0.2-0.2,0.2-0.4,0.2c-0.1,0-0.3-0.1-0.4-0.2l-1.8-3.8v4.7
			c0,0.2-0.1,0.3-0.4,0.3c-0.3,0-0.4-0.1-0.4-0.3v-5.8c0-0.2,0.1-0.3,0.4-0.3c0.4,0,0.7,0.2,0.9,0.5l1.7,3.6l1.7-3.5
			c0.2-0.4,0.5-0.6,0.9-0.6c0.3,0,0.4,0.1,0.4,0.2L206.1,132L206.1,132z"/>
	</g>
	<g>
		<defs>
			<rect id="SVGID_00000077315512463575890960000017164447928120046741_" x="78.4" y="6.5" width="273.9" height="170.6"/>
		</defs>
		<clipPath id="SVGID_00000035532649778899451580000012180180841228629144_">
			<use xlink:href="#SVGID_00000077315512463575890960000017164447928120046741_"  style="overflow:visible;"/>
		</clipPath>
		<path style="clip-path:url(#SVGID_00000035532649778899451580000012180180841228629144_);fill:#6A2875;" d="M210.8,129.9
			C210.8,129.9,210.8,129.9,210.8,129.9l-3.3,0.3c0,0.4,0.1,0.8,0.4,1c0.2,0.3,0.6,0.4,1,0.4c0.6,0,0.9-0.2,1.1-0.8
			c0.1-0.1,0.2-0.2,0.4-0.2c0.3,0,0.4,0.1,0.4,0.2c0,0,0,0,0,0c-0.1,0.4-0.3,0.8-0.7,1c-0.3,0.2-0.7,0.3-1.2,0.3
			c-0.7,0-1.2-0.2-1.6-0.7c-0.4-0.4-0.5-1-0.5-1.7c0-0.7,0.2-1.3,0.5-1.7c0.4-0.5,0.9-0.7,1.6-0.7c0.6,0,1.1,0.2,1.5,0.6
			c0.2,0.2,0.3,0.4,0.4,0.7C210.8,129,210.8,129.3,210.8,129.9C210.8,129.8,210.8,129.8,210.8,129.9 M209.8,128.6
			c-0.2-0.3-0.6-0.4-0.9-0.4c-0.4,0-0.7,0.1-0.9,0.4c-0.2,0.2-0.3,0.6-0.4,0.9l2.5-0.2C210,129,210,128.8,209.8,128.6 M209.1,127.1
			c-0.1,0-0.2,0-0.3-0.1c-0.1-0.1-0.2-0.2-0.2-0.3c0,0,0,0,0-0.1l0.4-0.8c0,0,0.1-0.1,0.2-0.1c0.1,0,0.2,0,0.3,0.1
			c0.1,0.1,0.2,0.2,0.2,0.3c0,0,0,0,0,0.1l-0.4,0.8C209.3,127,209.2,127.1,209.1,127.1"/>
	</g>
	<g>
		<defs>
			<rect id="SVGID_00000075141250088483731520000015967982871347435433_" x="78.4" y="6.5" width="273.9" height="170.6"/>
		</defs>
		<clipPath id="SVGID_00000099654972164686973110000001827167340844655282_">
			<use xlink:href="#SVGID_00000075141250088483731520000015967982871347435433_"  style="overflow:visible;"/>
		</clipPath>
		<path style="clip-path:url(#SVGID_00000099654972164686973110000001827167340844655282_);fill:#6A2875;" d="M213.2,128.4h-0.7v3.6
			c0,0.2-0.1,0.3-0.4,0.3c-0.3,0-0.4-0.1-0.4-0.3v-3.6h-0.3c-0.1,0-0.2-0.1-0.2-0.3c0-0.2,0.1-0.3,0.2-0.3h0.3v-1.3
			c0-0.2,0.1-0.2,0.4-0.2c0.3,0,0.4,0.1,0.4,0.2v1.3h0.7c0.1,0,0.2,0.1,0.2,0.3C213.4,128.3,213.4,128.4,213.2,128.4"/>
	</g>
	<g>
		<defs>
			<rect id="SVGID_00000109733076866175352980000005709926901075348627_" x="78.4" y="6.5" width="273.9" height="170.6"/>
		</defs>
		<clipPath id="SVGID_00000110458956088158212110000005392430249277667739_">
			<use xlink:href="#SVGID_00000109733076866175352980000005709926901075348627_"  style="overflow:visible;"/>
		</clipPath>
		<path style="clip-path:url(#SVGID_00000110458956088158212110000005392430249277667739_);fill:#6A2875;" d="M216.5,127.7
			c0.1,0.1,0.1,0.2,0.1,0.3c0,0.1,0,0.2-0.1,0.3c-0.1,0.1-0.2,0.1-0.3,0.1c0,0-0.1,0-0.1,0c-0.1-0.1-0.2-0.2-0.5-0.2
			c-0.4,0-0.7,0.2-0.9,0.6c-0.2,0.3-0.3,0.7-0.3,1.1c0,0,0,0.1,0,0.1c0,0,0,0.1,0,0.1v2c0,0.1-0.2,0.2-0.4,0.2
			c-0.2,0-0.4-0.1-0.4-0.2v-4v-0.1v0c0-0.1,0.1-0.2,0.4-0.2c0.2,0,0.4,0.1,0.4,0.2v0.3c0.3-0.4,0.7-0.6,1.2-0.6
			C216.2,127.5,216.4,127.6,216.5,127.7"/>
	</g>
	<g>
		<defs>
			<rect id="SVGID_00000000215279762070988840000011692526589753021859_" x="78.4" y="6.5" width="273.9" height="170.6"/>
		</defs>
		<clipPath id="SVGID_00000183219209969140499530000007407096738158384311_">
			<use xlink:href="#SVGID_00000000215279762070988840000011692526589753021859_"  style="overflow:visible;"/>
		</clipPath>
		<path style="clip-path:url(#SVGID_00000183219209969140499530000007407096738158384311_);fill:#6A2875;" d="M220.9,129.8
			c0,1.1-0.3,1.8-1,2.1c-0.3,0.2-0.7,0.3-1.1,0.3c-0.7,0-1.2-0.2-1.6-0.7c-0.3-0.4-0.5-1-0.5-1.7c0-0.8,0.2-1.4,0.7-1.8
			c0.4-0.3,0.9-0.5,1.4-0.5c0.7,0,1.2,0.2,1.6,0.6C220.8,128.6,220.9,129.1,220.9,129.8 M220.2,129.8c0-0.5-0.1-0.9-0.3-1.2
			c-0.2-0.4-0.6-0.5-1-0.5c-0.5,0-0.8,0.2-1,0.5c-0.2,0.3-0.3,0.7-0.3,1.2c0,0.5,0.1,0.9,0.3,1.2c0.2,0.4,0.6,0.5,1,0.5
			c0.5,0,0.8-0.2,1-0.5C220.1,130.7,220.2,130.3,220.2,129.8"/>
	</g>
	<g>
		<defs>
			<rect id="SVGID_00000082338886023490683160000004439453831176227997_" x="78.4" y="6.5" width="273.9" height="170.6"/>
		</defs>
		<clipPath id="SVGID_00000048486177763907579460000013073258894259163779_">
			<use xlink:href="#SVGID_00000082338886023490683160000004439453831176227997_"  style="overflow:visible;"/>
		</clipPath>
		<path style="clip-path:url(#SVGID_00000048486177763907579460000013073258894259163779_);fill:#6A2875;" d="M225.4,129.9
			c0,0.6-0.2,1.2-0.5,1.6c-0.3,0.5-0.8,0.7-1.4,0.7c-0.5,0-0.9-0.2-1.2-0.6v2c0,0.1-0.1,0.2-0.4,0.2c-0.3,0-0.4-0.1-0.4-0.2v-5.9
			c0-0.1,0.1-0.2,0.3-0.2c0.2,0,0.4,0.1,0.4,0.2v0.5c0.3-0.4,0.7-0.7,1.3-0.7c0.6,0,1.1,0.3,1.5,0.8
			C225.2,128.7,225.4,129.3,225.4,129.9 M224.6,129.8c0-0.4-0.1-0.8-0.3-1.1c-0.2-0.4-0.5-0.6-1-0.6s-0.7,0.2-1,0.6
			c-0.1,0.1-0.1,0.5-0.1,1.2c0,0.5,0.1,0.9,0.2,1.1c0.2,0.4,0.6,0.6,1,0.6c0.4,0,0.7-0.2,0.9-0.6
			C224.5,130.7,224.6,130.3,224.6,129.8"/>
	</g>
	<g>
		<defs>
			<rect id="SVGID_00000083775040681575925950000003726071822854558141_" x="78.4" y="6.5" width="273.9" height="170.6"/>
		</defs>
		<clipPath id="SVGID_00000062870838890190744420000003971098459625393284_">
			<use xlink:href="#SVGID_00000083775040681575925950000003726071822854558141_"  style="overflow:visible;"/>
		</clipPath>
		<path style="clip-path:url(#SVGID_00000062870838890190744420000003971098459625393284_);fill:#6A2875;" d="M230.1,129.8
			c0,1.1-0.3,1.8-1,2.1c-0.3,0.2-0.7,0.3-1.1,0.3c-0.7,0-1.2-0.2-1.6-0.7c-0.3-0.4-0.5-1-0.5-1.7c0-0.8,0.2-1.4,0.7-1.8
			c0.4-0.3,0.9-0.5,1.4-0.5c0.7,0,1.2,0.2,1.6,0.6C229.9,128.6,230.1,129.1,230.1,129.8 M229.3,129.8c0-0.5-0.1-0.9-0.3-1.2
			c-0.2-0.4-0.6-0.5-1-0.5c-0.5,0-0.8,0.2-1,0.5c-0.2,0.3-0.3,0.7-0.3,1.2c0,0.5,0.1,0.9,0.3,1.2c0.2,0.4,0.6,0.5,1,0.5
			c0.5,0,0.8-0.2,1-0.5C229.2,130.7,229.3,130.3,229.3,129.8"/>
	</g>
	<g>
		<defs>
			<rect id="SVGID_00000141416703389472241090000006300622614609028798_" x="78.4" y="6.5" width="273.9" height="170.6"/>
		</defs>
		<clipPath id="SVGID_00000122722947278419446830000016410276775477678749_">
			<use xlink:href="#SVGID_00000141416703389472241090000006300622614609028798_"  style="overflow:visible;"/>
		</clipPath>
		<path style="clip-path:url(#SVGID_00000122722947278419446830000016410276775477678749_);fill:#6A2875;" d="M231.5,131.9
			c0,0.2-0.1,0.3-0.4,0.3c-0.3,0-0.4-0.1-0.4-0.3v-5.2c0-0.2,0.1-0.3,0.2-0.5c0.1-0.2,0.3-0.3,0.4-0.3c0.1,0,0.2,0.1,0.2,0.2
			L231.5,131.9L231.5,131.9z"/>
	</g>
	<g>
		<defs>
			<rect id="SVGID_00000150074261503933013610000017970491759975121072_" x="78.4" y="6.5" width="273.9" height="170.6"/>
		</defs>
		<clipPath id="SVGID_00000065773970891621241990000011976669271962026888_">
			<use xlink:href="#SVGID_00000150074261503933013610000017970491759975121072_"  style="overflow:visible;"/>
		</clipPath>
		<path style="clip-path:url(#SVGID_00000065773970891621241990000011976669271962026888_);fill:#6A2875;" d="M236.2,129.8
			C236.2,129.8,236.2,129.8,236.2,129.8c0,0.1,0,0.1,0,0.1l-3.3,0.2c0,0.4,0.2,0.8,0.4,1c0.2,0.3,0.6,0.4,1,0.4
			c0.6,0,0.9-0.2,1.1-0.8c0.1-0.1,0.2-0.2,0.4-0.2c0.3,0,0.4,0.1,0.4,0.2c0,0,0,0,0,0.1c-0.1,0.4-0.4,0.8-0.7,1
			c-0.3,0.2-0.7,0.3-1.2,0.3c-0.7,0-1.2-0.2-1.6-0.7c-0.3-0.4-0.5-1-0.5-1.7c0-0.7,0.2-1.3,0.5-1.7c0.4-0.5,0.9-0.7,1.6-0.7
			c0.6,0,1.1,0.2,1.5,0.6c0.2,0.2,0.3,0.4,0.4,0.7C236.1,128.9,236.2,129.3,236.2,129.8 M235.4,129.3c0-0.3-0.1-0.5-0.3-0.7
			c-0.2-0.3-0.6-0.4-0.9-0.4c-0.4,0-0.7,0.1-0.9,0.4c-0.2,0.2-0.4,0.5-0.4,0.9L235.4,129.3z"/>
	</g>
	<g>
		<defs>
			<rect id="SVGID_00000062166385110002955940000012852642789347220115_" x="78.4" y="6.5" width="273.9" height="170.6"/>
		</defs>
		<clipPath id="SVGID_00000080166201709346042490000015834759384752477070_">
			<use xlink:href="#SVGID_00000062166385110002955940000012852642789347220115_"  style="overflow:visible;"/>
		</clipPath>
		<path style="clip-path:url(#SVGID_00000080166201709346042490000015834759384752477070_);fill:#01A0C6;" d="M105.1,51.1
			c1.3-0.2,3.2-0.4,5.4-0.4c2.7,0,4.5,0.4,5.8,1.4c1.1,0.8,1.7,2.1,1.7,3.7c0,2.3-1.6,3.8-3.2,4.4v0.1c1.2,0.5,1.9,1.7,2.4,3.3
			c0.5,2,1.1,4.4,1.4,5.1h-4.1c-0.3-0.5-0.7-2-1.2-4.2c-0.5-2.3-1.3-2.8-2.9-2.9h-1.2v7h-4L105.1,51.1L105.1,51.1z M109.1,58.8h1.6
			c2,0,3.2-1,3.2-2.6c0-1.6-1.1-2.5-3-2.5c-1,0-1.5,0.1-1.8,0.1V58.8z"/>
	</g>
	<g>
		<defs>
			<rect id="SVGID_00000030470742979921002920000005316012662232006552_" x="78.4" y="6.5" width="273.9" height="170.6"/>
		</defs>
		<clipPath id="SVGID_00000103235039397028589940000017283891317060648612_">
			<use xlink:href="#SVGID_00000030470742979921002920000005316012662232006552_"  style="overflow:visible;"/>
		</clipPath>
		<path style="clip-path:url(#SVGID_00000103235039397028589940000017283891317060648612_);fill:#01A0C6;" d="M125.8,69
			c-3.8,0-6.7-2.5-6.7-6.7c0-4.2,2.8-6.9,6.9-6.9c3.9,0,6.6,2.7,6.6,6.7C132.7,66.8,129.3,69,125.8,69L125.8,69z M125.9,66.1
			c1.6,0,2.6-1.6,2.6-3.9c0-1.9-0.7-3.9-2.6-3.9c-1.9,0-2.7,2-2.7,3.9C123.3,64.4,124.2,66.1,125.9,66.1L125.9,66.1z"/>
	</g>
	<g>
		<defs>
			<rect id="SVGID_00000137831655625172762170000014971142319785873829_" x="78.4" y="6.5" width="273.9" height="170.6"/>
		</defs>
		<clipPath id="SVGID_00000077306750955703291130000013155649294880701375_">
			<use xlink:href="#SVGID_00000137831655625172762170000014971142319785873829_"  style="overflow:visible;"/>
		</clipPath>
		<path style="clip-path:url(#SVGID_00000077306750955703291130000013155649294880701375_);fill:#01A0C6;" d="M146.6,64.5
			c0,1.7,0.1,3.1,0.1,4.2h-3.5l-0.2-1.8h-0.1c-0.5,0.8-1.7,2.1-4.1,2.1c-2.6,0-4.6-1.6-4.6-5.6v-7.6h4v7c0,1.9,0.6,3,2,3
			c1.1,0,1.8-0.8,2-1.4c0.1-0.2,0.2-0.5,0.2-0.9v-7.7h4L146.6,64.5L146.6,64.5z"/>
	</g>
	<g>
		<defs>
			<rect id="SVGID_00000011744407819832156060000014598177154747132555_" x="78.4" y="6.5" width="273.9" height="170.6"/>
		</defs>
		<clipPath id="SVGID_00000032636373496008560080000017754759409054422449_">
			<use xlink:href="#SVGID_00000011744407819832156060000014598177154747132555_"  style="overflow:visible;"/>
		</clipPath>
		<path style="clip-path:url(#SVGID_00000032636373496008560080000017754759409054422449_);fill:#01A0C6;" d="M152.1,63.5
			c0.1,1.7,1.8,2.5,3.7,2.5c1.4,0,2.5-0.2,3.6-0.6l0.5,2.7c-1.3,0.6-2.9,0.8-4.7,0.8c-4.4,0-6.9-2.5-6.9-6.6c0-3.3,2.1-6.9,6.5-6.9
			c4.2,0,5.8,3.3,5.8,6.5c0,0.7-0.1,1.3-0.1,1.6L152.1,63.5z M156.9,60.7c0-0.9-0.4-2.6-2.3-2.6c-1.7,0-2.4,1.6-2.5,2.6H156.9z"/>
	</g>
	<g>
		<defs>
			<rect id="SVGID_00000125568430345589191440000009148283102821373338_" x="78.4" y="6.5" width="273.9" height="170.6"/>
		</defs>
		<clipPath id="SVGID_00000177467241306287582740000012070632715320697528_">
			<use xlink:href="#SVGID_00000125568430345589191440000009148283102821373338_"  style="overflow:visible;"/>
		</clipPath>
		<path style="clip-path:url(#SVGID_00000177467241306287582740000012070632715320697528_);fill:#01A0C6;" d="M162.2,59.9
			c0-1.6-0.1-3-0.1-4.1h3.5l0.2,1.8h0.1c0.5-0.8,1.8-2.1,4-2.1c2.7,0,4.6,1.8,4.6,5.6v7.7h-4v-7.2c0-1.7-0.6-2.8-2-2.8
			c-1.1,0-1.8,0.8-2.1,1.5c-0.1,0.3-0.1,0.6-0.1,1v7.5h-4V59.9z"/>
	</g>
	<g>
		<defs>
			<rect id="SVGID_00000024706940340953486870000009419131026988751529_" x="78.4" y="6.5" width="273.9" height="170.6"/>
		</defs>
		<clipPath id="SVGID_00000070809475391952033880000006691562470937350821_">
			<use xlink:href="#SVGID_00000024706940340953486870000009419131026988751529_"  style="overflow:visible;"/>
		</clipPath>
		<path style="clip-path:url(#SVGID_00000070809475391952033880000006691562470937350821_);fill:#01A0C6;" d="M105.1,89.9V72h4.7
			l3.7,6.5c1.1,1.9,2.1,4.1,2.9,6.1h0.1c-0.2-2.4-0.3-4.8-0.3-7.5V72h3.7v17.9h-4.2l-3.8-6.9c-1.1-1.9-2.3-4.2-3.1-6.3h-0.1
			c0.1,2.4,0.2,4.9,0.2,7.8v5.4C108.8,89.9,105.1,89.9,105.1,89.9z"/>
	</g>
	<g>
		<defs>
			<rect id="SVGID_00000068640946994022059150000001099814677386053259_" x="78.4" y="6.5" width="273.9" height="170.6"/>
		</defs>
		<clipPath id="SVGID_00000179643646020610478270000015839317344946293665_">
			<use xlink:href="#SVGID_00000068640946994022059150000001099814677386053259_"  style="overflow:visible;"/>
		</clipPath>
		<path style="clip-path:url(#SVGID_00000179643646020610478270000015839317344946293665_);fill:#01A0C6;" d="M128.4,90.2
			c-3.8,0-6.7-2.5-6.7-6.7c0-4.2,2.8-6.9,6.9-6.9c3.9,0,6.6,2.7,6.6,6.7C135.2,88,131.8,90.2,128.4,90.2L128.4,90.2L128.4,90.2z
			 M128.5,87.3c1.6,0,2.6-1.6,2.6-3.9c0-1.9-0.7-3.9-2.6-3.9c-1.9,0-2.7,2-2.7,3.9C125.8,85.6,126.7,87.3,128.5,87.3
			C128.4,87.3,128.5,87.3,128.5,87.3z"/>
	</g>
	<g>
		<defs>
			<rect id="SVGID_00000158024208487969812650000015821886640949700768_" x="78.4" y="6.5" width="273.9" height="170.6"/>
		</defs>
		<clipPath id="SVGID_00000164480950628039675490000015960961074855901072_">
			<use xlink:href="#SVGID_00000158024208487969812650000015821886640949700768_"  style="overflow:visible;"/>
		</clipPath>
		<path style="clip-path:url(#SVGID_00000164480950628039675490000015960961074855901072_);fill:#01A0C6;" d="M136.9,81.2
			c0-1.9,0-3.2-0.1-4.3h3.4l0.2,2.4h0.1c0.7-1.9,2.2-2.7,3.5-2.7c0.4,0,0.6,0,0.8,0.1v3.8c-0.3-0.1-0.7-0.1-1.1-0.1
			c-1.5,0-2.5,0.8-2.8,2c-0.1,0.3-0.1,0.6-0.1,0.9v6.5h-4L136.9,81.2z"/>
	</g>
	<g>
		<defs>
			<rect id="SVGID_00000139996628630642163040000015285555650017800097_" x="78.4" y="6.5" width="273.9" height="170.6"/>
		</defs>
		<clipPath id="SVGID_00000170263485707087709810000010107172917869669778_">
			<use xlink:href="#SVGID_00000139996628630642163040000015285555650017800097_"  style="overflow:visible;"/>
		</clipPath>
		<path style="clip-path:url(#SVGID_00000170263485707087709810000010107172917869669778_);fill:#01A0C6;" d="M146.2,81.1
			c0-1.6-0.1-3-0.1-4.1h3.4l0.2,1.8h0.1c0.6-0.8,1.7-2.1,3.9-2.1c1.7,0,3,0.9,3.5,2.2h0.1c0.5-0.7,1.1-1.2,1.7-1.6
			c0.7-0.4,1.5-0.6,2.5-0.6c2.5,0,4.4,1.7,4.4,5.6v7.6h-3.9v-7c0-1.9-0.6-3-1.9-3c-1,0-1.6,0.6-1.9,1.4c-0.1,0.3-0.1,0.7-0.1,1v7.6
			H154v-7.3c0-1.6-0.6-2.7-1.9-2.7c-1,0-1.6,0.8-1.9,1.4c-0.1,0.3-0.2,0.7-0.2,1v7.5h-3.9V81.1z"/>
	</g>
	<g>
		<defs>
			<rect id="SVGID_00000174560194304394950790000006648741251569167287_" x="78.4" y="6.5" width="273.9" height="170.6"/>
		</defs>
		<clipPath id="SVGID_00000145779923365654649430000006860943754190548405_">
			<use xlink:href="#SVGID_00000174560194304394950790000006648741251569167287_"  style="overflow:visible;"/>
		</clipPath>
		<path style="clip-path:url(#SVGID_00000145779923365654649430000006860943754190548405_);fill:#01A0C6;" d="M178.9,86.8
			c0,1.2,0.1,2.4,0.2,3.1h-3.6l-0.2-1.3h-0.1c-0.8,1-2.2,1.6-3.7,1.6c-2.6,0-4.2-1.9-4.2-4c0-3.4,3-5,7.6-5v-0.2
			c0-0.7-0.4-1.7-2.4-1.7c-1.3,0-2.7,0.5-3.6,1l-0.7-2.6c0.9-0.5,2.7-1.2,5-1.2c4.3,0,5.7,2.5,5.7,5.6L178.9,86.8L178.9,86.8z
			 M175,83.8c-2.1,0-3.8,0.5-3.8,2c0,1,0.7,1.5,1.6,1.5c1,0,1.8-0.7,2.1-1.5c0.1-0.2,0.1-0.5,0.1-0.7V83.8z"/>
	</g>
	<g>
		<defs>
			<rect id="SVGID_00000033343462026470461140000001349968177965831323_" x="78.4" y="6.5" width="273.9" height="170.6"/>
		</defs>
		<clipPath id="SVGID_00000085248251639378123850000018087418932959295876_">
			<use xlink:href="#SVGID_00000033343462026470461140000001349968177965831323_"  style="overflow:visible;"/>
		</clipPath>
		<path style="clip-path:url(#SVGID_00000085248251639378123850000018087418932959295876_);fill:#01A0C6;" d="M181.3,81.1
			c0-1.6-0.1-3-0.1-4.1h3.5l0.2,1.8h0.1c0.5-0.8,1.8-2.1,4-2.1c2.7,0,4.6,1.8,4.6,5.6v7.7h-4v-7.2c0-1.7-0.6-2.8-2-2.8
			c-1.1,0-1.8,0.8-2.1,1.5c-0.1,0.3-0.1,0.6-0.1,1v7.5h-4V81.1z"/>
	</g>
	<g>
		<defs>
			<rect id="SVGID_00000181768851888102564290000004893154561332190593_" x="78.4" y="6.5" width="273.9" height="170.6"/>
		</defs>
		<clipPath id="SVGID_00000021095186032289375460000002057885662994871200_">
			<use xlink:href="#SVGID_00000181768851888102564290000004893154561332190593_"  style="overflow:visible;"/>
		</clipPath>
		<path style="clip-path:url(#SVGID_00000021095186032289375460000002057885662994871200_);fill:#01A0C6;" d="M208.7,71.1V86
			c0,1.5,0.1,3,0.1,3.9h-3.6L205,88h-0.1c-0.8,1.4-2.4,2.2-4.1,2.2c-3.1,0-5.5-2.6-5.5-6.7c0-4.3,2.7-6.9,5.8-6.9
			c1.6,0,2.8,0.6,3.4,1.5h0.1v-7H208.7z M204.6,82.5c0-0.2,0-0.5-0.1-0.7c-0.2-1.1-1.1-2-2.4-2c-1.9,0-2.8,1.6-2.8,3.7
			c0,2.2,1.1,3.5,2.8,3.5c1.2,0,2.1-0.8,2.4-1.9c0.1-0.3,0.1-0.6,0.1-0.9L204.6,82.5L204.6,82.5z"/>
	</g>
	<g>
		<defs>
			<rect id="SVGID_00000053509349357506676450000017155030659736687513_" x="78.4" y="6.5" width="273.9" height="170.6"/>
		</defs>
		<clipPath id="SVGID_00000167394472114713051590000002620154854700814481_">
			<use xlink:href="#SVGID_00000053509349357506676450000017155030659736687513_"  style="overflow:visible;"/>
		</clipPath>
		<path style="clip-path:url(#SVGID_00000167394472114713051590000002620154854700814481_);fill:#01A0C6;" d="M213.1,75.3
			c-1.4,0-2.2-1-2.2-2.1c0-1.2,0.9-2.1,2.3-2.1c1.4,0,2.2,0.9,2.2,2.1C215.4,74.3,214.5,75.3,213.1,75.3L213.1,75.3z M211.1,77h4v13
			h-4V77z"/>
	</g>
	<g>
		<defs>
			<rect id="SVGID_00000036246329715918045990000014995933730034698880_" x="78.4" y="6.5" width="273.9" height="170.6"/>
		</defs>
		<clipPath id="SVGID_00000004533431966939487010000006495380928717632682_">
			<use xlink:href="#SVGID_00000036246329715918045990000014995933730034698880_"  style="overflow:visible;"/>
		</clipPath>
		<path style="clip-path:url(#SVGID_00000004533431966939487010000006495380928717632682_);fill:#01A0C6;" d="M220.7,84.7
			c0.1,1.7,1.8,2.5,3.7,2.5c1.4,0,2.5-0.2,3.6-0.5l0.5,2.7c-1.3,0.6-2.9,0.8-4.7,0.8c-4.4,0-6.9-2.5-6.9-6.6c0-3.3,2.1-6.9,6.6-6.9
			c4.2,0,5.8,3.3,5.8,6.5c0,0.7-0.1,1.3-0.1,1.6L220.7,84.7z M225.4,81.9c0-1-0.4-2.6-2.3-2.6c-1.7,0-2.4,1.6-2.5,2.6H225.4z"/>
	</g>
	<g>
		<defs>
			<rect id="SVGID_00000026870709233961915560000008663037891936620166_" x="78.4" y="6.5" width="273.9" height="170.6"/>
		</defs>
		<clipPath id="SVGID_00000102543322927950515820000012015934017610603936_">
			<use xlink:href="#SVGID_00000026870709233961915560000008663037891936620166_"  style="overflow:visible;"/>
		</clipPath>
		<path style="clip-path:url(#SVGID_00000102543322927950515820000012015934017610603936_);fill:#01A0C6;" d="M118.2,110.6
			c-0.7,0.4-2.4,0.8-4.6,0.8c-6.2,0-9.4-3.9-9.4-9c0-6.1,4.3-9.5,9.7-9.5c2.1,0,3.7,0.4,4.4,0.8l-0.8,3.2c-0.8-0.3-1.9-0.7-3.4-0.7
			c-3.2,0-5.7,1.9-5.7,5.9c0,3.6,2.1,5.8,5.7,5.8c1.3,0,2.6-0.2,3.4-0.6L118.2,110.6z"/>
	</g>
	<g>
		<defs>
			<rect id="SVGID_00000157292422671132057850000006551620754794666641_" x="78.4" y="6.5" width="273.9" height="170.6"/>
		</defs>
		<clipPath id="SVGID_00000173880642272798620050000009815994129592778175_">
			<use xlink:href="#SVGID_00000157292422671132057850000006551620754794666641_"  style="overflow:visible;"/>
		</clipPath>
		<path style="clip-path:url(#SVGID_00000173880642272798620050000009815994129592778175_);fill:#01A0C6;" d="M119.9,102.4
			c0-1.9,0-3.1-0.1-4.3h3.4l0.2,2.4h0.1c0.7-1.9,2.2-2.7,3.5-2.7c0.4,0,0.6,0,0.8,0.1v3.8c-0.3-0.1-0.7-0.1-1.1-0.1
			c-1.5,0-2.5,0.8-2.8,2c-0.1,0.3-0.1,0.6-0.1,0.9v6.5h-4L119.9,102.4z"/>
	</g>
	<g>
		<defs>
			<rect id="SVGID_00000091011304311389503600000015178350766057701001_" x="78.4" y="6.5" width="273.9" height="170.6"/>
		</defs>
		<clipPath id="SVGID_00000003090927174252269330000009983009726207355833_">
			<use xlink:href="#SVGID_00000091011304311389503600000015178350766057701001_"  style="overflow:visible;"/>
		</clipPath>
		<path style="clip-path:url(#SVGID_00000003090927174252269330000009983009726207355833_);fill:#01A0C6;" d="M132.2,105.9
			c0.1,1.7,1.8,2.5,3.7,2.5c1.4,0,2.5-0.2,3.6-0.5l0.5,2.7c-1.3,0.6-2.9,0.8-4.7,0.8c-4.4,0-6.9-2.5-6.9-6.6c0-3.3,2.1-6.9,6.5-6.9
			c4.2,0,5.8,3.2,5.8,6.5c0,0.7-0.1,1.3-0.1,1.6L132.2,105.9z M137,103.1c0-1-0.4-2.6-2.3-2.6c-1.7,0-2.4,1.6-2.5,2.6H137z
			 M139.2,92.6l-3.2,4h-2.8l2.3-4H139.2z"/>
	</g>
	<g>
		<defs>
			<rect id="SVGID_00000142156554178495158270000014757835423520644754_" x="78.4" y="6.5" width="273.9" height="170.6"/>
		</defs>
		<clipPath id="SVGID_00000173162362426851581020000016718299187572417926_">
			<use xlink:href="#SVGID_00000142156554178495158270000014757835423520644754_"  style="overflow:visible;"/>
		</clipPath>
		<path style="clip-path:url(#SVGID_00000173162362426851581020000016718299187572417926_);fill:#01A0C6;" d="M153.1,108
			c0,1.2,0.1,2.4,0.2,3.1h-3.6l-0.2-1.3h-0.1c-0.8,1-2.2,1.6-3.7,1.6c-2.6,0-4.2-1.9-4.2-4c0-3.4,3-5,7.6-5v-0.2
			c0-0.7-0.4-1.7-2.4-1.7c-1.3,0-2.7,0.5-3.6,1l-0.7-2.6c0.9-0.5,2.7-1.2,5-1.2c4.3,0,5.7,2.5,5.7,5.6L153.1,108L153.1,108z
			 M149.2,105c-2.1,0-3.8,0.5-3.8,2c0,1,0.7,1.5,1.6,1.5c1,0,1.8-0.7,2.1-1.5c0.1-0.2,0.1-0.5,0.1-0.7V105z"/>
	</g>
	<g>
		<defs>
			<rect id="SVGID_00000079481950344501299240000015773588577664538017_" x="78.4" y="6.5" width="273.9" height="170.6"/>
		</defs>
		<clipPath id="SVGID_00000110463866638621900950000011264526012303013048_">
			<use xlink:href="#SVGID_00000079481950344501299240000015773588577664538017_"  style="overflow:visible;"/>
		</clipPath>
		<path style="clip-path:url(#SVGID_00000110463866638621900950000011264526012303013048_);fill:#01A0C6;" d="M159.8,94.6v3.5h2.9v3
			h-2.9v4.7c0,1.6,0.4,2.3,1.6,2.3c0.6,0,0.8,0,1.2-0.1l0,3.1c-0.5,0.2-1.5,0.3-2.6,0.3c-1.3,0-2.4-0.4-3.1-1.1
			c-0.7-0.8-1.1-2-1.1-3.8v-5.3h-1.7v-3h1.7v-2.4L159.8,94.6z"/>
	</g>
	<g>
		<defs>
			<rect id="SVGID_00000055686969247544931690000011052928550895998337_" x="78.4" y="6.5" width="273.9" height="170.6"/>
		</defs>
		<clipPath id="SVGID_00000171708941924028832420000011287203769888857787_">
			<use xlink:href="#SVGID_00000055686969247544931690000011052928550895998337_"  style="overflow:visible;"/>
		</clipPath>
		<path style="clip-path:url(#SVGID_00000171708941924028832420000011287203769888857787_);fill:#01A0C6;" d="M166.2,96.5
			c-1.4,0-2.2-1-2.2-2.2c0-1.2,0.9-2.2,2.3-2.2c1.4,0,2.2,0.9,2.3,2.2C168.6,95.5,167.7,96.5,166.2,96.5L166.2,96.5z M164.3,98.2h4
			v13h-4V98.2z"/>
	</g>
	<g>
		<defs>
			<rect id="SVGID_00000132766691489027463550000002032386545552504764_" x="78.4" y="6.5" width="273.9" height="170.6"/>
		</defs>
		<clipPath id="SVGID_00000082339915063676273960000007285803767030482337_">
			<use xlink:href="#SVGID_00000132766691489027463550000002032386545552504764_"  style="overflow:visible;"/>
		</clipPath>
		<path style="clip-path:url(#SVGID_00000082339915063676273960000007285803767030482337_);fill:#01A0C6;" d="M176.7,111.4
			c-3.8,0-6.7-2.5-6.7-6.7c0-4.2,2.8-6.9,6.9-6.9c3.9,0,6.6,2.7,6.6,6.6C183.5,109.2,180.2,111.4,176.7,111.4L176.7,111.4
			L176.7,111.4z M176.8,108.5c1.6,0,2.6-1.6,2.6-3.9c0-1.9-0.7-3.9-2.6-3.9c-1.9,0-2.6,2-2.6,3.9C174.1,106.8,175,108.5,176.8,108.5
			L176.8,108.5L176.8,108.5z"/>
	</g>
	<g>
		<defs>
			<rect id="SVGID_00000117648120550922864390000011062374051784876426_" x="78.4" y="6.5" width="273.9" height="170.6"/>
		</defs>
		<clipPath id="SVGID_00000150072342366728644060000013456491516937895097_">
			<use xlink:href="#SVGID_00000117648120550922864390000011062374051784876426_"  style="overflow:visible;"/>
		</clipPath>
		<path style="clip-path:url(#SVGID_00000150072342366728644060000013456491516937895097_);fill:#01A0C6;" d="M185.2,102.3
			c0-1.6-0.1-3-0.1-4.1h3.5l0.2,1.8h0.1c0.5-0.8,1.8-2.1,4-2.1c2.7,0,4.6,1.8,4.6,5.6v7.7h-4v-7.2c0-1.7-0.6-2.8-2-2.8
			c-1.1,0-1.8,0.8-2.1,1.5c-0.1,0.3-0.1,0.6-0.1,1v7.5h-4L185.2,102.3L185.2,102.3z"/>
	</g>
</g>
</svg>
