<?xml version="1.0" encoding="utf-8"?>
<!-- Generator: Adobe Illustrator 26.3.1, SVG Export Plug-In . SVG Version: 6.00 Build 0)  -->
<svg version="1.1" id="Calque_1" xmlns="http://www.w3.org/2000/svg" xmlns:xlink="http://www.w3.org/1999/xlink" x="0px" y="0px"
	 viewBox="0 0 280 377.8" style="enable-background:new 0 0 280 377.8;" xml:space="preserve">
<style type="text/css">
	.st0{clip-path:url(#SVGID_00000136387667005941637280000010701972361389269380_);fill:#814A84;}
	.st1{clip-path:url(#SVGID_00000016053166789850507530000017638094182787051145_);fill:#FDC300;}
	.st2{clip-path:url(#SVGID_00000044889701892451584360000003747314395837111175_);fill:#009FE3;}
	.st3{clip-path:url(#SVGID_00000130630568048515619470000011896540721130893757_);fill:#FDC300;}
	.st4{clip-path:url(#SVGID_00000062877959431712329090000013120167590497270151_);fill:#EC608A;}
	.st5{clip-path:url(#SVGID_00000110430644673276549070000017617035442418538387_);fill:#009FE3;}
	.st6{clip-path:url(#SVGID_00000094582986190392591440000005811301992827152525_);fill:#EC608A;}
	.st7{clip-path:url(#SVGID_00000110473072560266049170000000611649326787842474_);fill:#EC608A;}
	.st8{clip-path:url(#SVGID_00000127018244772353261910000012749251920010938254_);fill:#009FE3;}
	.st9{clip-path:url(#SVGID_00000150816012104708683590000015923099570669146778_);fill:#814A84;}
	.st10{clip-path:url(#SVGID_00000129898543722988574430000006674720470845003433_);fill:#FDC300;}
	.st11{clip-path:url(#SVGID_00000042011183886665192360000005345114502787182737_);fill:#814A84;}
	.st12{clip-path:url(#SVGID_00000090291413979303062030000011529912518981576893_);fill:#FDC300;}
	.st13{clip-path:url(#SVGID_00000143578011644015752650000014715521041259709630_);fill:#009FE3;}
	.st14{clip-path:url(#SVGID_00000183950854377520919240000015669390942326231969_);fill:#FDC300;}
	.st15{clip-path:url(#SVGID_00000149381684716127733930000007193932419045213623_);fill:#009FE3;}
	.st16{clip-path:url(#SVGID_00000105394400172763898310000000995897061087618705_);fill:#814A84;}
	.st17{clip-path:url(#SVGID_00000052821816382210849110000014638712582395655043_);fill:#EC608A;}
	.st18{fill:#814A84;}
	.st19{fill:#009FE3;}
</style>
<g>
	<g>
		<defs>
			<rect id="SVGID_1_" x="15.7" y="-9" width="280" height="377.8"/>
		</defs>
		<clipPath id="SVGID_00000135659736577976810350000002965194999965497499_">
			<use xlink:href="#SVGID_1_"  style="overflow:visible;"/>
		</clipPath>
		<path style="clip-path:url(#SVGID_00000135659736577976810350000002965194999965497499_);fill:#814A84;" d="M143.7,93.9
			c-3.6,11.7-0.9,22.9,8.1,25.6c9,2.8,19.2-4.5,22.8-16.2c3.6-11.7-1.2-22.3-6.7-25.2C161.9,75,147.3,82.2,143.7,93.9"/>
	</g>
	<g>
		<defs>
			<rect id="SVGID_00000001659075247900225840000010931120875168494779_" x="15.7" y="-9" width="280" height="377.8"/>
		</defs>
		<clipPath id="SVGID_00000153699718959479910580000010744355451990591112_">
			<use xlink:href="#SVGID_00000001659075247900225840000010931120875168494779_"  style="overflow:visible;"/>
		</clipPath>
		<path style="clip-path:url(#SVGID_00000153699718959479910580000010744355451990591112_);fill:#FDC300;" d="M110.5,116.9
			c7,10,17.4,14.8,25.1,9.5c7.7-5.4,8.3-17.8,1.3-27.9c-7-10-18.3-12.8-24-10.3C106.9,90.9,103.6,106.9,110.5,116.9"/>
	</g>
	<g>
		<defs>
			<rect id="SVGID_00000178884934282862158520000002627372219121059752_" x="15.7" y="-9" width="280" height="377.8"/>
		</defs>
		<clipPath id="SVGID_00000164503678405184032670000010468766868484805283_">
			<use xlink:href="#SVGID_00000178884934282862158520000002627372219121059752_"  style="overflow:visible;"/>
		</clipPath>
		<path style="clip-path:url(#SVGID_00000164503678405184032670000010468766868484805283_);fill:#009FE3;" d="M143,158.2
			c6.7-10.3,7.2-21.7-0.7-26.9c-7.9-5.1-19.7-0.9-26.3,9.3c-6.7,10.3-4.9,21.8-0.5,26.1C120.3,171.4,136.3,168.4,143,158.2"/>
	</g>
	<g>
		<defs>
			<rect id="SVGID_00000062895916942355925780000013999715326306951610_" x="15.7" y="-9" width="280" height="377.8"/>
		</defs>
		<clipPath id="SVGID_00000065059632849448733510000012699019220499886505_">
			<use xlink:href="#SVGID_00000062895916942355925780000013999715326306951610_"  style="overflow:visible;"/>
		</clipPath>
		<path style="clip-path:url(#SVGID_00000065059632849448733510000012699019220499886505_);fill:#FDC300;" d="M181.1,137
			c-4-11.6-12.7-19.1-21.6-16c-8.9,3-12.9,14.9-8.9,26.4c4,11.6,14.1,17.3,20.2,16.5C177.5,163.1,185,148.6,181.1,137"/>
	</g>
	<g>
		<defs>
			<rect id="SVGID_00000109017860764618655400000002063613704761863328_" x="15.7" y="-9" width="280" height="377.8"/>
		</defs>
		<clipPath id="SVGID_00000029011987683249799320000012537609777162341310_">
			<use xlink:href="#SVGID_00000109017860764618655400000002063613704761863328_"  style="overflow:visible;"/>
		</clipPath>
		<path style="clip-path:url(#SVGID_00000029011987683249799320000012537609777162341310_);fill:#EC608A;" d="M108.5,143.5
			c7.1-4.2,10.8-10.9,7.7-16.4c-3.2-5.4-11.5-6.5-18.6-2.3c-7.1,4.2-9.5,11.6-8.1,15.5C90.8,144.6,101.4,147.6,108.5,143.5"/>
	</g>
	<g>
		<defs>
			<rect id="SVGID_00000063596006343469479840000005511145716830162563_" x="15.7" y="-9" width="280" height="377.8"/>
		</defs>
		<clipPath id="SVGID_00000050629821395826724610000010488302531241588389_">
			<use xlink:href="#SVGID_00000063596006343469479840000005511145716830162563_"  style="overflow:visible;"/>
		</clipPath>
		<path style="clip-path:url(#SVGID_00000050629821395826724610000010488302531241588389_);fill:#009FE3;" d="M183.2,103.9
			c-7.8,2.7-12.7,8.7-10.6,14.6c2.1,6,10.1,8.6,17.8,5.8c7.8-2.7,11.5-9.6,10.9-13.7C200.7,106.1,191,101.1,183.2,103.9"/>
	</g>
	<g>
		<defs>
			<rect id="SVGID_00000144328051617602412650000003503927740505490821_" x="15.7" y="-9" width="280" height="377.8"/>
		</defs>
		<clipPath id="SVGID_00000168084986658722835360000005761177758294874292_">
			<use xlink:href="#SVGID_00000144328051617602412650000003503927740505490821_"  style="overflow:visible;"/>
		</clipPath>
		<path style="clip-path:url(#SVGID_00000168084986658722835360000005761177758294874292_);fill:#EC608A;" d="M125.8,80.5
			c1.3,8.1,6.2,14.1,12.5,13.1c6.2-1,10.2-8.4,8.9-16.5c-1.3-8.1-7.4-13.1-11.5-13.2C131.1,63.7,124.5,72.4,125.8,80.5"/>
	</g>
	<g>
		<defs>
			<rect id="SVGID_00000093165314394754311190000005212569146772498622_" x="88.4" y="24.6" width="280" height="377.8"/>
		</defs>
		<clipPath id="SVGID_00000115505719309636254430000007199404437632064396_">
			<use xlink:href="#SVGID_00000093165314394754311190000005212569146772498622_"  style="overflow:visible;"/>
		</clipPath>
		<path style="clip-path:url(#SVGID_00000115505719309636254430000007199404437632064396_);fill:#EC608A;" d="M234.2,204.3
			c-0.8-8.2-5.4-14.4-11.7-13.8c-6.3,0.6-10.7,7.8-9.9,16c0.8,8.2,6.6,13.5,10.7,13.9C227.9,220.8,235.1,212.5,234.2,204.3"/>
	</g>
	<g>
		<defs>
			<rect id="SVGID_00000027567172386958041590000016191099124612772248_" x="15.7" y="-9" width="280" height="377.8"/>
		</defs>
		<clipPath id="SVGID_00000053509141783411099890000015898498689704449952_">
			<use xlink:href="#SVGID_00000027567172386958041590000016191099124612772248_"  style="overflow:visible;"/>
		</clipPath>
		<path style="clip-path:url(#SVGID_00000053509141783411099890000015898498689704449952_);fill:#009FE3;" d="M91.7,73
			c7,10,17.4,14.8,25.1,9.5c7.7-5.4,8.3-17.8,1.3-27.9c-7-10-18.3-12.8-24-10.3C88,47.1,84.7,63,91.7,73"/>
	</g>
	<g>
		<defs>
			<rect id="SVGID_00000070806284292351068870000010440438232181626303_" x="15.7" y="-9" width="280" height="377.8"/>
		</defs>
		<clipPath id="SVGID_00000062894016798535690410000005838056583506744742_">
			<use xlink:href="#SVGID_00000070806284292351068870000010440438232181626303_"  style="overflow:visible;"/>
		</clipPath>
		<path style="clip-path:url(#SVGID_00000062894016798535690410000005838056583506744742_);fill:#814A84;" d="M66.3,121.8
			c18.7,3,35.3-3.5,37.6-17.9s-11-28.4-29.7-31.4c-18.7-3-33.9,6.7-37.2,15.7C33.3,98,47.6,118.8,66.3,121.8"/>
	</g>
	<g>
		<defs>
			<rect id="SVGID_00000139992483721464136440000008654839155080493472_" x="15.7" y="-9" width="280" height="377.8"/>
		</defs>
		<clipPath id="SVGID_00000102536234332027663850000005137520239039374753_">
			<use xlink:href="#SVGID_00000139992483721464136440000008654839155080493472_"  style="overflow:visible;"/>
		</clipPath>
		<path style="clip-path:url(#SVGID_00000102536234332027663850000005137520239039374753_);fill:#FDC300;" d="M68.4,158.7
			c11.9-2.9,20.1-10.9,17.9-20s-13.6-14.2-25.5-11.3c-11.9,2.9-18.5,12.4-18.3,18.6C42.8,152.7,56.5,161.6,68.4,158.7"/>
	</g>
	<g>
		<defs>
			<rect id="SVGID_00000049904099232809755770000014696399486357477809_" x="15.7" y="-9" width="280" height="377.8"/>
		</defs>
		<clipPath id="SVGID_00000022558963625864288730000009637005318465217446_">
			<use xlink:href="#SVGID_00000049904099232809755770000014696399486357477809_"  style="overflow:visible;"/>
		</clipPath>
		<path style="clip-path:url(#SVGID_00000022558963625864288730000009637005318465217446_);fill:#814A84;" d="M104.7,200
			c9.5-16.4,9.5-34.2-3.1-41.5c-12.6-7.3-30.5,0-40,16.4c-9.5,16.4-6,34.1,1.2,40.4C70.6,222.1,95.1,216.4,104.7,200"/>
	</g>
	<g>
		<defs>
			<rect id="SVGID_00000140009273011921926820000005618860863029897887_" x="15.7" y="-9" width="280" height="377.8"/>
		</defs>
		<clipPath id="SVGID_00000096744051446452990590000005528879180344436147_">
			<use xlink:href="#SVGID_00000140009273011921926820000005618860863029897887_"  style="overflow:visible;"/>
		</clipPath>
		<path style="clip-path:url(#SVGID_00000096744051446452990590000005528879180344436147_);fill:#FDC300;" d="M142.5,201.2
			c2-12.1-2.2-22.8-11.5-24.3c-9.3-1.5-18.4,7-20.3,19.1c-2,12.1,4.3,21.9,10.1,24.1C127,222.4,140.5,213.2,142.5,201.2"/>
	</g>
	<g>
		<defs>
			<rect id="SVGID_00000175296860884837809560000014583628271441335977_" x="15.7" y="-9" width="280" height="377.8"/>
		</defs>
		<clipPath id="SVGID_00000132768658174086613800000012187099052148280981_">
			<use xlink:href="#SVGID_00000175296860884837809560000014583628271441335977_"  style="overflow:visible;"/>
		</clipPath>
		<path style="clip-path:url(#SVGID_00000132768658174086613800000012187099052148280981_);fill:#009FE3;" d="M189.8,61.1
			c-9.6,7.5-13.9,18.2-8.1,25.6c5.8,7.4,18.3,7.3,27.9-0.2c9.6-7.5,11.7-19,8.9-24.5C215.5,56,199.4,53.5,189.8,61.1"/>
	</g>
	<g>
		<defs>
			<rect id="SVGID_00000073684238606110615210000015589617121445975691_" x="15.7" y="-9" width="280" height="377.8"/>
		</defs>
		<clipPath id="SVGID_00000069387650623686501100000002098506841854637480_">
			<use xlink:href="#SVGID_00000073684238606110615210000015589617121445975691_"  style="overflow:visible;"/>
		</clipPath>
		<path style="clip-path:url(#SVGID_00000069387650623686501100000002098506841854637480_);fill:#FDC300;" d="M139.7,38.4
			c-1.9,18.8,5.5,35,20,36.5c14.5,1.5,27.8-12.6,29.7-31.4c1.9-18.8-8.6-33.5-17.8-36.3C161.6,4.2,141.6,19.6,139.7,38.4"/>
	</g>
	<g>
		<defs>
			<rect id="SVGID_00000127005252936701408320000017382117556728043698_" x="15.7" y="-9" width="280" height="377.8"/>
		</defs>
		<clipPath id="SVGID_00000078743419167478067120000014727845298485834900_">
			<use xlink:href="#SVGID_00000127005252936701408320000017382117556728043698_"  style="overflow:visible;"/>
		</clipPath>
		<path style="clip-path:url(#SVGID_00000078743419167478067120000014727845298485834900_);fill:#009FE3;" d="M209.5,182
			c-10.9-15.5-27.1-22.9-39-14.5c-11.9,8.4-12.7,27.7-1.8,43.2c10.9,15.5,28.5,19.6,37.2,15.8C215.4,222.2,220.4,197.5,209.5,182"/>
	</g>
	<g>
		<defs>
			<rect id="SVGID_00000081616317277495464730000001178197569442933145_" x="15.7" y="-9" width="280" height="377.8"/>
		</defs>
		<clipPath id="SVGID_00000103974029817475919950000009291486963462360968_">
			<use xlink:href="#SVGID_00000081616317277495464730000001178197569442933145_"  style="overflow:visible;"/>
		</clipPath>
		<path style="clip-path:url(#SVGID_00000103974029817475919950000009291486963462360968_);fill:#814A84;" d="M215.9,135.5
			c-10.1-6.8-21.6-7.5-26.9,0.3c-5.2,7.8-1.3,19.6,8.9,26.5c10.1,6.8,21.7,5.3,26.1,0.9C228.8,158.4,226.1,142.3,215.9,135.5"/>
	</g>
	<g>
		<defs>
			<rect id="SVGID_00000052784595082045883300000013876345702468041881_" x="15.7" y="-9" width="280" height="377.8"/>
		</defs>
		<clipPath id="SVGID_00000182528091346782098410000012383829400100884396_">
			<use xlink:href="#SVGID_00000052784595082045883300000013876345702468041881_"  style="overflow:visible;"/>
		</clipPath>
		<path style="clip-path:url(#SVGID_00000182528091346782098410000012383829400100884396_);fill:#EC608A;" d="M233.8,83.2
			c-18.4,4.3-31.3,16.7-28,30.8c3.3,14.2,21,22.1,39.4,17.8c18.4-4.3,28.8-19.1,28.5-28.7C273.3,92.7,252.2,78.8,233.8,83.2"/>
	</g>
</g>
<g>
	<path class="st18" d="M68.8,321.2h1v6.6h3.2v0.8h-4.1C68.8,328.7,68.8,321.2,68.8,321.2z"/>
	<path class="st18" d="M74.2,326.2c0,1.3,0.9,1.9,1.8,1.9c0.7,0,1.1-0.1,1.5-0.3l0.2,0.7c-0.3,0.2-0.9,0.3-1.8,0.3
		c-1.6,0-2.6-1.1-2.6-2.7s1-2.9,2.5-2.9c1.7,0,2.2,1.5,2.2,2.5c0,0.2,0,0.4,0,0.5L74.2,326.2L74.2,326.2z M77,325.5
		c0-0.6-0.3-1.6-1.3-1.6c-1,0-1.4,0.9-1.5,1.6H77z"/>
	<path class="st18" d="M80.9,325c0-0.6,0-1.2,0-1.7h0.9l0,1.1h0c0.2-0.7,0.8-1.2,1.5-1.2c0.1,0,0.2,0,0.3,0v0.9c-0.1,0-0.2,0-0.3,0
		c-0.7,0-1.2,0.5-1.3,1.2c0,0.1,0,0.3,0,0.5v2.9h-1L80.9,325L80.9,325z"/>
	<path class="st18" d="M84.7,326.2c0,1.3,0.9,1.9,1.8,1.9c0.7,0,1.1-0.1,1.5-0.3l0.2,0.7c-0.3,0.2-0.9,0.3-1.8,0.3
		c-1.6,0-2.6-1.1-2.6-2.7s1-2.9,2.5-2.9c1.7,0,2.2,1.5,2.2,2.5c0,0.2,0,0.4,0,0.5L84.7,326.2L84.7,326.2z M87.6,325.5
		c0-0.6-0.3-1.6-1.3-1.6c-1,0-1.4,0.9-1.5,1.6H87.6z M87.8,321l-1.3,1.6h-0.7l1-1.6H87.8z"/>
	<path class="st18" d="M89.3,327.7c0.3,0.2,0.8,0.4,1.3,0.4c0.7,0,1-0.4,1-0.8c0-0.5-0.3-0.7-1-1c-1-0.3-1.4-0.9-1.4-1.5
		c0-0.9,0.7-1.6,1.8-1.6c0.5,0,1,0.2,1.3,0.3l-0.2,0.7c-0.2-0.1-0.6-0.3-1.1-0.3c-0.6,0-0.9,0.3-0.9,0.7c0,0.4,0.3,0.6,1,0.9
		c0.9,0.4,1.4,0.8,1.4,1.6c0,0.9-0.7,1.6-2,1.6c-0.6,0-1.1-0.1-1.5-0.4L89.3,327.7z"/>
	<path class="st18" d="M94,326.2c0,1.3,0.9,1.9,1.8,1.9c0.7,0,1.1-0.1,1.5-0.3l0.2,0.7c-0.3,0.2-0.9,0.3-1.8,0.3
		c-1.6,0-2.6-1.1-2.6-2.7s1-2.9,2.5-2.9c1.7,0,2.2,1.5,2.2,2.5c0,0.2,0,0.4,0,0.5L94,326.2L94,326.2z M96.8,325.5
		c0-0.6-0.3-1.6-1.3-1.6c-1,0-1.4,0.9-1.5,1.6H96.8z"/>
	<path class="st18" d="M101.6,328.7l-0.1-0.7h0c-0.3,0.4-0.9,0.8-1.6,0.8c-1.1,0-1.6-0.8-1.6-1.5c0-1.3,1.2-2,3.2-2v-0.1
		c0-0.4-0.1-1.2-1.2-1.2c-0.5,0-1,0.2-1.4,0.4l-0.2-0.6c0.4-0.3,1.1-0.5,1.8-0.5c1.6,0,2,1.1,2,2.2v2c0,0.5,0,0.9,0.1,1.3
		L101.6,328.7L101.6,328.7z M101.5,325.9c-1.1,0-2.3,0.2-2.3,1.2c0,0.6,0.4,0.9,0.9,0.9c0.7,0,1.1-0.4,1.3-0.9
		c0-0.1,0.1-0.2,0.1-0.3L101.5,325.9L101.5,325.9z"/>
	<path class="st18" d="M108.1,327.2c0,0.6,0,1,0,1.5h-0.9l-0.1-0.9h0c-0.3,0.4-0.8,1-1.8,1c-0.8,0-1.8-0.5-1.8-2.3v-3.1h1v3
		c0,1,0.3,1.7,1.2,1.7c0.7,0,1.1-0.5,1.3-0.9c0.1-0.1,0.1-0.3,0.1-0.5v-3.3h1C108.1,323.3,108.1,327.2,108.1,327.2z"/>
	<path class="st18" d="M116.1,320.8v6.5c0,0.5,0,1,0,1.4h-0.9l0-0.9h0c-0.3,0.6-1,1.1-1.8,1.1c-1.3,0-2.3-1.1-2.3-2.7
		c0-1.8,1.1-2.9,2.4-2.9c0.8,0,1.4,0.4,1.6,0.8h0v-3.2L116.1,320.8L116.1,320.8z M115.1,325.5c0-0.1,0-0.3,0-0.4
		c-0.1-0.6-0.7-1.1-1.4-1.1c-1,0-1.6,0.9-1.6,2.1c0,1.1,0.5,2,1.6,2c0.7,0,1.2-0.4,1.4-1.2c0-0.1,0-0.3,0-0.4
		C115.1,326.4,115.1,325.5,115.1,325.5z"/>
	<path class="st18" d="M117.9,326.2c0,1.3,0.9,1.9,1.8,1.9c0.7,0,1.1-0.1,1.5-0.3l0.2,0.7c-0.3,0.2-0.9,0.3-1.8,0.3
		c-1.6,0-2.6-1.1-2.6-2.7s1-2.9,2.5-2.9c1.7,0,2.2,1.5,2.2,2.5c0,0.2,0,0.4,0,0.5L117.9,326.2L117.9,326.2z M120.8,325.5
		c0-0.6-0.3-1.6-1.3-1.6c-1,0-1.4,0.9-1.5,1.6H120.8z"/>
	<path class="st18" d="M122.4,327.7c0.3,0.2,0.8,0.4,1.3,0.4c0.7,0,1-0.4,1-0.8c0-0.5-0.3-0.7-1-1c-1-0.3-1.4-0.9-1.4-1.5
		c0-0.9,0.7-1.6,1.8-1.6c0.5,0,1,0.2,1.3,0.3l-0.2,0.7c-0.2-0.1-0.6-0.3-1.1-0.3c-0.6,0-0.9,0.3-0.9,0.7c0,0.4,0.3,0.6,1,0.9
		c0.9,0.4,1.4,0.8,1.4,1.6c0,0.9-0.7,1.6-2,1.6c-0.6,0-1.1-0.1-1.5-0.4L122.4,327.7z"/>
	<path class="st18" d="M128.6,325.1c0-0.7,0-1.2,0-1.7h0.9l0,0.9h0c0.4-0.7,1-1,1.9-1c1.3,0,2.3,1.1,2.3,2.7c0,1.9-1.2,2.9-2.4,2.9
		c-0.7,0-1.3-0.3-1.6-0.8h0v2.9h-1L128.6,325.1L128.6,325.1z M129.6,326.5c0,0.1,0,0.3,0,0.4c0.2,0.7,0.8,1.1,1.5,1.1
		c1,0,1.6-0.8,1.6-2.1c0-1.1-0.6-2-1.6-2c-0.7,0-1.3,0.5-1.5,1.2c0,0.1-0.1,0.3-0.1,0.4L129.6,326.5L129.6,326.5z"/>
	<path class="st18" d="M135.2,326.2c0,1.3,0.9,1.9,1.8,1.9c0.7,0,1.1-0.1,1.5-0.3l0.2,0.7c-0.3,0.2-0.9,0.3-1.8,0.3
		c-1.6,0-2.6-1.1-2.6-2.7s1-2.9,2.5-2.9c1.7,0,2.2,1.5,2.2,2.5c0,0.2,0,0.4,0,0.5L135.2,326.2L135.2,326.2z M138,325.5
		c0-0.6-0.3-1.6-1.4-1.6c-1,0-1.4,0.9-1.5,1.6H138z M138.2,321l-1.4,1.6h-0.7l1-1.6H138.2z"/>
	<path class="st18" d="M139.8,325.1c0-0.7,0-1.2,0-1.7h0.9l0,0.9h0c0.4-0.7,1-1,1.9-1c1.3,0,2.3,1.1,2.3,2.7c0,1.9-1.2,2.9-2.4,2.9
		c-0.7,0-1.3-0.3-1.6-0.8h0v2.9h-1L139.8,325.1L139.8,325.1z M140.8,326.5c0,0.1,0,0.3,0,0.4c0.2,0.7,0.8,1.1,1.5,1.1
		c1,0,1.6-0.8,1.6-2.1c0-1.1-0.6-2-1.6-2c-0.7,0-1.3,0.5-1.5,1.2c0,0.1-0.1,0.3-0.1,0.4L140.8,326.5L140.8,326.5z"/>
	<path class="st18" d="M146.9,321.8c0,0.3-0.2,0.6-0.6,0.6c-0.3,0-0.6-0.3-0.6-0.6c0-0.3,0.3-0.6,0.6-0.6
		C146.6,321.2,146.9,321.5,146.9,321.8z M145.8,328.7v-5.4h1v5.4H145.8z"/>
	<path class="st18" d="M148,324.8c0-0.6,0-1,0-1.4h0.9l0.1,0.9h0c0.3-0.5,0.9-1,1.8-1c0.7,0,1.9,0.4,1.9,2.3v3.2h-1v-3.1
		c0-0.9-0.3-1.6-1.2-1.6c-0.6,0-1.1,0.5-1.3,1c0,0.1-0.1,0.3-0.1,0.5v3.2h-1V324.8z"/>
	<path class="st18" d="M154.9,321.8c0,0.3-0.2,0.6-0.6,0.6c-0.3,0-0.6-0.3-0.6-0.6c0-0.3,0.3-0.6,0.6-0.6
		C154.7,321.2,154.9,321.5,154.9,321.8z M153.9,328.7v-5.4h1v5.4H153.9z"/>
	<path class="st18" d="M156.6,326.2c0,1.3,0.9,1.9,1.8,1.9c0.7,0,1.1-0.1,1.5-0.3l0.2,0.7c-0.3,0.2-0.9,0.3-1.8,0.3
		c-1.6,0-2.6-1.1-2.6-2.7s1-2.9,2.5-2.9c1.7,0,2.2,1.5,2.2,2.5c0,0.2,0,0.4,0,0.5L156.6,326.2L156.6,326.2z M159.5,325.5
		c0-0.6-0.3-1.6-1.4-1.6c-1,0-1.4,0.9-1.5,1.6H159.5z M157.9,321l1,1.6h-0.7l-1.4-1.6H157.9z"/>
	<path class="st18" d="M161.3,325c0-0.6,0-1.2,0-1.7h0.9l0,1.1h0c0.2-0.7,0.8-1.2,1.5-1.2c0.1,0,0.2,0,0.3,0v0.9c-0.1,0-0.2,0-0.3,0
		c-0.7,0-1.2,0.5-1.3,1.2c0,0.1,0,0.3,0,0.5v2.9h-1L161.3,325L161.3,325z"/>
	<path class="st18" d="M165.2,326.2c0,1.3,0.9,1.9,1.8,1.9c0.7,0,1.1-0.1,1.5-0.3l0.2,0.7c-0.3,0.2-0.9,0.3-1.8,0.3
		c-1.6,0-2.6-1.1-2.6-2.7s1-2.9,2.5-2.9c1.7,0,2.2,1.5,2.2,2.5c0,0.2,0,0.4,0,0.5L165.2,326.2L165.2,326.2z M168,325.5
		c0-0.6-0.3-1.6-1.4-1.6c-1,0-1.4,0.9-1.5,1.6H168z"/>
	<path class="st18" d="M169.7,327.7c0.3,0.2,0.8,0.4,1.3,0.4c0.7,0,1-0.4,1-0.8c0-0.5-0.3-0.7-1-1c-1-0.3-1.4-0.9-1.4-1.5
		c0-0.9,0.7-1.6,1.8-1.6c0.5,0,1,0.2,1.3,0.3l-0.2,0.7c-0.2-0.1-0.6-0.3-1.1-0.3c-0.6,0-0.9,0.3-0.9,0.7c0,0.4,0.3,0.6,1,0.9
		c0.9,0.4,1.4,0.8,1.4,1.6c0,0.9-0.7,1.6-2,1.6c-0.6,0-1.1-0.1-1.5-0.4L169.7,327.7z"/>
	<path class="st18" d="M176.4,326.2c0,1.3,0.9,1.9,1.8,1.9c0.7,0,1.1-0.1,1.5-0.3l0.2,0.7c-0.3,0.2-0.9,0.3-1.8,0.3
		c-1.6,0-2.6-1.1-2.6-2.7s1-2.9,2.5-2.9c1.7,0,2.2,1.5,2.2,2.5c0,0.2,0,0.4,0,0.5L176.4,326.2L176.4,326.2z M179.3,325.5
		c0-0.6-0.3-1.6-1.4-1.6c-1,0-1.4,0.9-1.5,1.6H179.3z"/>
	<path class="st18" d="M182.3,321.8v1.5h1.4v0.7h-1.4v2.9c0,0.7,0.2,1,0.7,1c0.3,0,0.4,0,0.6-0.1l0,0.7c-0.2,0.1-0.5,0.1-0.9,0.1
		c-0.5,0-0.8-0.1-1.1-0.4c-0.3-0.3-0.4-0.8-0.4-1.4V324h-0.8v-0.7h0.8V322L182.3,321.8z"/>
</g>
<g>
	<path class="st18" d="M68.8,331.9h1v3.3h0c0.2-0.3,0.4-0.5,0.7-0.7c0.3-0.2,0.6-0.3,1-0.3c0.7,0,1.9,0.4,1.9,2.3v3.2h-1v-3.1
		c0-0.9-0.3-1.6-1.2-1.6c-0.6,0-1.1,0.4-1.3,1c-0.1,0.1-0.1,0.3-0.1,0.5v3.2h-1L68.8,331.9L68.8,331.9z"/>
	<path class="st18" d="M79.4,337c0,2-1.4,2.8-2.7,2.8c-1.4,0-2.6-1.1-2.6-2.8c0-1.8,1.2-2.8,2.7-2.8C78.4,334.3,79.4,335.4,79.4,337
		z M75.2,337.1c0,1.2,0.7,2.1,1.6,2.1c0.9,0,1.6-0.9,1.6-2.1c0-0.9-0.5-2.1-1.6-2.1S75.2,336,75.2,337.1z M77.1,332.1l1.1,1.6h-0.8
		l-0.6-1.1h0l-0.6,1.1h-0.7l1-1.6H77.1z"/>
	<path class="st18" d="M81.5,332.8v1.5h1.4v0.7h-1.4v2.9c0,0.7,0.2,1,0.7,1c0.3,0,0.4,0,0.6-0.1l0,0.7c-0.2,0.1-0.5,0.1-0.9,0.1
		c-0.5,0-0.8-0.1-1.1-0.4c-0.3-0.3-0.4-0.8-0.4-1.4v-2.9h-0.8v-0.7h0.8v-1.3L81.5,332.8z"/>
	<path class="st18" d="M84.2,337.2c0,1.3,0.9,1.9,1.8,1.9c0.7,0,1.1-0.1,1.5-0.3l0.2,0.7c-0.3,0.2-0.9,0.3-1.8,0.3
		c-1.6,0-2.6-1.1-2.6-2.7s1-2.9,2.5-2.9c1.7,0,2.2,1.5,2.2,2.5c0,0.2,0,0.4,0,0.5L84.2,337.2L84.2,337.2z M87,336.5
		c0-0.6-0.3-1.6-1.3-1.6c-1,0-1.4,0.9-1.5,1.6H87z"/>
	<path class="st18" d="M88.9,331.9h1v7.9h-1V331.9z"/>
	<path class="st18" d="M91,338.7c0.3,0.2,0.8,0.4,1.3,0.4c0.7,0,1-0.4,1-0.8c0-0.5-0.3-0.7-1-1c-1-0.3-1.4-0.9-1.4-1.5
		c0-0.9,0.7-1.6,1.8-1.6c0.5,0,1,0.2,1.3,0.3l-0.2,0.7c-0.2-0.1-0.6-0.3-1.1-0.3c-0.6,0-0.9,0.3-0.9,0.7c0,0.4,0.3,0.6,1,0.9
		c0.9,0.4,1.4,0.8,1.4,1.6c0,0.9-0.7,1.6-2,1.6c-0.6,0-1.1-0.1-1.5-0.4L91,338.7z"/>
	<path class="st18" d="M101.8,331.9v6.5c0,0.5,0,1,0,1.4H101l0-0.9h0c-0.3,0.6-1,1.1-1.8,1.1c-1.3,0-2.3-1.1-2.3-2.7
		c0-1.8,1.1-2.9,2.4-2.9c0.8,0,1.4,0.4,1.6,0.8h0v-3.2H101.8z M100.9,336.6c0-0.1,0-0.3,0-0.4c-0.1-0.6-0.7-1.1-1.4-1.1
		c-1,0-1.6,0.9-1.6,2.1c0,1.1,0.5,2,1.6,2c0.7,0,1.2-0.4,1.4-1.2c0-0.1,0-0.3,0-0.4C100.9,337.5,100.9,336.6,100.9,336.6z"/>
	<path class="st18" d="M104.3,332.1c-0.3,0.9-0.7,2.1-1,2.6l-0.6,0.1c0.2-0.7,0.5-1.8,0.7-2.6L104.3,332.1z"/>
	<path class="st18" d="M105.6,337.2c0,1.3,0.9,1.9,1.8,1.9c0.7,0,1.1-0.1,1.5-0.3l0.2,0.7c-0.3,0.2-0.9,0.3-1.8,0.3
		c-1.6,0-2.6-1.1-2.6-2.7s1-2.9,2.5-2.9c1.7,0,2.2,1.5,2.2,2.5c0,0.2,0,0.4,0,0.5L105.6,337.2L105.6,337.2z M108.5,336.5
		c0-0.6-0.3-1.6-1.3-1.6c-1,0-1.4,0.9-1.5,1.6H108.5z"/>
	<path class="st18" d="M110.3,335.8c0-0.6,0-1,0-1.4h0.9l0.1,0.9h0c0.3-0.5,0.9-1,1.8-1c0.7,0,1.9,0.4,1.9,2.3v3.2h-1v-3.1
		c0-0.9-0.3-1.6-1.2-1.6c-0.6,0-1.1,0.5-1.3,1c0,0.1-0.1,0.3-0.1,0.5v3.2h-1L110.3,335.8L110.3,335.8z"/>
	<path class="st18" d="M117.3,332.8v1.5h1.4v0.7h-1.4v2.9c0,0.7,0.2,1,0.7,1c0.3,0,0.4,0,0.6-0.1l0,0.7c-0.2,0.1-0.5,0.1-0.9,0.1
		c-0.5,0-0.8-0.1-1.1-0.4c-0.3-0.3-0.4-0.8-0.4-1.4v-2.9h-0.8v-0.7h0.8v-1.3L117.3,332.8z"/>
	<path class="st18" d="M119.4,336c0-0.6,0-1.2,0-1.7h0.9l0,1.1h0c0.2-0.7,0.8-1.2,1.5-1.2c0.1,0,0.2,0,0.3,0v0.9c-0.1,0-0.2,0-0.3,0
		c-0.7,0-1.2,0.5-1.3,1.2c0,0.1,0,0.3,0,0.5v2.9h-1L119.4,336L119.4,336z"/>
	<path class="st18" d="M123.3,337.2c0,1.3,0.9,1.9,1.8,1.9c0.7,0,1.1-0.1,1.5-0.3l0.2,0.7c-0.3,0.2-0.9,0.3-1.8,0.3
		c-1.6,0-2.6-1.1-2.6-2.7s1-2.9,2.5-2.9c1.7,0,2.2,1.5,2.2,2.5c0,0.2,0,0.4,0,0.5L123.3,337.2L123.3,337.2z M126.1,336.5
		c0-0.6-0.3-1.6-1.3-1.6c-1,0-1.4,0.9-1.5,1.6H126.1z"/>
	<path class="st18" d="M127.9,336.1c0-0.7,0-1.2,0-1.7h0.9l0,0.9h0c0.4-0.7,1-1,1.9-1c1.3,0,2.3,1.1,2.3,2.7c0,1.9-1.2,2.9-2.4,2.9
		c-0.7,0-1.3-0.3-1.6-0.8h0v2.9h-1L127.9,336.1L127.9,336.1z M128.9,337.5c0,0.1,0,0.3,0,0.4c0.2,0.7,0.8,1.1,1.5,1.1
		c1,0,1.6-0.8,1.6-2.1c0-1.1-0.6-2-1.6-2c-0.7,0-1.3,0.5-1.5,1.2c0,0.1-0.1,0.3-0.1,0.4L128.9,337.5L128.9,337.5z"/>
	<path class="st18" d="M133.9,336c0-0.6,0-1.2,0-1.7h0.9l0,1.1h0c0.2-0.7,0.8-1.2,1.5-1.2c0.1,0,0.2,0,0.3,0v0.9c-0.1,0-0.2,0-0.3,0
		c-0.7,0-1.2,0.5-1.3,1.2c0,0.1,0,0.3,0,0.5v2.9h-1L133.9,336L133.9,336z"/>
	<path class="st18" d="M138.3,332.9c0,0.3-0.2,0.6-0.6,0.6c-0.3,0-0.6-0.3-0.6-0.6c0-0.3,0.3-0.6,0.6-0.6
		C138.1,332.3,138.3,332.5,138.3,332.9z M137.2,339.7v-5.4h1v5.4H137.2z"/>
	<path class="st18" d="M139.3,338.7c0.3,0.2,0.8,0.4,1.3,0.4c0.7,0,1-0.4,1-0.8c0-0.5-0.3-0.7-1-1c-1-0.3-1.4-0.9-1.4-1.5
		c0-0.9,0.7-1.6,1.8-1.6c0.5,0,1,0.2,1.3,0.3l-0.2,0.7c-0.2-0.1-0.6-0.3-1.1-0.3c-0.6,0-0.9,0.3-0.9,0.7c0,0.4,0.3,0.6,1,0.9
		c0.9,0.4,1.4,0.8,1.4,1.6c0,0.9-0.7,1.6-2,1.6c-0.6,0-1.1-0.1-1.5-0.4L139.3,338.7z"/>
	<path class="st18" d="M144.1,337.2c0,1.3,0.9,1.9,1.8,1.9c0.7,0,1.1-0.1,1.5-0.3l0.2,0.7c-0.3,0.2-0.9,0.3-1.8,0.3
		c-1.6,0-2.6-1.1-2.6-2.7s1-2.9,2.5-2.9c1.7,0,2.2,1.5,2.2,2.5c0,0.2,0,0.4,0,0.5L144.1,337.2L144.1,337.2z M146.9,336.5
		c0-0.6-0.3-1.6-1.4-1.6c-1,0-1.4,0.9-1.5,1.6H146.9z"/>
	<path class="st18" d="M148.6,338.7c0.3,0.2,0.8,0.4,1.3,0.4c0.7,0,1-0.4,1-0.8c0-0.5-0.3-0.7-1-1c-1-0.3-1.4-0.9-1.4-1.5
		c0-0.9,0.7-1.6,1.8-1.6c0.5,0,1,0.2,1.3,0.3l-0.2,0.7c-0.2-0.1-0.6-0.3-1.1-0.3c-0.6,0-0.9,0.3-0.9,0.7c0,0.4,0.3,0.6,1,0.9
		c0.9,0.4,1.4,0.8,1.4,1.6c0,0.9-0.7,1.6-2,1.6c-0.6,0-1.1-0.1-1.5-0.4L148.6,338.7z"/>
	<path class="st18" d="M159.4,331.9v6.5c0,0.5,0,1,0,1.4h-0.9l0-0.9h0c-0.3,0.6-1,1.1-1.8,1.1c-1.3,0-2.3-1.1-2.3-2.7
		c0-1.8,1.1-2.9,2.4-2.9c0.8,0,1.4,0.4,1.6,0.8h0v-3.2H159.4z M158.5,336.6c0-0.1,0-0.3,0-0.4c-0.1-0.6-0.7-1.1-1.4-1.1
		c-1,0-1.6,0.9-1.6,2.1c0,1.1,0.5,2,1.6,2c0.7,0,1.2-0.4,1.4-1.2c0-0.1,0-0.3,0-0.4V336.6z"/>
	<path class="st18" d="M161.3,337.2c0,1.3,0.9,1.9,1.8,1.9c0.7,0,1.1-0.1,1.5-0.3l0.2,0.7c-0.3,0.2-0.9,0.3-1.8,0.3
		c-1.6,0-2.6-1.1-2.6-2.7s1-2.9,2.5-2.9c1.7,0,2.2,1.5,2.2,2.5c0,0.2,0,0.4,0,0.5L161.3,337.2L161.3,337.2z M164.1,336.5
		c0-0.6-0.3-1.6-1.4-1.6c-1,0-1.4,0.9-1.5,1.6H164.1z"/>
	<path class="st18" d="M168,331.9h1v7.9h-1V331.9z"/>
	<path class="st18" d="M173.2,339.7l-0.1-0.7h0c-0.3,0.4-0.9,0.8-1.6,0.8c-1.1,0-1.6-0.8-1.6-1.5c0-1.3,1.2-2,3.2-2v-0.1
		c0-0.4-0.1-1.2-1.2-1.2c-0.5,0-1,0.2-1.4,0.4l-0.2-0.6c0.4-0.3,1.1-0.5,1.8-0.5c1.6,0,2,1.1,2,2.2v2c0,0.5,0,0.9,0.1,1.3
		L173.2,339.7L173.2,339.7z M173.1,337c-1.1,0-2.3,0.2-2.3,1.2c0,0.6,0.4,0.9,0.9,0.9c0.7,0,1.1-0.4,1.3-0.9c0-0.1,0.1-0.2,0.1-0.3
		L173.1,337L173.1,337z"/>
	<path class="st18" d="M183.6,336.5c-0.1-1-0.1-2.3-0.1-3.2h0c-0.3,0.9-0.6,1.8-0.9,2.8l-1.3,3.6h-0.7l-1.2-3.6
		c-0.4-1.1-0.7-2-0.9-2.9h0c0,0.9-0.1,2.2-0.1,3.3l-0.2,3.2h-0.9l0.5-7.5h1.2l1.3,3.6c0.3,0.9,0.6,1.7,0.8,2.5h0
		c0.2-0.8,0.5-1.6,0.8-2.5l1.3-3.6h1.2l0.5,7.5h-0.9L183.6,336.5z"/>
	<path class="st18" d="M186.4,337.2c0,1.3,0.9,1.9,1.8,1.9c0.7,0,1.1-0.1,1.5-0.3l0.2,0.7c-0.3,0.2-0.9,0.3-1.8,0.3
		c-1.6,0-2.6-1.1-2.6-2.7s1-2.9,2.5-2.9c1.7,0,2.2,1.5,2.2,2.5c0,0.2,0,0.4,0,0.5L186.4,337.2L186.4,337.2z M189.2,336.5
		c0-0.6-0.3-1.6-1.4-1.6c-1,0-1.4,0.9-1.5,1.6H189.2z M189.5,332.1l-1.4,1.6h-0.7l1-1.6H189.5z"/>
	<path class="st18" d="M192.2,332.8v1.5h1.4v0.7h-1.4v2.9c0,0.7,0.2,1,0.7,1c0.3,0,0.4,0,0.6-0.1l0,0.7c-0.2,0.1-0.5,0.1-0.9,0.1
		c-0.5,0-0.8-0.1-1.1-0.4c-0.3-0.3-0.4-0.8-0.4-1.4v-2.9h-0.8v-0.7h0.8v-1.3L192.2,332.8z"/>
	<path class="st18" d="M194.4,336c0-0.6,0-1.2,0-1.7h0.9l0,1.1h0c0.2-0.7,0.8-1.2,1.5-1.2c0.1,0,0.2,0,0.3,0v0.9c-0.1,0-0.2,0-0.3,0
		c-0.7,0-1.2,0.5-1.3,1.2c0,0.1,0,0.3,0,0.5v2.9h-1L194.4,336L194.4,336z"/>
	<path class="st18" d="M202.5,337c0,2-1.4,2.8-2.7,2.8c-1.4,0-2.6-1.1-2.6-2.8c0-1.8,1.2-2.8,2.7-2.8
		C201.5,334.3,202.5,335.4,202.5,337z M198.3,337.1c0,1.2,0.7,2.1,1.6,2.1c0.9,0,1.6-0.9,1.6-2.1c0-0.9-0.5-2.1-1.6-2.1
		C198.8,335,198.3,336,198.3,337.1z"/>
	<path class="st18" d="M203.4,336.1c0-0.7,0-1.2,0-1.7h0.9l0,0.9h0c0.4-0.7,1-1,1.9-1c1.3,0,2.3,1.1,2.3,2.7c0,1.9-1.2,2.9-2.4,2.9
		c-0.7,0-1.3-0.3-1.6-0.8h0v2.9h-1V336.1z M204.4,337.5c0,0.1,0,0.3,0,0.4c0.2,0.7,0.8,1.1,1.5,1.1c1,0,1.6-0.8,1.6-2.1
		c0-1.1-0.6-2-1.6-2c-0.7,0-1.3,0.5-1.5,1.2c0,0.1-0.1,0.3-0.1,0.4L204.4,337.5L204.4,337.5z"/>
	<path class="st18" d="M214.2,337c0,2-1.4,2.8-2.7,2.8c-1.4,0-2.6-1.1-2.6-2.8c0-1.8,1.2-2.8,2.7-2.8
		C213.2,334.3,214.2,335.4,214.2,337z M210,337.1c0,1.2,0.7,2.1,1.6,2.1c0.9,0,1.6-0.9,1.6-2.1c0-0.9-0.5-2.1-1.6-2.1
		C210.5,335,210,336,210,337.1z"/>
	<path class="st18" d="M215.1,331.9h1v7.9h-1V331.9z"/>
	<path class="st18" d="M218,337.2c0,1.3,0.9,1.9,1.8,1.9c0.7,0,1.1-0.1,1.5-0.3l0.2,0.7c-0.3,0.2-0.9,0.3-1.8,0.3
		c-1.6,0-2.6-1.1-2.6-2.7s1-2.9,2.5-2.9c1.7,0,2.2,1.5,2.2,2.5c0,0.2,0,0.4,0,0.5L218,337.2L218,337.2z M220.8,336.5
		c0-0.6-0.3-1.6-1.4-1.6c-1,0-1.4,0.9-1.5,1.6H220.8z"/>
</g>
<g>
	<path class="st19" d="M69.4,230.2c1.7-0.3,4.3-0.5,7.2-0.5c3.6,0,6.1,0.5,7.8,1.9c1.5,1.1,2.2,2.8,2.2,5c0,3-2.2,5.1-4.2,5.9v0.1
		c1.7,0.7,2.6,2.2,3.2,4.5c0.7,2.7,1.5,5.9,1.9,6.8H82c-0.4-0.7-1-2.6-1.6-5.6c-0.7-3-1.7-3.8-4-3.9h-1.6v9.5h-5.4V230.2z
		 M74.8,240.5h2.1c2.7,0,4.3-1.4,4.3-3.5c0-2.2-1.5-3.3-4-3.3c-1.3,0-2.1,0.1-2.5,0.2V240.5z"/>
	<path class="st19" d="M97.4,254.3c-5.1,0-9-3.4-9-9s3.7-9.2,9.3-9.2c5.3,0,8.9,3.7,8.9,9C106.6,251.4,102,254.3,97.4,254.3
		L97.4,254.3L97.4,254.3z M97.5,250.4c2.1,0,3.5-2.1,3.5-5.2c0-2.6-1-5.2-3.5-5.2c-2.6,0-3.6,2.6-3.6,5.2
		C93.9,248.2,95.2,250.4,97.5,250.4L97.5,250.4z"/>
	<path class="st19" d="M125.3,248.3c0,2.3,0.1,4.1,0.1,5.6h-4.7l-0.2-2.5h-0.1c-0.7,1.1-2.3,2.9-5.5,2.9c-3.6,0-6.1-2.2-6.1-7.6
		v-10.2h5.4v9.4c0,2.5,0.8,4.1,2.7,4.1c1.5,0,2.4-1,2.7-1.9c0.1-0.3,0.2-0.7,0.2-1.2v-10.4h5.4L125.3,248.3L125.3,248.3z"/>
	<path class="st19" d="M132.8,246.9c0.2,2.3,2.4,3.4,4.9,3.4c1.9,0,3.4-0.2,4.8-0.7l0.7,3.7c-1.8,0.7-4,1.1-6.3,1.1
		c-5.9,0-9.3-3.4-9.3-8.9c0-4.4,2.8-9.3,8.8-9.3c5.6,0,7.8,4.4,7.8,8.7c0,0.9-0.1,1.7-0.2,2.2L132.8,246.9z M139.2,243.2
		c0-1.3-0.6-3.5-3-3.5c-2.3,0-3.2,2.1-3.4,3.5H139.2z"/>
	<path class="st19" d="M146.4,242c0-2.2-0.1-4-0.1-5.6h4.7l0.2,2.4h0.1c0.7-1.1,2.5-2.8,5.4-2.8c3.6,0,6.2,2.4,6.2,7.5v10.3h-5.4
		v-9.7c0-2.2-0.8-3.8-2.7-3.8c-1.5,0-2.4,1-2.8,2c-0.1,0.4-0.2,0.9-0.2,1.4v10.1h-5.4L146.4,242L146.4,242z"/>
</g>
<g>
	<path class="st19" d="M60.8,299.9v-24h6.3l5,8.8c1.4,2.5,2.8,5.5,3.9,8.2h0.1c-0.3-3.2-0.4-6.4-0.4-10.1v-7h5v24H75l-5.1-9.3
		c-1.4-2.6-3-5.7-4.2-8.5h-0.1c0.2,3.2,0.2,6.6,0.2,10.5v7.2H60.8z"/>
	<path class="st19" d="M92.2,300.3c-5.1,0-9-3.4-9-9s3.7-9.2,9.3-9.2c5.3,0,8.9,3.7,8.9,9C101.4,297.4,96.9,300.3,92.2,300.3
		L92.2,300.3z M92.3,296.4c2.1,0,3.5-2.1,3.5-5.2c0-2.6-1-5.2-3.5-5.2c-2.6,0-3.6,2.6-3.6,5.2C88.7,294.1,90,296.4,92.3,296.4
		L92.3,296.4z"/>
	<path class="st19" d="M103.8,288.2c0-2.6,0-4.2-0.1-5.7h4.6l0.2,3.2h0.1c0.9-2.6,3-3.6,4.7-3.6c0.5,0,0.7,0,1.1,0.1v5.1
		c-0.5-0.1-0.9-0.1-1.5-0.1c-2,0-3.4,1-3.7,2.7c-0.1,0.4-0.1,0.7-0.1,1.2v8.8h-5.4L103.8,288.2z"/>
	<path class="st19" d="M116.2,288c0-2.2-0.1-4-0.1-5.6h4.6l0.2,2.4h0.1c0.8-1.1,2.3-2.8,5.3-2.8c2.3,0,4,1.2,4.8,3h0.1
		c0.7-0.9,1.4-1.6,2.3-2.1c1-0.5,2-0.9,3.3-0.9c3.4,0,5.9,2.4,5.9,7.6v10.3h-5.3v-9.5c0-2.5-0.8-4-2.6-4c-1.3,0-2.1,0.9-2.5,1.9
		c-0.1,0.4-0.2,0.9-0.2,1.4v10.2h-5.3v-9.8c0-2.2-0.8-3.7-2.5-3.7c-1.4,0-2.2,1.1-2.5,1.9c-0.2,0.4-0.2,0.9-0.2,1.4v10.1h-5.3
		L116.2,288L116.2,288z"/>
	<path class="st19" d="M160.4,295.7c0,1.6,0.1,3.2,0.3,4.2h-4.9l-0.3-1.7h-0.1c-1.1,1.4-2.9,2.1-5,2.1c-3.5,0-5.6-2.6-5.6-5.4
		c0-4.5,4.1-6.7,10.2-6.7V288c0-0.9-0.5-2.2-3.2-2.2c-1.8,0-3.7,0.6-4.8,1.3l-1-3.5c1.2-0.7,3.6-1.6,6.8-1.6c5.8,0,7.6,3.4,7.6,7.5
		L160.4,295.7L160.4,295.7z M155.1,291.6c-2.9,0-5.1,0.7-5.1,2.7c0,1.4,0.9,2.1,2.1,2.1c1.3,0,2.5-0.9,2.8-2
		c0.1-0.3,0.1-0.6,0.1-0.9V291.6z"/>
	<path class="st19" d="M163.6,288c0-2.2-0.1-4-0.1-5.6h4.7l0.2,2.4h0.1c0.7-1.1,2.5-2.8,5.4-2.8c3.6,0,6.2,2.4,6.2,7.5v10.3h-5.4
		v-9.7c0-2.2-0.8-3.8-2.7-3.8c-1.5,0-2.4,1-2.8,2c-0.1,0.4-0.2,0.9-0.2,1.4v10.1h-5.4L163.6,288L163.6,288z"/>
	<path class="st19" d="M200.4,274.6v20.1c0,2,0.1,4,0.1,5.2h-4.8l-0.2-2.5h-0.1c-1.1,1.9-3.2,2.9-5.5,2.9c-4.1,0-7.5-3.5-7.5-9
		c0-5.9,3.6-9.3,7.8-9.3c2.2,0,3.8,0.8,4.6,2h0.1v-9.5L200.4,274.6L200.4,274.6z M195,289.9c0-0.3,0-0.7-0.1-1
		c-0.3-1.5-1.5-2.6-3.2-2.6c-2.5,0-3.7,2.2-3.7,5c0,2.9,1.5,4.8,3.7,4.8c1.6,0,2.9-1.1,3.2-2.6c0.1-0.4,0.1-0.8,0.1-1.2V289.9z"/>
	<path class="st19" d="M206.4,280.2c-1.8,0-3-1.3-3-2.9c0-1.6,1.2-2.9,3.1-2.9c1.9,0,3,1.2,3,2.9
		C209.5,278.9,208.3,280.2,206.4,280.2L206.4,280.2z M203.7,299.9v-17.4h5.4v17.4H203.7z"/>
	<path class="st19" d="M216.6,292.9c0.2,2.3,2.4,3.4,4.9,3.4c1.9,0,3.4-0.2,4.8-0.7l0.7,3.7c-1.8,0.7-4,1.1-6.3,1.1
		c-5.9,0-9.3-3.4-9.3-8.9c0-4.4,2.8-9.3,8.8-9.3c5.6,0,7.8,4.4,7.8,8.7c0,0.9-0.1,1.7-0.2,2.2L216.6,292.9z M223,289.1
		c0-1.3-0.6-3.5-3-3.5c-2.3,0-3.2,2.1-3.4,3.5H223z"/>
</g>
<g>
	<path class="st19" d="M87,310.3c-1,0.5-3.2,1-6.1,1c-8.3,0-12.6-5.2-12.6-12.1c0-8.2,5.9-12.7,13.1-12.7c2.8,0,5,0.6,5.9,1.1
		l-1.1,4.3c-1.1-0.5-2.6-0.9-4.6-0.9c-4.3,0-7.6,2.6-7.6,8c0,4.8,2.9,7.8,7.7,7.8c1.7,0,3.5-0.3,4.6-0.8L87,310.3z"/>
	<path class="st19" d="M89.3,299.3c0-2.6,0-4.2-0.1-5.7h4.6l0.2,3.2h0.1c0.9-2.6,3-3.6,4.7-3.6c0.5,0,0.7,0,1.1,0.1v5.1
		c-0.5-0.1-0.9-0.1-1.5-0.1c-2,0-3.4,1-3.7,2.7c-0.1,0.4-0.1,0.7-0.1,1.2v8.8h-5.4L89.3,299.3z"/>
	<path class="st19" d="M106,303.9c0.2,2.3,2.4,3.4,4.9,3.4c1.9,0,3.4-0.2,4.8-0.7l0.7,3.7c-1.8,0.7-4,1.1-6.3,1.1
		c-5.9,0-9.3-3.4-9.3-8.9c0-4.4,2.8-9.3,8.8-9.3c5.6,0,7.8,4.4,7.8,8.7c0,0.9-0.1,1.7-0.2,2.2L106,303.9z M112.4,300.2
		c0-1.3-0.6-3.5-3-3.5c-2.3,0-3.2,2.1-3.4,3.5H112.4z M115.4,286l-4.4,5.4h-3.7l3.1-5.4H115.4z"/>
	<path class="st19" d="M134.1,306.8c0,1.6,0.1,3.2,0.3,4.2h-4.9l-0.3-1.7h-0.1c-1.1,1.4-2.9,2.1-5,2.1c-3.5,0-5.6-2.6-5.6-5.4
		c0-4.5,4.1-6.7,10.2-6.7v-0.2c0-0.9-0.5-2.2-3.2-2.2c-1.8,0-3.7,0.6-4.8,1.3l-1-3.5c1.2-0.7,3.6-1.6,6.8-1.6c5.8,0,7.6,3.4,7.6,7.5
		V306.8z M128.9,302.7c-2.9,0-5.1,0.7-5.1,2.7c0,1.4,0.9,2.1,2.1,2.1c1.3,0,2.5-0.9,2.8-2c0.1-0.3,0.1-0.6,0.1-0.9L128.9,302.7
		L128.9,302.7z"/>
	<path class="st19" d="M143.2,288.8v4.7h3.9v4h-3.9v6.4c0,2.1,0.5,3.1,2.1,3.1c0.7,0,1.1,0,1.6-0.1l0,4.1c-0.7,0.2-2,0.5-3.5,0.5
		c-1.7,0-3.2-0.6-4.1-1.5c-1-1-1.5-2.7-1.5-5.2v-7.2h-2.3v-4h2.3v-3.3L143.2,288.8z"/>
	<path class="st19" d="M151.9,291.2c-1.8,0-3-1.3-3-2.9c0-1.6,1.2-2.9,3.1-2.9c1.9,0,3,1.2,3,2.9C155,290,153.8,291.2,151.9,291.2
		L151.9,291.2z M149.2,311v-17.4h5.4V311H149.2z"/>
	<path class="st19" d="M166,311.4c-5.1,0-9-3.4-9-9s3.7-9.2,9.3-9.2c5.3,0,8.9,3.7,8.9,9C175.2,308.4,170.6,311.4,166,311.4
		L166,311.4z M166.1,307.5c2.1,0,3.5-2.1,3.5-5.2c0-2.6-1-5.2-3.5-5.2c-2.6,0-3.6,2.6-3.6,5.2C162.5,305.2,163.7,307.5,166.1,307.5
		L166.1,307.5z"/>
	<path class="st19" d="M177.5,299.1c0-2.2-0.1-4-0.1-5.6h4.7l0.2,2.4h0.1c0.7-1.1,2.5-2.8,5.4-2.8c3.6,0,6.2,2.4,6.2,7.5V311h-5.4
		v-9.7c0-2.2-0.8-3.8-2.7-3.8c-1.5,0-2.4,1-2.8,2c-0.1,0.4-0.2,0.9-0.2,1.4V311h-5.4L177.5,299.1L177.5,299.1z"/>
</g>
</svg>
