<?xml version="1.0" encoding="utf-8"?>
<!-- Generator: Adobe Illustrator 26.3.1, SVG Export Plug-In . SVG Version: 6.00 Build 0)  -->
<svg fill="#01A0C6" version="1.1" id="Calque_1" xmlns="http://www.w3.org/2000/svg" xmlns:xlink="http://www.w3.org/1999/xlink" x="0px" y="0px"
	 viewBox="0 0 700 700" style="enable-background:new 0 0 700 700;" xml:space="preserve">
<path d="M102.6,365.7c3.5,0.1,7-1.3,9.4-3.9c11.2-14.1,22.4-28,34.5-41.2c12.1-13,25.2-24.9,39.2-35.8c19.1-14.7,39.9-26.9,62-36.5
	c18.9-7.8,38.7-13.3,58.9-16.5c2.6-0.3,5.2-0.5,7.9-0.7h0c-25.4,27.1-48,56.9-67.2,88.7c-12.4,20.5-22.7,42.2-31,64.7
	c-8.4,21.8-12.7,44.9-12.8,68.3c0.2,11.6,2.7,23,7.4,33.6c4.6,10.5,11.2,20.1,19.5,28c4.1,3.6,8.5,6.9,13.2,9.8
	c4.6,2.8,9.4,5.1,14.4,6.8c10.6,3.7,21.8,5.3,33,4.9c5.8-0.3,11.5-1.1,17.2-2.4c5.4-1.1,10.7-2.6,15.8-4.7
	c10.6-4.5,20.7-10.1,30.1-16.8c9.2-6.5,18-13.6,26.3-21.2c8.9-8.3,17.1-17.5,24.4-27.3c14.1-17.7,25.7-37.3,34.4-58.1
	c1.8-4.9,3.2-10,4.2-15.1c1.2-5.3,2.2-10.5,3.1-15.8h0c1.9-11.8,2.8-23.8,2.7-35.8c-0.1-11.5-1.3-23-3.6-34.3
	c-2.5-11.4-6.4-22.4-11.6-32.9c-10.2-20.2-25.7-37.2-44.8-49.3c-3.9-2.5-7.9-4.7-12-6.8c11.7-10.6,23.7-20.9,35.9-31l-1.8,1.5
	l0.6-0.4l-1.1,0.8l-0.9,0.7l1.3-1h-0.3l1.1-0.8l1-0.8l1.2-1l-1,0.8l1.3-1.1h0.3l4.2-3.2l-2.1,1.6l-1.1,0.9l-0.7,0.6l-0.6,0.4
	l2.2-1.7l-1,0.7l3.6-2.7l0.4-0.3l0.9-0.7l1.5-1.2l-1.5,1.1l0.8-0.7l4.3-3.3l-2.4,1.9l2.8-2.2l-1.6,1.2l2.7-2.1l0.6-0.4h-0.3l4.9-3.8
	l-0.5,0.4l3.1-2.4l1.6-1.2l-0.6,0.4l-1,0.7l2-1.5l1.3-1l-0.9,0.7l3.9-3l2.7-2.1V160l-2.5,2l12.6-9.7l-3.2,2.5l2.6-2
	c15.5-10.4,30.9-21,46.8-30.9c15.9-9.9,32.1-20,48.3-29.8c-1.5,4.3-3,8.6-4.4,12.9s-2.4,8.6-3.5,12.8c-3.4,13.2-5.3,26.7-5.8,40.3
	c0,4.6,1.8,9.1,5.1,12.3c3.3,3.3,7.7,5.1,12.3,5.1s9.1-1.8,12.3-5.1c3.1-3.4,4.9-7.7,5.1-12.3v-1.9c1.8-10.9,4.3-21.6,7.4-32.1
	c2.5-9.2,5.6-18.1,8.8-27.2h0c3.9-9.9,8.5-19.5,13.8-28.8l5-8.3v0c1.9-3.2,3.6-6.5,5-10c1.3-5.1,0.5-10.6-2.2-15.1
	c-1.8-3-4.4-5.6-7.4-7.4c-3.7-2-7.8-3-12-3.1h-2.1c-2.1,0-4.2,0.2-6.2,0.6h-51.3c-20.3,0.4-40.5,2-60.8,3.6v0
	c-5.7,0.2-11,2.6-15.1,6.6c-4,4-6.2,9.4-6.2,15c0,5.6,2.2,11,6.2,15c4,4.1,9.4,6.3,15.1,6.2c21.6-1.8,43.1-3.3,64.7-4.3
	C520.2,73.9,508,80.9,496,88c-7.3,4.3-14.7,8.4-21.8,13L450,116.8c-4.9,3.2-10,6.3-14.7,9.8c-8.5,6.5-16.8,13-25.6,19.5l-7.8,6v0
	c-0.7,0.5-1.4,1-2.1,1.6c-4,3-8,6-11.9,9.2c-16.1,13.2-31.8,26.8-46.8,41.2c-5.7-0.8-11.4-1.2-17.1-1.3c-11.2,0-22.3,1.2-33.3,3.6
	c-11.4,2.2-22.6,5.3-33.6,9.2c-21.6,7.6-42.3,17.6-61.6,30c-19.3,12.5-37.4,26.8-54,42.8c-17.3,17-33.3,35.4-47.9,54.8
	c-2.4,2.6-3.8,5.9-3.9,9.4C89.8,359.5,95.5,365.4,102.6,365.7L102.6,365.7z M453.9,152.9l-1.1,0.8L453.9,152.9z M454.5,152.4h-0.4
	l0.6-0.4L454.5,152.4z M560.1,65.7v0.6l-0.4-0.5L560.1,65.7z M455.8,151.6h0.3H455.8z M457.5,150.3l-2,1.6L457.5,150.3z
	 M455.7,151.7l-0.6,0.4L455.7,151.7z M441.3,162.9l0.4-0.3l-2.6,2L441.3,162.9z M355.6,236.6l2.4,0.8c8,3.5,15.6,7.9,22.7,13
	c6.5,5.1,12.4,10.9,17.6,17.3c5.2,7,9.7,14.5,13.3,22.4c3.8,9.5,6.5,19.4,8,29.6c1.6,14.9,1.4,29.9-0.4,44.8
	c-1.4,11.7-4.2,23.1-8.1,34.2c-8.1,17.1-18.1,33.3-29.9,48.1c-4.7,6-9.7,11.7-15.1,17.1c-6,6-12.5,11.6-19.2,16.8
	c-9.6,7.4-20,13.7-30.9,18.9c-5.7,2.1-11.7,3.6-17.8,4.5c-5.6,0.5-11.2,0.5-16.8,0c-4.9-0.9-9.8-2.3-14.5-4c-3-1.5-6-3.3-8.7-5.3
	c-3.3-2.8-6.4-5.8-9.3-9.1c-2.7-3.9-5.1-8-7.2-12.3c-1.5-4.1-2.7-8.4-3.5-12.8c-0.7-8.9-0.6-17.9,0.6-26.7
	c3.1-18.6,8.5-36.8,16-54.1c14.4-32.1,32.5-62.3,53.9-90.1C323.1,271.1,338.9,253.3,355.6,236.6L355.6,236.6z"/>
</svg>
